<?xml version="1.0" encoding="UTF-8" standalone="no"?>
<!-- Created with Inkscape (http://www.inkscape.org/) -->

<svg
   xmlns:dc="http://purl.org/dc/elements/1.1/"
   xmlns:cc="http://creativecommons.org/ns#"
   xmlns:rdf="http://www.w3.org/1999/02/22-rdf-syntax-ns#"
   xmlns:svg="http://www.w3.org/2000/svg"
   xmlns="http://www.w3.org/2000/svg"
   xmlns:sodipodi="http://sodipodi.sourceforge.net/DTD/sodipodi-0.dtd"
   xmlns:inkscape="http://www.inkscape.org/namespaces/inkscape"
   width="438.33658"
   height="274.69186"
   id="svg2"
   version="1.1"
   inkscape:version="0.48.4 r9939"
   sodipodi:docname="graph.svg">
  <defs
     id="defs4" />
  <sodipodi:namedview
     id="base"
     pagecolor="#ffffff"
     bordercolor="#666666"
     borderopacity="1.0"
     inkscape:pageopacity="0.0"
     inkscape:pageshadow="2"
     inkscape:zoom="0.98994949"
     inkscape:cx="240.24324"
     inkscape:cy="127.139"
     inkscape:document-units="px"
     inkscape:current-layer="layer1"
     showgrid="false"
     inkscape:window-width="812"
     inkscape:window-height="640"
     inkscape:window-x="49"
     inkscape:window-y="176"
     inkscape:window-maximized="0"
     fit-margin-top="0"
     fit-margin-left="0"
     fit-margin-right="0"
     fit-margin-bottom="0" />
  <metadata
     id="metadata7">
    <rdf:RDF>
      <cc:Work
         rdf:about="">
        <dc:format>image/svg+xml</dc:format>
        <dc:type
           rdf:resource="http://purl.org/dc/dcmitype/StillImage" />
        <dc:title></dc:title>
      </cc:Work>
    </rdf:RDF>
  </metadata>
  <g
     inkscape:label="Calque 1"
     inkscape:groupmode="layer"
     id="layer1"
     transform="translate(-7.6109567,-156.89676)">
    <path
       sodipodi:type="arc"
       style="fill:#ffffff;fill-rule:evenodd;stroke:#000000;stroke-width:1px;stroke-linecap:butt;stroke-linejoin:miter;stroke-opacity:1"
       id="path2989"
       sodipodi:cx="176.78572"
       sodipodi:cy="157.00504"
       sodipodi:rx="39.642857"
       sodipodi:ry="39.642857"
       d="m 216.42858,157.00504 c 0,21.89414 -17.74871,39.64285 -39.64286,39.64285 -21.89414,0 -39.64286,-17.74871 -39.64286,-39.64285 0,-21.89415 17.74872,-39.64286 39.64286,-39.64286 21.79967,0 39.50901,17.60152 39.64212,39.40079"
       sodipodi:start="0"
       sodipodi:end="6.2770791"
       sodipodi:open="true"
       transform="matrix(0.43950177,0,0,0.43950177,53.354575,117.57211)" />
    <path
       sodipodi:type="arc"
       style="fill:#ffffff;fill-rule:evenodd;stroke:#000000;stroke-width:1px;stroke-linecap:butt;stroke-linejoin:miter;stroke-opacity:1"
       id="path2989-1"
       sodipodi:cx="176.78572"
       sodipodi:cy="157.00504"
       sodipodi:rx="39.642857"
       sodipodi:ry="39.642857"
       d="m 216.42858,157.00504 c 0,21.89414 -17.74871,39.64285 -39.64286,39.64285 -21.89414,0 -39.64286,-17.74871 -39.64286,-39.64285 0,-21.89415 17.74872,-39.64286 39.64286,-39.64286 21.79967,0 39.50901,17.60152 39.64212,39.40079"
       sodipodi:start="0"
       sodipodi:end="6.2770791"
       sodipodi:open="true"
       transform="matrix(0.43950177,0,0,0.43950177,144.53593,105.53563)" />
    <path
       sodipodi:type="arc"
       style="fill:#ffffff;fill-rule:evenodd;stroke:#000000;stroke-width:1px;stroke-linecap:butt;stroke-linejoin:miter;stroke-opacity:1"
       id="path2989-1-7"
       sodipodi:cx="176.78572"
       sodipodi:cy="157.00504"
       sodipodi:rx="39.642857"
       sodipodi:ry="39.642857"
       d="m 216.42858,157.00504 c 0,21.89414 -17.74871,39.64285 -39.64286,39.64285 -21.89414,0 -39.64286,-17.74871 -39.64286,-39.64285 0,-21.89415 17.74872,-39.64286 39.64286,-39.64286 21.79967,0 39.50901,17.60152 39.64212,39.40079"
       sodipodi:start="0"
       sodipodi:end="6.2770791"
       sodipodi:open="true"
       transform="matrix(0.43950177,0,0,0.43950177,142.51561,168.16508)" />
    <path
       sodipodi:type="arc"
       style="fill:#ffffff;fill-rule:evenodd;stroke:#000000;stroke-width:1px;stroke-linecap:butt;stroke-linejoin:miter;stroke-opacity:1"
       id="path2989-1-7-4"
       sodipodi:cx="176.78572"
       sodipodi:cy="157.00504"
       sodipodi:rx="39.642857"
       sodipodi:ry="39.642857"
       d="m 216.42858,157.00504 c 0,21.89414 -17.74871,39.64285 -39.64286,39.64285 -21.89414,0 -39.64286,-17.74871 -39.64286,-39.64285 0,-21.89415 17.74872,-39.64286 39.64286,-39.64286 21.79967,0 39.50901,17.60152 39.64212,39.40079"
       sodipodi:start="0"
       sodipodi:end="6.2770791"
       sodipodi:open="true"
       transform="matrix(0.43950177,0,0,0.43950177,-16.078328,160.08386)" />
    <path
       sodipodi:type="arc"
       style="fill:#ffffff;fill-rule:evenodd;stroke:#000000;stroke-width:1px;stroke-linecap:butt;stroke-linejoin:miter;stroke-opacity:1"
       id="path2989-1-7-4-0"
       sodipodi:cx="176.78572"
       sodipodi:cy="157.00504"
       sodipodi:rx="39.642857"
       sodipodi:ry="39.642857"
       d="m 216.42858,157.00504 c 0,21.89414 -17.74871,39.64285 -39.64286,39.64285 -21.89414,0 -39.64286,-17.74871 -39.64286,-39.64285 0,-21.89415 17.74872,-39.64286 39.64286,-39.64286 21.79967,0 39.50901,17.60152 39.64212,39.40079"
       sodipodi:start="0"
       sodipodi:end="6.2770791"
       sodipodi:open="true"
       transform="matrix(0.43950177,0,0,0.43950177,-52.443824,232.81485)" />
    <path
       sodipodi:type="arc"
       style="fill:#ffffff;fill-rule:evenodd;stroke:#000000;stroke-width:1px;stroke-linecap:butt;stroke-linejoin:miter;stroke-opacity:1"
       id="path2989-1-7-9"
       sodipodi:cx="176.78572"
       sodipodi:cy="157.00504"
       sodipodi:rx="39.642857"
       sodipodi:ry="39.642857"
       d="m 216.42858,157.00504 c 0,21.89414 -17.74871,39.64285 -39.64286,39.64285 -21.89414,0 -39.64286,-17.74871 -39.64286,-39.64285 0,-21.89415 17.74872,-39.64286 39.64286,-39.64286 21.79967,0 39.50901,17.60152 39.64212,39.40079"
       sodipodi:start="0"
       sodipodi:end="6.2770791"
       sodipodi:open="true"
       transform="matrix(0.43950177,0,0,0.43950177,84.936921,200.48996)" />
    <path
       sodipodi:type="arc"
       style="fill:#ffffff;fill-rule:evenodd;stroke:#000000;stroke-width:1px;stroke-linecap:butt;stroke-linejoin:miter;stroke-opacity:1"
       id="path2989-1-7-9-4"
       sodipodi:cx="176.78572"
       sodipodi:cy="157.00504"
       sodipodi:rx="39.642857"
       sodipodi:ry="39.642857"
       d="m 216.42858,157.00504 c 0,21.89414 -17.74871,39.64285 -39.64286,39.64285 -21.89414,0 -39.64286,-17.74871 -39.64286,-39.64285 0,-21.89415 17.74872,-39.64286 39.64286,-39.64286 21.79967,0 39.50901,17.60152 39.64212,39.40079"
       sodipodi:start="0"
       sodipodi:end="6.2770791"
       sodipodi:open="true"
       transform="matrix(0.43950177,0,0,0.43950177,36.4496,258.06867)" />
    <path
       sodipodi:type="arc"
       style="fill:#ffffff;fill-rule:evenodd;stroke:#000000;stroke-width:1px;stroke-linecap:butt;stroke-linejoin:miter;stroke-opacity:1"
       id="path2989-1-7-9-4-8"
       sodipodi:cx="176.78572"
       sodipodi:cy="157.00504"
       sodipodi:rx="39.642857"
       sodipodi:ry="39.642857"
       d="m 216.42858,157.00504 c 0,21.89414 -17.74871,39.64285 -39.64286,39.64285 -21.89414,0 -39.64286,-17.74871 -39.64286,-39.64285 0,-21.89415 17.74872,-39.64286 39.64286,-39.64286 21.79967,0 39.50901,17.60152 39.64212,39.40079"
       sodipodi:start="0"
       sodipodi:end="6.2770791"
       sodipodi:open="true"
       transform="matrix(0.43950177,0,0,0.43950177,-11.027569,314.6372)" />
    <path
       sodipodi:type="arc"
       style="fill:#ffffff;fill-rule:evenodd;stroke:#000000;stroke-width:1px;stroke-linecap:butt;stroke-linejoin:miter;stroke-opacity:1"
       id="path2989-1-7-9-4-8-8"
       sodipodi:cx="176.78572"
       sodipodi:cy="157.00504"
       sodipodi:rx="39.642857"
       sodipodi:ry="39.642857"
       d="m 216.42858,157.00504 c 0,21.89414 -17.74871,39.64285 -39.64286,39.64285 -21.89414,0 -39.64286,-17.74871 -39.64286,-39.64285 0,-21.89415 17.74872,-39.64286 39.64286,-39.64286 21.79967,0 39.50901,17.60152 39.64212,39.40079"
       sodipodi:start="0"
       sodipodi:end="6.2770791"
       sodipodi:open="true"
       transform="matrix(0.43950177,0,0,0.43950177,111.20088,288.37324)" />
    <path
       sodipodi:type="arc"
       style="fill:#ffffff;fill-rule:evenodd;stroke:#000000;stroke-width:1px;stroke-linecap:butt;stroke-linejoin:miter;stroke-opacity:1"
       id="path2989-1-7-9-4-8-8-2"
       sodipodi:cx="176.78572"
       sodipodi:cy="157.00504"
       sodipodi:rx="39.642857"
       sodipodi:ry="39.642857"
       d="m 216.42858,157.00504 c 0,21.89414 -17.74871,39.64285 -39.64286,39.64285 -21.89414,0 -39.64286,-17.74871 -39.64286,-39.64285 0,-21.89415 17.74872,-39.64286 39.64286,-39.64286 21.79967,0 39.50901,17.60152 39.64212,39.40079"
       sodipodi:start="0"
       sodipodi:end="6.2770791"
       sodipodi:open="true"
       transform="matrix(0.43950177,0,0,0.43950177,156.65775,341.91132)" />
    <path
       sodipodi:type="arc"
       style="fill:#ffffff;fill-rule:evenodd;stroke:#000000;stroke-width:1px;stroke-linecap:butt;stroke-linejoin:miter;stroke-opacity:1"
       id="path2989-1-7-9-4-8-8-2-4"
       sodipodi:cx="176.78572"
       sodipodi:cy="157.00504"
       sodipodi:rx="39.642857"
       sodipodi:ry="39.642857"
       d="m 216.42858,157.00504 c 0,21.89414 -17.74871,39.64285 -39.64286,39.64285 -21.89414,0 -39.64286,-17.74871 -39.64286,-39.64285 0,-21.89415 17.74872,-39.64286 39.64286,-39.64286 21.79967,0 39.50901,17.60152 39.64212,39.40079"
       sodipodi:start="0"
       sodipodi:end="6.2770791"
       sodipodi:open="true"
       transform="matrix(0.43950177,0,0,0.43950177,186.96233,244.93668)" />
    <path
       sodipodi:type="arc"
       style="fill:#ffffff;fill-rule:evenodd;stroke:#000000;stroke-width:1px;stroke-linecap:butt;stroke-linejoin:miter;stroke-opacity:1"
       id="path2989-1-7-9-4-8-8-2-4-5"
       sodipodi:cx="176.78572"
       sodipodi:cy="157.00504"
       sodipodi:rx="39.642857"
       sodipodi:ry="39.642857"
       d="m 216.42858,157.00504 c 0,21.89414 -17.74871,39.64285 -39.64286,39.64285 -21.89414,0 -39.64286,-17.74871 -39.64286,-39.64285 0,-21.89415 17.74872,-39.64286 39.64286,-39.64286 21.79967,0 39.50901,17.60152 39.64212,39.40079"
       sodipodi:start="0"
       sodipodi:end="6.2770791"
       sodipodi:open="true"
       transform="matrix(0.43950177,0,0,-0.43950177,230.39889,482.94976)" />
    <path
       sodipodi:type="arc"
       style="fill:#ffffff;fill-rule:evenodd;stroke:#000000;stroke-width:1px;stroke-linecap:butt;stroke-linejoin:miter;stroke-opacity:1"
       id="path2989-1-7-9-4-8-8-2-4-5-5"
       sodipodi:cx="176.78572"
       sodipodi:cy="157.00504"
       sodipodi:rx="39.642857"
       sodipodi:ry="39.642857"
       d="m 216.42858,157.00504 c 0,21.89414 -17.74871,39.64285 -39.64286,39.64285 -21.89414,0 -39.64286,-17.74871 -39.64286,-39.64285 0,-21.89415 17.74872,-39.64286 39.64286,-39.64286 21.79967,0 39.50901,17.60152 39.64212,39.40079"
       sodipodi:start="0"
       sodipodi:end="6.2770791"
       sodipodi:open="true"
       transform="matrix(0.43950177,0,0,-0.43950177,284.94712,432.44213)" />
    <path
       sodipodi:type="arc"
       style="fill:#ffffff;fill-rule:evenodd;stroke:#000000;stroke-width:1px;stroke-linecap:butt;stroke-linejoin:miter;stroke-opacity:1"
       id="path2989-1-7-9-4-8-8-2-4-5-5-1"
       sodipodi:cx="176.78572"
       sodipodi:cy="157.00504"
       sodipodi:rx="39.642857"
       sodipodi:ry="39.642857"
       d="m 216.42858,157.00504 c 0,21.89414 -17.74871,39.64285 -39.64286,39.64285 -21.89414,0 -39.64286,-17.74871 -39.64286,-39.64285 0,-21.89415 17.74872,-39.64286 39.64286,-39.64286 21.79967,0 39.50901,17.60152 39.64212,39.40079"
       sodipodi:start="0"
       sodipodi:end="6.2770791"
       sodipodi:open="true"
       transform="matrix(0.43950177,0,0,-0.43950177,350.60704,383.95481)" />
    <path
       sodipodi:type="arc"
       style="fill:#ffffff;fill-rule:evenodd;stroke:#000000;stroke-width:1px;stroke-linecap:butt;stroke-linejoin:miter;stroke-opacity:1"
       id="path2989-1-7-9-4-8-8-2-4-5-5-1-7"
       sodipodi:cx="176.78572"
       sodipodi:cy="157.00504"
       sodipodi:rx="39.642857"
       sodipodi:ry="39.642857"
       d="m 216.42858,157.00504 c 0,21.89414 -17.74871,39.64285 -39.64286,39.64285 -21.89414,0 -39.64286,-17.74871 -39.64286,-39.64285 0,-21.89415 17.74872,-39.64286 39.64286,-39.64286 21.79967,0 39.50901,17.60152 39.64212,39.40079"
       sodipodi:start="0"
       sodipodi:end="6.2770791"
       sodipodi:open="true"
       transform="matrix(0.43950177,0,0,-0.43950177,283.93697,361.73145)" />
    <path
       sodipodi:type="arc"
       style="fill:#ffffff;fill-rule:evenodd;stroke:#000000;stroke-width:1px;stroke-linecap:butt;stroke-linejoin:miter;stroke-opacity:1"
       id="path2989-1-7-9-4-8-8-2-4-5-5-1-7-1"
       sodipodi:cx="176.78572"
       sodipodi:cy="157.00504"
       sodipodi:rx="39.642857"
       sodipodi:ry="39.642857"
       d="m 216.42858,157.00504 c 0,21.89414 -17.74871,39.64285 -39.64286,39.64285 -21.89414,0 -39.64286,-17.74871 -39.64286,-39.64285 0,-21.89415 17.74872,-39.64286 39.64286,-39.64286 21.79967,0 39.50901,17.60152 39.64212,39.40079"
       sodipodi:start="0"
       sodipodi:end="6.2770791"
       sodipodi:open="true"
       transform="matrix(0.43950177,0,0,-0.43950177,323.33292,294.05124)" />
    <path
       sodipodi:type="arc"
       style="fill:#ffffff;fill-rule:evenodd;stroke:#000000;stroke-width:1px;stroke-linecap:butt;stroke-linejoin:miter;stroke-opacity:1"
       id="path2989-1-7-9-4-8-8-2-4-5-5-1-7-1-1"
       sodipodi:cx="176.78572"
       sodipodi:cy="157.00504"
       sodipodi:rx="39.642857"
       sodipodi:ry="39.642857"
       d="m 216.42858,157.00504 c 0,21.89414 -17.74871,39.64285 -39.64286,39.64285 -21.89414,0 -39.64286,-17.74871 -39.64286,-39.64285 0,-21.89415 17.74872,-39.64286 39.64286,-39.64286 21.79967,0 39.50901,17.60152 39.64212,39.40079"
       sodipodi:start="0"
       sodipodi:end="6.2770791"
       sodipodi:open="true"
       transform="matrix(0.43950177,0,0,-0.43950177,223.32782,307.18322)" />
  </g>
</svg>
