<?xml version="1.0" encoding="UTF-8" standalone="no"?>
<!-- Created with Inkscape (http://www.inkscape.org/) -->

<svg
   xmlns:dc="http://purl.org/dc/elements/1.1/"
   xmlns:cc="http://creativecommons.org/ns#"
   xmlns:rdf="http://www.w3.org/1999/02/22-rdf-syntax-ns#"
   xmlns:svg="http://www.w3.org/2000/svg"
   xmlns="http://www.w3.org/2000/svg"
   xmlns:sodipodi="http://sodipodi.sourceforge.net/DTD/sodipodi-0.dtd"
   xmlns:inkscape="http://www.inkscape.org/namespaces/inkscape"
   width="294.375"
   height="395.21875"
   id="svg2"
   version="1.1"
   inkscape:version="0.48.2 r9819"
   sodipodi:docname="map_houses.svg">
  <defs
     id="defs4" />
  <sodipodi:namedview
     id="base"
     pagecolor="#ffffff"
     bordercolor="#666666"
     borderopacity="1.0"
     inkscape:pageopacity="0.0"
     inkscape:pageshadow="2"
     inkscape:zoom="1.4142136"
     inkscape:cx="102.62959"
     inkscape:cy="177.26684"
     inkscape:document-units="px"
     inkscape:current-layer="g3217"
     showgrid="false"
     inkscape:window-width="884"
     inkscape:window-height="727"
     inkscape:window-x="0"
     inkscape:window-y="0"
     inkscape:window-maximized="0"
     fit-margin-top="0"
     fit-margin-left="0"
     fit-margin-right="0"
     fit-margin-bottom="0" />
  <metadata
     id="metadata7">
    <rdf:RDF>
      <cc:Work
         rdf:about="">
        <dc:format>image/svg+xml</dc:format>
        <dc:type
           rdf:resource="http://purl.org/dc/dcmitype/StillImage" />
        <dc:title></dc:title>
      </cc:Work>
    </rdf:RDF>
  </metadata>
  <g
     inkscape:label="Layer 1"
     inkscape:groupmode="layer"
     id="layer1"
     transform="translate(-198.84375,-295.65625)">
    <g
       id="g3217">
      <path
         sodipodi:nodetypes="ccccc"
         inkscape:connector-curvature="0"
         id="path3165"
         d="m 216.82843,429.94797 c 3.07274,-15.22735 7.10118,-31.75123 -0.58579,-63.58579 l 16.75736,-3 c -7.41146,19.53123 -1.86901,40.92865 1,69 z"
         style="opacity:0.57327588;fill:#c8ab37;stroke:#c8ab37;stroke-width:1px;stroke-linecap:butt;stroke-linejoin:miter;stroke-opacity:1" />
      <path
         sodipodi:nodetypes="ccccc"
         inkscape:connector-curvature="0"
         id="path3167"
         d="m 230.51681,347.37672 c 34.83469,-3.57153 85.636,-17.31815 103.9447,-23.33452 l 0.7071,16.97056 c -31.5722,0.2119 -69.02477,12.18454 -103.94469,19.09188 z"
         style="opacity:0.57327588;fill:#c8ab37;stroke:#c8ab37;stroke-width:1px;stroke-linecap:butt;stroke-linejoin:miter;stroke-opacity:1" />
      <path
         sodipodi:nodetypes="ccccc"
         inkscape:connector-curvature="0"
         id="path3169"
         d="m 237.58788,359.39754 c 22.86312,15.32065 42.19071,36.29815 68.58936,45.96194 l -9.19239,13.43503 C 273.65033,401.11684 254.55844,382.02496 226.98128,365.7615 z"
         style="opacity:0.57327588;fill:#c8ab37;stroke:#c8ab37;stroke-width:1px;stroke-linecap:butt;stroke-linejoin:miter;stroke-opacity:1" />
      <rect
         y="344.89771"
         x="206"
         height="30.464466"
         width="35"
         id="rect3115"
         style="fill:#c8b7b7;fill-rule:evenodd;stroke:#916f6f;stroke-width:0.99999988px;stroke-linecap:butt;stroke-linejoin:miter;stroke-opacity:1" />
      <path
         sodipodi:nodetypes="cccc"
         inkscape:connector-curvature="0"
         id="path3119"
         d="m 200,344.36218 22,-23 23,23 z"
         style="opacity:0.87300002;fill:#44aa00;stroke:#338000;stroke-width:1px;stroke-linecap:butt;stroke-linejoin:miter;stroke-opacity:1" />
      <path
         sodipodi:nodetypes="cccccc"
         inkscape:connector-curvature="0"
         id="path3171"
         d="m 330.92597,339.59855 c -3.52459,23.34546 -14.89867,39.54855 -20.50609,60.10407 l 10.6066,5.65686 c 5.53714,-24.16134 13.3223,-46.07468 22.62742,-66.46804 l -9.8995,1.41421 z"
         style="opacity:0.57327588;fill:#c8ab37;stroke:#c8ab37;stroke-width:1px;stroke-linecap:butt;stroke-linejoin:miter;stroke-opacity:1" />
      <path
         sodipodi:nodetypes="ccccc"
         inkscape:connector-curvature="0"
         id="path3191"
         d="m 357.08892,331.82037 c 24.51026,26.81706 73.40896,67.77476 106.06602,87.68124 l -7.77817,9.19239 c -34.6783,-28.3444 -70.20961,-58.39482 -106.77313,-90.50967 z"
         style="opacity:0.57327588;fill:#c8ab37;stroke:#c8ab37;stroke-width:1px;stroke-linecap:butt;stroke-linejoin:miter;stroke-opacity:1" />
      <path
         sodipodi:nodetypes="ccccc"
         inkscape:connector-curvature="0"
         id="path3209"
         d="m 347.18943,345.2554 9.89949,0 c 13.67073,23.95733 27.34147,42.35768 41.0122,62.9325 l -12.02082,6.36397 c -2.48979,-10.87935 -13.79896,-32.04798 -38.89087,-69.29647 z"
         style="opacity:0.57327588;fill:#c8ab37;stroke:#c8ab37;stroke-width:1px;stroke-linecap:butt;stroke-linejoin:miter;stroke-opacity:1" />
      <path
         sodipodi:nodetypes="ccccc"
         inkscape:connector-curvature="0"
         id="path3211"
         d="m 337.28993,343.84119 13.43503,-1.41422 c 5.10402,46.62833 29.93542,103.12036 45.25484,154.85639 l -10.6066,1.41421 c -7.40211,-27.467 -31.9594,-102.96846 -48.08327,-154.85638 z"
         style="opacity:0.57327588;fill:#c8ab37;stroke:#c8ab37;stroke-width:1px;stroke-linecap:butt;stroke-linejoin:miter;stroke-opacity:1" />
      <rect
         style="fill:#c8beb7;fill-rule:evenodd;stroke:#916f6f;stroke-width:0.99999988px;stroke-linecap:butt;stroke-linejoin:miter;stroke-opacity:1"
         id="rect3121"
         width="35"
         height="30.464466"
         x="326"
         y="319.89771" />
      <path
         style="opacity:0.87300002;fill:#44aa00;stroke:#338000;stroke-width:1px;stroke-linecap:butt;stroke-linejoin:miter;stroke-opacity:1"
         d="m 320,319.36218 22,-23 23,23 z"
         id="path3123"
         inkscape:connector-curvature="0"
         sodipodi:nodetypes="cccc" />
      <path
         sodipodi:nodetypes="ccccc"
         inkscape:connector-curvature="0"
         id="path3177"
         d="m 479.4184,444.25035 c -10.61488,40.56009 -26.783,120.94781 -31.81981,161.92745 l -9.89949,-4.24264 c 7.86631,-53.18724 29.70461,-130.82547 23.33452,-159.09902 z"
         style="opacity:0.57327588;fill:#c8ab37;stroke:#c8ab37;stroke-width:1px;stroke-linecap:butt;stroke-linejoin:miter;stroke-opacity:1" />
      <path
         sodipodi:nodetypes="ccccc"
         inkscape:connector-curvature="0"
         id="path3179"
         d="m 410.12194,415.25897 c 21.20813,10.60154 34.41758,10.37596 53.74011,14.14214 l 0,13.43503 c -20.83448,-6.12826 -39.67792,-12.25652 -58.68986,-18.38478 z"
         style="opacity:0.57327588;fill:#c8ab37;stroke:#c8ab37;stroke-width:1px;stroke-linecap:butt;stroke-linejoin:miter;stroke-opacity:1" />
      <path
         sodipodi:nodetypes="ccccc"
         inkscape:connector-curvature="0"
         id="path3181"
         d="m 403.05087,497.28336 c 18.62048,-15.1552 37.24095,-37.56317 55.86143,-57.98276 l 7.07107,7.07107 c -10.80645,10.94704 -16.8522,16.24075 -56.56854,61.51829 z"
         style="opacity:0.57327588;fill:#c8ab37;stroke:#c8ab37;stroke-width:1px;stroke-linecap:butt;stroke-linejoin:miter;stroke-opacity:1" />
      <rect
         y="420.89771"
         x="453"
         height="30.464466"
         width="35"
         id="rect3125"
         style="fill:#c8beb7;fill-rule:evenodd;stroke:#916f6f;stroke-width:0.99999988px;stroke-linecap:butt;stroke-linejoin:miter;stroke-opacity:1" />
      <path
         sodipodi:nodetypes="cccc"
         inkscape:connector-curvature="0"
         id="path3127"
         d="m 447,420.36218 22,-23 23,23 z"
         style="opacity:0.87300002;fill:#44aa00;stroke:#338000;stroke-width:1px;stroke-linecap:butt;stroke-linejoin:miter;stroke-opacity:1" />
      <path
         sodipodi:nodetypes="ccccc"
         inkscape:connector-curvature="0"
         id="path3187"
         d="m 394.56558,433.64375 c 0.73144,18.70971 0.22609,35.00583 -4.24264,53.74011 l 13.43503,3.53554 c -2.08305,-21.35758 -0.008,-41.32903 3.53554,-60.81118 z"
         style="opacity:0.57327588;fill:#c8ab37;stroke:#c8ab37;stroke-width:1px;stroke-linecap:butt;stroke-linejoin:miter;stroke-opacity:1" />
      <rect
         style="fill:#c8beb7;fill-rule:evenodd;stroke:#916f6f;stroke-width:1px;stroke-linecap:butt;stroke-linejoin:miter;stroke-opacity:1"
         id="rect3129"
         width="35"
         height="29.757359"
         x="384"
         y="411.60483" />
      <path
         style="opacity:0.87300002;fill:#44aa00;stroke:#338000;stroke-width:1px;stroke-linecap:butt;stroke-linejoin:miter;stroke-opacity:1"
         d="m 378,410.36218 22,-23 23,23 z"
         id="path3131"
         inkscape:connector-curvature="0"
         sodipodi:nodetypes="cccc" />
      <path
         sodipodi:nodetypes="ccccc"
         inkscape:connector-curvature="0"
         id="path3173"
         d="m 236.17366,439.3006 c 23.85138,3.01021 43.38573,-11.24768 63.63962,-22.62741 l 2.82842,12.72792 c -23.13734,8.34817 -50.31426,14.67655 -62.9325,28.28427 z"
         style="opacity:0.57327588;fill:#c8ab37;stroke:#c8ab37;stroke-width:1px;stroke-linecap:butt;stroke-linejoin:miter;stroke-opacity:1" />
      <path
         sodipodi:nodetypes="ccccc"
         inkscape:connector-curvature="0"
         id="path3189"
         d="m 303.34881,427.98689 c 10.35909,32.16745 14.91463,61.43314 21.92031,91.92389 l 9.19239,-0.70711 c -6.31501,-28.67585 -13.14036,-53.26902 -17.67767,-96.16652 z"
         style="opacity:0.57327588;fill:#c8ab37;stroke:#c8ab37;stroke-width:1px;stroke-linecap:butt;stroke-linejoin:miter;stroke-opacity:1" />
      <path
         sodipodi:nodetypes="ccccc"
         inkscape:connector-curvature="0"
         id="path3193"
         d="m 314.66252,430.81532 c 26.87006,25.45584 49.02607,50.91169 66.46804,76.36753 l 7.77817,-7.07106 c -22.48804,-25.83092 -46.3588,-50.27912 -67.17514,-77.78175 z"
         style="opacity:0.57327588;fill:#c8ab37;stroke:#c8ab37;stroke-width:1px;stroke-linecap:butt;stroke-linejoin:miter;stroke-opacity:1" />
      <rect
         y="404.19061"
         x="293"
         height="31.171574"
         width="35"
         id="rect3133"
         style="fill:#c8beb7;fill-rule:evenodd;stroke:#916f6f;stroke-width:0.99999994px;stroke-linecap:butt;stroke-linejoin:miter;stroke-opacity:1" />
      <path
         sodipodi:nodetypes="cccc"
         inkscape:connector-curvature="0"
         id="path3135"
         d="m 287,404.36218 22,-23 23,23 z"
         style="opacity:0.87300002;fill:#44aa00;stroke:#338000;stroke-width:1px;stroke-linecap:butt;stroke-linejoin:miter;stroke-opacity:1" />
      <path
         sodipodi:nodetypes="ccccc"
         inkscape:connector-curvature="0"
         id="path3175"
         d="m 219.91021,463.34223 c 8.39062,21.63551 4.44634,109.37915 2.12132,167.58431 l 15.55635,-1.41421 c -6.79364,-35.86847 -3.55799,-112.87893 -4.24264,-170.41274 z"
         style="opacity:0.57327588;fill:#c8ab37;stroke:#c8ab37;stroke-width:1px;stroke-linecap:butt;stroke-linejoin:miter;stroke-opacity:1" />
      <path
         sodipodi:nodetypes="ccccc"
         inkscape:connector-curvature="0"
         id="path3207"
         d="m 226.98128,464.75645 c 12.55158,18.56112 19.86892,42.35647 26.87005,66.46803 l 10.60661,-4.94974 c -5.28955,-8.37823 -14.03921,-28.86683 -26.87006,-63.63961 z"
         style="opacity:0.57327588;fill:#c8ab37;stroke:#c8ab37;stroke-width:1px;stroke-linecap:butt;stroke-linejoin:miter;stroke-opacity:1" />
      <path
         sodipodi:nodetypes="ccccc"
         inkscape:connector-curvature="0"
         id="path3213"
         d="m 241.12341,455.56406 c 32.69473,27.85505 64.19878,54.17155 84.85282,66.46804 l -9.19239,11.31371 c -19.7838,-20.38065 -53.78027,-47.86764 -84.14571,-73.53911 z"
         style="opacity:0.57327588;fill:#c8ab37;stroke:#c8ab37;stroke-width:1px;stroke-linecap:butt;stroke-linejoin:miter;stroke-opacity:1" />
      <rect
         style="fill:#c8beb7;fill-rule:evenodd;stroke:#916f6f;stroke-width:0.99999988px;stroke-linecap:butt;stroke-linejoin:miter;stroke-opacity:1"
         id="rect3137"
         width="35"
         height="30.464466"
         x="210"
         y="438.89771" />
      <path
         style="opacity:0.87300002;fill:#44aa00;stroke:#338000;stroke-width:1px;stroke-linecap:butt;stroke-linejoin:miter;stroke-opacity:1"
         d="m 204,438.36218 22,-23 23,23 z"
         id="path3139"
         inkscape:connector-curvature="0"
         sodipodi:nodetypes="cccc" />
      <path
         sodipodi:nodetypes="ccccc"
         inkscape:connector-curvature="0"
         id="path3199"
         d="m 239.7092,625.26969 c 17.75351,-9.83803 49.46408,-46.40059 79.19596,-86.26703 l 11.31371,9.19239 c -24.28439,19.4821 -69.19044,73.41777 -81.31728,90.50967 z"
         style="opacity:0.57327588;fill:#c8ab37;stroke:#c8ab37;stroke-width:1px;stroke-linecap:butt;stroke-linejoin:miter;stroke-opacity:1" />
      <path
         sodipodi:nodetypes="ccccc"
         inkscape:connector-curvature="0"
         id="path3203"
         d="m 242.53763,637.2905 c 17.1697,10.81673 49.06744,20.7671 98.28784,29.69849 l -2.82843,11.31371 c -22.12799,-8.10975 -52.16556,-16.87864 -96.87363,-26.87006 z"
         style="opacity:0.57327588;fill:#c8ab37;stroke:#c8ab37;stroke-width:1px;stroke-linecap:butt;stroke-linejoin:miter;stroke-opacity:1" />
      <rect
         y="630.89771"
         x="214"
         height="30.464466"
         width="35"
         id="rect3141"
         style="fill:#c8beb7;fill-rule:evenodd;stroke:#916f6f;stroke-width:0.99999988px;stroke-linecap:butt;stroke-linejoin:miter;stroke-opacity:1" />
      <path
         sodipodi:nodetypes="ccccc"
         inkscape:connector-curvature="0"
         id="path3201"
         d="m 253.14423,555.97322 c -8.98788,40.9151 -15.35737,50.40956 -22.62742,70.71068 l 9.19239,4.24264 24.04163,-73.5391 z"
         style="opacity:0.57327588;fill:#c8ab37;stroke:#c8ab37;stroke-width:1px;stroke-linecap:butt;stroke-linejoin:miter;stroke-opacity:1" />
      <path
         sodipodi:nodetypes="cccc"
         inkscape:connector-curvature="0"
         id="path3143"
         d="m 208,630.36218 22,-23 23,23 z"
         style="opacity:0.87300002;fill:#44aa00;stroke:#338000;stroke-width:1px;stroke-linecap:butt;stroke-linejoin:miter;stroke-opacity:1" />
      <path
         sodipodi:nodetypes="ccccc"
         inkscape:connector-curvature="0"
         id="path3215"
         d="m 268.70058,534.76002 c 17.07858,6.08811 31.73402,7.18806 55.15433,-10.6066 l -4.24264,23.33452 c -11.45489,-1.51672 -29.52439,-1.90349 -50.91169,2.82843 z"
         style="opacity:0.57327588;fill:#c8ab37;stroke:#c8ab37;stroke-width:1px;stroke-linecap:butt;stroke-linejoin:miter;stroke-opacity:1" />
      <rect
         style="fill:#c8beb7;fill-rule:evenodd;stroke:#916f6f;stroke-width:0.99999994px;stroke-linecap:butt;stroke-linejoin:miter;stroke-opacity:1"
         id="rect3145"
         width="35"
         height="31.171574"
         x="246"
         y="531.19061" />
      <path
         style="opacity:0.87300002;fill:#44aa00;stroke:#338000;stroke-width:1px;stroke-linecap:butt;stroke-linejoin:miter;stroke-opacity:1"
         d="m 240,531.36218 22,-23 23,23 z"
         id="path3147"
         inkscape:connector-curvature="0"
         sodipodi:nodetypes="cccc" />
      <path
         sodipodi:nodetypes="ccccc"
         inkscape:connector-curvature="0"
         id="path3195"
         d="m 338.70415,523.44631 c 17.17405,4.39184 33.50149,0.31771 48.79037,-14.14214 l 0,14.84925 c -18.88947,5.42115 -39.10601,10.8423 -45.25484,16.26345 z"
         style="opacity:0.57327588;fill:#c8ab37;stroke:#c8ab37;stroke-width:1px;stroke-linecap:butt;stroke-linejoin:miter;stroke-opacity:1" />
      <path
         sodipodi:nodetypes="ccccc"
         inkscape:connector-curvature="0"
         id="path3197"
         d="m 325.97623,546.78083 c 12.66303,59.64775 13.04638,77.54457 16.97056,107.48023 l 13.43503,-6.36396 c -13.8327,-33.79653 -14.20261,-69.83643 -17.67767,-105.35891 z"
         style="opacity:0.57327588;fill:#c8ab37;stroke:#c8ab37;stroke-width:1px;stroke-linecap:butt;stroke-linejoin:miter;stroke-opacity:1" />
      <rect
         y="521.19061"
         x="314"
         height="31.171574"
         width="35"
         id="rect3149"
         style="fill:#c8beb7;fill-rule:evenodd;stroke:#916f6f;stroke-width:0.99999994px;stroke-linecap:butt;stroke-linejoin:miter;stroke-opacity:1" />
      <path
         sodipodi:nodetypes="cccc"
         inkscape:connector-curvature="0"
         id="path3151"
         d="m 308,521.36218 22,-23 23,23 z"
         style="opacity:0.87300002;fill:#44aa00;stroke:#338000;stroke-width:1px;stroke-linecap:butt;stroke-linejoin:miter;stroke-opacity:1" />
      <path
         sodipodi:nodetypes="ccccc"
         inkscape:connector-curvature="0"
         id="path3183"
         d="m 383.25188,518.49656 c 2.35988,32.22142 -20.70477,86.23529 -31.1127,129.40054 l 9.19239,3.53554 c 12.80947,-55.25369 23.41026,-93.0424 39.59798,-131.52186 z"
         style="opacity:0.57327588;fill:#c8ab37;stroke:#c8ab37;stroke-width:1px;stroke-linecap:butt;stroke-linejoin:miter;stroke-opacity:1" />
      <path
         sodipodi:nodetypes="ccccc"
         inkscape:connector-curvature="0"
         id="path3185"
         d="m 408.00061,522.0321 c 7.14151,26.0609 18.34029,50.76938 31.1127,74.95332 l -9.19239,7.07106 c -8.68531,-30.54362 -19.6047,-57.36376 -33.94112,-78.48885 z"
         style="opacity:0.57327588;fill:#c8ab37;stroke:#c8ab37;stroke-width:1px;stroke-linecap:butt;stroke-linejoin:miter;stroke-opacity:1" />
      <rect
         style="fill:#c8beb7;fill-rule:evenodd;stroke:#916f6f;stroke-width:0.99999988px;stroke-linecap:butt;stroke-linejoin:miter;stroke-opacity:1"
         id="rect3153"
         width="35"
         height="30.464466"
         x="379"
         y="499.89771" />
      <path
         style="opacity:0.87300002;fill:#44aa00;stroke:#338000;stroke-width:1px;stroke-linecap:butt;stroke-linejoin:miter;stroke-opacity:1"
         d="m 373,499.36218 22,-23 23,23 z"
         id="path3155"
         inkscape:connector-curvature="0"
         sodipodi:nodetypes="cccc" />
      <path
         sodipodi:nodetypes="ccccc"
         inkscape:connector-curvature="0"
         id="path3205"
         d="m 361.33157,663.45345 c 27.55657,-11.32624 45.30148,-28.54246 72.12489,-48.79037 l 4.94974,15.55635 c -25.41067,13.90643 -48.48326,27.81287 -72.12489,41.7193 z"
         style="opacity:0.57327588;fill:#c8ab37;stroke:#c8ab37;stroke-width:1px;stroke-linecap:butt;stroke-linejoin:miter;stroke-opacity:1" />
      <rect
         y="604.19061"
         x="427"
         height="31.171574"
         width="35"
         id="rect3157"
         style="fill:#c8beb7;fill-rule:evenodd;stroke:#916f6f;stroke-width:0.99999994px;stroke-linecap:butt;stroke-linejoin:miter;stroke-opacity:1" />
      <path
         sodipodi:nodetypes="cccc"
         inkscape:connector-curvature="0"
         id="path3159"
         d="m 421,604.36218 22,-23 23,23 z"
         style="opacity:0.87300002;fill:#44aa00;stroke:#338000;stroke-width:1px;stroke-linecap:butt;stroke-linejoin:miter;stroke-opacity:1" />
      <rect
         style="fill:#c8beb7;fill-rule:evenodd;stroke:#916f6f;stroke-width:0.99999988px;stroke-linecap:butt;stroke-linejoin:miter;stroke-opacity:1"
         id="rect3161"
         width="35"
         height="30.464466"
         x="335"
         y="659.89771" />
      <path
         style="opacity:0.803;fill:#d40000;stroke:#aa0000;stroke-width:1px;stroke-linecap:butt;stroke-linejoin:miter;stroke-opacity:1"
         d="m 329,659.36218 22,-23 23,23 z"
         id="path3163"
         inkscape:connector-curvature="0"
         sodipodi:nodetypes="cccc" />
    </g>
  </g>
</svg>
