<?xml version="1.0" encoding="UTF-8" standalone="no"?>
<!-- Created with Inkscape (http://www.inkscape.org/) -->

<svg
   xmlns:dc="http://purl.org/dc/elements/1.1/"
   xmlns:cc="http://creativecommons.org/ns#"
   xmlns:rdf="http://www.w3.org/1999/02/22-rdf-syntax-ns#"
   xmlns:svg="http://www.w3.org/2000/svg"
   xmlns="http://www.w3.org/2000/svg"
   xmlns:sodipodi="http://sodipodi.sourceforge.net/DTD/sodipodi-0.dtd"
   xmlns:inkscape="http://www.inkscape.org/namespaces/inkscape"
   width="335.75217"
   height="641.6875"
   id="svg3011"
   version="1.1"
   inkscape:version="0.48.2 r9819"
   sodipodi:docname="2013-NL-02_solution.svg">
  <defs
     id="defs3013">
    <marker
       inkscape:stockid="Arrow1Mend"
       orient="auto"
       refY="0"
       refX="0"
       id="Arrow1Mend"
       style="overflow:visible">
      <path
         id="path3805"
         d="M 0,0 5,-5 -12.5,0 5,5 0,0 z"
         style="fill-rule:evenodd;stroke:#000000;stroke-width:1pt;marker-start:none"
         transform="matrix(-0.4,0,0,-0.4,-4,0)"
         inkscape:connector-curvature="0" />
    </marker>
  </defs>
  <sodipodi:namedview
     id="base"
     pagecolor="#ffffff"
     bordercolor="#666666"
     borderopacity="1.0"
     inkscape:pageopacity="0.0"
     inkscape:pageshadow="2"
     inkscape:zoom="1"
     inkscape:cx="230.65843"
     inkscape:cy="154.86265"
     inkscape:document-units="px"
     inkscape:current-layer="layer1"
     showgrid="false"
     inkscape:window-width="773"
     inkscape:window-height="724"
     inkscape:window-x="527"
     inkscape:window-y="0"
     inkscape:window-maximized="0"
     fit-margin-top="0"
     fit-margin-left="0"
     fit-margin-right="0"
     fit-margin-bottom="0" />
  <metadata
     id="metadata3016">
    <rdf:RDF>
      <cc:Work
         rdf:about="">
        <dc:format>image/svg+xml</dc:format>
        <dc:type
           rdf:resource="http://purl.org/dc/dcmitype/StillImage" />
        <dc:title />
      </cc:Work>
    </rdf:RDF>
  </metadata>
  <g
     inkscape:label="Layer 1"
     inkscape:groupmode="layer"
     id="layer1"
     transform="translate(-144.34157,-249.78125)">
    <path
       style="fill:#8787de;stroke:#000000;stroke-width:1px;stroke-linecap:butt;stroke-linejoin:miter;stroke-opacity:1"
       d="m 326,332.36218 c -9.07561,20.78734 -142.43973,143.4903 -148,158 -5.56027,14.5097 2.16048,223.20528 10,241 7.83952,17.79472 128.81652,84.39881 138,96 9.18348,11.60119 20,64 20,64 l -0.5,-2 36.5,-4.5 c 0,0 -26.51089,-50.35495 -23,-69.5 3.51089,-19.14505 76.86808,-135.04778 86,-159 9.13192,-23.95222 21.61968,-132.60784 15,-155 -6.61968,-22.39216 -90.04512,-152.65254 -95,-175 -4.95488,-22.34746 13,-69 13,-69 l -38.5,-7 c 0,0 -4.42439,61.21266 -13.5,82 z"
       id="path4999"
       inkscape:connector-curvature="0"
       sodipodi:nodetypes="zzzzccczzzzccz" />
    <path
       sodipodi:type="arc"
       style="fill:#ff0000;fill-opacity:1;fill-rule:nonzero;stroke:#000080;stroke-width:1;stroke-linecap:butt;stroke-linejoin:round;stroke-miterlimit:4;stroke-opacity:1;stroke-dasharray:none;stroke-dashoffset:0"
       id="path3021"
       sodipodi:cx="346"
       sodipodi:cy="338.36218"
       sodipodi:rx="8"
       sodipodi:ry="8"
       d="m 354,338.36218 c 0,4.41828 -3.58172,8 -8,8 -4.41828,0 -8,-3.58172 -8,-8 0,-4.41828 3.58172,-8 8,-8 4.41828,0 8,3.58172 8,8 z" />
    <path
       style="fill:none;stroke:#000000;stroke-width:3;stroke-linecap:butt;stroke-linejoin:miter;stroke-miterlimit:4;stroke-opacity:1;stroke-dasharray:none;marker-end:url(#Arrow1Mend)"
       d="m 355,260.36218 -8,60"
       id="path3791"
       inkscape:connector-curvature="0" />
    <path
       style="fill:none;stroke:#000000;stroke-width:3;stroke-linecap:butt;stroke-linejoin:miter;stroke-miterlimit:4;stroke-opacity:1;stroke-dasharray:none;marker-end:url(#Arrow1Mend)"
       d="m 346,356.36218 -3,92"
       id="path4237"
       inkscape:connector-curvature="0" />
    <path
       style="fill:#ffffff;stroke:#000000;stroke-width:3;stroke-linecap:butt;stroke-linejoin:miter;stroke-miterlimit:4;stroke-opacity:1;stroke-dasharray:none;marker-end:url(#Arrow1Mend)"
       d="m 333,352.36218 -131,146"
       id="path4421"
       inkscape:connector-curvature="0" />
    <path
       style="fill:none;stroke:#000000;stroke-width:3;stroke-linecap:butt;stroke-linejoin:miter;stroke-miterlimit:4;stroke-opacity:1;stroke-dasharray:none;marker-end:url(#Arrow1Mend)"
       d="m 339,462.36218 -130,45"
       id="path4423"
       inkscape:connector-curvature="0" />
    <path
       style="fill:none;stroke:#000000;stroke-width:3;stroke-linecap:butt;stroke-linejoin:miter;stroke-miterlimit:4;stroke-opacity:1;stroke-dasharray:none;marker-end:url(#Arrow1Mend)"
       d="m 198,511.36218 6,197"
       id="path4425"
       inkscape:connector-curvature="0"
       sodipodi:nodetypes="cc" />
    <path
       style="fill:none;stroke:#000000;stroke-width:3;stroke-linecap:butt;stroke-linejoin:miter;stroke-miterlimit:4;stroke-opacity:1;stroke-dasharray:none;marker-end:url(#Arrow1Mend)"
       d="m 210,518.36218 102,129"
       id="path4429"
       inkscape:connector-curvature="0" />
    <path
       style="fill:none;stroke:#000000;stroke-width:3;stroke-linecap:butt;stroke-linejoin:miter;stroke-miterlimit:4;stroke-opacity:1;stroke-dasharray:none;marker-end:url(#Arrow1Mend)"
       d="m 356,558.36218 -32,78"
       id="path4431"
       inkscape:connector-curvature="0" />
    <path
       style="fill:none;stroke:#000000;stroke-width:3;stroke-linecap:butt;stroke-linejoin:miter;stroke-miterlimit:4;stroke-opacity:1;stroke-dasharray:none;marker-end:url(#Arrow1Mend)"
       d="m 312,662.36218 -87,57"
       id="path4433"
       inkscape:connector-curvature="0" />
    <path
       style="fill:none;stroke:#000000;stroke-width:3;stroke-linecap:butt;stroke-linejoin:miter;stroke-miterlimit:4;stroke-opacity:1;stroke-dasharray:none;marker-end:url(#Arrow1Mend)"
       d="m 216,731.36218 113,77"
       id="path4435"
       inkscape:connector-curvature="0" />
    <path
       style="fill:none;stroke:#000000;stroke-width:3;stroke-linecap:butt;stroke-linejoin:miter;stroke-miterlimit:4;stroke-opacity:1;stroke-dasharray:none;marker-end:url(#Arrow1Mend)"
       d="m 323,665.36218 11,126"
       id="path4437"
       inkscape:connector-curvature="0" />
    <path
       style="fill:none;stroke:#000000;stroke-width:3;stroke-linecap:butt;stroke-linejoin:miter;stroke-miterlimit:4;stroke-opacity:1;stroke-dasharray:none;marker-end:url(#Arrow1Mend)"
       d="m 357,461.36218 79,47"
       id="path4439"
       inkscape:connector-curvature="0" />
    <path
       style="fill:none;stroke:#000000;stroke-width:3;stroke-linecap:butt;stroke-linejoin:miter;stroke-miterlimit:4;stroke-opacity:1;stroke-dasharray:none;marker-end:url(#Arrow1Mend)"
       d="m 369,553.36218 56,92"
       id="path4441"
       inkscape:connector-curvature="0" />
    <path
       style="fill:none;stroke:#000000;stroke-width:3;stroke-linecap:butt;stroke-linejoin:miter;stroke-miterlimit:4;stroke-opacity:1;stroke-dasharray:none;marker-end:url(#Arrow1Mend)"
       d="m 443,529.36218 -6,105"
       id="path4443"
       inkscape:connector-curvature="0" />
    <path
       style="fill:none;stroke:#000000;stroke-width:3;stroke-linecap:butt;stroke-linejoin:miter;stroke-miterlimit:4;stroke-opacity:1;stroke-dasharray:none;marker-end:url(#Arrow1Mend)"
       d="m 423,660.36218 -76,130"
       id="path4445"
       inkscape:connector-curvature="0" />
    <path
       style="fill:none;stroke:#000000;stroke-width:3;stroke-linecap:butt;stroke-linejoin:miter;stroke-miterlimit:4;stroke-opacity:1;stroke-dasharray:none;marker-end:url(#Arrow1Mend)"
       d="m 360,345.36218 83,144"
       id="path4447"
       inkscape:connector-curvature="0" />
    <path
       style="fill:none;stroke:#000000;stroke-width:3;stroke-linecap:butt;stroke-linejoin:miter;stroke-miterlimit:4;stroke-opacity:1;stroke-dasharray:none;marker-end:url(#Arrow1Mend)"
       d="m 350,470.36218 12,76"
       id="path4631"
       inkscape:connector-curvature="0"
       sodipodi:nodetypes="cc" />
    <path
       style="fill:none;stroke:#000000;stroke-width:3;stroke-linecap:butt;stroke-linejoin:miter;stroke-miterlimit:4;stroke-opacity:1;stroke-dasharray:none;marker-end:url(#Arrow1Mend)"
       d="m 344,818.36218 16,56"
       id="path4815"
       inkscape:connector-curvature="0" />
    <path
       style="fill:#ffffff;stroke:#000000;stroke-width:1px;stroke-linecap:butt;stroke-linejoin:miter;stroke-opacity:1"
       d="m 333,373.36218 -101,111 c 0,0 81.21753,-22.02209 92,-36 10.78247,-13.97791 9,-75 9,-75 z"
       id="path5003"
       inkscape:connector-curvature="0"
       sodipodi:nodetypes="cczc" />
    <path
       style="fill:#ffffff;stroke:#000000;stroke-width:1px;stroke-linecap:butt;stroke-linejoin:miter;stroke-opacity:1"
       d="m 359,376.36218 56,100 c 0,0 -46.93971,-18.50589 -52,-29 -5.06029,-10.49411 -4,-71 -4,-71 z"
       id="path5005"
       inkscape:connector-curvature="0"
       sodipodi:nodetypes="cczc" />
    <path
       style="fill:#ffffff;stroke:#000000;stroke-width:1px;stroke-linecap:butt;stroke-linejoin:miter;stroke-opacity:1"
       d="m 237,519.36218 c -1.62752,-15.74205 91,-35 91,-35 0,0 14.98317,38.27812 13,62 -1.98317,23.72188 -29,74 -29,74 0,0 -73.37248,-85.25795 -75,-101 z"
       id="path5007"
       inkscape:connector-curvature="0"
       sodipodi:nodetypes="zczcz" />
    <path
       style="fill:#ffffff;stroke:#000000;stroke-width:1px;stroke-linecap:butt;stroke-linejoin:miter;stroke-opacity:1"
       d="m 216,548.36218 c -5.62848,18.31424 -7.0273,144.55489 5,152 12.0273,7.44511 67.29241,-36.55317 72,-46 4.70759,-9.44683 -71.37152,-124.31424 -77,-106 z"
       id="path5009"
       inkscape:connector-curvature="0"
       sodipodi:nodetypes="zzzz" />
    <path
       style="fill:#ffffff;stroke:#000000;stroke-width:1px;stroke-linecap:butt;stroke-linejoin:miter;stroke-opacity:1"
       d="m 365,574.36218 c 0,0 -23.70284,41.34727 -28,72 -4.29716,30.65273 10,108 10,108 0,0 61.51626,-81.84169 64,-102 2.48374,-20.15831 -46,-78 -46,-78 z"
       id="path5011"
       inkscape:connector-curvature="0"
       sodipodi:nodetypes="czczc" />
    <path
       style="fill:#ffffff;stroke:#000000;stroke-width:1.03565884px;stroke-linecap:butt;stroke-linejoin:miter;stroke-opacity:1"
       d="m 307.76316,687.38001 c -15.11128,-8.19863 -58.65722,28.56766 -64.74533,41.98295 -6.08811,13.41529 64.56826,53.20804 72.96434,47.98139 8.39608,-5.22665 6.89227,-81.76571 -8.21901,-89.96434 z"
       id="path5013"
       inkscape:connector-curvature="0"
       sodipodi:nodetypes="zzzz" />
    <path
       style="fill:#ffffff;stroke:#000000;stroke-width:1px;stroke-linecap:butt;stroke-linejoin:miter;stroke-opacity:1"
       d="m 369,488.36218 c 0,0 55.3786,18.84233 61,32 5.6214,13.15767 -8,89 -8,89 0,0 -33.65349,-45.22752 -42,-66 -8.34651,-20.77248 -11,-55 -11,-55 z"
       id="path5015"
       inkscape:connector-curvature="0"
       sodipodi:nodetypes="czczc" />
    <path
       d="m 354,338.36218 c 0,4.41828 -3.58172,8 -8,8 -4.41828,0 -8,-3.58172 -8,-8 0,-4.41828 3.58172,-8 8,-8 4.41828,0 8,3.58172 8,8 z"
       sodipodi:ry="8"
       sodipodi:rx="8"
       sodipodi:cy="338.36218"
       sodipodi:cx="346"
       id="path5021"
       style="fill:#ff0000;fill-opacity:1;fill-rule:nonzero;stroke:#000080;stroke-width:1;stroke-linecap:butt;stroke-linejoin:round;stroke-miterlimit:4;stroke-opacity:1;stroke-dasharray:none;stroke-dashoffset:0"
       sodipodi:type="arc"
       transform="translate(-3,471)" />
    <text
       xml:space="preserve"
       style="font-size:36px;font-style:normal;font-weight:normal;line-height:125%;letter-spacing:0px;word-spacing:0px;fill:#000000;fill-opacity:1;stroke:none;font-family:Sans"
       x="298"
       y="333.36218"
       id="text5391"
       sodipodi:linespacing="125%"><tspan
         sodipodi:role="line"
         id="tspan5393"
         x="298"
         y="333.36218">A</tspan></text>
    <text
       xml:space="preserve"
       style="font-size:36px;font-style:normal;font-weight:normal;line-height:125%;letter-spacing:0px;word-spacing:0px;fill:#000000;fill-opacity:1;stroke:none;font-family:Sans"
       x="373"
       y="822.36218"
       id="text5395"
       sodipodi:linespacing="125%"><tspan
         sodipodi:role="line"
         id="tspan5397"
         x="373"
         y="822.36218">B</tspan></text>
    <path
       style="fill:none;stroke:#ff0000;stroke-width:3.1169498;stroke-linecap:butt;stroke-linejoin:miter;stroke-miterlimit:4;stroke-opacity:1;stroke-dasharray:none"
       d="M 479.44153,428.92065 C 155.84667,574.1582 144.55847,574.80371 144.55847,574.80371"
       id="path5437"
       inkscape:connector-curvature="0" />
  </g>
</svg>
