<?xml version="1.0" encoding="UTF-8" standalone="no"?>
<!-- Created with Inkscape (http://www.inkscape.org/) -->

<svg
   xmlns:dc="http://purl.org/dc/elements/1.1/"
   xmlns:cc="http://creativecommons.org/ns#"
   xmlns:rdf="http://www.w3.org/1999/02/22-rdf-syntax-ns#"
   xmlns:svg="http://www.w3.org/2000/svg"
   xmlns="http://www.w3.org/2000/svg"
   xmlns:sodipodi="http://sodipodi.sourceforge.net/DTD/sodipodi-0.dtd"
   xmlns:inkscape="http://www.inkscape.org/namespaces/inkscape"
   width="166.10815"
   height="109.1875"
   id="svg2"
   version="1.1"
   inkscape:version="0.48.2 r9819"
   sodipodi:docname="monster2.svg">
  <defs
     id="defs4" />
  <sodipodi:namedview
     id="base"
     pagecolor="#ffffff"
     bordercolor="#666666"
     borderopacity="1.0"
     inkscape:pageopacity="0.0"
     inkscape:pageshadow="2"
     inkscape:zoom="0.75575672"
     inkscape:cx="97.027825"
     inkscape:cy="38.044681"
     inkscape:document-units="px"
     inkscape:current-layer="layer1"
     showgrid="false"
     inkscape:snap-nodes="false"
     inkscape:snap-global="false"
     inkscape:window-width="979"
     inkscape:window-height="771"
     inkscape:window-x="138"
     inkscape:window-y="103"
     inkscape:window-maximized="0"
     fit-margin-top="0"
     fit-margin-left="0"
     fit-margin-right="0"
     fit-margin-bottom="0" />
  <metadata
     id="metadata7">
    <rdf:RDF>
      <cc:Work
         rdf:about="">
        <dc:format>image/svg+xml</dc:format>
        <dc:type
           rdf:resource="http://purl.org/dc/dcmitype/StillImage" />
        <dc:title></dc:title>
      </cc:Work>
    </rdf:RDF>
  </metadata>
  <g
     inkscape:label="Layer 1"
     inkscape:groupmode="layer"
     id="layer1"
     transform="translate(-181.64184,-480.625)">
    <g
       id="g3844">
      <path
         sodipodi:nodetypes="ccccccscccccccccccccc"
         inkscape:connector-curvature="0"
         id="path3054"
         d="m 236.58359,505.38621 c -43.71894,-12.18436 -60.47433,22.91693 -50.74356,42.17646 24.63874,-5.22369 40.99792,-19.45469 55.3566,-9.2261 8.45417,7.90809 4.06128,2.63602 -3.29503,10.54411 -7.46185,-1.65561 -47.25451,8.07947 -40.87742,13.08506 9.27672,15.72546 40.29306,12.90935 48.1265,2.73111 5.21706,0.21589 12.15309,-16.50628 22.71917,-13.0592 10.56609,3.44707 1.03799,25.08636 17.48027,26.23935 l 21.36281,-11.86212 c 19.0563,5.27206 11.36788,11.86212 14.88259,19.7702 2.92706,-8.08493 10.03389,-13.66201 21.74724,-16.47517 -4.83272,-2.37199 -9.66544,-8.61431 -14.49816,-19.77022 l -15.62406,11.20447 c -14.30605,-11.20178 -12.46684,-18.05518 -27.87043,-5.27341 -0.035,-15.56154 -6.21659,-25.63541 -13.18013,-34.26837 l 15.15716,-11.86213 -17.13419,2.63603 2.63603,-19.77022 -17.13418,9.2261 -14.16866,-17.46369 z"
         style="fill:#00a58b;fill-opacity:1;stroke:#000000;stroke-width:3;stroke-linecap:butt;stroke-linejoin:miter;stroke-miterlimit:4;stroke-opacity:1;stroke-dasharray:none" />
      <path
         sodipodi:type="arc"
         style="fill:#ffffff;fill-opacity:1;fill-rule:evenodd;stroke:#000000;stroke-width:4.6148715;stroke-linecap:square;stroke-linejoin:round;stroke-miterlimit:4;stroke-opacity:1;stroke-dasharray:none;stroke-dashoffset:0"
         id="path3834"
         sodipodi:cx="89.954483"
         sodipodi:cy="466.83429"
         sodipodi:rx="16.804684"
         sodipodi:ry="20.09972"
         d="m 106.75917,466.83429 c 0,11.10077 -7.523716,20.09972 -16.804687,20.09972 -9.28097,0 -16.804684,-8.99895 -16.804684,-20.09972 0,-11.10077 7.523714,-20.09972 16.804684,-20.09972 9.260624,0 16.775877,8.961 16.804607,20.03738"
         sodipodi:start="0"
         sodipodi:end="6.2800839"
         sodipodi:open="true"
         transform="matrix(0.40868408,0.35296215,-0.32447506,0.45745204,308.46125,265.68295)" />
      <path
         transform="matrix(0.33967391,0.30137848,-0.26968437,0.39059769,309.84957,295.27246)"
         sodipodi:open="true"
         sodipodi:end="6.2800839"
         sodipodi:start="0"
         d="m 106.75917,466.83429 c 0,11.10077 -7.523716,20.09972 -16.804687,20.09972 -9.28097,0 -16.804684,-8.99895 -16.804684,-20.09972 0,-11.10077 7.523714,-20.09972 16.804684,-20.09972 9.260624,0 16.775877,8.961 16.804607,20.03738"
         sodipodi:ry="20.09972"
         sodipodi:rx="16.804684"
         sodipodi:cy="466.83429"
         sodipodi:cx="89.954483"
         id="path3836"
         style="fill:#ffffff;fill-opacity:1;fill-rule:evenodd;stroke:#000000;stroke-width:6.48577929;stroke-linecap:square;stroke-linejoin:round;stroke-miterlimit:4;stroke-opacity:1;stroke-dasharray:none;stroke-dashoffset:0"
         sodipodi:type="arc" />
      <path
         transform="matrix(0.66228649,0,0,0.78400134,67.203143,107.62066)"
         sodipodi:open="true"
         sodipodi:end="6.2800839"
         sodipodi:start="0"
         d="m 201.6562,511.97629 c 0,1.45584 -2.06533,2.63603 -4.61305,2.63603 -2.54772,0 -4.61305,-1.18019 -4.61305,-2.63603 0,-1.45584 2.06533,-2.63603 4.61305,-2.63603 2.54213,0 4.60515,1.17521 4.61303,2.62785"
         sodipodi:ry="2.6360288"
         sodipodi:rx="4.6130505"
         sodipodi:cy="511.97629"
         sodipodi:cx="197.04315"
         id="path3838"
         style="fill:#000000;fill-opacity:1;fill-rule:evenodd;stroke:#000000;stroke-width:3;stroke-linecap:square;stroke-linejoin:round;stroke-miterlimit:4;stroke-opacity:1;stroke-dasharray:none;stroke-dashoffset:0"
         sodipodi:type="arc" />
      <path
         sodipodi:type="arc"
         style="fill:#000000;fill-opacity:1;fill-rule:evenodd;stroke:#000000;stroke-width:3;stroke-linecap:square;stroke-linejoin:round;stroke-miterlimit:4;stroke-opacity:1;stroke-dasharray:none;stroke-dashoffset:0"
         id="path3840"
         sodipodi:cx="197.04315"
         sodipodi:cy="511.97629"
         sodipodi:rx="4.6130505"
         sodipodi:ry="2.6360288"
         d="m 201.6562,511.97629 c 0,1.45584 -2.06533,2.63603 -4.61305,2.63603 -2.54772,0 -4.61305,-1.18019 -4.61305,-2.63603 0,-1.45584 2.06533,-2.63603 4.61305,-2.63603 2.54213,0 4.60515,1.17521 4.61303,2.62785"
         sodipodi:start="0"
         sodipodi:end="6.2800839"
         sodipodi:open="true"
         transform="matrix(0.66228649,0,0,0.78400134,86.973359,102.3486)" />
      <path
         inkscape:connector-curvature="0"
         id="path3842"
         d="m 194.40712,545.58564 c 7.24908,11.20313 7.24908,11.20313 7.24908,11.20313 l 1.31802,-13.83916 8.56709,11.20313 0.65901,-14.49816 11.20312,10.54411 1.31802,-15.81617 11.20312,14.49816 0,-12.52114 0,0"
         style="fill:none;stroke:#000000;stroke-width:3;stroke-linecap:butt;stroke-linejoin:miter;stroke-miterlimit:4;stroke-opacity:1;stroke-dasharray:none" />
    </g>
  </g>
</svg>
