<?xml version="1.0" encoding="UTF-8" standalone="no"?>
<!-- Created with Inkscape (http://www.inkscape.org/) -->

<svg
   xmlns:dc="http://purl.org/dc/elements/1.1/"
   xmlns:cc="http://creativecommons.org/ns#"
   xmlns:rdf="http://www.w3.org/1999/02/22-rdf-syntax-ns#"
   xmlns:svg="http://www.w3.org/2000/svg"
   xmlns="http://www.w3.org/2000/svg"
   xmlns:sodipodi="http://sodipodi.sourceforge.net/DTD/sodipodi-0.dtd"
   xmlns:inkscape="http://www.inkscape.org/namespaces/inkscape"
   id="svg2"
   sodipodi:docname="FishBlack.svg"
   xml:space="preserve"
   sodipodi:version="0.32"
   version="1.0"
   inkscape:output_extension="org.inkscape.output.svg.inkscape"
   inkscape:version="0.92.3 (2405546, 2018-03-11)"
   viewBox="-0.628 -0.612 491.673 421.89136"
   width="491.673"
   height="421.89136"><defs
   id="defs10" /><sodipodi:namedview
   id="base"
   bordercolor="#666666"
   inkscape:pageshadow="2"
   guidetolerance="10.0"
   pagecolor="#ffffff"
   gridtolerance="10.0"
   inkscape:zoom="0.8237794"
   objecttolerance="10.0"
   borderopacity="1.0"
   inkscape:current-layer="svg2"
   inkscape:cx="136.76887"
   inkscape:cy="39.860958"
   inkscape:window-y="0"
   inkscape:window-x="0"
   inkscape:window-height="968"
   showgrid="false"
   inkscape:pageopacity="0.0"
   inkscape:window-width="1280"
   fit-margin-top="0"
   fit-margin-left="0"
   fit-margin-right="0"
   fit-margin-bottom="0"
   inkscape:window-maximized="0" />
	<g
   id="g821"
   transform="translate(19.915,-1.4406566)"
   style="fill:#0067ff;fill-opacity:1"
   inkscape:export-xdpi="47"
   inkscape:export-ydpi="47"><path
     d="m 36.15,126.6 c 0.73,5.17 6.778,28.01 9.472,33.24 2.218,3.81 4.872,7.59 7.566,10.6 4.278,4.59 8.753,8.85 13.824,12.65 4.438,3.81 9.463,7.17 14.376,10.18 5.229,3.49 11.448,6.5 17.47,8.87 4.592,2.22 9.472,4.12 14.852,5.23 6.03,1.9 12.56,2.99 19.06,3.78 4.59,0.48 58.25,15.62 42.87,-23.93 l -15.53,-39.93 15.28,14.83 c 13.8,10.91 64.6,20.85 71.89,17.05 l 54.27,61.29 c 8.72,2.37 17.91,4.94 26.62,7.63 -1.9,-0.79 7.58,2.7 17.4,6.19 10.3,3.8 17.26,6.78 24.08,10.11 13.31,6.5 26.18,13.82 38.86,22.22 6.34,4.12 13.29,9.03 20.43,14.1 4.27,3.32 8.84,7.14 13.75,11.41 l 14.17,13.62 c 7.13,6.82 12.49,10.54 14.27,24.56 -2.69,0.79 -0.38,0.17 -2.92,0.96 -0.79,0.32 -1.9,0.78 -3.16,1.1 -6.34,1.9 -10.93,3.02 -15.2,4.61 -3.02,1.11 -6,2.19 -9.01,3.3 -6.98,3.17 -13.8,5.7 -20.3,8.87 -2.53,1.11 -5.21,2.27 -7.9,3.86 -1.11,0.63 -2.75,1.4 -3.86,2.2 0,0.47 -0.27,0.44 -0.27,0.75 0,0 -0.48,0.35 -0.48,0.83 -0.32,0.32 -0.35,0.75 -0.35,0.75 0,1.11 0.81,1.96 1.45,2.27 4.59,1.11 9.5,1.89 14.1,2.21 7.29,1.26 14.09,2.68 20.91,4.26 6.97,1.43 13.79,3.83 20.29,6.05 l -75.46,18.64 c -1.1,0 -2.19,0.35 -3.3,0.35 -1.9,0 -3.8,-0.35 -5.71,-0.35 -6.49,-0.79 -12.66,-2.35 -18.36,-4.88 -7.61,-3.49 -14.13,-8.05 -20.15,-13.28 -5.39,-5.38 -10.26,-10.83 -14.38,-16.85 -3.8,-5.7 -6.51,-11.89 -8.73,-18.22 -2.38,-5.71 -3.82,-12.19 -4.61,-18.37 -0.79,-4.91 -1.1,-10.13 -1.1,-15.2 -25.36,-2.22 -50.11,-5.25 -74.84,-8.73 -37.39,-6.5 -74.26,-19.31 -108.81,-37.7 -9.5,-4.91 -19.07,-9.81 -28.27,-15.2 -6.017,-3.32 -12.825,-7.6 -19.322,-12.51 -5.705,-4.6 -11.045,-9.07 -15.958,-13.35 -5.388,-4.91 -10.61,-10.6 -15.681,-16.78 -9.033,-10.93 -7.602,4.98 -11.722,-9.13 -1.585,-6.34 -5.126,-28.01 -11.733,-48.58 -0.725,-2.25 -0.481,-4.59 -0.481,-7.29 0,-3.01 0.439,-6.48 0.756,-9.49 1.11,-6.18 2.734,-11.9 4.953,-17.61 1.584,-3.33 5.103,-3.88 4.628,-1.19 z M 415.9,313.23 c -7.13,0 -8.66,3.16 -8.66,10.45 0,7.45 0.81,13.34 7.94,13.34 7.13,0 9.39,-5.89 9.39,-13.34 0,-7.29 -1.54,-10.45 -8.67,-10.45 z"
     sodipodi:nodetypes="ccccccccsccccccscccccccsccscccccccccsccccccccccccccssccccsssc"
     id="path16"
     inkscape:connector-curvature="0"
     style="fill:#0067ff;fill-opacity:1" /><path
     d="m 131.86,353.76 c 37.53,23.59 79.24,39.68 123.25,47.44 l 30.66,3.41 31.31,2.8 33.12,0.63 c -8.56,-5.63 -16.3,-12.2 -23.06,-19.68 l -6.59,-8.12 c -5.49,-7.45 -9.87,-15.18 -12.64,-23.66 -1.27,-5.43 -2.4,-10.38 -3.36,-15.63 l -1.55,-12.26 -32.85,-4.42 -25.72,-4.07 -17.35,-3.19 c -9.92,-2.19 -19.67,-5.16 -29.56,-8.46 L 166,296.24 141.61,284.44 116.78,271.21 93.55,257.55 75.375,244.5 52.402,221.81 35.508,197.23 l 0.846,9.22 C 40.1,236.2 50.373,265.03 65.96,291 c 10.585,17.9 24.262,33.03 40.25,44.91 l 8.54,6.42 z"
     id="path20"
     inkscape:connector-curvature="0"
     style="fill:#0067ff;fill-opacity:1" /><path
     d="m 40.972,152.28 c -0.935,-8.11 -2.21,-16 -4.066,-23.84 L 4.919,4.37 4.4654,2.2249 C 4.2847,1.927 4.2756,1.5134 4.0949,1.2155 3.9745,1.0169 3.5621,0.73526 3.2747,0.85903 2.751,0.79233 2.4727,1.3296 2.1945,1.86693 1.9162,2.40433 1.638,2.94163 1.8277,3.65303 l -2.9103,57.362 -0.8153,13.001 c -0.613,3.77 0.0166,6.799 -0.8186,10.135 -0.848,3.387 -1.5103,5.339 -3.7112,8.162 -2.108,2.703 -4.3943,4.957 -6.0403,6.626 l -4.626,3.331 -3.449,1.48 c 3.688,4.09 7.079,7.89 10.596,12.1 4.5819,5.16 8.4773,11.85 13.741,17.88 5.2633,6.03 7.941,5.92 11.663,10.87 3.721,4.94 7.557,9.98 10.169,15.28 2.16,4.48 2.546,3.97 3.902,7.6 0.936,2.94 7.581,20.07 9.043,15.31 1.211,-5.57 2.07,-11.33 2.471,-16.84 0.191,-4.47 0.151,-8.92 -0.117,-13.15 0.167,-0.32 0.047,-0.52 0.047,-0.52 z"
     sodipodi:nodetypes="ccccscsccczzcccczzcccccc"
     id="path22"
     inkscape:connector-curvature="0"
     style="fill:#0067ff;fill-opacity:1" /><path
     d="m 185.83,379.46 c -7.13,-3.01 -13.95,-6.34 -20.44,-10.14 -0.8,0.31 -11.3,-10.53 -12.09,-10.53 -4.6,0 -4.86,0.41 -9.3,-0.39 -13.31,-1.1 -21.56,7.11 -34.55,4.73 14.1,9.51 27.41,19.81 39.61,30.91 10.62,9.03 20.13,19.01 29.64,28.68 2.69,0 4.91,-0.79 6.81,-1.43 8.4,-3.8 16.01,-7.92 23.61,-12.52 7.29,-4.12 13.63,-9.03 19.02,-14.73 -4.12,-1.59 -8.4,-3.01 -12.52,-4.28 -10.3,-2.54 -20.12,-6.02 -29.79,-10.3 z"
     sodipodi:nodetypes="ccsccccccccc"
     id="path24"
     inkscape:connector-curvature="0"
     style="fill:#0067ff;fill-opacity:1" /></g>
<metadata
   id="metadata7"><rdf:RDF><cc:Work><dc:format>image/svg+xml</dc:format><dc:type
         rdf:resource="http://purl.org/dc/dcmitype/StillImage" /><cc:license
         rdf:resource="http://creativecommons.org/publicdomain/zero/1.0/" /><dc:publisher><cc:Agent
           rdf:about="http://openclipart.org/"><dc:title>Openclipart</dc:title></cc:Agent></dc:publisher><dc:title>FishBlack</dc:title><dc:date>2009-10-12T09:11:14</dc:date><dc:description>a simple fish</dc:description><dc:source>https://openclipart.org/detail/27770/fishblack-by-moreno</dc:source><dc:creator><cc:Agent><dc:title>Moreno</dc:title></cc:Agent></dc:creator><dc:subject><rdf:Bag><rdf:li>animal</rdf:li><rdf:li>fish</rdf:li><rdf:li>food</rdf:li><rdf:li>silhouette</rdf:li></rdf:Bag></dc:subject></cc:Work><cc:License
       rdf:about="http://creativecommons.org/publicdomain/zero/1.0/"><cc:permits
         rdf:resource="http://creativecommons.org/ns#Reproduction" /><cc:permits
         rdf:resource="http://creativecommons.org/ns#Distribution" /><cc:permits
         rdf:resource="http://creativecommons.org/ns#DerivativeWorks" /></cc:License></rdf:RDF></metadata></svg>