<?xml version="1.0" encoding="UTF-8" standalone="no"?>
<!-- Created with Inkscape (http://www.inkscape.org/) -->

<svg
   xmlns:dc="http://purl.org/dc/elements/1.1/"
   xmlns:cc="http://creativecommons.org/ns#"
   xmlns:rdf="http://www.w3.org/1999/02/22-rdf-syntax-ns#"
   xmlns:svg="http://www.w3.org/2000/svg"
   xmlns="http://www.w3.org/2000/svg"
   xmlns:sodipodi="http://sodipodi.sourceforge.net/DTD/sodipodi-0.dtd"
   xmlns:inkscape="http://www.inkscape.org/namespaces/inkscape"
   width="36.355862"
   height="38.620075"
   id="svg3161"
   version="1.1"
   inkscape:version="0.48.4 r9939"
   sodipodi:docname="New document 1">
  <defs
     id="defs3163" />
  <sodipodi:namedview
     id="base"
     pagecolor="#ffffff"
     bordercolor="#666666"
     borderopacity="1.0"
     inkscape:pageopacity="0.0"
     inkscape:pageshadow="2"
     inkscape:zoom="0.35"
     inkscape:cx="1090.3208"
     inkscape:cy="-554.98168"
     inkscape:document-units="px"
     inkscape:current-layer="layer1"
     showgrid="false"
     fit-margin-top="0"
     fit-margin-left="0"
     fit-margin-right="0"
     fit-margin-bottom="0"
     inkscape:window-width="1366"
     inkscape:window-height="705"
     inkscape:window-x="-8"
     inkscape:window-y="-8"
     inkscape:window-maximized="1" />
  <metadata
     id="metadata3166">
    <rdf:RDF>
      <cc:Work
         rdf:about="">
        <dc:format>image/svg+xml</dc:format>
        <dc:type
           rdf:resource="http://purl.org/dc/dcmitype/StillImage" />
        <dc:title></dc:title>
      </cc:Work>
    </rdf:RDF>
  </metadata>
  <g
     inkscape:label="Layer 1"
     inkscape:groupmode="layer"
     id="layer1"
     transform="translate(715.32078,61.23957)">
    <g
       style="fill-rule:evenodd"
       id="g3431"
       transform="matrix(1.0200791,0,0,0.82663643,-743.53411,-47.54775)">
      <path
         inkscape:connector-curvature="0"
         id="path3181"
         d="m 46.807958,2.7950032 c 1.329859,16.8764618 9.043043,27.0519758 9.043043,27.0519758 l -17.554143,0.248183 4.25555,-10.671881 2.92569,-16.6282778 z"
         style="fill:none;stroke:#000000;stroke-width:0.08992328px;stroke-linecap:butt;stroke-linejoin:miter;stroke-opacity:1" />
      <path
         inkscape:connector-curvature="0"
         id="path3183"
         d="m 38.686931,29.847467 c 0.0025,-0.123122 0.901796,-2.457504 1.998594,-5.187518 l 1.994174,-4.963666 1.459043,-8.274018 c 0.802474,-4.5507088 1.459044,-8.3199928 1.459044,-8.3761828 0,-0.05619 0.239375,-0.102168 0.531944,-0.102168 0.327318,0 0.533941,0.16707 0.537136,0.434321 0.0029,0.238875 0.175695,1.606987 0.384085,3.040244 1.108766,7.6257788 3.341867,14.3709128 6.799205,20.5371638 l 1.565472,2.792061 -5.532475,0 c -3.042861,0 -6.807813,0.07281 -8.366557,0.16181 -1.635735,0.09339 -2.832213,0.06715 -2.829665,-0.06205 l 0,0 z"
         style="fill:#a02c2c" />
      <path
         transform="matrix(0.09309017,0,0,0.08686413,10.103833,-34.51358)"
         d="m 571.42857,386.64789 c 0,99.41125 -85.70549,180 -191.42857,180 -105.72308,0 -191.42857,-80.58875 -191.42857,-180 0,-99.41126 85.70549,-180 191.42857,-180 105.72308,0 191.42857,80.58874 191.42857,180 z"
         sodipodi:ry="180"
         sodipodi:rx="191.42857"
         sodipodi:cy="386.64789"
         sodipodi:cx="380"
         id="path3177"
         style="fill:#008000"
         sodipodi:type="arc" />
    </g>
  </g>
</svg>
