<?xml version="1.0" encoding="UTF-8" standalone="no"?>
<!-- Created with Inkscape (http://www.inkscape.org/) -->

<svg
   xmlns:dc="http://purl.org/dc/elements/1.1/"
   xmlns:cc="http://creativecommons.org/ns#"
   xmlns:rdf="http://www.w3.org/1999/02/22-rdf-syntax-ns#"
   xmlns:svg="http://www.w3.org/2000/svg"
   xmlns="http://www.w3.org/2000/svg"
   xmlns:sodipodi="http://sodipodi.sourceforge.net/DTD/sodipodi-0.dtd"
   xmlns:inkscape="http://www.inkscape.org/namespaces/inkscape"
   width="19.309452"
   height="44.502541"
   id="svg3161"
   version="1.1"
   inkscape:version="0.48.4 r9939"
   sodipodi:docname="tree_5.svg">
  <defs
     id="defs3163" />
  <sodipodi:namedview
     id="base"
     pagecolor="#ffffff"
     bordercolor="#666666"
     borderopacity="1.0"
     inkscape:pageopacity="0.0"
     inkscape:pageshadow="2"
     inkscape:zoom="0.35"
     inkscape:cx="936.11507"
     inkscape:cy="-127.88253"
     inkscape:document-units="px"
     inkscape:current-layer="layer1"
     showgrid="false"
     fit-margin-top="0"
     fit-margin-left="0"
     fit-margin-right="0"
     fit-margin-bottom="0"
     inkscape:window-width="1366"
     inkscape:window-height="705"
     inkscape:window-x="-8"
     inkscape:window-y="-8"
     inkscape:window-maximized="1" />
  <metadata
     id="metadata3166">
    <rdf:RDF>
      <cc:Work
         rdf:about="">
        <dc:format>image/svg+xml</dc:format>
        <dc:type
           rdf:resource="http://purl.org/dc/dcmitype/StillImage" />
        <dc:title></dc:title>
      </cc:Work>
    </rdf:RDF>
  </metadata>
  <g
     inkscape:label="Layer 1"
     inkscape:groupmode="layer"
     id="layer1"
     transform="translate(561.11506,-588.54854)">
    <g
       style="fill-rule:evenodd"
       transform="matrix(0.3708666,0,0,0.22885578,-634.82229,451.38123)"
       id="g3502">
      <path
         inkscape:connector-curvature="0"
         id="path3183-1"
         d="m 209.98238,793.40081 c 0.005,-0.43626 1.70929,-8.70769 3.78819,-18.38097 l 3.77981,-17.58779 2.76552,-29.31738 c 1.52103,-16.12456 2.76551,-29.48029 2.76551,-29.67939 0,-0.19911 0.45372,-0.36201 1.00826,-0.36201 0.62041,0 1.01205,0.59198 1.0181,1.53893 0.005,0.84641 0.33302,5.69405 0.72801,10.77252 2.10158,27.02047 6.33426,50.92055 12.8874,72.76947 l 2.96724,9.89313 -10.48641,0 c -5.76752,0 -12.90372,0.258 -15.8582,0.57334 -3.10042,0.3309 -5.36826,0.23794 -5.36343,-0.21985 l 0,0 z"
         style="fill:#ff9955" />
      <path
         transform="matrix(0.13599266,0,0,0.40203204,173.09892,516.28229)"
         d="m 571.42857,386.64789 c 0,99.41125 -85.70549,180 -191.42857,180 -105.72308,0 -191.42857,-80.58875 -191.42857,-180 0,-99.41126 85.70549,-180 191.42857,-180 105.72308,0 191.42857,80.58874 191.42857,180 z"
         sodipodi:ry="180"
         sodipodi:rx="191.42857"
         sodipodi:cy="386.64789"
         sodipodi:cx="380"
         id="path3177-7"
         style="fill:#55d400"
         sodipodi:type="arc" />
    </g>
  </g>
</svg>
