<?xml version="1.0" encoding="UTF-8" standalone="no"?>
<!-- Created with Inkscape (http://www.inkscape.org/) -->

<svg
   xmlns:dc="http://purl.org/dc/elements/1.1/"
   xmlns:cc="http://creativecommons.org/ns#"
   xmlns:rdf="http://www.w3.org/1999/02/22-rdf-syntax-ns#"
   xmlns:svg="http://www.w3.org/2000/svg"
   xmlns="http://www.w3.org/2000/svg"
   xmlns:xlink="http://www.w3.org/1999/xlink"
   xmlns:sodipodi="http://sodipodi.sourceforge.net/DTD/sodipodi-0.dtd"
   xmlns:inkscape="http://www.inkscape.org/namespaces/inkscape"
   id="svg2"
   sodipodi:docname="red_fire.svg"
   inkscape:export-filename="new_year01.png"
   viewBox="0 0 47.844199 46.960523"
   inkscape:export-xdpi="89.949997"
   version="1.1"
   inkscape:export-ydpi="89.949997"
   inkscape:version="0.48.2 r9819"
   width="100%"
   height="100%">
  <defs
     id="defs4">
    <linearGradient
       id="linearGradient5921">
      <stop
         style="stop-color:#ff6600;stop-opacity:1;"
         offset="0"
         id="stop5923" />
      <stop
         style="stop-color:#ff6600;stop-opacity:0;"
         offset="1"
         id="stop5925" />
    </linearGradient>
    <linearGradient
       id="linearGradient5855">
      <stop
         style="stop-color:#d45500;stop-opacity:1;"
         offset="0"
         id="stop5857" />
      <stop
         id="stop5863"
         offset="0.5"
         style="stop-color:#d45500;stop-opacity:0.49803922;" />
      <stop
         style="stop-color:#d45500;stop-opacity:0;"
         offset="1"
         id="stop5859" />
    </linearGradient>
    <linearGradient
       id="linearGradient3669">
      <stop
         id="stop3671"
         style="stop-color:#ffd73b"
         offset="0" />
      <stop
         offset="0.5"
         style="stop-color:#f6ad1d;stop-opacity:1;"
         id="stop5625" />
      <stop
         id="stop3673"
         style="stop-color:#ee8400"
         offset="1" />
    </linearGradient>
    <linearGradient
       id="linearGradient3613-4-2">
      <stop
         id="stop3615-96-7"
         style="stop-color:#ff5959"
         offset="0" />
      <stop
         id="stop3617-6-3"
         style="stop-color:#d90000"
         offset="1" />
    </linearGradient>
    <linearGradient
       id="linearGradient2868">
      <stop
         id="stop2870"
         style="stop-color:#d700d7"
         offset="0" />
      <stop
         id="stop2872"
         style="stop-color:#6e006e"
         offset="1" />
    </linearGradient>
    <filter
       id="filter4398"
       height="1.6123"
       width="1.2132"
       y="-0.30614001"
       x="-0.1066"
       inkscape:collect="always"
       color-interpolation-filters="sRGB">
      <feGaussianBlur
         id="feGaussianBlur4400"
         stdDeviation="0.18284234"
         inkscape:collect="always" />
    </filter>
    <radialGradient
       inkscape:collect="always"
       xlink:href="#linearGradient3669"
       id="radialGradient5623"
       cx="25.1"
       cy="66.199997"
       fx="25.1"
       fy="66.199997"
       r="20.799999"
       gradientTransform="matrix(1,0,0,0.90384615,-5.6269635,4.7270404)"
       gradientUnits="userSpaceOnUse"
       spreadMethod="pad" />
    <radialGradient
       inkscape:collect="always"
       xlink:href="#linearGradient2868"
       id="radialGradient5673"
       cx="25.1"
       cy="66.199997"
       fx="25.1"
       fy="66.199997"
       r="20.799999"
       gradientTransform="matrix(1,0,0,0.90384615,0,6.3653846)"
       gradientUnits="userSpaceOnUse" />
  </defs>
  <sodipodi:namedview
     id="base"
     bordercolor="#666666"
     inkscape:pageshadow="2"
     inkscape:window-y="0"
     pagecolor="#ffffff"
     inkscape:window-height="724"
     inkscape:window-maximized="0"
     inkscape:zoom="10"
     inkscape:window-x="47"
     showgrid="false"
     borderopacity="1.0"
     inkscape:current-layer="layer1"
     inkscape:cx="37.268938"
     inkscape:cy="20.17732"
     inkscape:window-width="1182"
     inkscape:pageopacity="0.0"
     inkscape:document-units="px"
     fit-margin-top="0"
     fit-margin-left="0"
     fit-margin-right="0"
     fit-margin-bottom="0">
    <inkscape:grid
       id="grid2837"
       enabled="true"
       visible="true"
       snapvisiblegridlinesonly="true"
       type="xygrid"
       empspacing="5" />
  </sodipodi:namedview>
  <g
     id="layer1"
     inkscape:label="Layer 1"
     inkscape:groupmode="layer"
     transform="translate(-0.82085272,-1004.8736)">
    <path
       transform="matrix(1.1274038,0,0,1.2207447,-3.547837,947.5367)"
       d="m 45.9,66.199997 c 0,10.382953 -9.312477,18.799999 -20.8,18.799999 -11.487522,0 -20.7999989,-8.417046 -20.7999989,-18.799999 0,-10.382953 9.3124769,-18.799999 20.7999989,-18.799999 11.487523,0 20.8,8.417046 20.8,18.799999 z"
       sodipodi:ry="18.799999"
       sodipodi:rx="20.799999"
       sodipodi:cy="66.199997"
       sodipodi:cx="25.1"
       id="path6069"
       style="fill:#ff0000;fill-opacity:1;fill-rule:evenodd;stroke:#ff0000;stroke-width:0.85240859;stroke-linecap:butt;stroke-linejoin:round;stroke-miterlimit:4;stroke-opacity:1;stroke-dasharray:none;stroke-dashoffset:0"
       sodipodi:type="arc" />
    <path
       inkscape:connector-curvature="0"
       d="m 27.764949,1028.3071 c 3.081,2.4496 4.234201,6.2755 4.6579,8.6231 0.58262,3.2278 1.0933,7.4134 1.3033,13.006 l 0.06262,0.036 c 1.291801,-5.1067 0.67621,-9.7835 0.04406,-13.307 -0.63215,-3.5236 -1.9639,-6.7757 -6.0366,-8.3487 l -0.0313,-0.014 h -5e-6 z"
       style="text-indent:0;text-transform:none;block-progression:tb;color:#000000;fill:#ffff00;fill-opacity:1"
       sodipodi:nodetypes="csccsccc"
       id="path6077" />
    <path
       inkscape:connector-curvature="0"
       d="m 27.277949,1026.1071 c 4.4937,-2.4874 8.1258,-1.9245 11.176,-1.076 3.0507,0.8484 5.8488,2.3877 7.7576,6.7781 l 0.078,-0.1 c 0.26822,-4.6279 -3.582,-7.9325 -7.1282,-8.9186 -4.5268,-0.9983 -9.406599,-0.1026 -11.863,3.3408 l -0.02052,-0.014 z"
       style="text-indent:0;text-transform:none;block-progression:tb;color:#000000;fill:#ffff00;fill-opacity:1"
       sodipodi:nodetypes="csccccc"
       id="path6079" />
    <path
       inkscape:connector-curvature="0"
       d="m 26.603949,1021.2071 0.22834,0.1395 c 2.9478,-1.644 5.1493,-3.6354 8.2758,-3.909 3.5006,-0.025 7.4597,2.2693 9.3643,5.3943 l 0.1973,-0.083 c -2.2229,-3.982 -5.0188,-7.4018 -9.782,-7.4466 -4.645699,0.6615 -5.897199,3.4235 -8.2838,5.905 z"
       style="text-indent:0;text-transform:none;block-progression:tb;color:#000000;fill:#ffff00;fill-opacity:1"
       sodipodi:nodetypes="ccccccc"
       id="path6081" />
    <path
       inkscape:connector-curvature="0"
       d="m 25.058949,1021.5071 -0.04103,0.031 c -0.70669,-5.6869 0.21564,-10.189 2.6878,-13.615 l -0.09561,0.019 c -5.1081,3.6248 -5.2527,8.3967 -2.5512,13.566 z"
       style="text-indent:0;text-transform:none;block-progression:tb;color:#000000;fill:#ffff00;fill-opacity:1"
       sodipodi:nodetypes="ccccc"
       id="path6083" />
    <path
       inkscape:connector-curvature="0"
       d="m 6.0524495,1013.8071 0.062083,-0.1887 c 7.8316005,-0.1723 13.0969995,3.4612 13.4389995,9.9141 l 0.02105,-0.052 c -3.1461,-3.8456 -5.105799,-7.575 -13.5219995,-9.6734 z"
       style="text-indent:0;text-transform:none;block-progression:tb;color:#000000;fill:#ffff00;fill-opacity:1"
       sodipodi:nodetypes="ccccc"
       id="path6085" />
    <path
       inkscape:connector-curvature="0"
       d="m 12.76795,1023.9071 c -2.2765,0.1396 -4.7678005,0.9852 -7.4907005,2.8641 h 0.067614 c 5.3366005,-1.6737 9.1224005,-2.1017 13.4339995,-1.366 l 0.2023,-0.093 c -1.8966,-0.9653 -3.936299,-1.5489 -6.2129,-1.41 z"
       style="text-indent:0;text-transform:none;block-progression:tb;color:#000000;fill:#ffff00;fill-opacity:1"
       sodipodi:nodetypes="cccccc"
       id="path6087" />
    <path
       inkscape:connector-curvature="0"
       d="m 23.588949,1030.4071 c -2.6161,1.5606 -3.6678,5.5226 -1.9723,11.353 l 0.06262,-0.3109 c 0.55882,-6.1846 1.261,-8.7187 1.8842,-11.104 l 0.02551,0.062 z"
       style="text-indent:0;text-transform:none;block-progression:tb;color:#000000;fill:#ffff00;fill-opacity:1"
       sodipodi:nodetypes="ccccc"
       id="path6089" />
    <path
       inkscape:connector-curvature="0"
       d="m 19.993949,1028.0071 c -8.368399,0.5449 -12.1589995,6.7098 -11.8969995,11.985 l 0.062619,-0.1026 c 3.3167005,-6.0166 4.7550005,-8.6757 11.6999995,-11.715 l 0.13469,-0.1662 z"
       style="text-indent:0;text-transform:none;block-progression:tb;color:#000000;fill:#ffff00;fill-opacity:1"
       sodipodi:nodetypes="ccccc"
       id="path6091" />
    <path
       inkscape:connector-curvature="0"
       d="m 11.68695,1020.1071 0.02577,0.1297 c 1.6492,0.8228 3.5738,1.4076 5.487099,3.1619 l 0.02105,-0.089 c -1.157999,-3.2652 -2.471099,-3.532 -5.533899,-3.2035 z"
       style="text-indent:0;text-transform:none;block-progression:tb;color:#000000;fill:#ffff00;fill-opacity:1"
       sodipodi:nodetypes="ccccc"
       id="path6093" />
    <path
       inkscape:connector-curvature="0"
       d="m 20.224949,1015.9071 -0.07814,0.1142 c 0.14004,1.6026 1.3987,3.5366 1.8842,5.6867 l 0.16627,-0.052 c 0.42064,-1.8591 0.27202,-4.0398 -1.9723,-5.749 z"
       style="text-indent:0;text-transform:none;block-progression:tb;color:#000000;fill:#ffff00;fill-opacity:1"
       sodipodi:nodetypes="ccccc"
       id="path6095" />
    <path
       inkscape:connector-curvature="0"
       d="m 28.339949,1015.9071 c -1.3301,0.3766 -2.2006,0.9159 -1.9723,3.6259 l 0.12996,0.027 c 0.66679,-1.1164 1.4608,-2.052 1.8842,-3.5689 l -0.04184,-0.083 z"
       style="text-indent:0;text-transform:none;block-progression:tb;color:#000000;fill:#ffff00;fill-opacity:1"
       sodipodi:nodetypes="ccccc"
       id="path6097" />
    <path
       inkscape:connector-curvature="0"
       d="m 26.929949,1024.5071 0.09366,-0.056 c 1.212,-1.3876 2.3478,-1.9323 3.2371,-2.3771 0.88936,-0.4447 2.4521,-1.2409 2.907901,-0.7855 l 0.08839,-0.1396 c -1.3971,-0.9949 -1.9526,-1.121 -3.6132,-0.308 -1.6483,1.0976 -2.247499,1.8192 -2.7139,3.6665 z"
       style="text-indent:0;text-transform:none;block-progression:tb;color:#000000;fill:#ffff00;fill-opacity:1"
       sodipodi:nodetypes="ccscccc"
       id="path6099" />
    <path
       inkscape:connector-curvature="0"
       d="m 28.214949,1027.3071 0.02768,0.1171 c 1.8151,0.065 3.8673,0.4308 5.4991,1.7449 l 0.02385,-0.107 c -0.817259,-2.4549 -3.385899,-3.2273 -5.550599,-1.7542 l -2.6e-5,3e-4 z"
       style="text-indent:0;text-transform:none;block-progression:tb;color:#000000;fill:#ffff00;fill-opacity:1"
       sodipodi:nodetypes="cccccc"
       id="path6101" />
    <path
       inkscape:connector-curvature="0"
       d="m 25.430949,1030.4071 -0.14518,0.1528 c -0.03676,1.8263 -0.18431,3.3051 0.14864,4.8415 l 0.02022,-0.016 c 1.119,-1.5956 1.1125,-3.0446 -0.02365,-4.9782 z"
       style="text-indent:0;text-transform:none;block-progression:tb;color:#000000;fill:#ffff00;fill-opacity:1"
       sodipodi:nodetypes="ccccc"
       id="path6103" />
    <path
       inkscape:connector-curvature="0"
       d="m 18.495949,1030.5071 c -0.99404,0.7775 -1.0597,1.999 -1.1614,3.7374 l 0.06262,0.089 c 0.64898,-1.1412 1.1609,-2.5212 1.8842,-3.0869 0.72331,-0.5657 1.6964,-1.3113 2.2109,-1.3113 v -0.1663 c -1.1654,-0.02 -2.0373,0.1722 -2.9963,0.7382 z"
       style="text-indent:0;text-transform:none;block-progression:tb;color:#000000;fill:#ffff00;fill-opacity:1"
       sodipodi:nodetypes="cccsccc"
       id="path6105" />
    <path
       inkscape:connector-curvature="0"
       d="m 13.08995,1028.2071 c 0.59309,-0.4212 2.1614,-0.9293 3.074699,-1.0971 0.91343,-0.1673 1.9127,-0.4159 3.0741,-0.192 l 0.152651,0.1026 c -0.99713,-0.7968 -2.5236,-1.1266 -3.6802,-0.9139 -1.1117,0.3091 -1.8309,1.3295 -2.6739,2.0685 l 0.05266,0.031 z"
       style="text-indent:0;text-transform:none;block-progression:tb;color:#000000;fill:#ffff00;fill-opacity:1"
       sodipodi:nodetypes="csccccc"
       id="path6107" />
    <path
       inkscape:connector-curvature="0"
       d="m 26.733949,1029.2071 0.03853,0.044 c 2.7364,3.1917 2.7255,7.6098 1.4593,11.272 l 0.02631,-0.1368 c 3.1133,-3.711 3.1049,-7.8094 -1.5242,-11.179 z"
       style="text-indent:0;text-transform:none;block-progression:tb;color:#000000;fill:#ffff00;fill-opacity:1"
       sodipodi:nodetypes="ccccc"
       id="path6109" />
    <path
       inkscape:connector-curvature="0"
       d="m 25.853361,1028.6329 -2.1281,-0.6112 -1.9786,0.9957 -0.07611,-2.2129 -1.5584,-1.5741 2.081,-0.7562 1.0154,-1.9684 1.3623,1.7453 2.186,0.3576 -1.2391,1.8349 0.33557,2.1893 z"
       style="fill:#ffff00;fill-opacity:1;fill-rule:evenodd"
       id="path6111" />
  </g>
  <metadata
     id="metadata151">
    <rdf:RDF>
      <cc:Work>
        <dc:format>image/svg+xml</dc:format>
        <dc:type
           rdf:resource="http://purl.org/dc/dcmitype/StillImage" />
        <cc:license
           rdf:resource="http://creativecommons.org/licenses/publicdomain/" />
        <dc:publisher>
          <cc:Agent
             rdf:about="http://openclipart.org/">
            <dc:title>Openclipart</dc:title>
          </cc:Agent>
        </dc:publisher>
        <dc:title />
        <dc:date>2010-11-05T11:21:35</dc:date>
        <dc:description>New Year - fireworks\n\nPart of the &quot;Events&quot; set made for WorldLabel.com</dc:description>
        <dc:source>https://openclipart.org/detail/94135/new-year-icon-by-nicubunu</dc:source>
        <dc:creator>
          <cc:Agent>
            <dc:title>nicubunu</dc:title>
          </cc:Agent>
        </dc:creator>
        <dc:subject>
          <rdf:Bag>
            <rdf:li>New Year</rdf:li>
            <rdf:li>color</rdf:li>
            <rdf:li>event</rdf:li>
            <rdf:li>events</rdf:li>
            <rdf:li>fireworks</rdf:li>
            <rdf:li>holiday</rdf:li>
            <rdf:li>holidays</rdf:li>
            <rdf:li>icon</rdf:li>
            <rdf:li>occasion</rdf:li>
            <rdf:li>occasions</rdf:li>
            <rdf:li>worldlabel</rdf:li>
          </rdf:Bag>
        </dc:subject>
      </cc:Work>
      <cc:License
         rdf:about="http://creativecommons.org/licenses/publicdomain/">
        <cc:permits
           rdf:resource="http://creativecommons.org/ns#Reproduction" />
        <cc:permits
           rdf:resource="http://creativecommons.org/ns#Distribution" />
        <cc:permits
           rdf:resource="http://creativecommons.org/ns#DerivativeWorks" />
      </cc:License>
    </rdf:RDF>
  </metadata>
</svg>
