<?xml version="1.0" encoding="UTF-8" standalone="no"?>
<!-- Created with Inkscape (http://www.inkscape.org/) -->

<svg
   xmlns:dc="http://purl.org/dc/elements/1.1/"
   xmlns:cc="http://creativecommons.org/ns#"
   xmlns:rdf="http://www.w3.org/1999/02/22-rdf-syntax-ns#"
   xmlns:svg="http://www.w3.org/2000/svg"
   xmlns="http://www.w3.org/2000/svg"
   xmlns:sodipodi="http://sodipodi.sourceforge.net/DTD/sodipodi-0.dtd"
   xmlns:inkscape="http://www.inkscape.org/namespaces/inkscape"
   width="325.25"
   height="327.25"
   id="svg2"
   version="1.1"
   inkscape:version="0.48.2 r9819"
   sodipodi:docname="2013-FR-06_flower.svg">
  <defs
     id="defs4" />
  <sodipodi:namedview
     id="base"
     pagecolor="#ffffff"
     bordercolor="#666666"
     borderopacity="1.0"
     inkscape:pageopacity="0.0"
     inkscape:pageshadow="2"
     inkscape:zoom="1.33"
     inkscape:cx="-86.682917"
     inkscape:cy="195.62898"
     inkscape:document-units="px"
     inkscape:current-layer="layer1"
     showgrid="false"
     fit-margin-top="0"
     fit-margin-left="0"
     fit-margin-right="0"
     fit-margin-bottom="0"
     inkscape:window-width="1806"
     inkscape:window-height="1041"
     inkscape:window-x="86"
     inkscape:window-y="0"
     inkscape:window-maximized="0" />
  <metadata
     id="metadata7">
    <rdf:RDF>
      <cc:Work
         rdf:about="">
        <dc:format>image/svg+xml</dc:format>
        <dc:type
           rdf:resource="http://purl.org/dc/dcmitype/StillImage" />
        <dc:title />
      </cc:Work>
    </rdf:RDF>
  </metadata>
  <g
     inkscape:label="Layer 1"
     inkscape:groupmode="layer"
     id="layer1"
     transform="translate(-95.875,-339.84375)">
    <path
       style="fill:#d7d7f4;stroke:#6464ff;stroke-width:2.99684644;stroke-linecap:butt;stroke-linejoin:miter;stroke-miterlimit:4;stroke-opacity:1;stroke-dasharray:none"
       d="m 258.89894,342.10423 c 0,0 32.77005,24.26712 29.74635,53.04765 -7.1824,68.36485 -29.74635,104.60799 -29.74635,104.60799 0,0 -17.84781,-26.45267 -29.74634,-107.58262 -4.1469,-28.2756 29.74634,-50.07302 29.74634,-50.07302 z"
       id="path3789"
       inkscape:connector-curvature="0"
       sodipodi:nodetypes="cscsc" />
    <path
       sodipodi:nodetypes="cscsc"
       inkscape:connector-curvature="0"
       id="path3791"
       d="m 258.7443,665.37746 c 0,0 -32.77003,-24.26712 -29.74633,-53.04766 7.18241,-68.36483 29.74633,-104.60796 29.74633,-104.60796 0,0 17.84782,26.45266 29.74636,107.58261 4.1469,28.2756 -29.74636,50.07301 -29.74636,50.07301 z"
       style="fill:#d7d7f4;stroke:#6464ff;stroke-width:2.99684644;stroke-linecap:butt;stroke-linejoin:miter;stroke-miterlimit:4;stroke-opacity:1;stroke-dasharray:none" />
    <path
       style="fill:#d7d7f4;stroke:#6464ff;stroke-width:2.99684644;stroke-linecap:butt;stroke-linejoin:miter;stroke-miterlimit:4;stroke-opacity:1;stroke-dasharray:none"
       d="m 360.67966,376.77522 c 0,0 10.28118,39.45968 -10.13628,59.96795 -48.49932,48.71505 -88.81285,62.76905 -88.81285,62.76905 0,0 2.7077,-31.79554 44.36397,-102.42413 14.51816,-24.61564 54.58516,-20.31287 54.58516,-20.31287 z"
       id="path3809"
       inkscape:connector-curvature="0"
       sodipodi:nodetypes="cscsc" />
    <text
       xml:space="preserve"
       style="font-size:27.97056389px;font-style:normal;font-variant:normal;font-weight:normal;font-stretch:normal;line-height:125%;letter-spacing:0px;word-spacing:0px;fill:#000000;fill-opacity:1;stroke:none;font-family:Arial;-inkscape-font-specification:Arial"
       x="-437.36975"
       y="267.02371"
       id="text3757"
       sodipodi:linespacing="125%"
       transform="matrix(0,-1,1,0,0,0)"><tspan
         sodipodi:role="line"
         id="tspan3759"
         x="-437.36975"
         y="267.02371">Bijou</tspan></text>
    <text
       xml:space="preserve"
       style="font-size:27.97056389px;font-style:normal;font-variant:normal;font-weight:normal;font-stretch:normal;line-height:125%;letter-spacing:0px;word-spacing:0px;fill:#000000;fill-opacity:1;stroke:none;font-family:Arial;-inkscape-font-specification:Arial"
       x="-185.84724"
       y="520.83752"
       id="text3761"
       sodipodi:linespacing="125%"
       transform="matrix(0.59678661,-0.80239999,0.80239999,0.59678661,0,0)"
       inkscape:transform-center-x="-12.597652"
       inkscape:transform-center-y="-17.618586"><tspan
         sodipodi:role="line"
         id="tspan3763"
         x="-185.84724"
         y="520.83752">Calin</tspan></text>
    <text
       xml:space="preserve"
       style="font-size:36px;font-style:normal;font-weight:normal;line-height:125%;letter-spacing:0px;word-spacing:0px;fill:#000000;fill-opacity:1;stroke:none;font-family:Sans"
       x="453.61282"
       y="-14.200356"
       id="text3007"
       sodipodi:linespacing="125%"
       transform="translate(95.875,339.84375)"><tspan
         sodipodi:role="line"
         id="tspan3009"
         x="453.61282"
         y="-14.200356" /></text>
    <path
       sodipodi:nodetypes="cscsc"
       inkscape:connector-curvature="0"
       id="path3011"
       d="m 363.66911,636.01226 c 0,0 10.28119,-39.45969 -10.13629,-59.96795 -48.4993,-48.71504 -88.81284,-62.76905 -88.81284,-62.76905 0,0 2.70769,31.79554 44.36395,102.42414 14.51817,24.61565 54.58518,20.31286 54.58518,20.31286 z"
       style="fill:#d7d7f4;stroke:#6464ff;stroke-width:2.99684644;stroke-linecap:butt;stroke-linejoin:miter;stroke-miterlimit:4;stroke-opacity:1;stroke-dasharray:none" />
    <path
       style="fill:#d7d7f4;stroke:#6464ff;stroke-width:2.99684644;stroke-linecap:butt;stroke-linejoin:miter;stroke-miterlimit:4;stroke-opacity:1;stroke-dasharray:none"
       d="m 411.27343,454.24773 c 0,0 -12.58716,38.78569 -40.83537,45.07074 -67.10029,14.92942 -108.63725,5.06144 -108.63725,5.06144 0,0 19.40431,-25.33299 92.53971,-62.41208 25.4893,-12.9229 56.93291,12.2799 56.93291,12.2799 z"
       id="path3013"
       inkscape:connector-curvature="0"
       sodipodi:nodetypes="cscsc" />
    <path
       sodipodi:nodetypes="cscsc"
       inkscape:connector-curvature="0"
       id="path3015"
       d="m 414.24806,560.02862 c 0,0 -12.58716,-38.78571 -40.83536,-45.07074 -67.1003,-14.92943 -108.63726,-5.06146 -108.63726,-5.06146 0,0 19.40431,25.33299 92.53971,62.41208 25.4893,12.9229 56.93291,-12.27988 56.93291,-12.27988 z"
       style="fill:#d7d7f4;stroke:#6464ff;stroke-width:2.99684644;stroke-linecap:butt;stroke-linejoin:miter;stroke-miterlimit:4;stroke-opacity:1;stroke-dasharray:none" />
    <path
       sodipodi:nodetypes="cscsc"
       inkscape:connector-curvature="0"
       id="path3017"
       d="m 155.66022,375.78368 c 0,0 -10.2812,39.45969 10.13627,59.96796 48.49932,48.71505 88.81285,62.76903 88.81285,62.76903 0,0 -2.7077,-31.79554 -44.36396,-102.42413 -14.51815,-24.61564 -54.58516,-20.31286 -54.58516,-20.31286 z"
       style="fill:#d7d7f4;stroke:#6464ff;stroke-width:2.99684644;stroke-linecap:butt;stroke-linejoin:miter;stroke-miterlimit:4;stroke-opacity:1;stroke-dasharray:none" />
    <path
       style="fill:#d7d7f4;stroke:#6464ff;stroke-width:2.99684644;stroke-linecap:butt;stroke-linejoin:miter;stroke-miterlimit:4;stroke-opacity:1;stroke-dasharray:none"
       d="m 152.67076,635.02071 c 0,0 -10.28117,-39.45969 10.1363,-59.96795 48.4993,-48.71504 88.81283,-62.76905 88.81283,-62.76905 0,0 -2.70768,31.79556 -44.36396,102.42414 -14.51816,24.61565 -54.58517,20.31286 -54.58517,20.31286 z"
       id="path3019"
       inkscape:connector-curvature="0"
       sodipodi:nodetypes="cscsc" />
    <path
       sodipodi:nodetypes="cscsc"
       inkscape:connector-curvature="0"
       id="path3021"
       d="m 105.06646,453.25618 c 0,0 12.58715,38.78569 40.83534,45.07074 67.10032,14.92942 108.63728,5.06146 108.63728,5.06146 0,0 -19.40432,-25.33299 -92.53971,-62.4121 -25.48932,-12.9229 -56.93291,12.2799 -56.93291,12.2799 z"
       style="fill:#d7d7f4;stroke:#6464ff;stroke-width:2.99684644;stroke-linecap:butt;stroke-linejoin:miter;stroke-miterlimit:4;stroke-opacity:1;stroke-dasharray:none" />
    <path
       style="fill:#d7d7f4;stroke:#6464ff;stroke-width:2.99684644;stroke-linecap:butt;stroke-linejoin:miter;stroke-miterlimit:4;stroke-opacity:1;stroke-dasharray:none"
       d="m 102.09183,559.03707 c 0,0 12.58715,-38.78571 40.83534,-45.07074 67.10032,-14.92942 108.63728,-5.06146 108.63728,-5.06146 0,0 -19.40433,25.33299 -92.53971,62.41208 -25.48932,12.9229 -56.93291,-12.27988 -56.93291,-12.27988 z"
       id="path3023"
       inkscape:connector-curvature="0"
       sodipodi:nodetypes="cscsc" />
    <path
       sodipodi:type="arc"
       style="fill:#ffff00;fill-opacity:1;fill-rule:nonzero;stroke:#ffff00;stroke-width:3;stroke-linecap:butt;stroke-linejoin:round;stroke-miterlimit:4;stroke-opacity:1;stroke-dasharray:none;stroke-dashoffset:0"
       id="path2985"
       sodipodi:cx="361.30212"
       sodipodi:cy="532.24591"
       sodipodi:rx="34.740589"
       sodipodi:ry="34.740589"
       d="m 396.04271,532.24591 a 34.740589,34.740589 0 1 1 -69.48118,0 34.740589,34.740589 0 1 1 69.48118,0 z"
       transform="matrix(0.99894876,0,0,0.99894876,-102.00856,-26.953991)" />
    <text
       xml:space="preserve"
       style="font-size:27.97056389px;font-style:normal;font-variant:normal;font-weight:normal;font-stretch:normal;line-height:125%;letter-spacing:0px;word-spacing:0px;fill:#000000;fill-opacity:1;stroke:none;font-family:Arial;-inkscape-font-specification:Arial"
       x="103.89366"
       y="580.47601"
       id="text3765"
       sodipodi:linespacing="125%"
       transform="matrix(0.92831126,-0.37180399,0.37180399,0.92831126,0,0)"><tspan
         sodipodi:role="line"
         id="tspan3767"
         x="103.89366"
         y="580.47601">Demon</tspan></text>
    <text
       xml:space="preserve"
       style="font-size:27.97056389px;font-style:normal;font-variant:normal;font-weight:normal;font-stretch:normal;line-height:125%;letter-spacing:0px;word-spacing:0px;fill:#000000;fill-opacity:1;stroke:none;font-family:Arial;-inkscape-font-specification:Arial"
       x="462.33804"
       y="415.02994"
       id="text3769"
       sodipodi:linespacing="125%"
       transform="matrix(0.95235318,0.30499741,-0.30499741,0.95235318,0,0)"><tspan
         sodipodi:role="line"
         id="tspan3771"
         x="462.33804"
         y="415.02994">Fripon</tspan></text>
    <text
       xml:space="preserve"
       style="font-size:27.97056389px;font-style:normal;font-variant:normal;font-weight:normal;font-stretch:normal;line-height:125%;letter-spacing:0px;word-spacing:0px;fill:#000000;fill-opacity:1;stroke:none;font-family:Arial;-inkscape-font-specification:Arial"
       x="619.6001"
       y="166.14801"
       id="text3773"
       sodipodi:linespacing="125%"
       transform="matrix(0.67482352,0.73797914,-0.73797914,0.67482352,0,0)"><tspan
         sodipodi:role="line"
         id="tspan3775"
         x="619.6001"
         y="166.14801">Minou</tspan></text>
    <text
       xml:space="preserve"
       style="font-size:27.97056389px;font-style:normal;font-variant:normal;font-weight:normal;font-stretch:normal;line-height:125%;letter-spacing:0px;word-spacing:0px;fill:#000000;fill-opacity:1;stroke:none;font-family:Arial;-inkscape-font-specification:Arial"
       x="-325.88989"
       y="550.03571"
       id="text3777"
       sodipodi:linespacing="125%"
       transform="matrix(0.68285482,-0.7305541,0.7305541,0.68285482,0,0)"><tspan
         sodipodi:role="line"
         id="tspan3779"
         x="-325.88989"
         y="550.03571">Perle</tspan></text>
    <text
       xml:space="preserve"
       style="font-size:27.97056389px;font-style:normal;font-variant:normal;font-weight:normal;font-stretch:normal;line-height:125%;letter-spacing:0px;word-spacing:0px;fill:#000000;fill-opacity:1;stroke:none;font-family:Arial;-inkscape-font-specification:Arial"
       x="-48.682873"
       y="570.51929"
       id="text3781"
       sodipodi:linespacing="125%"
       transform="matrix(0.94735506,-0.32018494,0.32018494,0.94735506,0,0)"><tspan
         sodipodi:role="line"
         id="tspan3783"
         x="-48.682873"
         y="570.51929">Pirate</tspan></text>
    <text
       xml:space="preserve"
       style="font-size:27.97056389px;font-style:normal;font-variant:normal;font-weight:normal;font-stretch:normal;line-height:125%;letter-spacing:0px;word-spacing:0px;fill:#000000;fill-opacity:1;stroke:none;font-family:Arial;-inkscape-font-specification:Arial"
       x="286.84323"
       y="390.14154"
       id="text3785"
       sodipodi:linespacing="125%"
       transform="matrix(0.93208403,0.36224212,-0.36224212,0.93208403,0,0)"><tspan
         sodipodi:role="line"
         id="tspan3787"
         x="286.84323"
         y="390.14154">Tigris</tspan></text>
    <text
       xml:space="preserve"
       style="font-size:27.97056389px;font-style:normal;font-variant:normal;font-weight:normal;font-stretch:normal;line-height:125%;letter-spacing:0px;word-spacing:0px;fill:#000000;fill-opacity:1;stroke:none;font-family:Arial;-inkscape-font-specification:Arial"
       x="572.49872"
       y="-250.2421"
       id="text3025"
       sodipodi:linespacing="125%"
       transform="matrix(0,1,-1,0,0,0)"><tspan
         sodipodi:role="line"
         id="tspan3027"
         x="572.49872"
         y="-250.2421">Nino</tspan></text>
    <text
       xml:space="preserve"
       style="font-size:27.97056389px;font-style:normal;font-variant:normal;font-weight:normal;font-stretch:normal;line-height:125%;letter-spacing:0px;word-spacing:0px;fill:#000000;fill-opacity:1;stroke:none;font-family:Arial;-inkscape-font-specification:Arial"
       x="426.63757"
       y="110.90026"
       id="text3029"
       sodipodi:linespacing="125%"
       transform="matrix(0.60442389,0.79666289,-0.79666289,0.60442389,0,0)"><tspan
         sodipodi:role="line"
         id="tspan3031"
         x="426.63757"
         y="110.90026">Yuki</tspan></text>
    <text
       xml:space="preserve"
       style="font-size:36px;font-style:normal;font-weight:normal;line-height:125%;letter-spacing:0px;word-spacing:0px;fill:#000000;fill-opacity:1;stroke:none;font-family:Sans"
       x="456.59058"
       y="341.14624"
       id="text3033"
       sodipodi:linespacing="125%"
       transform="translate(95.875,339.84375)"><tspan
         sodipodi:role="line"
         id="tspan3035"
         x="456.59058"
         y="341.14624" /></text>
  </g>
</svg>
