<?xml version="1.0" encoding="UTF-8" standalone="no"?>
<!-- Created with Inkscape (http://www.inkscape.org/) -->

<svg
   xmlns:osb="http://www.openswatchbook.org/uri/2009/osb"
   xmlns:dc="http://purl.org/dc/elements/1.1/"
   xmlns:cc="http://creativecommons.org/ns#"
   xmlns:rdf="http://www.w3.org/1999/02/22-rdf-syntax-ns#"
   xmlns:svg="http://www.w3.org/2000/svg"
   xmlns="http://www.w3.org/2000/svg"
   xmlns:sodipodi="http://sodipodi.sourceforge.net/DTD/sodipodi-0.dtd"
   xmlns:inkscape="http://www.inkscape.org/namespaces/inkscape"
   width="634.96875"
   height="232.625"
   id="svg3958"
   version="1.1"
   inkscape:version="0.48.2 r9819"
   sodipodi:docname="2013-RU-05-example.svg">
  <defs
     id="defs3960">
    <linearGradient
       id="linearGradient4600"
       osb:paint="solid">
      <stop
         style="stop-color:#adadad;stop-opacity:1;"
         offset="0"
         id="stop4602" />
    </linearGradient>
    <linearGradient
       id="linearGradient4592"
       osb:paint="solid">
      <stop
         style="stop-color:#800000;stop-opacity:1;"
         offset="0"
         id="stop4594" />
    </linearGradient>
    <linearGradient
       id="linearGradient4584"
       osb:paint="solid">
      <stop
         style="stop-color:#adadad;stop-opacity:1;"
         offset="0"
         id="stop4586" />
    </linearGradient>
    <inkscape:perspective
       sodipodi:type="inkscape:persp3d"
       inkscape:vp_x="303.595 : 515.87113 : 1"
       inkscape:vp_y="0 : 1016.6317 : 0"
       inkscape:vp_z="567.74209 : 515.87113 : 1"
       inkscape:persp3d-origin="435.66855 : 337.56034 : 1"
       id="perspective3968" />
  </defs>
  <sodipodi:namedview
     id="base"
     pagecolor="#ffffff"
     bordercolor="#666666"
     borderopacity="1.0"
     inkscape:pageopacity="0.0"
     inkscape:pageshadow="2"
     inkscape:zoom="1.979899"
     inkscape:cx="301.60613"
     inkscape:cy="41.099345"
     inkscape:document-units="px"
     inkscape:current-layer="layer1"
     showgrid="false"
     inkscape:snap-to-guides="true"
     showguides="true"
     inkscape:guide-bbox="true"
     inkscape:window-width="1366"
     inkscape:window-height="720"
     inkscape:window-x="0"
     inkscape:window-y="0"
     inkscape:window-maximized="1"
     fit-margin-top="0"
     fit-margin-left="0"
     fit-margin-right="0"
     fit-margin-bottom="0" />
  <metadata
     id="metadata3963">
    <rdf:RDF>
      <cc:Work
         rdf:about="">
        <dc:format>image/svg+xml</dc:format>
        <dc:type
           rdf:resource="http://purl.org/dc/dcmitype/StillImage" />
        <dc:title />
      </cc:Work>
    </rdf:RDF>
  </metadata>
  <g
     inkscape:label="Layer 1"
     inkscape:groupmode="layer"
     id="layer1"
     transform="translate(4,-274.34375)">
    <path
       sodipodi:type="arc"
       style="fill:#0000ff;fill-opacity:0.98019804000000021;stroke:#0000ff;stroke-width:1;stroke-linejoin:bevel;stroke-miterlimit:4;stroke-opacity:1;stroke-dasharray:none"
       id="path4819-9"
       sodipodi:cx="90.408653"
       sodipodi:cy="405.35947"
       sodipodi:rx="16.667517"
       sodipodi:ry="17.67767"
       d="m 107.07617,405.35947 c 0,9.7631 -7.462301,17.67767 -16.667517,17.67767 -9.205215,0 -16.667516,-7.91457 -16.667516,-17.67767 0,-9.76311 7.462301,-17.67767 16.667516,-17.67767 9.205216,0 16.667517,7.91456 16.667517,17.67767 z"
       transform="translate(5.0506022,-97.813472)" />
    <path
       style="fill:none;stroke:#000000;stroke-width:6;stroke-linecap:butt;stroke-linejoin:miter;stroke-miterlimit:4;stroke-opacity:1;stroke-dasharray:none"
       d="m -0.9898474,506.87981 c 0,0 0.9659897,-34.00475 6.0609146,-50.00255 11.7052858,-36.75398 44.7919868,-64.5955 55.0736188,-101.77287 7.164554,-25.90633 3.515229,-80.55967 3.515229,-80.55967"
       id="path3866"
       inkscape:connector-curvature="0"
       sodipodi:nodetypes="caac" />
    <path
       sodipodi:nodetypes="caac"
       inkscape:connector-curvature="0"
       id="path3868"
       d="m 190.58924,506.87981 c 0,0 -0.96599,-34.00475 -6.06091,-50.00255 -11.70529,-36.75398 -44.79199,-64.5955 -55.07362,-101.77287 -7.16456,-25.90633 -3.51523,-80.55967 -3.51523,-80.55967"
       style="fill:none;stroke:#000000;stroke-width:6;stroke-linecap:butt;stroke-linejoin:miter;stroke-miterlimit:4;stroke-opacity:1;stroke-dasharray:none" />
    <path
       transform="translate(198.99989,-12.980964)"
       d="m 107.07617,405.35947 c 0,9.7631 -7.462301,17.67767 -16.667517,17.67767 -9.205215,0 -16.667516,-7.91457 -16.667516,-17.67767 0,-9.76311 7.462301,-17.67767 16.667516,-17.67767 9.205216,0 16.667517,7.91456 16.667517,17.67767 z"
       sodipodi:ry="17.67767"
       sodipodi:rx="16.667517"
       sodipodi:cy="405.35947"
       sodipodi:cx="90.408653"
       id="path3880"
       style="fill:#0000ff;fill-opacity:0.98019803;stroke:#0000ff;stroke-width:1;stroke-linejoin:bevel;stroke-miterlimit:4;stroke-opacity:1;stroke-dasharray:none"
       sodipodi:type="arc" />
    <path
       sodipodi:nodetypes="caac"
       inkscape:connector-curvature="0"
       id="path3884"
       d="m 219.22341,506.87981 c 0,0 0.96599,-34.00475 6.06091,-50.00255 11.70529,-36.75398 44.79199,-64.5955 55.07362,-101.77287 7.16455,-25.90633 3.51523,-80.55967 3.51523,-80.55967"
       style="fill:none;stroke:#000000;stroke-width:6;stroke-linecap:butt;stroke-linejoin:miter;stroke-miterlimit:4;stroke-opacity:1;stroke-dasharray:none" />
    <path
       style="fill:none;stroke:#000000;stroke-width:6;stroke-linecap:butt;stroke-linejoin:miter;stroke-miterlimit:4;stroke-opacity:1;stroke-dasharray:none"
       d="m 410.8025,506.87981 c 0,0 -0.96599,-34.00475 -6.06091,-50.00255 -11.70529,-36.75398 -44.79199,-64.5955 -55.07362,-101.77287 -7.16456,-25.90633 -3.51523,-80.55967 -3.51523,-80.55967"
       id="path3886"
       inkscape:connector-curvature="0"
       sodipodi:nodetypes="caac" />
    <path
       sodipodi:type="arc"
       style="fill:#0000ff;fill-opacity:0.98039215999999996;stroke:#0000ff;stroke-width:1;stroke-linejoin:bevel;stroke-miterlimit:4;stroke-opacity:1;stroke-dasharray:none"
       id="path3898"
       sodipodi:cx="90.408653"
       sodipodi:cy="405.35947"
       sodipodi:rx="16.667517"
       sodipodi:ry="17.67767"
       d="m 107.07617,405.35947 c 0,9.7631 -7.462301,17.67767 -16.667517,17.67767 -9.205215,0 -16.667516,-7.91457 -16.667516,-17.67767 0,-9.76311 7.462301,-17.67767 16.667516,-17.67767 9.205216,0 16.667517,7.91456 16.667517,17.67767 z"
       transform="translate(379.85781,78.780476)" />
    <path
       style="fill:none;stroke:#000000;stroke-width:6;stroke-linecap:butt;stroke-linejoin:miter;stroke-miterlimit:4;stroke-opacity:1;stroke-dasharray:none"
       d="m 436.40621,506.87981 c 0,0 0.96599,-34.00475 6.06091,-50.00255 11.70529,-36.75398 44.79199,-64.5955 55.07362,-101.77287 7.16455,-25.90633 3.51523,-80.55967 3.51523,-80.55967"
       id="path3902"
       inkscape:connector-curvature="0"
       sodipodi:nodetypes="caac" />
    <path
       sodipodi:nodetypes="caac"
       inkscape:connector-curvature="0"
       id="path3904"
       d="m 627.9853,506.87981 c 0,0 -0.96599,-34.00475 -6.06091,-50.00255 -11.70529,-36.75398 -44.79199,-64.5955 -55.07362,-101.77287 -7.16456,-25.90633 -3.51523,-80.55967 -3.51523,-80.55967"
       style="fill:none;stroke:#000000;stroke-width:6;stroke-linecap:butt;stroke-linejoin:miter;stroke-miterlimit:4;stroke-opacity:1;stroke-dasharray:none" />
    <rect
       transform="matrix(0.9027479,0.43017001,0.50091192,-0.86549827,0,0)"
       y="-324.44208"
       x="285.21121"
       height="51.178223"
       width="8.524972"
       id="rect3967"
       style="fill:#ff6600;fill-opacity:0.94554455;stroke:#adadad;stroke-width:0.77396381;stroke-linejoin:bevel;stroke-miterlimit:4;stroke-opacity:0.17910449;stroke-dasharray:none" />
    <rect
       transform="matrix(0,-1,1,0,0,0)"
       y="45.529133"
       x="-414.02158"
       height="50.329483"
       width="9.0690699"
       id="rect3931"
       style="fill:#ff6600;fill-opacity:0.94554455;stroke:#adadad;stroke-width:0.79163349;stroke-linejoin:bevel;stroke-miterlimit:4;stroke-opacity:0.17910449;stroke-dasharray:none" />
    <rect
       style="fill:#ff6600;fill-opacity:0.94554455;stroke:#adadad;stroke-width:0.73295319;stroke-linejoin:bevel;stroke-miterlimit:4;stroke-opacity:0.17910449;stroke-dasharray:none"
       id="rect3937"
       width="7.835083"
       height="49.939682"
       x="-120.70354"
       y="404.10739"
       transform="matrix(0.86467498,-0.50233174,0.49625725,0.86817552,0,0)" />
    <path
       transform="matrix(1.2017214,0,0,1.2514886,-115.31172,-314.74494)"
       d="m 184.85791,577.08539 c 0,4.18419 -3.39195,7.57614 -7.57614,7.57614 -4.18419,0 -7.57615,-3.39195 -7.57615,-7.57614 0,-4.18419 3.39196,-7.57615 7.57615,-7.57615 4.18419,0 7.57614,3.39196 7.57614,7.57615 z"
       sodipodi:ry="7.5761442"
       sodipodi:rx="7.5761442"
       sodipodi:cy="577.08539"
       sodipodi:cx="177.28177"
       id="path3935"
       style="fill:#000000;fill-opacity:1;fill-rule:nonzero;stroke:#000000;stroke-width:1;stroke-linecap:butt;stroke-linejoin:round;stroke-miterlimit:4;stroke-opacity:1;stroke-dasharray:none;stroke-dashoffset:0"
       sodipodi:type="arc" />
    <rect
       style="fill:#ff6600;fill-opacity:0.94554455;stroke:#adadad;stroke-width:0.73295319;stroke-linejoin:bevel;stroke-miterlimit:4;stroke-opacity:0.17910449;stroke-dasharray:none"
       id="rect3999"
       width="7.835083"
       height="49.939682"
       x="170.89467"
       y="486.25784"
       transform="matrix(-0.54016383,0.84155988,0.84532623,0.53425047,0,0)" />
    <rect
       style="fill:#ff6600;fill-opacity:0.94554455;stroke:#adadad;stroke-width:0.79163349;stroke-linejoin:bevel;stroke-miterlimit:4;stroke-opacity:0.17910449;stroke-dasharray:none"
       id="rect4001"
       width="9.0690699"
       height="50.329483"
       x="320.88843"
       y="347.52908"
       transform="matrix(0.99971105,0.02403792,-0.02403792,0.99971105,0,0)" />
    <rect
       transform="matrix(0.51432419,0.85759584,-0.83976557,0.54294916,0,0)"
       y="-60.026394"
       x="509.91946"
       height="52.729504"
       width="8.4400921"
       id="rect4003"
       style="fill:#ff6600;fill-opacity:0.94554455;stroke:#adadad;stroke-width:0.78168535;stroke-linejoin:bevel;stroke-miterlimit:4;stroke-opacity:0.17910449;stroke-dasharray:none" />
    <path
       sodipodi:type="arc"
       style="fill:#000000;fill-opacity:1;fill-rule:nonzero;stroke:#000000;stroke-width:1;stroke-linecap:butt;stroke-linejoin:round;stroke-miterlimit:4;stroke-opacity:1;stroke-dasharray:none;stroke-dashoffset:0"
       id="path4005"
       sodipodi:cx="177.28177"
       sodipodi:cy="577.08539"
       sodipodi:rx="7.5761442"
       sodipodi:ry="7.5761442"
       d="m 184.85791,577.08539 c 0,4.18419 -3.39195,7.57614 -7.57614,7.57614 -4.18419,0 -7.57615,-3.39195 -7.57615,-7.57614 0,-4.18419 3.39196,-7.57615 7.57615,-7.57615 4.18419,0 7.57614,3.39196 7.57614,7.57615 z"
       transform="matrix(-0.02888688,1.2013742,-1.251127,-0.03008318,1042.8641,211.86577)" />
    <rect
       transform="matrix(-0.03073592,0.99952754,0.99971846,0.02372758,0,0)"
       y="544.11017"
       x="389.74759"
       height="49.939682"
       width="7.835083"
       id="rect4007"
       style="fill:#ff6600;fill-opacity:0.94554455;stroke:#adadad;stroke-width:0.73295319;stroke-linejoin:bevel;stroke-miterlimit:4;stroke-opacity:0.17910449;stroke-dasharray:none" />
    <rect
       transform="matrix(0.80622214,-0.59161293,0.59161293,0.80622214,0,0)"
       y="589.36188"
       x="182.44792"
       height="50.329483"
       width="9.0690699"
       id="rect4009"
       style="fill:#ff6600;fill-opacity:0.94554455;stroke:#adadad;stroke-width:0.79163349;stroke-linejoin:bevel;stroke-miterlimit:4;stroke-opacity:0.17910449;stroke-dasharray:none" />
    <rect
       style="fill:#ff6600;fill-opacity:0.94554455;stroke:#adadad;stroke-width:0.77171028;stroke-linejoin:bevel;stroke-miterlimit:4;stroke-opacity:0.17910449;stroke-dasharray:none"
       id="rect4011"
       width="8.4494019"
       height="51.335701"
       x="662.78949"
       y="143.33934"
       transform="matrix(0.90330016,0.42900911,-0.51118076,0.85947323,0,0)" />
    <path
       transform="matrix(0.59277927,1.0453455,-1.0886366,0.61732818,1054.5494,-134.22328)"
       d="m 184.85791,577.08539 c 0,4.18419 -3.39195,7.57614 -7.57614,7.57614 -4.18419,0 -7.57615,-3.39195 -7.57615,-7.57614 0,-4.18419 3.39196,-7.57615 7.57615,-7.57615 4.18419,0 7.57614,3.39196 7.57614,7.57615 z"
       sodipodi:ry="7.5761442"
       sodipodi:rx="7.5761442"
       sodipodi:cy="577.08539"
       sodipodi:cx="177.28177"
       id="path4013"
       style="fill:#000000;fill-opacity:1;fill-rule:nonzero;stroke:#000000;stroke-width:1;stroke-linecap:butt;stroke-linejoin:round;stroke-miterlimit:4;stroke-opacity:1;stroke-dasharray:none;stroke-dashoffset:0"
       sodipodi:type="arc" />
    <path
       style="fill:none;stroke:#000000;stroke-width:6;stroke-linecap:butt;stroke-linejoin:miter;stroke-miterlimit:4;stroke-opacity:1;stroke-dasharray:none"
       d="m 97.413757,416.36918 c -5.10226,11.66391 -22.5292,38.83094 -26.66217,47.69563 -3.65129,7.83153 -10.20227,28.57362 -9.6526,42.79724"
       id="path3016"
       inkscape:connector-curvature="0"
       sodipodi:nodetypes="csc" />
    <path
       sodipodi:nodetypes="csc"
       inkscape:connector-curvature="0"
       id="path3018"
       d="m 97.066469,416.36918 c 5.102261,11.66391 22.529201,38.83094 26.662171,47.69563 3.65129,7.83153 10.20227,28.57362 9.6526,42.79724"
       style="fill:none;stroke:#000000;stroke-width:6;stroke-linecap:butt;stroke-linejoin:miter;stroke-miterlimit:4;stroke-opacity:1;stroke-dasharray:none" />
    <path
       sodipodi:nodetypes="csc"
       inkscape:connector-curvature="0"
       id="path3020"
       d="m 317.12194,416.45295 c -5.10226,11.66391 -22.5292,38.83094 -26.66217,47.69563 -3.65129,7.83153 -10.20227,28.57362 -9.6526,42.79724"
       style="fill:none;stroke:#000000;stroke-width:6;stroke-linecap:butt;stroke-linejoin:miter;stroke-miterlimit:4;stroke-opacity:1;stroke-dasharray:none" />
    <path
       style="fill:none;stroke:#000000;stroke-width:6;stroke-linecap:butt;stroke-linejoin:miter;stroke-miterlimit:4;stroke-opacity:1;stroke-dasharray:none"
       d="m 316.77465,416.45295 c 5.10226,11.66391 22.5292,38.83094 26.66217,47.69563 3.65129,7.83153 10.20227,28.57362 9.6526,42.79724"
       id="path3022"
       inkscape:connector-curvature="0"
       sodipodi:nodetypes="csc" />
    <path
       style="fill:none;stroke:#000000;stroke-width:6;stroke-linecap:butt;stroke-linejoin:miter;stroke-miterlimit:4;stroke-opacity:1;stroke-dasharray:none"
       d="m 532.28443,416.45295 c -5.10226,11.66391 -22.5292,38.83094 -26.66217,47.69563 -3.65129,7.83153 -10.20227,28.57362 -9.6526,42.79724"
       id="path3024"
       inkscape:connector-curvature="0"
       sodipodi:nodetypes="csc" />
    <path
       sodipodi:nodetypes="csc"
       inkscape:connector-curvature="0"
       id="path3026"
       d="m 531.93714,416.45295 c 5.10226,11.66391 22.5292,38.83094 26.66217,47.69563 3.65129,7.83153 10.20227,28.57362 9.6526,42.79724"
       style="fill:none;stroke:#000000;stroke-width:6;stroke-linecap:butt;stroke-linejoin:miter;stroke-miterlimit:4;stroke-opacity:1;stroke-dasharray:none" />
  </g>
</svg>
