<?xml version="1.0" encoding="UTF-8" standalone="no"?>
<svg
   xmlns:dc="http://purl.org/dc/elements/1.1/"
   xmlns:cc="http://creativecommons.org/ns#"
   xmlns:rdf="http://www.w3.org/1999/02/22-rdf-syntax-ns#"
   xmlns:svg="http://www.w3.org/2000/svg"
   xmlns="http://www.w3.org/2000/svg"
   xmlns:sodipodi="http://sodipodi.sourceforge.net/DTD/sodipodi-0.dtd"
   xmlns:inkscape="http://www.inkscape.org/namespaces/inkscape"
   width="73.779198"
   height="105.22137"
   id="svg2"
   version="1.1"
   inkscape:version="0.48.5 r10040"
   sodipodi:docname="svg2.svg">
  <defs
     id="defs27" />
  <sodipodi:namedview
     pagecolor="#ffffff"
     bordercolor="#666666"
     borderopacity="1"
     objecttolerance="10"
     gridtolerance="10"
     guidetolerance="10"
     inkscape:pageopacity="0"
     inkscape:pageshadow="2"
     inkscape:window-width="1920"
     inkscape:window-height="1001"
     id="namedview25"
     showgrid="false"
     fit-margin-top="0"
     fit-margin-left="0"
     fit-margin-right="0"
     fit-margin-bottom="0"
     inkscape:zoom="0.97642187"
     inkscape:cx="86.33493"
     inkscape:cy="-15.661903"
     inkscape:window-x="-9"
     inkscape:window-y="-9"
     inkscape:window-maximized="1"
     inkscape:current-layer="svg2" />
  <metadata
     id="metadata7">image/svg+xml<rdf:RDF>
  <cc:Work
     rdf:about="">
    <dc:format>image/svg+xml</dc:format>
    <dc:type
       rdf:resource="http://purl.org/dc/dcmitype/StillImage" />
  </cc:Work>
</rdf:RDF>
</metadata>
  <g
     id="g5"
     transform="translate(2.9759135,0.03387166)">
    <title
       id="title7">background</title>
    <rect
       id="canvas_background"
       height="402"
       width="582"
       y="-1"
       x="-1"
       style="fill:none" />
  </g>
  <g
     id="g10"
     transform="translate(2.9759135,0.03387166)">
    <title
       id="title12">Layer 1</title>
    <path
       stroke-miterlimit="4"
       id="path5551"
       d="m 33.101654,14.407745 c -9.68478,0.09758 -20.099849,5.207077 -26.066796,12.835968 -4.537786,5.801666 0.570986,19.599243 -4.699137,21.59108 -5.554791,2.099411 -3.745714,9.696518 2.562862,14.251205 5.052369,18.123337 16.7569,29.222076 28.534027,31.410568 11.003197,-1.28595 23.7131,-12.387665 28.707062,-29.275589 8.376534,-5.316086 8.998177,-17.075119 1.12331,-16.840668 C 60.91272,37.278258 63.234067,32.196883 58.551613,26.308867 52.722538,18.979079 42.466229,14.313368 33.101647,14.407744 l 8e-6,0 z"
       inkscape:connector-curvature="0"
       style="fill:none;stroke:#000000;stroke-width:4;stroke-miterlimit:4" />
    <path
       stroke-miterlimit="4"
       id="path5553"
       d="M 23.534983,75.516479 C 33.550232,89.421676 43.675659,75.279541 43.675659,75.279541"
       inkscape:connector-curvature="0"
       style="fill:none;stroke:#000000;stroke-width:4;stroke-linejoin:round;stroke-miterlimit:4" />
    <path
       stroke-miterlimit="4"
       id="path5555"
       d="m 27.979961,53.20163 c 11.373558,0 11.373558,0 11.373558,0"
       inkscape:connector-curvature="0"
       style="fill:none;stroke:#000000;stroke-width:4;stroke-miterlimit:4" />
    <path
       stroke-miterlimit="4"
       d="m 53.660416,53.201599 c 0,3.925919 -3.394745,7.108475 -7.582371,7.108475 -4.187626,0 -7.582375,-3.182556 -7.582375,-7.108475 0,-3.925903 3.394749,-7.108475 7.582375,-7.108475 4.187626,0 7.582371,3.182571 7.582371,7.108475 z"
       id="path5557"
       inkscape:connector-curvature="0"
       style="fill:#ffffff;fill-rule:evenodd;stroke:#000000;stroke-width:4;stroke-linejoin:round;stroke-miterlimit:4;stroke-dashoffset:0" />
    <path
       stroke-miterlimit="4"
       id="path5559"
       d="m 27.30201,52.727707 c 0,3.925903 -3.394745,7.108475 -7.582375,7.108475 -4.187626,0 -7.582373,-3.182571 -7.582373,-7.108475 0,-3.925903 3.394747,-7.108475 7.582373,-7.108475 4.18763,0 7.582375,3.182571 7.582375,7.108475 z"
       inkscape:connector-curvature="0"
       style="fill:#ffffff;fill-rule:evenodd;stroke:#000000;stroke-width:4;stroke-linejoin:round;stroke-miterlimit:4;stroke-dashoffset:0" />
    <path
       id="path5561"
       d="M 6.56459,28.150803 C 9.881878,20.568421 20.78154,15.35553 33.576798,13.933854 48.109685,15.829438 56.007992,20.094529 61.062901,26.729096 64.380188,34.785401 62.9585,41.893876 63.4324,48.054551 59.957134,39.366395 57.90358,35.417252 53.954438,29.572511 36.736127,43.315538 27.10019,38.57657 13.673073,33.363694 8.776118,38.576569 10.987645,37.154862 5.616797,48.528413 1.983576,45.843003 4.03713,35.101304 6.564591,28.150804 z"
       inkscape:connector-curvature="0"
       style="fill:#24221c;stroke:#000000;stroke-width:1px" />
    <path
       stroke-miterlimit="4"
       id="path5563"
       d="m 34.524586,58.36618 c -11.126678,6.701294 -3.799166,10.4198 -3.791189,10.425766 l 5.212889,-0.473877 0.947792,0.473877"
       inkscape:connector-curvature="0"
       style="fill:none;stroke:#000000;stroke-width:4;stroke-miterlimit:4" />
    <path
       stroke-miterlimit="4"
       id="path5565"
       d="m 33.159172,0.029663 c -5.917088,-0.109451 -11.883057,3.130829 -8.350613,10.133331 -6.684103,1.564041 -13.950958,1.886429 -20.615152,22.451477 26.163132,-8.761459 33.575605,-6.57106 59.245108,0 C 55.263207,11.197616 53.642281,13.13919 41.214897,9.975341 44.93713,3.593215 39.076256,0.139129 33.159172,0.029662 z"
       inkscape:connector-curvature="0"
       style="fill:#000000;stroke:#ffffff;stroke-width:0;stroke-miterlimit:4" />
    <path
       stroke-miterlimit="4"
       d="m 23.151026,53.976181 c 0,1.570374 -1.379114,2.843399 -3.080338,2.843399 -1.701223,0 -3.080341,-1.273026 -3.080341,-2.843399 0,-1.570374 1.379118,-2.843399 3.080341,-2.843399 1.701223,0 3.080338,1.273026 3.080338,2.843399 z"
       id="path5567"
       inkscape:connector-curvature="0"
       style="fill:#000000;fill-rule:evenodd;stroke:#ffffff;stroke-width:2.41788197;stroke-linejoin:round;stroke-miterlimit:4;stroke-dashoffset:0" />
    <path
       stroke-miterlimit="4"
       id="path5569"
       d="m 49.689335,54.540024 c 0,1.570374 -1.379116,2.843399 -3.080338,2.843399 -1.701225,0 -3.080341,-1.273026 -3.080341,-2.843399 0,-1.570374 1.379116,-2.843399 3.080341,-2.843399 1.701221,0 3.080338,1.273026 3.080338,2.843399 z"
       inkscape:connector-curvature="0"
       style="fill:#000000;fill-rule:evenodd;stroke:#ffffff;stroke-width:2.41788197;stroke-linejoin:round;stroke-miterlimit:4;stroke-dashoffset:0" />
    <path
       stroke-miterlimit="4"
       id="path5611"
       d="M 15.014153,91.773056 33.022286,98.407639 52.926018,91.299164 51.97823,102.19882 32.07449,98.407639 17.383641,100.77712 15.014153,91.773056 z"
       inkscape:connector-curvature="0"
       style="fill:#000000;stroke:#000000;stroke-width:5;stroke-miterlimit:4" />
  </g>
</svg>
