<?xml version="1.0" encoding="UTF-8" standalone="no"?>
<!-- Created with Inkscape (http://www.inkscape.org/) -->

<svg
   xmlns:dc="http://purl.org/dc/elements/1.1/"
   xmlns:cc="http://creativecommons.org/ns#"
   xmlns:rdf="http://www.w3.org/1999/02/22-rdf-syntax-ns#"
   xmlns:svg="http://www.w3.org/2000/svg"
   xmlns="http://www.w3.org/2000/svg"
   xmlns:sodipodi="http://sodipodi.sourceforge.net/DTD/sodipodi-0.dtd"
   xmlns:inkscape="http://www.inkscape.org/namespaces/inkscape"
   width="85.188156"
   height="107.62811"
   id="svg3470"
   version="1.1"
   inkscape:version="0.48.4 r9939"
   sodipodi:docname="beaver.svg">
  <defs
     id="defs3472" />
  <sodipodi:namedview
     id="base"
     pagecolor="#ffffff"
     bordercolor="#666666"
     borderopacity="1.0"
     inkscape:pageopacity="0.0"
     inkscape:pageshadow="2"
     inkscape:zoom="5.12"
     inkscape:cx="66.253791"
     inkscape:cy="54.509669"
     inkscape:document-units="px"
     inkscape:current-layer="layer1"
     showgrid="false"
     inkscape:snap-page="true"
     inkscape:window-width="648"
     inkscape:window-height="832"
     inkscape:window-x="1309"
     inkscape:window-y="318"
     inkscape:window-maximized="0"
     fit-margin-top="0"
     fit-margin-left="0"
     fit-margin-right="0"
     fit-margin-bottom="0" />
  <metadata
     id="metadata3475">
    <rdf:RDF>
      <cc:Work
         rdf:about="">
        <dc:format>image/svg+xml</dc:format>
        <dc:type
           rdf:resource="http://purl.org/dc/dcmitype/StillImage" />
        <dc:title></dc:title>
      </cc:Work>
    </rdf:RDF>
  </metadata>
  <g
     inkscape:label="Layer 1"
     inkscape:groupmode="layer"
     id="layer1"
     transform="translate(-2.1014418,-2.6536698)">
    <path
       style="fill:#e58f56;fill-opacity:1;stroke:#000000;stroke-width:1.274;stroke-linecap:butt;stroke-linejoin:miter;stroke-opacity:1;stroke-miterlimit:4;stroke-dasharray:none"
       d="m 39.802705,89.827369 c 0,0 -50.029927,-37.771307 -24.23324,-62.413833 25.79668,-24.6425265 35.959,63.154648 35.959,63.154648 z"
       id="path3011"
       inkscape:connector-curvature="0" />
    <path
       style="fill:#e58f56;fill-opacity:1;stroke:#000000;stroke-width:1.24905515;stroke-linecap:butt;stroke-linejoin:miter;stroke-miterlimit:4;stroke-opacity:1;stroke-dasharray:none;display:inline"
       d="m 77.865658,79.034363 c 4.10115,0.40151 8.4987,-6.66654 -0.59231,-11.88215 -1.55941,-7.61657 1.1954,-13.79398 -9.99632,-16.2883 -8.366566,-0.24844 -5.889696,14.56271 -5.889696,14.56271 2.00985,6.34745 8.824636,12.53186 16.478326,13.60774 z"
       id="path6643"
       inkscape:connector-curvature="0"
       sodipodi:nodetypes="ccccc" />
    <path
       sodipodi:nodetypes="ccsssc"
       inkscape:connector-curvature="0"
       id="path6645"
       d="m 61.863042,72.937263 c 0,0 15.523176,6.35084 9.741656,19.45986 0,0 8.12612,1.39349 8.82386,6.70617 1.00251,7.633257 -9.8235,6.380837 -18.052136,5.304617 -6.22028,-0.81354 -3.20294,-9.454297 -4.93046,-11.516537 -5.04159,-6.01847 -4.5366,-19.82403 4.41708,-19.95411 z"
       style="fill:#e58f56;fill-opacity:1;stroke:#000000;stroke-width:1.49532354;stroke-linecap:butt;stroke-linejoin:miter;stroke-miterlimit:4;stroke-opacity:1;stroke-dasharray:none;display:inline" />
    <path
       sodipodi:nodetypes="ccccc"
       inkscape:connector-curvature="0"
       id="path6649"
       d="m 44.379352,47.164553 c 0,0 -11.74477,11.30014 -7.42258,34.04045 1.41949,4.05875 8.93009,18.895967 17.71287,11.94265 29.211286,-0.0422 21.468676,-39.73944 12.165026,-46.79165 -16.996166,-28.57701 -22.455316,0.80855 -22.455316,0.80855 z"
       style="fill:#e58f56;fill-opacity:1;stroke:#000000;stroke-width:1.49532354;stroke-linecap:butt;stroke-linejoin:miter;stroke-miterlimit:4;stroke-opacity:1;stroke-dasharray:none;display:inline" />
    <path
       sodipodi:nodetypes="ccsssc"
       inkscape:connector-curvature="0"
       id="path6687"
       d="m 59.038142,88.984393 c 0,0 2.23152,1.73773 -1.61615,6.73692 0,0 10.010056,4.426027 8.046516,10.018907 -1.978016,5.63418 -10.766096,4.84577 -24.222126,-1.38702 -6.20455,-2.87392 -5.3582,-8.886517 -2.48738,-11.974377 2.19726,-2.36337 -1.34883,-6.49788 -1.9153,-12.72299"
       style="fill:#e58f56;fill-opacity:1;stroke:#000000;stroke-width:1.49532354;stroke-linecap:round;stroke-linejoin:round;stroke-miterlimit:4;stroke-opacity:1;stroke-dasharray:none;display:inline" />
    <path
       style="fill:#ffad76;fill-opacity:1;stroke:none;display:inline"
       d="m 47.701082,40.998543 c 0,0 0.19032,35.48093 7.24475,43.15685 3.98428,4.33529 12.177896,2.62265 14.349336,1.58547 3.92983,-1.87709 4.29213,-8.26482 4.29213,-8.26482 0,0 5.4642,-16.65076 -10.297436,-38.17251 -17.97892,-24.54933 -15.58878,1.69501 -15.58878,1.69501 z"
       id="path6651"
       inkscape:connector-curvature="0"
       sodipodi:nodetypes="csscsc" />
    <path
       style="fill:#e58f56;fill-opacity:1;stroke:#000000;stroke-width:1.38029885;stroke-linecap:round;stroke-linejoin:round;stroke-miterlimit:4;stroke-opacity:1;stroke-dasharray:none;display:inline"
       d="m 64.457918,14.251493 c 0,0 1.49038,-15.24277988 -5.699256,-9.3111999 -2.04289,1.68541 1.41015,9.0041699 1.41015,9.0041699 z"
       id="path6653"
       inkscape:connector-curvature="0"
       sodipodi:nodetypes="cscc" />
    <path
       style="fill:#e58f56;fill-opacity:1;stroke:#000000;stroke-width:1.49532354;stroke-linecap:round;stroke-linejoin:round;stroke-miterlimit:4;stroke-opacity:1;stroke-dasharray:none;display:inline"
       d="m 74.864058,32.236743 c 0,0 3.35058,-21.34937 -18.928156,-21.02843 -11.34507,0.16341 -19.8661,5.70733 -19.39981,19.75872 0,0 -9.3607,16.46451 10.45703,23.96047 0,0 11.37078,2.99434 23.451176,-0.48642 0,0 18.75239,-6.658 4.41976,-22.20434 z"
       id="path6655"
       inkscape:connector-curvature="0"
       sodipodi:nodetypes="cscccc" />
    <path
       style="fill:#000000;stroke:#000000;stroke-width:1.150249;stroke-linecap:round;stroke-linejoin:round;stroke-miterlimit:4;stroke-opacity:1;stroke-dasharray:none;display:inline"
       d="m 66.439438,23.668593 c 0,0 -2.1666,-1.11979 -2.31693,2.03765 -0.100066,2.09687 0.12335,3.53833 2.1251,3.44965 1.98343,-0.0878 1.55841,-3.14969 1.55841,-3.14969 0,0 -0.23331,-2.33761 -1.36658,-2.33761 z"
       id="path6657"
       inkscape:connector-curvature="0"
       sodipodi:nodetypes="csscc" />
    <path
       sodipodi:nodetypes="cc"
       inkscape:connector-curvature="0"
       id="path6659"
       d="m 79.544908,41.591013 c 0,0 -10.8026,13.1784 -19.745346,-2.17649"
       style="fill:#ffad76;fill-opacity:1;stroke:#000000;stroke-width:1.26527393;stroke-linecap:round;stroke-linejoin:round;stroke-miterlimit:4;stroke-opacity:1;stroke-dasharray:none;display:inline" />
    <path
       style="fill:#ffad76;fill-opacity:1;stroke:none;display:inline"
       d="m 60.720212,39.599633 c 0,0 -2.85461,-9.036 8.621506,-7.84882 0,0 7.39929,1.84329 8.75823,5.39353 2.37652,6.20903 2.96795,4.76463 2.96795,4.76463"
       id="path6661"
       inkscape:connector-curvature="0"
       sodipodi:nodetypes="ccsc" />
    <path
       style="fill:none;stroke:#000000;stroke-width:1.38029885;stroke-linecap:round;stroke-linejoin:round;stroke-miterlimit:4;stroke-opacity:1;stroke-dasharray:none;display:inline"
       d="m 66.595728,35.382123 c 0,0 -11.463796,-5.63208 -22.548036,-7.94685"
       id="path6663"
       inkscape:connector-curvature="0" />
    <path
       style="fill:none;stroke:#000000;stroke-width:1.38029885;stroke-linecap:round;stroke-linejoin:round;stroke-miterlimit:4;stroke-opacity:1;stroke-dasharray:none;display:inline"
       d="m 66.181838,37.732363 c 0,0 -21.991906,-1.6445 -22.731896,-1.2706"
       id="path6665"
       inkscape:connector-curvature="0" />
    <path
       style="fill:none;stroke:#000000;stroke-width:1.38029885;stroke-linecap:round;stroke-linejoin:round;stroke-miterlimit:4;stroke-opacity:1;stroke-dasharray:none;display:inline"
       d="m 65.934128,40.708853 -21.394976,5.01353"
       id="path6667"
       inkscape:connector-curvature="0" />
    <path
       style="fill:#e58f56;fill-opacity:1;stroke:#000000;stroke-width:1.49532354;stroke-linecap:round;stroke-linejoin:round;stroke-miterlimit:4;stroke-opacity:1;stroke-dasharray:none;display:inline"
       d="m 57.269332,12.058293 c 0,0 -3.21707,-13.6550199 -9.43103,-6.6657199 -1.76565,1.98596 2.82623,7.5816799 2.82623,7.5816799"
       id="path6673"
       inkscape:connector-curvature="0"
       sodipodi:nodetypes="csc" />
    <path
       style="fill:#e58f56;fill-opacity:1;stroke:#000000;stroke-width:1.30853415;stroke-linecap:butt;stroke-linejoin:miter;stroke-miterlimit:4;stroke-opacity:1;stroke-dasharray:none;display:inline"
       d="m 49.383222,82.004453 c 4.03183,0.85152 9.18232,-5.68822 0.72223,-11.87497 -0.70958,-7.74212 2.70995,-13.57788 -8.13826,-17.29172 -8.28809,-1.16998 -7.46041,13.82402 -7.46041,13.82402 1.29729,6.53044 7.38817,13.42895 14.87644,15.34267 z"
       id="path6685"
       inkscape:connector-curvature="0"
       sodipodi:nodetypes="ccccc" />
    <path
       style="fill:#000000;fill-opacity:1;stroke:#000000;stroke-width:0.13137531px;stroke-linecap:butt;stroke-linejoin:miter;stroke-opacity:1"
       d="m 75.027094,34.116773 c 0.03109,4.532351 3.15848,7.958389 5.627904,8.036592 1.157714,-3.017266 3.031588,-5.714369 0.715419,-8.986372 -1.744859,-1.320309 -4.474577,-0.197078 -6.343323,0.94978 z"
       id="path3015"
       inkscape:connector-curvature="0"
       sodipodi:nodetypes="cccc" />
    <path
       style="fill:#5599ff"
       d="m 52.288947,105.52803 c -3.714456,-0.78879 -11.190072,-3.587 -14.031353,-5.2521 -3.272899,-1.918047 -3.853851,-6.239939 -1.29445,-9.629842 0.441055,-0.584173 0.895597,-1.330862 1.010095,-1.65931 0.33153,-0.951029 0.0455,-2.780213 -0.901857,-5.767361 -0.483188,-1.523566 -1.017955,-3.501105 -1.188371,-4.394531 -0.170415,-0.893426 -0.395757,-1.975973 -0.500758,-2.405661 -0.175321,-0.717445 -0.562439,-4.009191 -0.57039,-4.850147 -0.0021,-0.226845 0.392297,0.130856 1.076869,0.976562 2.435431,3.008678 5.925637,5.577588 9.299818,6.844982 2.327444,0.874223 3.51116,0.896134 5.066876,0.09379 l 1.116836,-0.575997 0.359662,0.797588 c 0.553312,1.227028 2.209327,2.797946 3.627257,3.440866 1.84012,0.834349 3.295649,1.054872 6.160481,0.933353 2.87985,-0.122155 4.973049,-0.628574 6.247801,-1.511565 0.456543,-0.316236 0.828922,-0.510868 0.827509,-0.432515 -0.004,0.220474 -2.161404,2.666317 -2.927119,3.318426 -1.714955,1.460515 -4.744802,3.008839 -6.738281,3.443422 l -0.585937,0.127736 -0.02428,-1.045612 c -0.02788,-1.200648 -0.272392,-1.758367 -0.971806,-2.21664 -0.467584,-0.306374 -0.515284,-0.302497 -0.890133,0.07235 -0.373635,0.373634 -0.378451,0.430155 -0.08501,0.997615 0.63576,1.229426 0.30973,2.723771 -1.049387,4.809824 -1.029713,1.580465 -0.960191,1.870207 0.642643,2.678348 2.805529,1.414527 5.532584,3.757133 6.344752,5.450291 1.225449,2.554745 -0.32177,5.388495 -3.289625,6.024985 -1.603313,0.34385 -4.366172,0.2335 -6.731846,-0.26886 z"
       id="path3151"
       inkscape:connector-curvature="0"
       transform="translate(2.1014418,2.6536698)" />
    <path
       style="fill:#5599ff"
       d="m 65.476961,101.53387 -1.069799,-0.11464 -0.141636,-0.83545 c -0.387828,-2.28762 -3.180367,-5.295659 -6.75197,-7.273019 -0.456543,-0.252758 -0.830078,-0.522295 -0.830078,-0.598971 0,-0.07668 0.214955,-0.517845 0.477676,-0.980375 0.459394,-0.808776 0.542992,-0.858302 2.184185,-1.293976 2.127898,-0.564874 4.883035,-1.865576 6.420171,-3.030966 1.15626,-0.876626 2.906934,-2.618989 3.778625,-3.760685 l 0.447366,-0.585938 -0.101997,1.715533 c -0.07322,1.231515 -0.286446,2.254254 -0.75575,3.624958 l -0.653751,1.909427 1.670097,0.426341 c 3.30236,0.843024 6.044673,2.593866 6.943513,4.433116 0.568078,1.162431 0.537723,3.279084 -0.06083,4.241728 -0.567201,0.912217 -2.355509,1.819287 -4.138367,2.099067 -1.324682,0.20788 -5.572827,0.22154 -7.417455,0.0238 z"
       id="path3153"
       inkscape:connector-curvature="0"
       transform="translate(2.1014418,2.6536698)" />
    <path
       style="fill:#5599ff"
       d="m 74.499827,75.46261 c -0.56722,-0.142807 -1.077111,-0.305449 -1.133092,-0.36143 -0.05598,-0.05598 0.0454,-1.100682 0.225291,-2.321557 0.443149,-3.00754 0.299563,-8.813004 -0.3028,-12.242848 -0.448937,-2.556238 -1.443705,-6.297779 -2.125509,-7.994503 -0.461032,-1.147315 -0.3364,-1.28141 0.455225,-0.489785 1.264198,1.264198 1.886809,3.284008 2.243118,7.276894 0.119823,1.342774 0.319096,3.130429 0.442828,3.972567 l 0.224968,1.531161 1.184233,0.802815 c 2.679929,1.816778 4.010926,3.779144 4.014356,5.918598 0.0047,2.944195 -2.278549,4.650807 -5.228618,3.908088 l 0,0 z"
       id="path3155"
       inkscape:connector-curvature="0"
       transform="translate(2.1014418,2.6536698)" />
    <path
       style="fill:#5599ff"
       d="M 46.917853,78.53975 C 46.75672,78.476088 45.965705,78.165245 45.160041,77.848985 40.558923,76.042832 36.330407,71.881182 34.178074,67.04068 c -1.01067,-2.272955 -1.199553,-3.300205 -1.035194,-5.629965 0.365217,-5.1769 1.380756,-8.152831 3.303632,-9.680941 1.404853,-1.116436 3.124876,-1.07316 5.634929,0.141775 3.035483,1.469258 4.581715,3.352283 5.016566,6.109249 0.108518,0.68801 0.183503,3.174516 0.166633,5.52557 l -0.03067,4.274643 0.769678,0.597917 c 1.305466,1.014139 2.618715,2.52186 3.161078,3.629186 1.515577,3.094306 0.03351,6.415248 -2.940265,6.588371 -0.557499,0.03246 -1.145471,0.0069 -1.306604,-0.05674 z"
       id="path3157"
       inkscape:connector-curvature="0"
       transform="translate(2.1014418,2.6536698)" />
    <path
       style="fill:#5599ff"
       d="M 33.53283,82.834745 C 22.416166,73.157414 13.815534,62.587735 9.7986691,53.666832 8.8495197,51.558903 7.6145666,47.826637 7.2454371,45.950475 6.8211277,43.79385 6.8827881,38.114233 7.3503968,36.282506 c 1.0135988,-3.97049 2.9994412,-7.333598 6.2942142,-10.659514 4.29359,-4.334175 8.421899,-5.519923 12.374805,-3.554336 1.582002,0.786653 4.53399,3.674344 5.998312,5.867665 l 1.012856,1.517095 -0.464776,1.23479 C 31.523,33.458698 31.19751,37.4143 31.78323,40.19872 c 0.3801,1.806933 1.177873,3.693536 2.195569,5.192157 0.791357,1.165327 3.281488,3.782254 3.598994,3.782254 0.466377,0 0.04596,0.38125 -0.759715,0.68894 -2.579682,0.985189 -4.35627,4.42492 -4.926447,9.538304 -0.393436,3.528362 -0.162297,5.963288 0.724777,7.63519 0.221086,0.416687 0.38673,1.626086 0.553604,4.041967 0.35722,5.171584 0.856015,7.930365 2.159849,11.945877 0.272529,0.839334 0.461709,1.559859 0.420399,1.60117 -0.04131,0.04131 -1.039155,-0.764116 -2.21743,-1.789834 l 0,0 z"
       id="path3159"
       inkscape:connector-curvature="0"
       transform="translate(2.1014418,2.6536698)" />
    <path
       style="fill:#5599ff"
       d="m 52.679572,52.56392 c -2.02435,-0.135148 -5.810738,-0.659603 -7.03125,-0.973906 -2.473114,-0.636867 -6.193564,-2.74341 -8.316449,-4.708826 -4.427038,-4.098656 -5.501698,-10.839887 -2.709681,-16.997547 0.451512,-0.995789 0.57726,-1.553043 0.578514,-2.563697 8.81e-4,-0.710238 0.08729,-2.038414 0.192008,-2.9515 0.806718,-7.033823 4.247671,-11.557702 10.415493,-13.693423 l 1.571789,-0.544261 0.443197,0.478217 c 0.704561,0.760235 1.43841,0.558153 1.43841,-0.396098 0,-0.141036 -0.527012,-1.0287454 -1.171138,-1.9726877 -1.181838,-1.7319399 -1.953862,-3.419579 -1.953862,-4.2711309 0,-0.596402 1.708794,-2.1591722 2.543453,-2.326104 0.787948,-0.1575895 1.721967,0.241105 2.510173,1.0714906 0.805273,0.8483648 2.24097,3.6987927 2.770284,5.5001136 0.227522,0.7742842 0.530319,1.5290478 0.672883,1.6772523 0.326479,0.3393941 1.268832,0.1337391 1.268832,-0.276905 0,-0.1999903 0.139467,-0.2647137 0.439453,-0.2039391 0.2417,0.048966 0.966797,0.1410387 1.611329,0.2046051 2.927511,0.2887236 6.452064,1.6578121 8.543322,3.3185931 2.270306,1.802974 4.043045,4.750721 4.972674,8.268665 0.429263,1.624442 0.510439,2.397315 0.566615,5.394768 0.06313,3.368332 0.08289,3.517512 0.530391,4.003906 0.355898,0.386832 0.430515,0.619637 0.318423,0.9935 -0.09332,0.311268 -0.153453,0.365565 -0.165863,0.149776 -0.03943,-0.685573 -4.221428,-2.383537 -6.39901,-2.598112 -1.620924,-0.15972 -3.905728,0.158498 -4.945072,0.688733 l -0.745398,0.380273 -1.767676,-0.766683 C 55.057928,27.799329 49.910933,26.054842 45.352922,24.870514 41.99288,23.997459 41.253791,23.97192 41.253791,24.72886 c 0,0.582779 0.352285,0.755517 2.644622,1.29676 3.660933,0.864382 8.318847,2.378349 12.924462,4.200851 l 2.580803,1.021258 -0.359702,0.710748 c -0.197836,0.390912 -0.423394,1.005666 -0.501238,1.366121 l -0.141537,0.655371 -1.200658,-0.119351 c -1.155516,-0.114864 -8.246015,-0.553268 -13.114721,-0.810879 -2.529502,-0.13384 -3.417969,0.03507 -3.417969,0.649808 0,0.650485 0.417147,0.825147 1.970714,0.825147 2.602578,0 15.526066,0.830111 15.70471,1.008758 0.05167,0.05167 0.148561,0.395152 0.215315,0.763296 0.120154,0.662655 0.118109,0.664956 -0.204354,0.229899 -0.435795,-0.587959 -1.044402,-0.570844 -1.196119,0.03364 -0.08254,0.328855 0.03478,0.699019 0.384799,1.214117 0.367156,0.540318 0.437984,0.775535 0.261504,0.868447 -0.133121,0.07008 -3.537936,0.891033 -7.566256,1.824334 -4.028321,0.933299 -7.559603,1.787848 -7.847294,1.898996 -1.200007,0.463619 -0.592688,1.669213 0.671196,1.332397 0.348221,-0.0928 4.060863,-0.966674 8.250317,-1.941944 l 7.617187,-1.773219 1.662455,1.616342 c 3.644643,3.543551 7.574346,4.1971 11.970514,1.990817 1.648765,-0.827459 2.230154,-1.227991 3.652187,-2.516067 0.988772,-0.895629 1.079192,-0.938422 1.136733,-0.537988 0.106002,0.73767 -0.351899,2.512359 -0.964584,3.738453 -1.583709,3.169283 -5.679004,6.107883 -9.944647,7.135834 -1.124148,0.2709 -2.96676,0.621197 -4.094689,0.778436 -2.132387,0.297263 -7.633906,0.510472 -9.667969,0.374677 l 0,0 z M 65.071224,26.855362 c 1.221745,-0.618303 1.66658,-3.222369 0.858553,-5.025981 -0.520031,-1.160773 -0.81282,-1.371636 -2.087182,-1.503162 -0.961255,-0.09921 -1.121337,-0.06018 -1.562416,0.380893 -0.6664,0.6664 -0.97196,1.924369 -0.858091,3.532709 0.101402,1.432252 0.481691,2.177494 1.334906,2.615978 0.601986,0.309373 1.702467,0.309164 2.31423,-3.9e-4 l 0,-4.7e-5 z"
       id="path3161"
       inkscape:connector-curvature="0"
       transform="translate(2.1014418,2.6536698)" />
    <path
       style="fill:#5599ff"
       d="M 60.493402,8.4411301 C 59.957024,8.2940684 59.064285,8.1170362 58.509538,8.047725 57.501383,7.9217643 57.500797,7.9212762 57.270831,7.0142149 56.532249,4.1010168 56.614659,3.2731674 57.723178,2.4701606 c 1.915005,-1.3872223 2.972604,-0.8646826 3.604866,1.7810957 0.293295,1.2273299 0.521398,4.4959976 0.312267,4.4747232 -0.09442,-0.00961 -0.610531,-0.1377877 -1.146909,-0.2848494 z"
       id="path3163"
       inkscape:connector-curvature="0"
       transform="translate(2.1014418,2.6536698)" />
  </g>
</svg>
