<?xml version="1.0" encoding="UTF-8" standalone="no"?>
<svg
   xmlns:dc="http://purl.org/dc/elements/1.1/"
   xmlns:cc="http://creativecommons.org/ns#"
   xmlns:rdf="http://www.w3.org/1999/02/22-rdf-syntax-ns#"
   xmlns:svg="http://www.w3.org/2000/svg"
   xmlns="http://www.w3.org/2000/svg"
   xmlns:sodipodi="http://sodipodi.sourceforge.net/DTD/sodipodi-0.dtd"
   xmlns:inkscape="http://www.inkscape.org/namespaces/inkscape"
   width="239.40268"
   height="311.47559"
   id="svg2"
   version="1.1"
   inkscape:version="0.48.2 r9819"
   sodipodi:docname="sun-faucet.svg">
  <defs
     id="defs21" />
  <sodipodi:namedview
     pagecolor="#ffffff"
     bordercolor="#666666"
     borderopacity="1"
     objecttolerance="10"
     gridtolerance="10"
     guidetolerance="10"
     inkscape:pageopacity="0"
     inkscape:pageshadow="2"
     inkscape:window-width="751"
     inkscape:window-height="724"
     id="namedview19"
     showgrid="false"
     fit-margin-top="0"
     fit-margin-left="0"
     fit-margin-right="0"
     fit-margin-bottom="0"
     inkscape:zoom="0.92794654"
     inkscape:cx="216.18648"
     inkscape:cy="149.58756"
     inkscape:window-x="58"
     inkscape:window-y="0"
     inkscape:window-maximized="0"
     inkscape:current-layer="svg2" />
  <title
     id="title4">Sun Faucet</title>
  <metadata
     id="metadata3">faucettapfaucetplumbingOpen Clip Art LibraryJohn Olsenimage/svg+xmlen<rdf:RDF>
  <cc:Work
     rdf:about="">
    <dc:format>image/svg+xml</dc:format>
    <dc:type
       rdf:resource="http://purl.org/dc/dcmitype/StillImage" />
    <dc:title>Sun Faucet</dc:title>
  </cc:Work>
</rdf:RDF>
</metadata>
  <g
     id="g7"
     style="fill:#b3b3b3"
     transform="translate(-31.196276,-8.3804026)">
    <title
       id="title9">Layer 1</title>
    <g
       id="g3171"
       transform="matrix(0.939526,0,0,0.939526,12.9636,4.00651)"
       style="fill:#b3b3b3">
      <path
         d="m 21.643459,140.06641 -0.75753,61.73834 63.253391,6.43896 0,-72.34369 -62.495861,4.16639 z"
         id="path3375"
         stroke-miterlimit="4"
         style="fill:#b3b3b3;fill-rule:evenodd;stroke:#000000;stroke-width:2.9103291;stroke-miterlimit:4"
         inkscape:connector-curvature="0" />
      <rect
         id="rect3377"
         width="23.033014"
         height="35.620823"
         x="140.76035"
         y="38.993095"
         rx="74.048828"
         ry="0.053213"
         stroke-miterlimit="4"
         style="fill:#b3b3b3;stroke:#000000;stroke-width:2.9103291;stroke-miterlimit:4;stroke-dashoffset:0" />
      <g
         id="g3379"
         stroke-miterlimit="4"
         style="fill:#b3b3b3;stroke-width:2.73432994;stroke-miterlimit:4">
        <path
           id="path3381"
           d="m 84.139359,135.63669 c 3.866219,0.25694 5.606834,4.53894 9.279694,5.87082 3.550331,1.01182 7.193617,0.66249 10.794737,0.37877 1.2049,-0.63565 8.01802,-5.71535 8.39777,-6.48493 3.04795,-2.53335 7.16864,-8.86224 7.1315,-12.45321 l 0.75753,-19.88504 c 0.0387,-1.01717 -4.13051,-4.224812 -4.79395,-4.9968 -0.80718,-0.93924 1.0582,-9.991089 -0.49527,-9.816971 -1.75396,-0.677635 -2.62846,0.07364 -5.22424,-1.155319 -0.63952,-1.937996 -0.95955,-10.111893 1.53736,-9.650566 4.21009,0.25444 6.84838,0.766754 11.63465,-0.868462 2.90091,0 12.87423,-9.217018 15.75346,-9.217018 l 25.48297,0.133865 c 1.62883,0 4.74924,4.296532 5.53357,5.080849 3.7576,4.579926 8.7742,5.635635 15.62675,7.879524 1.75287,0.211571 7.83338,-0.856949 8.36527,0.374825 1.20521,4.014023 0.79616,8.073517 0.47067,9.608551 -0.43634,2.0578 -4.52168,-0.02954 -4.73848,2.633942 -0.17613,2.163712 -0.0619,6.042053 -0.65774,8.71942 -3.61934,3.72762 -8.00432,6.07387 -6.49894,7.58084 l -0.0992,17.01972 c 0.46493,3.87626 1.66809,8.20349 3.07606,10.69331 3.95194,8.71321 12.11482,8.91769 13.05222,9.15924 0.43003,0.11081 37.32376,4.88315 58.1401,24.80896 1.77127,1.69481 5.66577,4.9809 10.0372,18.37 4.22412,12.93786 7.09766,55.0977 5.68146,55.67814 -12.052,4.93946 -28.42494,10.0878 -47.91351,3.78761 -2.43149,-0.78604 0.25749,-16.66555 -1.32567,-24.24081 -1.62355,-7.76857 0.0515,-22.86244 -16.76025,-25.85057 -7.00536,-1.24515 -29.65772,2.70604 -45.54624,6.06021 -7.56556,1.59714 -17.80313,2.59427 -23.19923,1.51506 -3.33461,-0.66693 -23.79914,-5.1095 -27.56891,-6.05194 -2.50044,-0.62511 -8.07393,-0.94661 -16.496582,1.67848 -6.251717,1.94847 -9.607864,6.71349 -9.418488,5.05254 0.138214,-1.21221 0.236572,-70.14893 -0.01625,-71.41304 z"
           stroke-miterlimit="4"
           style="fill:#b3b3b3;fill-rule:evenodd;stroke:#000000;stroke-width:2.9103291;stroke-miterlimit:4"
           inkscape:connector-curvature="0" />
      </g>
      <path
         d="m 152.1611,6.10414 c -3.83713,-0.04417 -9.99257,5.50528 -17.39931,10.830551 -9.77234,6.05488 -21.39926,1.78009 -31.32731,-1.46329 -9.422174,-3.73978 -24.453813,-0.634971 -25.730493,11.150979 0.254845,6.86692 2.762016,17.55814 11.108231,17.997471 14.024852,-1.898788 28.469892,-8.151619 42.595742,-3.578129 5.63974,2.48967 6.65446,6.350159 7.12421,6.259048 l 27.67442,0 c 0.46973,0.09111 1.48447,-3.769379 7.12421,-6.259048 14.12585,-4.57349 28.57089,1.67934 42.59575,3.578129 8.34622,-0.439331 10.86404,-11.13055 11.11889,-17.997471 -1.27667,-11.78595 -16.31898,-14.890759 -25.74116,-11.150979 -9.92804,3.243381 -21.55497,7.51817 -31.3273,1.46329 -7.54024,-5.421241 -13.78171,-11.07185 -17.60225,-10.81987 -0.0691,-0.00464 -0.14293,-0.00986 -0.21363,-0.01068 z"
         id="path3395"
         stroke-miterlimit="4"
         style="fill:#b3b3b3;fill-rule:evenodd;stroke:#000000;stroke-width:2.9103291;stroke-miterlimit:4"
         inkscape:connector-curvature="0" />
      <path
         id="path3399"
         d="m 111.03172,77.827827 c 44.7269,6.96347 82.82511,2.54435 82.82511,2.54435"
         stroke-miterlimit="4"
         style="fill:#b3b3b3;fill-rule:evenodd;stroke:#000000;stroke-width:2.9103291;stroke-miterlimit:4"
         inkscape:connector-curvature="0" />
      <path
         d="m 109.96042,87.278099 c 44.7269,6.96347 83.89641,3.347824 83.89641,3.347824"
         id="path3401"
         stroke-miterlimit="4"
         style="fill:#b3b3b3;fill-rule:evenodd;stroke:#000000;stroke-width:2.9103291;stroke-miterlimit:4"
         inkscape:connector-curvature="0" />
    </g>
  </g>
  <path
     style="fill:#80e5ff;stroke:#0090b8;stroke-width:2;stroke-linecap:butt;stroke-linejoin:miter;stroke-miterlimit:4;stroke-opacity:1;stroke-dasharray:none"
     d="m 213.11929,245.79872 c -17.0883,24.57258 -25.39841,29.60357 -21.93649,46.33888 1.87461,9.06206 11.60881,18.05189 20.85884,18.32002 9.33743,0.27067 19.82193,-8.181 22.09179,-17.24237 4.20088,-16.77 -3.72733,-21.33716 -21.01414,-47.41653 z"
     id="path2998"
     inkscape:connector-curvature="0"
     sodipodi:nodetypes="caaac" />
</svg>
