<?xml version="1.0" encoding="UTF-8" standalone="no"?>
<!-- Created with Inkscape (http://www.inkscape.org/) -->

<svg
   xmlns:dc="http://purl.org/dc/elements/1.1/"
   xmlns:cc="http://creativecommons.org/ns#"
   xmlns:rdf="http://www.w3.org/1999/02/22-rdf-syntax-ns#"
   xmlns:svg="http://www.w3.org/2000/svg"
   xmlns="http://www.w3.org/2000/svg"
   xmlns:sodipodi="http://sodipodi.sourceforge.net/DTD/sodipodi-0.dtd"
   xmlns:inkscape="http://www.inkscape.org/namespaces/inkscape"
   width="244.36473"
   height="248.36421"
   id="svg2"
   version="1.1"
   inkscape:version="0.48.2 r9819"
   sodipodi:docname="2013-FR-15_Wcan.svg">
  <defs
     id="defs4" />
  <sodipodi:namedview
     id="base"
     pagecolor="#ffffff"
     bordercolor="#666666"
     borderopacity="1.0"
     inkscape:pageopacity="0.0"
     inkscape:pageshadow="2"
     inkscape:zoom="1"
     inkscape:cx="121.98545"
     inkscape:cy="144.0197"
     inkscape:document-units="px"
     inkscape:current-layer="layer1"
     showgrid="false"
     inkscape:snap-to-guides="false"
     fit-margin-top="0"
     fit-margin-left="0"
     fit-margin-right="0"
     fit-margin-bottom="0"
     inkscape:window-width="793"
     inkscape:window-height="657"
     inkscape:window-x="0"
     inkscape:window-y="0"
     inkscape:window-maximized="0" />
  <metadata
     id="metadata7">
    <rdf:RDF>
      <cc:Work
         rdf:about="">
        <dc:format>image/svg+xml</dc:format>
        <dc:type
           rdf:resource="http://purl.org/dc/dcmitype/StillImage" />
        <dc:title />
      </cc:Work>
    </rdf:RDF>
  </metadata>
  <g
     inkscape:label="Layer 1"
     inkscape:groupmode="layer"
     id="layer1"
     transform="translate(-253.01455,-428.01768)">
    <g
       id="g3769"
       transform="matrix(1.5239862,0,0,1.5203794,-132.59274,-222.73282)">
      <path
         sodipodi:nodetypes="ccsccc"
         inkscape:connector-curvature="0"
         id="path2989"
         d="m 275,504.36218 0,71 c 0,0 12.38257,15.06667 38,15 24.99984,-0.0651 38,-15 38,-15 l 0,-71 z"
         style="fill:#00b100;fill-opacity:1;stroke:#000000;stroke-width:2;stroke-linecap:butt;stroke-linejoin:miter;stroke-miterlimit:4;stroke-opacity:1;stroke-dasharray:none" />
      <path
         transform="matrix(-1.0092857,0,0,1.3263301,631.89473,-162.52601)"
         sodipodi:open="true"
         sodipodi:end="12.00536"
         sodipodi:start="5.7402546"
         d="m 348.46363,498.19571 c 10.98546,4.72865 5.13261,10.87509 -13.0727,13.72845 -18.20531,2.85337 -41.86911,1.33315 -52.85456,-3.3955 -10.98546,-4.72865 -5.13261,-10.87509 13.0727,-13.72846 17.973,-2.81695 41.32113,-1.37506 52.48957,3.24156"
         sodipodi:ry="10"
         sodipodi:rx="38.5"
         sodipodi:cy="503.36218"
         sodipodi:cx="315.5"
         id="path2985"
         style="fill:#000000;fill-opacity:1;fill-rule:nonzero;stroke:#0000ff;stroke-width:0;stroke-linecap:butt;stroke-linejoin:round;stroke-miterlimit:4;stroke-opacity:1;stroke-dasharray:none;stroke-dashoffset:0"
         sodipodi:type="arc" />
      <path
         sodipodi:nodetypes="cscccc"
         inkscape:connector-curvature="0"
         id="path3763"
         d="m 351,518.36218 c 0,0 -9.57508,3.30444 -10,17.5 -0.3638,12.15385 9,15.5 9,15.5 l 55,-63 -8,-9 z"
         style="fill:#00b100;fill-opacity:1;stroke:#000000;stroke-width:2;stroke-linecap:butt;stroke-linejoin:miter;stroke-miterlimit:4;stroke-opacity:1;stroke-dasharray:none" />
      <path
         transform="matrix(0.66325201,0.64105344,-0.40719201,0.46935592,313.59984,-8.696812)"
         sodipodi:open="true"
         sodipodi:end="12.00536"
         sodipodi:start="5.7402546"
         d="m 441.05206,475.3042 c 5.8494,8.74801 2.73295,20.11892 -6.96079,25.39765 -9.69373,5.27873 -22.29393,2.46632 -28.14333,-6.28169 -5.8494,-8.74801 -2.73295,-20.11892 6.96079,-25.39764 9.57004,-5.21137 22.00216,-2.54387 27.94899,5.99688"
         sodipodi:ry="18.5"
         sodipodi:rx="20.5"
         sodipodi:cy="484.86218"
         sodipodi:cx="423.5"
         id="path3765"
         style="fill:#007c00;fill-opacity:1;fill-rule:nonzero;stroke:#000000;stroke-width:2;stroke-linecap:butt;stroke-linejoin:round;stroke-miterlimit:4;stroke-opacity:1;stroke-dasharray:none;stroke-dashoffset:0"
         sodipodi:type="arc" />
      <path
         sodipodi:nodetypes="csssccssssc"
         inkscape:connector-curvature="0"
         id="path3767"
         d="m 274,532.36218 c 0,0 -25.09295,-51.02812 -19,-71 4.9069,-16.08416 22.34794,-29.65767 39,-32 15.81993,-2.22528 33.84334,6.66856 44,19 11.92976,14.4842 12,62 12,62 l -5,-6 c 0,0 -1.92461,-39.286 -14,-53 -8.79474,-9.98817 -23.83832,-16.97008 -37,-15 -13.59226,2.03453 -28.15744,12.80441 -32,26 -5.3048,18.217 7.08429,37.25156 16,54 4.11326,7.72689 -4,16 -4,16 z"
         style="fill:#007c00;fill-opacity:1;stroke:#000000;stroke-width:2;stroke-linecap:butt;stroke-linejoin:miter;stroke-miterlimit:4;stroke-opacity:1;stroke-dasharray:none" />
    </g>
  </g>
</svg>
