<?xml version="1.0" encoding="UTF-8" standalone="no"?>
<!-- Created with Inkscape (http://www.inkscape.org/) -->

<svg
   xmlns:dc="http://purl.org/dc/elements/1.1/"
   xmlns:cc="http://creativecommons.org/ns#"
   xmlns:rdf="http://www.w3.org/1999/02/22-rdf-syntax-ns#"
   xmlns:svg="http://www.w3.org/2000/svg"
   xmlns="http://www.w3.org/2000/svg"
   xmlns:sodipodi="http://sodipodi.sourceforge.net/DTD/sodipodi-0.dtd"
   xmlns:inkscape="http://www.inkscape.org/namespaces/inkscape"
   width="276.38889"
   height="254.62962"
   id="svg2"
   version="1.1"
   inkscape:version="0.48.2 r9819"
   sodipodi:docname="attempts.svg">
  <defs
     id="defs4" />
  <sodipodi:namedview
     id="base"
     pagecolor="#ffffff"
     bordercolor="#666666"
     borderopacity="1.0"
     inkscape:pageopacity="0.0"
     inkscape:pageshadow="2"
     inkscape:zoom="0.72"
     inkscape:cx="97.998171"
     inkscape:cy="-64.481306"
     inkscape:document-units="px"
     inkscape:current-layer="layer1"
     showgrid="false"
     inkscape:window-width="1366"
     inkscape:window-height="720"
     inkscape:window-x="554"
     inkscape:window-y="1102"
     inkscape:window-maximized="1"
     fit-margin-top="0"
     fit-margin-left="0"
     fit-margin-right="0"
     fit-margin-bottom="0" />
  <metadata
     id="metadata7">
    <rdf:RDF>
      <cc:Work
         rdf:about="">
        <dc:format>image/svg+xml</dc:format>
        <dc:type
           rdf:resource="http://purl.org/dc/dcmitype/StillImage" />
        <dc:title></dc:title>
      </cc:Work>
    </rdf:RDF>
  </metadata>
  <g
     inkscape:label="Layer 1"
     inkscape:groupmode="layer"
     id="layer1"
     transform="translate(-692.12964,-256.99185)">
    <rect
       style="fill:#b3b3b3;fill-opacity:1;stroke:none"
       id="rect3797"
       width="276.38889"
       height="254.62962"
       x="692.12964"
       y="256.99185" />
    <rect
       style="fill:#ffffff;fill-opacity:1;stroke:none"
       id="rect2991-1-7"
       width="46.978798"
       height="46.978798"
       x="707.06616"
       y="274.70615" />
    <path
       sodipodi:type="arc"
       style="fill:#000000;fill-opacity:1;stroke:none"
       id="path3799"
       sodipodi:cx="174.53703"
       sodipodi:cy="410.69553"
       sodipodi:rx="36.574074"
       sodipodi:ry="37.962963"
       d="m 211.11111,410.69553 c 0,20.96636 -16.37477,37.96296 -36.57408,37.96296 -20.1993,0 -36.57407,-16.9966 -36.57407,-37.96296 0,-20.96637 16.37477,-37.96297 36.57407,-37.96297 20.19931,0 36.57408,16.9966 36.57408,37.96297 z"
       transform="translate(581.48149,54.629632)" />
    <path
       sodipodi:type="arc"
       style="fill:#ffffff;fill-opacity:1;stroke:none"
       id="path3799-4"
       sodipodi:cx="174.53703"
       sodipodi:cy="410.69553"
       sodipodi:rx="36.574074"
       sodipodi:ry="37.962963"
       d="m 211.11111,410.69553 c 0,20.96636 -16.37477,37.96296 -36.57408,37.96296 -20.1993,0 -36.57407,-16.9966 -36.57407,-37.96296 0,-20.96637 16.37477,-37.96297 36.57407,-37.96297 20.19931,0 36.57408,16.9966 36.57408,37.96297 z"
       transform="translate(675.92593,51.851844)" />
    <rect
       style="fill:#ffffff;fill-opacity:1;stroke:none"
       id="rect2991-1-7-7"
       width="75.682503"
       height="75.682503"
       x="733.91803"
       y="389.521" />
    <rect
       style="fill:#ffffff;fill-opacity:1;stroke:none"
       id="rect2991-1-7-1"
       width="46.978798"
       height="46.978798"
       x="904.75134"
       y="446.92828" />
    <rect
       style="fill:#ffffff;fill-opacity:1;stroke:none"
       id="rect2991-1-7-7-2"
       width="75.682503"
       height="75.682503"
       x="881.60321"
       y="271.92834" />
    <path
       sodipodi:type="arc"
       style="fill:#000000;fill-opacity:1;stroke:none"
       id="path3799-1-1"
       sodipodi:cx="174.53703"
       sodipodi:cy="410.69553"
       sodipodi:rx="36.574074"
       sodipodi:ry="37.962963"
       d="m 211.11111,410.69553 c 0,20.96636 -16.37477,37.96296 -36.57408,37.96296 -20.1993,0 -36.57407,-16.9966 -36.57407,-37.96296 0,-20.96637 16.37477,-37.96297 36.57407,-37.96297 20.19931,0 36.57408,16.9966 36.57408,37.96297 z"
       transform="translate(745.83334,-36.111114)" />
    <path
       sodipodi:type="arc"
       style="fill:#ffffff;fill-opacity:1;stroke:none"
       id="path3799-4-3"
       sodipodi:cx="174.53703"
       sodipodi:cy="410.69553"
       sodipodi:rx="36.574074"
       sodipodi:ry="37.962963"
       d="m 211.11111,410.69553 c 0,20.96636 -16.37477,37.96296 -36.57408,37.96296 -20.1993,0 -36.57407,-16.9966 -36.57407,-37.96296 0,-20.96637 16.37477,-37.96297 36.57407,-37.96297 20.19931,0 36.57408,16.9966 36.57408,37.96297 z"
       transform="translate(654.16667,-102.77778)" />
    <text
       xml:space="preserve"
       style="font-size:40px;font-style:normal;font-weight:normal;line-height:125%;letter-spacing:0px;word-spacing:0px;fill:#000000;fill-opacity:1;stroke:none;font-family:Sans"
       x="140.27779"
       y="527.36218"
       id="text4511"
       sodipodi:linespacing="125%"><tspan
         sodipodi:role="line"
         id="tspan4513"
         x="140.27779"
         y="527.36218" /></text>
    <rect
       style="fill:#ffffff;fill-opacity:1;stroke:none"
       id="rect2991-1-7-1-2"
       width="46.978798"
       height="46.978798"
       x="830.67731"
       y="355.2616" />
    <path
       sodipodi:type="arc"
       style="fill:#000000;fill-opacity:1;stroke:none"
       id="path3799-1-1-7"
       sodipodi:cx="174.53703"
       sodipodi:cy="410.69553"
       sodipodi:rx="36.574074"
       sodipodi:ry="37.962963"
       d="m 211.11111,410.69553 c 0,20.96636 -16.37477,37.96296 -36.57408,37.96296 -20.1993,0 -36.57407,-16.9966 -36.57407,-37.96296 0,-20.96637 16.37477,-37.96297 36.57407,-37.96297 20.19931,0 36.57408,16.9966 36.57408,37.96297 z"
       transform="translate(617.12963,-65.277794)" />
  </g>
</svg>
