<?xml version="1.0" encoding="UTF-8" standalone="no"?>
<!-- Created with Inkscape (http://www.inkscape.org/) -->

<svg
   xmlns:dc="http://purl.org/dc/elements/1.1/"
   xmlns:cc="http://creativecommons.org/ns#"
   xmlns:rdf="http://www.w3.org/1999/02/22-rdf-syntax-ns#"
   xmlns:svg="http://www.w3.org/2000/svg"
   xmlns="http://www.w3.org/2000/svg"
   xmlns:sodipodi="http://sodipodi.sourceforge.net/DTD/sodipodi-0.dtd"
   xmlns:inkscape="http://www.inkscape.org/namespaces/inkscape"
   width="254.16667"
   height="254.62962"
   id="svg2"
   version="1.1"
   inkscape:version="0.48.2 r9819"
   sodipodi:docname="2013-DE-02-F.svg">
  <defs
     id="defs4" />
  <sodipodi:namedview
     id="base"
     pagecolor="#ffffff"
     bordercolor="#666666"
     borderopacity="1.0"
     inkscape:pageopacity="0.0"
     inkscape:pageshadow="2"
     inkscape:zoom="0.72"
     inkscape:cx="689.20188"
     inkscape:cy="-10.293629"
     inkscape:document-units="px"
     inkscape:current-layer="layer1"
     showgrid="false"
     inkscape:window-width="1366"
     inkscape:window-height="720"
     inkscape:window-x="594"
     inkscape:window-y="1102"
     inkscape:window-maximized="0"
     fit-margin-top="0"
     fit-margin-left="0"
     fit-margin-right="0"
     fit-margin-bottom="0" />
  <metadata
     id="metadata7">
    <rdf:RDF>
      <cc:Work
         rdf:about="">
        <dc:format>image/svg+xml</dc:format>
        <dc:type
           rdf:resource="http://purl.org/dc/dcmitype/StillImage" />
        <dc:title></dc:title>
      </cc:Work>
    </rdf:RDF>
  </metadata>
  <g
     inkscape:label="Layer 1"
     inkscape:groupmode="layer"
     id="layer1"
     transform="translate(-100.92593,-254.67699)">
    <rect
       style="fill:#b3b3b3;fill-opacity:1;stroke:none"
       id="rect3797-0"
       width="254.16667"
       height="254.62962"
       x="100.92593"
       y="254.67699" />
    <rect
       style="fill:#ffffff;fill-opacity:1;stroke:none"
       id="rect2991-1-7-7-5"
       width="75.682503"
       height="75.682503"
       x="258.45505"
       y="275.63205" />
    <rect
       style="fill:#ffffff;fill-opacity:1;stroke:none"
       id="rect2991-1-7-7-5-2"
       width="47.904724"
       height="47.904724"
       x="131.14023"
       y="418.68759" />
    <rect
       style="fill:#ffffff;fill-opacity:1;stroke:none"
       id="rect2991-1-7-7-5-2-7"
       width="44.201023"
       height="44.201023"
       x="278.36246"
       y="362.6691" />
    <rect
       style="fill:#ffffff;fill-opacity:1;stroke:none"
       id="rect2991-1-7-7-5-2-7-6"
       width="26.608431"
       height="26.608431"
       x="318.64023"
       y="472.85428" />
    <path
       sodipodi:type="arc"
       style="fill:#000000;fill-opacity:1;stroke:none"
       id="path3799-8-14"
       sodipodi:cx="174.53703"
       sodipodi:cy="410.69553"
       sodipodi:rx="36.574074"
       sodipodi:ry="37.962963"
       d="m 211.11111,410.69553 c 0,20.96636 -16.37477,37.96296 -36.57408,37.96296 -20.1993,0 -36.57407,-16.9966 -36.57407,-37.96296 0,-20.96637 16.37477,-37.96297 36.57407,-37.96297 20.19931,0 36.57408,16.9966 36.57408,37.96297 z"
       transform="matrix(0.57317073,0,0,0.57317073,80.053074,233.16723)" />
    <path
       sodipodi:type="arc"
       style="fill:#000000;fill-opacity:1;stroke:none"
       id="path3799-8-14-2"
       sodipodi:cx="174.53703"
       sodipodi:cy="410.69553"
       sodipodi:rx="36.574074"
       sodipodi:ry="37.962963"
       d="m 211.11111,410.69553 c 0,20.96636 -16.37477,37.96296 -36.57408,37.96296 -20.1993,0 -36.57407,-16.9966 -36.57407,-37.96296 0,-20.96637 16.37477,-37.96297 36.57407,-37.96297 20.19931,0 36.57408,16.9966 36.57408,37.96297 z"
       transform="matrix(0.57317073,0,0,0.57317073,151.81233,54.000561)" />
    <rect
       style="fill:#ffffff;fill-opacity:1;stroke:none"
       id="rect2991-1-7-7-5-6"
       width="75.682503"
       height="75.682503"
       x="134.84395"
       y="279.79871" />
    <path
       sodipodi:type="arc"
       style="fill:#ffffff;fill-opacity:1;stroke:none"
       id="path3799-8-14-2-4"
       sodipodi:cx="174.53703"
       sodipodi:cy="410.69553"
       sodipodi:rx="36.574074"
       sodipodi:ry="37.962963"
       d="m 211.11111,410.69553 a 36.574074,37.962963 0 1 1 -73.14815,0 36.574074,37.962963 0 1 1 73.14815,0 z"
       transform="matrix(0.57317073,0,0,0.57317073,211.53455,202.61167)" />
    <text
       xml:space="preserve"
       style="font-size:40px;font-style:normal;font-weight:normal;line-height:125%;letter-spacing:0px;word-spacing:0px;fill:#000000;fill-opacity:1;stroke:none;font-family:Sans"
       x="140.27779"
       y="527.36218"
       id="text4511"
       sodipodi:linespacing="125%"><tspan
         sodipodi:role="line"
         id="tspan4513"
         x="140.27779"
         y="527.36218" /></text>
    <path
       sodipodi:type="arc"
       style="fill:#000000;fill-opacity:1;stroke:none"
       id="path3799-8"
       sodipodi:cx="174.53703"
       sodipodi:cy="410.69553"
       sodipodi:rx="36.574074"
       sodipodi:ry="37.962963"
       d="m 211.11111,410.69553 c 0,20.96636 -16.37477,37.96296 -36.57408,37.96296 -20.1993,0 -36.57407,-16.9966 -36.57407,-37.96296 0,-20.96637 16.37477,-37.96297 36.57407,-37.96297 20.19931,0 36.57408,16.9966 36.57408,37.96297 z"
       transform="matrix(0.57317073,0,0,0.57317073,34.812559,120.66722)" />
    <path
       sodipodi:type="arc"
       style="fill:#000000;fill-opacity:1;stroke:none"
       id="path3799-8-2"
       sodipodi:cx="174.53703"
       sodipodi:cy="410.69553"
       sodipodi:rx="36.574074"
       sodipodi:ry="37.962963"
       d="m 211.11111,410.69553 a 36.574074,37.962963 0 1 1 -73.14815,0 36.574074,37.962963 0 1 1 73.14815,0 z"
       transform="matrix(1.0098796,0,0,0.97560975,56.840458,19.739182)" />
  </g>
</svg>
