<?xml version="1.0" encoding="UTF-8" standalone="no"?>
<!-- Created with Inkscape (http://www.inkscape.org/) -->

<svg
   xmlns:dc="http://purl.org/dc/elements/1.1/"
   xmlns:cc="http://creativecommons.org/ns#"
   xmlns:rdf="http://www.w3.org/1999/02/22-rdf-syntax-ns#"
   xmlns:svg="http://www.w3.org/2000/svg"
   xmlns="http://www.w3.org/2000/svg"
   xmlns:sodipodi="http://sodipodi.sourceforge.net/DTD/sodipodi-0.dtd"
   xmlns:inkscape="http://www.inkscape.org/namespaces/inkscape"
   width="284.72223"
   height="254.62962"
   id="svg2"
   version="1.1"
   inkscape:version="0.48.2 r9819"
   sodipodi:docname="2013-DE-02-B.svg">
  <defs
     id="defs4" />
  <sodipodi:namedview
     id="base"
     pagecolor="#ffffff"
     bordercolor="#666666"
     borderopacity="1.0"
     inkscape:pageopacity="0.0"
     inkscape:pageshadow="2"
     inkscape:zoom="0.72"
     inkscape:cx="406.33151"
     inkscape:cy="-65.870222"
     inkscape:document-units="px"
     inkscape:current-layer="layer1"
     showgrid="false"
     inkscape:window-width="1366"
     inkscape:window-height="720"
     inkscape:window-x="554"
     inkscape:window-y="1102"
     inkscape:window-maximized="1"
     fit-margin-top="0"
     fit-margin-left="0"
     fit-margin-right="0"
     fit-margin-bottom="0" />
  <metadata
     id="metadata7">
    <rdf:RDF>
      <cc:Work
         rdf:about="">
        <dc:format>image/svg+xml</dc:format>
        <dc:type
           rdf:resource="http://purl.org/dc/dcmitype/StillImage" />
        <dc:title></dc:title>
      </cc:Work>
    </rdf:RDF>
  </metadata>
  <g
     inkscape:label="Layer 1"
     inkscape:groupmode="layer"
     id="layer1"
     transform="translate(-383.7963,-255.60294)">
    <rect
       style="fill:#b3b3b3;fill-opacity:1;stroke:none"
       id="rect3797-9"
       width="284.72223"
       height="254.62962"
       x="383.7963"
       y="255.60294" />
    <path
       sodipodi:type="arc"
       style="fill:#000000;fill-opacity:1;stroke:none"
       id="path3799-8-4"
       sodipodi:cx="174.53703"
       sodipodi:cy="410.69553"
       sodipodi:rx="36.574074"
       sodipodi:ry="37.962963"
       d="m 211.11111,410.69553 c 0,20.96636 -16.37477,37.96296 -36.57408,37.96296 -20.1993,0 -36.57407,-16.9966 -36.57407,-37.96296 0,-20.96637 16.37477,-37.96297 36.57407,-37.96297 20.19931,0 36.57408,16.9966 36.57408,37.96297 z"
       transform="matrix(1.304878,0,0,1.304878,253.6416,-161.32317)" />
    <path
       sodipodi:type="arc"
       style="fill:#ffffff;fill-opacity:1;stroke:none"
       id="path3799-8-4-5"
       sodipodi:cx="174.53703"
       sodipodi:cy="410.69553"
       sodipodi:rx="36.574074"
       sodipodi:ry="37.962963"
       d="m 211.11111,410.69553 c 0,20.96636 -16.37477,37.96296 -36.57408,37.96296 -20.1993,0 -36.57407,-16.9966 -36.57407,-37.96296 0,-20.96637 16.37477,-37.96297 36.57407,-37.96297 20.19931,0 36.57408,16.9966 36.57408,37.96297 z"
       transform="matrix(1.304878,0,0,1.304878,379.19491,-161.78611)" />
    <rect
       style="fill:#ffffff;fill-opacity:1;stroke:none"
       id="rect2991-1-7-7-5-8"
       width="75.682503"
       height="75.682503"
       x="399.19577"
       y="277.48389" />
    <rect
       style="fill:#ffffff;fill-opacity:1;stroke:none"
       id="rect2991-1-7-7-5-8-5"
       width="46.052872"
       height="46.052872"
       x="394.56616"
       y="376.55795" />
    <rect
       style="fill:#ffffff;fill-opacity:1;stroke:none"
       id="rect2991-1-7-7-5-8-5-7"
       width="29.386206"
       height="29.386206"
       x="461.23282"
       y="410.81723" />
    <rect
       style="fill:#ffffff;fill-opacity:1;stroke:none"
       id="rect2991-1-7-7-5-8-5-7-6"
       width="21.978798"
       height="21.978798"
       x="514.01062"
       y="381.18759" />
    <path
       sodipodi:type="arc"
       style="fill:#ffffff;fill-opacity:1;stroke:none"
       id="path3799-8-4-5-1"
       sodipodi:cx="174.53703"
       sodipodi:cy="410.69553"
       sodipodi:rx="36.574074"
       sodipodi:ry="37.962963"
       d="m 211.11111,410.69553 c 0,20.96636 -16.37477,37.96296 -36.57408,37.96296 -20.1993,0 -36.57407,-16.9966 -36.57407,-37.96296 0,-20.96637 16.37477,-37.96297 36.57407,-37.96297 20.19931,0 36.57408,16.9966 36.57408,37.96297 z"
       transform="matrix(1.304878,0,0,1.304878,324.10231,-77.526854)" />
    <path
       sodipodi:type="arc"
       style="fill:#000000;fill-opacity:1;stroke:none"
       id="path3799-8-4-8"
       sodipodi:cx="174.53703"
       sodipodi:cy="410.69553"
       sodipodi:rx="36.574074"
       sodipodi:ry="37.962963"
       d="m 211.11111,410.69553 c 0,20.96636 -16.37477,37.96296 -36.57408,37.96296 -20.1993,0 -36.57407,-16.9966 -36.57407,-37.96296 0,-20.96637 16.37477,-37.96297 36.57407,-37.96297 20.19931,0 36.57408,16.9966 36.57408,37.96297 z"
       transform="matrix(1.304878,0,0,1.304878,368.54676,-105.30463)" />
    <path
       sodipodi:type="arc"
       style="fill:#000000;fill-opacity:1;stroke:none"
       id="path3799-8-4-8-9"
       sodipodi:cx="174.53703"
       sodipodi:cy="410.69553"
       sodipodi:rx="36.574074"
       sodipodi:ry="37.962963"
       d="m 211.11111,410.69553 c 0,20.96636 -16.37477,37.96296 -36.57408,37.96296 -20.1993,0 -36.57407,-16.9966 -36.57407,-37.96296 0,-20.96637 16.37477,-37.96297 36.57407,-37.96297 20.19931,0 36.57408,16.9966 36.57408,37.96297 z"
       transform="matrix(1.304878,0,0,1.304878,368.0838,-229.3787)" />
    <rect
       style="fill:#ffffff;fill-opacity:1;stroke:none"
       id="rect2991-1-7-7-5-8-5-2"
       width="46.052872"
       height="46.052872"
       x="495.4921"
       y="311.74316" />
    <text
       xml:space="preserve"
       style="font-size:40px;font-style:normal;font-weight:normal;line-height:125%;letter-spacing:0px;word-spacing:0px;fill:#000000;fill-opacity:1;stroke:none;font-family:Sans"
       x="140.27779"
       y="527.36218"
       id="text4511"
       sodipodi:linespacing="125%"><tspan
         sodipodi:role="line"
         id="tspan4513"
         x="140.27779"
         y="527.36218" /></text>
  </g>
</svg>
