<?xml version="1.0" encoding="UTF-8" standalone="no"?>
<!-- Created with Inkscape (http://www.inkscape.org/) -->

<svg
   xmlns:dc="http://purl.org/dc/elements/1.1/"
   xmlns:cc="http://creativecommons.org/ns#"
   xmlns:rdf="http://www.w3.org/1999/02/22-rdf-syntax-ns#"
   xmlns:svg="http://www.w3.org/2000/svg"
   xmlns="http://www.w3.org/2000/svg"
   xmlns:sodipodi="http://sodipodi.sourceforge.net/DTD/sodipodi-0.dtd"
   xmlns:inkscape="http://www.inkscape.org/namespaces/inkscape"
   width="273.61111"
   height="254.62962"
   id="svg2"
   version="1.1"
   inkscape:version="0.48.2 r9819"
   sodipodi:docname="2013-DE-02-E.svg">
  <defs
     id="defs4" />
  <sodipodi:namedview
     id="base"
     pagecolor="#ffffff"
     bordercolor="#666666"
     borderopacity="1.0"
     inkscape:pageopacity="0.0"
     inkscape:pageshadow="2"
     inkscape:zoom="0.72"
     inkscape:cx="681.03666"
     inkscape:cy="46.579145"
     inkscape:document-units="px"
     inkscape:current-layer="layer1"
     showgrid="false"
     inkscape:window-width="1366"
     inkscape:window-height="720"
     inkscape:window-x="554"
     inkscape:window-y="1102"
     inkscape:window-maximized="1"
     fit-margin-top="0"
     fit-margin-left="0"
     fit-margin-right="0"
     fit-margin-bottom="0" />
  <metadata
     id="metadata7">
    <rdf:RDF>
      <cc:Work
         rdf:about="">
        <dc:format>image/svg+xml</dc:format>
        <dc:type
           rdf:resource="http://purl.org/dc/dcmitype/StillImage" />
        <dc:title />
      </cc:Work>
    </rdf:RDF>
  </metadata>
  <g
     inkscape:label="Layer 1"
     inkscape:groupmode="layer"
     id="layer1"
     transform="translate(-997.98004,-256.94119)">
    <rect
       style="fill:#b3b3b3;fill-opacity:1;stroke:none"
       id="rect3797-4"
       width="273.61111"
       height="254.62962"
       x="997.98004"
       y="256.94119" />
    <path
       sodipodi:type="arc"
       style="fill:#000000;fill-opacity:1;stroke:none"
       id="path3799-4-5"
       sodipodi:cx="174.53703"
       sodipodi:cy="410.69553"
       sodipodi:rx="36.574074"
       sodipodi:ry="37.962963"
       d="m 211.11111,410.69553 c 0,20.96636 -16.37477,37.96296 -36.57408,37.96296 -20.1993,0 -36.57407,-16.9966 -36.57407,-37.96296 0,-20.96637 16.37477,-37.96297 36.57407,-37.96297 20.19931,0 36.57408,16.9966 36.57408,37.96297 z"
       transform="matrix(0.81012658,0,0,0.78048781,903.04735,-21.884364)" />
    <rect
       style="fill:#ffffff;fill-opacity:1;stroke:none"
       id="rect2991-1-7-7-2-7"
       width="57.163982"
       height="57.163982"
       x="1191.3254"
       y="302.48389" />
    <rect
       style="fill:#ffffff;fill-opacity:1;stroke:none"
       id="rect2991-1-7-7-2-7-9"
       width="39.571388"
       height="39.571388"
       x="1110.9364"
       y="427.15057" />
    <rect
       style="fill:#ffffff;fill-opacity:1;stroke:none"
       id="rect2991-1-7-7-2-7-5"
       width="96.515831"
       height="96.515831"
       x="1006.7143"
       y="381.65057" />
    <rect
       style="fill:#ffffff;fill-opacity:1;stroke:none"
       id="rect2991-1-7-7-2-7-5-4"
       width="21.052872"
       height="21.052872"
       x="1105.2142"
       y="361.74316" />
    <rect
       style="fill:#ffffff;fill-opacity:1;stroke:none"
       id="rect2991-1-7-7-2-7-5-3"
       width="37.71954"
       height="37.71954"
       x="1144.5662"
       y="381.18759" />
    <text
       xml:space="preserve"
       style="font-size:40px;font-style:normal;font-weight:normal;line-height:125%;letter-spacing:0px;word-spacing:0px;fill:#000000;fill-opacity:1;stroke:none;font-family:Sans"
       x="140.27779"
       y="527.36218"
       id="text4511"
       sodipodi:linespacing="125%"><tspan
         sodipodi:role="line"
         id="tspan4513"
         x="140.27779"
         y="527.36218" /></text>
    <path
       transform="matrix(0.81012658,0,0,0.78048781,953.04735,23.948969)"
       d="m 211.11111,410.69553 c 0,20.96636 -16.37477,37.96296 -36.57408,37.96296 -20.1993,0 -36.57407,-16.9966 -36.57407,-37.96296 0,-20.96637 16.37477,-37.96297 36.57407,-37.96297 20.19931,0 36.57408,16.9966 36.57408,37.96297 z"
       sodipodi:ry="37.962963"
       sodipodi:rx="36.574074"
       sodipodi:cy="410.69553"
       sodipodi:cx="174.53703"
       id="path2995"
       style="fill:#000000;fill-opacity:1;stroke:none"
       sodipodi:type="arc" />
    <path
       sodipodi:type="arc"
       style="fill:#000000;fill-opacity:1;stroke:none"
       id="path2997"
       sodipodi:cx="174.53703"
       sodipodi:cy="410.69553"
       sodipodi:rx="36.574074"
       sodipodi:ry="37.962963"
       d="m 211.11111,410.69553 c 0,20.96636 -16.37477,37.96296 -36.57408,37.96296 -20.1993,0 -36.57407,-16.9966 -36.57407,-37.96296 0,-20.96637 16.37477,-37.96297 36.57407,-37.96297 20.19931,0 36.57408,16.9966 36.57408,37.96297 z"
       transform="matrix(0.81012658,0,0,0.78048781,1005.8251,-14.93992)" />
    <path
       transform="matrix(0.81012658,0,0,0.78048781,966.93621,151.72674)"
       d="m 211.11111,410.69553 c 0,20.96636 -16.37477,37.96296 -36.57408,37.96296 -20.1993,0 -36.57407,-16.9966 -36.57407,-37.96296 0,-20.96637 16.37477,-37.96297 36.57407,-37.96297 20.19931,0 36.57408,16.9966 36.57408,37.96297 z"
       sodipodi:ry="37.962963"
       sodipodi:rx="36.574074"
       sodipodi:cy="410.69553"
       sodipodi:cx="174.53703"
       id="path2999"
       style="fill:#000000;fill-opacity:1;stroke:none"
       sodipodi:type="arc" />
    <path
       transform="matrix(0.81012658,0,0,0.78048781,1080.8251,130.89341)"
       d="m 211.11111,410.69553 c 0,20.96636 -16.37477,37.96296 -36.57408,37.96296 -20.1993,0 -36.57407,-16.9966 -36.57407,-37.96296 0,-20.96637 16.37477,-37.96297 36.57407,-37.96297 20.19931,0 36.57408,16.9966 36.57408,37.96297 z"
       sodipodi:ry="37.962963"
       sodipodi:rx="36.574074"
       sodipodi:cy="410.69553"
       sodipodi:cx="174.53703"
       id="path3001"
       style="fill:#000000;fill-opacity:1;stroke:none"
       sodipodi:type="arc" />
  </g>
</svg>
