<?xml version="1.0" encoding="UTF-8" standalone="no"?>
<!-- Created with Inkscape (http://www.inkscape.org/) -->

<svg
   xmlns:dc="http://purl.org/dc/elements/1.1/"
   xmlns:cc="http://creativecommons.org/ns#"
   xmlns:rdf="http://www.w3.org/1999/02/22-rdf-syntax-ns#"
   xmlns:svg="http://www.w3.org/2000/svg"
   xmlns="http://www.w3.org/2000/svg"
   xmlns:sodipodi="http://sodipodi.sourceforge.net/DTD/sodipodi-0.dtd"
   xmlns:inkscape="http://www.inkscape.org/namespaces/inkscape"
   width="644.3125"
   height="647.6875"
   id="svg2"
   version="1.1"
   inkscape:version="0.48.2 r9819"
   sodipodi:docname="2013-CZ-05-place.svg">
  <defs
     id="defs4">
    <inkscape:perspective
       sodipodi:type="inkscape:persp3d"
       inkscape:vp_x="0 : 526.18109 : 1"
       inkscape:vp_y="0 : 1000 : 0"
       inkscape:vp_z="744.09448 : 526.18109 : 1"
       inkscape:persp3d-origin="372.04724 : 350.78739 : 1"
       id="perspective3756" />
  </defs>
  <sodipodi:namedview
     id="base"
     pagecolor="#ffffff"
     bordercolor="#666666"
     borderopacity="1.0"
     inkscape:pageopacity="0.0"
     inkscape:pageshadow="2"
     inkscape:zoom="0.59377856"
     inkscape:cx="364.37439"
     inkscape:cy="332.10839"
     inkscape:document-units="px"
     inkscape:current-layer="layer1"
     showgrid="false"
     inkscape:window-width="894"
     inkscape:window-height="694"
     inkscape:window-x="69"
     inkscape:window-y="0"
     inkscape:window-maximized="0"
     fit-margin-top="0"
     fit-margin-left="0"
     fit-margin-right="0"
     fit-margin-bottom="0" />
  <metadata
     id="metadata7">
    <rdf:RDF>
      <cc:Work
         rdf:about="">
        <dc:format>image/svg+xml</dc:format>
        <dc:type
           rdf:resource="http://purl.org/dc/dcmitype/StillImage" />
        <dc:title />
      </cc:Work>
    </rdf:RDF>
  </metadata>
  <g
     inkscape:label="Layer 1"
     inkscape:groupmode="layer"
     id="layer1"
     transform="translate(-66.875,-191.59375)">
    <rect
       style="fill:#71c837;stroke:#000000;stroke-width:1.02539945px;stroke-linecap:butt;stroke-linejoin:miter;stroke-opacity:1"
       id="rect3758"
       width="643.31213"
       height="646.68036"
       x="67.377884"
       y="192.10059"
       ry="0.67537785" />
    <path
       style="fill:#000000;stroke:#040404;stroke-width:8.60413551;stroke-linecap:butt;stroke-linejoin:miter;stroke-miterlimit:4;stroke-opacity:1;stroke-dasharray:none"
       d="m 232.42512,375.04525 c 0,0 44.06872,172.42638 2.98895,138.72159 -41.07977,-33.70479 -72.39956,-5.48632 -71.68125,28.14791 0.7183,33.63422 30.97218,57.61263 70.97567,24.78452 40.00347,-32.8281 -5.9338,145.77484 -5.9338,145.77484 l 314.30816,-1.86051 c 10.64238,-69.15308 54.91184,-173.75325 9.76169,-143.61255 -45.15016,30.14072 -72.185,-9.51389 -70.22752,-32.18708 1.95748,-22.67321 26.30975,-57.64297 71.9649,-28.16504 45.65511,29.47793 -4.01653,-140.08396 -4.01653,-140.08396 -27.84714,9.8905 -170.52953,51.47391 -133.63693,15.71063 36.89259,-35.7633 13.34477,-78.48703 -26.60162,-78.87593 -39.94637,-0.38889 -54.33614,46.34236 -24.12406,80.61276 30.21207,34.27039 -133.77766,-8.96718 -133.77766,-8.96718 z"
       id="path3170"
       inkscape:connector-curvature="0"
       sodipodi:nodetypes="czzzcczzzczzcc" />
  </g>
</svg>
