<?xml version="1.0" encoding="UTF-8" standalone="no"?>
<!-- Created with Inkscape (http://www.inkscape.org/) -->

<svg
   xmlns:dc="http://purl.org/dc/elements/1.1/"
   xmlns:cc="http://creativecommons.org/ns#"
   xmlns:rdf="http://www.w3.org/1999/02/22-rdf-syntax-ns#"
   xmlns:svg="http://www.w3.org/2000/svg"
   xmlns="http://www.w3.org/2000/svg"
   xmlns:sodipodi="http://sodipodi.sourceforge.net/DTD/sodipodi-0.dtd"
   xmlns:inkscape="http://www.inkscape.org/namespaces/inkscape"
   width="690.6604"
   height="692.43311"
   id="svg2"
   version="1.1"
   inkscape:version="0.48.2 r9819"
   sodipodi:docname="2013-CZ-05-puzzle.svg">
  <defs
     id="defs4" />
  <sodipodi:namedview
     id="base"
     pagecolor="#ffffff"
     bordercolor="#666666"
     borderopacity="1.0"
     inkscape:pageopacity="0.0"
     inkscape:pageshadow="2"
     inkscape:zoom="0.96"
     inkscape:cx="381.13459"
     inkscape:cy="454.52485"
     inkscape:document-units="px"
     inkscape:current-layer="layer1"
     showgrid="false"
     inkscape:window-width="894"
     inkscape:window-height="694"
     inkscape:window-x="30"
     inkscape:window-y="0"
     inkscape:window-maximized="0"
     fit-margin-top="0"
     fit-margin-left="0"
     fit-margin-right="0"
     fit-margin-bottom="0" />
  <metadata
     id="metadata7">
    <rdf:RDF>
      <cc:Work
         rdf:about="">
        <dc:format>image/svg+xml</dc:format>
        <dc:type
           rdf:resource="http://purl.org/dc/dcmitype/StillImage" />
        <dc:title />
      </cc:Work>
    </rdf:RDF>
  </metadata>
  <g
     inkscape:label="Layer 1"
     inkscape:groupmode="layer"
     id="layer1"
     transform="translate(-10.71875,-32.071984)">
    <path
       style="fill:#71c837;stroke:#18890f;stroke-width:14.22615814;stroke-linecap:butt;stroke-linejoin:miter;stroke-miterlimit:4;stroke-opacity:1;stroke-dasharray:none"
       d="m 575.78837,152.78287 c 0,0 -285.09139,72.86363 -229.36358,4.94196 55.72782,-67.921685 9.07113,-119.706109 -46.54001,-118.518458 -55.61114,1.18765 -95.25726,51.209702 -40.97896,117.351838 54.27829,66.14212 -241.025494,-9.811 -241.025494,-9.811 l 3.076199,519.68005 c 114.338335,17.59622 287.285235,90.79176 237.450335,16.14007 -49.83495,-74.65169 15.73034,-119.35135 53.21842,-116.11483 37.48809,3.23651 95.30741,43.50078 46.56834,118.98743 -48.7391,75.4866 231.61612,-6.64097 231.61612,-6.64097 -16.35304,-46.04271 -85.10744,-281.95511 -25.9761,-220.95654 59.13137,60.99855 129.77119,22.06436 130.4142,-43.98337 0.64299,-66.0477 -76.6229,-89.83988 -133.28589,-39.88694 -56.66299,49.95292 14.82642,-221.18924 14.82642,-221.18924 z"
       id="path3170"
       inkscape:connector-curvature="0"
       sodipodi:nodetypes="czzzcczzzczzcc" />
  </g>
</svg>
