<?xml version="1.0" encoding="UTF-8" standalone="no"?>
<!-- Created with Inkscape (http://www.inkscape.org/) -->

<svg
   xmlns:dc="http://purl.org/dc/elements/1.1/"
   xmlns:cc="http://creativecommons.org/ns#"
   xmlns:rdf="http://www.w3.org/1999/02/22-rdf-syntax-ns#"
   xmlns:svg="http://www.w3.org/2000/svg"
   xmlns="http://www.w3.org/2000/svg"
   xmlns:sodipodi="http://sodipodi.sourceforge.net/DTD/sodipodi-0.dtd"
   xmlns:inkscape="http://www.inkscape.org/namespaces/inkscape"
   id="svg4099"
   version="1.1"
   inkscape:version="0.48.2 r9819"
   width="712.14154"
   height="117.39934"
   xml:space="preserve"
   sodipodi:docname="2013-SI-04-solution.svg"><metadata
     id="metadata4105"><rdf:RDF><cc:Work
         rdf:about=""><dc:format>image/svg+xml</dc:format><dc:type
           rdf:resource="http://purl.org/dc/dcmitype/StillImage" /><dc:title /></cc:Work></rdf:RDF></metadata><defs
     id="defs4103"><marker
       inkscape:stockid="DotS"
       orient="auto"
       refY="0"
       refX="0"
       id="DotS"
       style="overflow:visible"><path
         id="path4020"
         d="m -2.5,-1 c 0,2.76 -2.24,5 -5,5 -2.76,0 -5,-2.24 -5,-5 0,-2.76 2.24,-5 5,-5 2.76,0 5,2.24 5,5 z"
         style="fill-rule:evenodd;stroke:#000000;stroke-width:1pt;marker-start:none;marker-end:none"
         transform="matrix(0.2,0,0,0.2,1.48,0.2)"
         inkscape:connector-curvature="0" /></marker><radialGradient
       fx="0"
       fy="0"
       cx="0"
       cy="0"
       r="1"
       gradientUnits="userSpaceOnUse"
       gradientTransform="matrix(9.7883301,0,0,-9.7883301,172.33594,155.92187)"
       spreadMethod="pad"
       id="radialGradient4121"><stop
         style="stop-opacity:1;stop-color:#ffffff"
         offset="0"
         id="stop4123" /><stop
         style="stop-opacity:1;stop-color:#009e56"
         offset="1"
         id="stop4125" /></radialGradient><clipPath
       clipPathUnits="userSpaceOnUse"
       id="clipPath4133"><path
         d="m 0,176.007 520.138,0 L 520.138,0 0,0 0,176.007 z"
         id="path4135"
         inkscape:connector-curvature="0" /></clipPath><radialGradient
       fx="0"
       fy="0"
       cx="0"
       cy="0"
       r="1"
       gradientUnits="userSpaceOnUse"
       gradientTransform="matrix(9.7883301,0,0,-9.7883301,272.89404,14.651367)"
       spreadMethod="pad"
       id="radialGradient4153"><stop
         style="stop-opacity:1;stop-color:#ffffff"
         offset="0"
         id="stop4155" /><stop
         style="stop-opacity:1;stop-color:#f05654"
         offset="1"
         id="stop4157" /></radialGradient><clipPath
       clipPathUnits="userSpaceOnUse"
       id="clipPath4165"><path
         d="m 0,176.007 520.138,0 L 520.138,0 0,0 0,176.007 z"
         id="path4167"
         inkscape:connector-curvature="0" /></clipPath><radialGradient
       fx="0"
       fy="0"
       cx="0"
       cy="0"
       r="1"
       gradientUnits="userSpaceOnUse"
       gradientTransform="matrix(9.7885742,0,0,-9.7885742,330.52295,68.270508)"
       spreadMethod="pad"
       id="radialGradient4185"><stop
         style="stop-opacity:1;stop-color:#ffffff"
         offset="0"
         id="stop4187" /><stop
         style="stop-opacity:1;stop-color:#009e56"
         offset="1"
         id="stop4189" /></radialGradient><clipPath
       clipPathUnits="userSpaceOnUse"
       id="clipPath4197"><path
         d="m 0,176.007 520.138,0 L 520.138,0 0,0 0,176.007 z"
         id="path4199"
         inkscape:connector-curvature="0" /></clipPath><radialGradient
       fx="0"
       fy="0"
       cx="0"
       cy="0"
       r="1"
       gradientUnits="userSpaceOnUse"
       gradientTransform="matrix(9.7880859,0,0,-9.7880859,419.65576,86.389648)"
       spreadMethod="pad"
       id="radialGradient4217"><stop
         style="stop-opacity:1;stop-color:#ffffff"
         offset="0"
         id="stop4219" /><stop
         style="stop-opacity:1;stop-color:#f05654"
         offset="1"
         id="stop4221" /></radialGradient><clipPath
       clipPathUnits="userSpaceOnUse"
       id="clipPath4229"><path
         d="m 0,176.007 520.138,0 L 520.138,0 0,0 0,176.007 z"
         id="path4231"
         inkscape:connector-curvature="0" /></clipPath><radialGradient
       fx="0"
       fy="0"
       cx="0"
       cy="0"
       r="1"
       gradientUnits="userSpaceOnUse"
       gradientTransform="matrix(9.7883301,0,0,-9.7883301,87.705078,86.389648)"
       spreadMethod="pad"
       id="radialGradient4253"><stop
         style="stop-opacity:1;stop-color:#ffffff"
         offset="0"
         id="stop4255" /><stop
         style="stop-opacity:1;stop-color:#faa932"
         offset="1"
         id="stop4257" /></radialGradient><clipPath
       clipPathUnits="userSpaceOnUse"
       id="clipPath4265"><path
         d="m 0,176.007 520.138,0 L 520.138,0 0,0 0,176.007 z"
         id="path4267"
         inkscape:connector-curvature="0" /></clipPath><radialGradient
       fx="0"
       fy="0"
       cx="0"
       cy="0"
       r="1"
       gradientUnits="userSpaceOnUse"
       gradientTransform="matrix(7.7116394,0,0,-7.7116394,295.60205,146.13379)"
       spreadMethod="pad"
       id="radialGradient4289"><stop
         style="stop-opacity:1;stop-color:#ffffff"
         offset="0"
         id="stop4291" /><stop
         style="stop-opacity:1;stop-color:#834b9c"
         offset="1"
         id="stop4293" /></radialGradient><clipPath
       clipPathUnits="userSpaceOnUse"
       id="clipPath4301"><path
         d="m 0,176.007 520.138,0 L 520.138,0 0,0 0,176.007 z"
         id="path4303"
         inkscape:connector-curvature="0" /></clipPath><radialGradient
       fx="0"
       fy="0"
       cx="0"
       cy="0"
       r="1"
       gradientUnits="userSpaceOnUse"
       gradientTransform="matrix(8.3310547,0,0,-8.3310547,173.67432,57.233398)"
       spreadMethod="pad"
       id="radialGradient4321"><stop
         style="stop-opacity:1;stop-color:#ffffff"
         offset="0"
         id="stop4323" /><stop
         style="stop-opacity:1;stop-color:#faa932"
         offset="1"
         id="stop4325" /></radialGradient><clipPath
       clipPathUnits="userSpaceOnUse"
       id="clipPath4333"><path
         d="m 0,176.007 520.138,0 L 520.138,0 0,0 0,176.007 z"
         id="path4335"
         inkscape:connector-curvature="0" /></clipPath><radialGradient
       fx="0"
       fy="0"
       cx="0"
       cy="0"
       r="1"
       gradientUnits="userSpaceOnUse"
       gradientTransform="matrix(8.3310547,0,0,-8.3310547,233.16846,86.389648)"
       spreadMethod="pad"
       id="radialGradient4353"><stop
         style="stop-opacity:1;stop-color:#ffffff"
         offset="0"
         id="stop4355" /><stop
         style="stop-opacity:1;stop-color:#009e56"
         offset="1"
         id="stop4357" /></radialGradient><clipPath
       clipPathUnits="userSpaceOnUse"
       id="clipPath4365"><path
         d="m 0,176.007 520.138,0 L 520.138,0 0,0 0,176.007 z"
         id="path4367"
         inkscape:connector-curvature="0" /></clipPath><radialGradient
       fx="-0.040021557"
       fy="-0.048864022"
       cx="-0.040021557"
       cy="-0.048864022"
       r="1"
       gradientUnits="userSpaceOnUse"
       gradientTransform="matrix(8.3310547,0,0,-8.3310547,385.19092,141.3252)"
       spreadMethod="pad"
       id="radialGradient4385"><stop
         style="stop-opacity:1;stop-color:#ffffff"
         offset="0"
         id="stop4387" /><stop
         style="stop-opacity:1;stop-color:#faa932"
         offset="1"
         id="stop4389" /></radialGradient><clipPath
       clipPathUnits="userSpaceOnUse"
       id="clipPath4397"><path
         d="m 0,176.007 520.138,0 L 520.138,0 0,0 0,176.007 z"
         id="path4399"
         inkscape:connector-curvature="0" /></clipPath><clipPath
       clipPathUnits="userSpaceOnUse"
       id="clipPath4479"><path
         d="m 0,176.007 520.138,0 L 520.138,0 0,0 0,176.007 z"
         id="path4481"
         inkscape:connector-curvature="0" /></clipPath></defs><sodipodi:namedview
     pagecolor="#ffffff"
     bordercolor="#666666"
     borderopacity="1"
     objecttolerance="10"
     gridtolerance="10"
     guidetolerance="10"
     inkscape:pageopacity="0"
     inkscape:pageshadow="2"
     inkscape:window-width="1366"
     inkscape:window-height="720"
     id="namedview4101"
     showgrid="false"
     inkscape:zoom="1.866066"
     inkscape:cx="326.42598"
     inkscape:cy="16.142066"
     inkscape:window-x="191"
     inkscape:window-y="29"
     inkscape:window-maximized="0"
     inkscape:current-layer="g4107"
     inkscape:snap-grids="false"
     fit-margin-top="0"
     fit-margin-left="0"
     fit-margin-right="0"
     fit-margin-bottom="0"><inkscape:grid
       type="xygrid"
       id="grid4531"
       empspacing="5"
       visible="true"
       enabled="true"
       snapvisiblegridlinesonly="true"
       spacingx="0.5cm"
       spacingy="0.5cm"
       dotted="false"
       units="cm" /></sodipodi:namedview><g
     id="g4107"
     inkscape:groupmode="layer"
     inkscape:label="2013-SI-04 necklace"
     transform="matrix(1.25,0,0,-1.25,43.617742,202.4305)"><g
   id="g4237"
   transform="matrix(1.6022622,0,0,1.6131952,533.21679,85.008535)"><path
     d="m 0,0 c 0,-0.938 -0.265,-1.815 -0.723,-2.56 -0.861,-1.4 -2.407,-2.334 -4.172,-2.334 -2.703,0 -4.894,2.191 -4.894,4.894 0,2.703 2.191,4.895 4.894,4.895 1.83,0 3.424,-1.003 4.264,-2.491"
     style="fill:#ffffff;fill-opacity:1;fill-rule:nonzero;stroke:#373535;stroke-width:2;stroke-linecap:butt;stroke-linejoin:miter;stroke-miterlimit:10;stroke-opacity:1;stroke-dasharray:none"
     id="path4239"
     inkscape:connector-curvature="0" /></g><g
   id="g4273"
   transform="matrix(1.453743,0,0,1.5050807,-26.989466,90.613251)"><path
     d="m -4.5011941,-0.66684357 c 0.868,1.368 2.396,2.27499997 4.13499998,2.27499997 2.70300002,0 4.89500002,-2.19099997 4.89500002,-4.894 0,-2.703 -2.192,-4.894 -4.89500002,-4.894 -1.78899998,0 -3.35499998,0.96 -4.20799998,2.394"
     style="fill:#ffffff;fill-opacity:1;fill-rule:nonzero;stroke:#373535;stroke-width:2;stroke-linecap:butt;stroke-linejoin:miter;stroke-miterlimit:10;stroke-opacity:1;stroke-dasharray:none"
     id="path4275"
     inkscape:connector-curvature="0"
     sodipodi:nodetypes="csssc" /></g><g
   id="g4297"
   transform="translate(22.4,-3.2)"><g
     id="g4299"
     clip-path="url(#clipPath4301)"><g
       id="g4305"
       transform="translate(305.3906,146.1328)" /></g></g><g
   id="g4413"
   transform="translate(117.567,80.2207)" /><g
   id="g4417"
   transform="translate(202.213,149.5186)" /><g
   id="g4421"
   transform="translate(120.1476,87.2344)" /><g
   id="g4433"
   transform="translate(301.0309,22.1504)" /><g
   id="g4453"
   transform="translate(415.92,141.4248)" /><text
   xml:space="preserve"
   style="font-size:40px;font-style:normal;font-weight:normal;line-height:125%;letter-spacing:0px;word-spacing:0px;fill:#000000;fill-opacity:1;stroke:none;font-family:Sans"
   x="416.41959"
   y="211.75697"
   id="text5556"
   sodipodi:linespacing="125%"
   transform="matrix(0.8,0,0,-0.8,0,176.007)"><tspan
     sodipodi:role="line"
     id="tspan5558"
     x="416.41959"
     y="211.75697" /></text>





<text
   xml:space="preserve"
   style="font-size:32px;font-style:normal;font-variant:normal;font-weight:normal;font-stretch:normal;line-height:125%;letter-spacing:0px;word-spacing:0px;fill:#ff0000;fill-opacity:1;stroke:none;font-family:Arial;-inkscape-font-specification:Arial"
   x="380.24512"
   y="-68.024933"
   id="text5560"
   sodipodi:linespacing="125%"
   transform="scale(1,-1)"><tspan
     sodipodi:role="line"
     id="tspan5562"
     x="380.24512"
     y="-68.024933"
     style="font-size:17.60000038000000089px;font-style:normal;font-variant:normal;font-weight:normal;font-stretch:normal;font-family:Arial;-inkscape-font-specification:Arial;fill:#ff0000">4</tspan></text>





<text
   xml:space="preserve"
   style="font-size:40px;font-style:normal;font-weight:normal;line-height:125%;letter-spacing:0px;word-spacing:0px;fill:#000000;fill-opacity:1;stroke:none;font-family:Sans"
   x="446.10202"
   y="195.31526"
   id="text5564"
   sodipodi:linespacing="125%"
   transform="matrix(0.8,0,0,-0.8,0,176.007)"><tspan
     sodipodi:role="line"
     id="tspan5566"
     x="446.10202"
     y="195.31526" /></text>





<text
   xml:space="preserve"
   style="font-size:32px;font-style:normal;font-variant:normal;font-weight:normal;font-stretch:normal;line-height:125%;letter-spacing:0px;word-spacing:0px;fill:#000000;fill-opacity:1;stroke:none;font-family:Arial;-inkscape-font-specification:Arial"
   x="397.25293"
   y="-98.277557"
   id="text5560-5"
   sodipodi:linespacing="125%"
   transform="scale(1,-1)"><tspan
     sodipodi:role="line"
     id="tspan5562-9"
     x="397.25293"
     y="-98.277557"
     style="font-size:17.60000038px;font-style:normal;font-variant:normal;font-weight:normal;font-stretch:normal;font-family:Arial;-inkscape-font-specification:Arial">4</tspan></text>





<text
   xml:space="preserve"
   style="font-size:32px;font-style:normal;font-variant:normal;font-weight:normal;font-stretch:normal;line-height:125%;letter-spacing:0px;word-spacing:0px;fill:#000000;fill-opacity:1;stroke:none;font-family:Arial;-inkscape-font-specification:Arial"
   x="440.03043"
   y="-106.72346"
   id="text5560-4"
   sodipodi:linespacing="125%"
   transform="scale(1,-1)"><tspan
     sodipodi:role="line"
     id="tspan5562-2"
     x="440.03043"
     y="-106.72346"
     style="font-size:17.60000038px;font-style:normal;font-variant:normal;font-weight:normal;font-stretch:normal;font-family:Arial;-inkscape-font-specification:Arial">4</tspan></text>





<text
   xml:space="preserve"
   style="font-size:32px;font-style:normal;font-variant:normal;font-weight:normal;font-stretch:normal;line-height:125%;letter-spacing:0px;word-spacing:0px;fill:#ff0000;fill-opacity:1;stroke:none;font-family:Arial;-inkscape-font-specification:Arial"
   x="443.23938"
   y="-68.248375"
   id="text5560-56"
   sodipodi:linespacing="125%"
   transform="scale(1,-1)"><tspan
     sodipodi:role="line"
     id="tspan5562-99"
     x="443.23938"
     y="-68.248375"
     style="font-size:17.60000038000000089px;font-style:normal;font-variant:normal;font-weight:normal;font-stretch:normal;font-family:Arial;-inkscape-font-specification:Arial;fill:#ff0000">3</tspan></text>





<text
   xml:space="preserve"
   style="font-size:32px;font-style:normal;font-variant:normal;font-weight:normal;font-stretch:normal;line-height:125%;letter-spacing:0px;word-spacing:0px;fill:#ff0000;fill-opacity:1;stroke:none;font-family:Arial;-inkscape-font-specification:Arial"
   x="495.16129"
   y="-68.248375"
   id="text5560-56-2"
   sodipodi:linespacing="125%"
   transform="scale(1,-1)"><tspan
     sodipodi:role="line"
     x="495.16129"
     y="-68.248375"
     style="font-size:17.60000038000000089px;font-style:normal;font-variant:normal;font-weight:normal;font-stretch:normal;font-family:Arial;-inkscape-font-specification:Arial;fill:#ff0000"
     id="tspan9741">3</tspan></text>





<text
   xml:space="preserve"
   style="font-size:32px;font-style:normal;font-weight:normal;line-height:125%;letter-spacing:0px;word-spacing:0px;fill:#000000;fill-opacity:1;stroke:none;font-family:Arial;-inkscape-font-specification:Arial"
   x="363.58942"
   y="-132.71794"
   id="text5560-56-8"
   sodipodi:linespacing="125%"
   transform="scale(1,-1)"><tspan
     sodipodi:role="line"
     id="tspan5562-99-99"
     x="363.58942"
     y="-132.71794"
     style="font-size:17.60000038px;font-family:Arial;-inkscape-font-specification:Arial">6</tspan></text>





<text
   xml:space="preserve"
   style="font-size:32px;font-style:normal;font-variant:normal;font-weight:normal;font-stretch:normal;line-height:125%;letter-spacing:0px;word-spacing:0px;fill:#ff0000;fill-opacity:1;stroke:none;font-family:Arial;-inkscape-font-specification:Arial"
   x="290.9671"
   y="-68.239777"
   id="text5560-56-8-9"
   sodipodi:linespacing="125%"
   transform="scale(1,-1)"><tspan
     sodipodi:role="line"
     id="tspan5562-99-99-9"
     x="290.9671"
     y="-68.239777"
     style="font-size:17.60000038000000089px;font-style:normal;font-variant:normal;font-weight:normal;font-stretch:normal;font-family:Arial;-inkscape-font-specification:Arial;fill:#ff0000">6</tspan></text>





<text
   xml:space="preserve"
   style="font-size:32px;font-style:normal;font-variant:normal;font-weight:normal;font-stretch:normal;line-height:125%;letter-spacing:0px;word-spacing:0px;fill:#000000;fill-opacity:1;stroke:none;font-family:Arial;-inkscape-font-specification:Arial"
   x="205.54446"
   y="-115.47279"
   id="text5560-56-8-3"
   sodipodi:linespacing="125%"
   transform="scale(1,-1)"><tspan
     sodipodi:role="line"
     id="tspan5562-99-99-3"
     x="205.54446"
     y="-115.47279"
     style="font-size:17.60000038px;font-style:normal;font-variant:normal;font-weight:normal;font-stretch:normal;font-family:Arial;-inkscape-font-specification:Arial">6</tspan></text>





<text
   xml:space="preserve"
   style="font-size:32px;font-style:normal;font-weight:normal;line-height:125%;letter-spacing:0px;word-spacing:0px;fill:#ff0000;fill-opacity:1;stroke:none;font-family:Sans"
   x="14.39728"
   y="-68.274155"
   id="text5560-56-8-7"
   sodipodi:linespacing="125%"
   transform="scale(1,-1)"><tspan
     sodipodi:role="line"
     id="tspan5562-99-99-30"
     x="14.39728"
     y="-68.274155"
     style="font-size:17.60000038000000089px;fill:#ff0000">6</tspan></text>








<text
   xml:space="preserve"
   style="font-size:32px;font-style:normal;font-variant:normal;font-weight:normal;font-stretch:normal;line-height:125%;letter-spacing:0px;word-spacing:0px;fill:#ff0000;fill-opacity:1;stroke:none;font-family:Arial;-inkscape-font-specification:Arial"
   x="130.29747"
   y="-68.239777"
   id="text5560-56-8-0-3"
   sodipodi:linespacing="125%"
   transform="scale(1,-1)"><tspan
     sodipodi:role="line"
     id="tspan5562-99-99-5-8"
     x="130.29747"
     y="-68.239777"
     style="font-size:17.60000038000000089px;font-style:normal;font-variant:normal;font-weight:normal;font-stretch:normal;font-family:Arial;-inkscape-font-specification:Arial;fill:#ff0000">8</tspan></text>








<text
   xml:space="preserve"
   style="font-size:32px;font-style:normal;font-weight:normal;line-height:125%;letter-spacing:0px;word-spacing:0px;fill:#ff0000;fill-opacity:1;stroke:none;font-family:Arial;-inkscape-font-specification:Arial"
   x="219.9883"
   y="-68.024933"
   id="text5560-56-8-0-5"
   sodipodi:linespacing="125%"
   transform="scale(1,-1)"><tspan
     sodipodi:role="line"
     id="tspan5562-99-99-5-4"
     x="219.9883"
     y="-68.024933"
     style="font-size:17.60000038000000089px;font-family:Arial;-inkscape-font-specification:Arial;fill:#ff0000">2</tspan></text>








<path
   style="fill:none;stroke:#000000;stroke-width:0.80000001;stroke-linecap:butt;stroke-linejoin:miter;stroke-miterlimit:4;stroke-opacity:1;stroke-dasharray:none;marker-start:url(#DotS);marker-end:url(#DotS)"
   d="m 68.8,85.600005 c 21.6361,9.243757 27.06003,34.511895 45.37137,39.567645 27.09647,3.9606 24.16888,19.91185 56.36469,15.44782"
   id="path3947"
   inkscape:connector-curvature="0"
   sodipodi:nodetypes="ccc" /><path
   style="fill:none;stroke:#000000;stroke-width:0.80000001;stroke-linecap:butt;stroke-linejoin:miter;stroke-miterlimit:4;stroke-opacity:1;stroke-dasharray:none;marker-start:url(#DotS);marker-end:url(#DotS)"
   d="m 170.60927,140.14318 c 0,0 96.26083,29.02748 91.87036,9.15122 -2.99774,-13.5712 54.83107,-7.1837 55.12037,-6.89439"
   id="path4577"
   inkscape:connector-curvature="0"
   sodipodi:nodetypes="csc" /><path
   style="fill:none;stroke:#000000;stroke-width:1px;stroke-linecap:butt;stroke-linejoin:miter;stroke-opacity:1"
   d="M 318.99127,113.13857"
   id="path4763"
   inkscape:connector-curvature="0"
   transform="matrix(0.8,0,0,-0.8,0,176.007)" /><path
   style="fill:none;stroke:#000000;stroke-width:0.80000001;stroke-linecap:butt;stroke-linejoin:miter;stroke-miterlimit:4;stroke-opacity:1;stroke-dasharray:none;marker-start:url(#DotS);marker-end:url(#DotS)"
   d="m 170.73855,140.30891 c 0,0 48.41674,-2.49485 51.1439,-18.342 2.33078,-13.54382 33.9415,-36.454004 33.9415,-36.454004"
   id="path4765"
   inkscape:connector-curvature="0"
   sodipodi:nodetypes="csc" /><path
   style="fill:none;stroke:#000000;stroke-width:0.90104002;stroke-linecap:butt;stroke-linejoin:miter;stroke-miterlimit:4;stroke-opacity:1;stroke-dasharray:none;marker-start:url(#DotS);marker-end:url(#DotS)"
   d="m 68.52941,85.800336 c 0,0 42.87802,0.02943 50.11516,9.760159 9.97967,13.418215 59.67348,11.182955 70.7151,7.394105 6.56707,-2.25344 14.46613,15.83568 34.7744,-8.528931 4.35708,-5.227371 31.73495,-9.016108 31.73495,-9.016108"
   id="path4771"
   inkscape:connector-curvature="0"
   sodipodi:nodetypes="csssc" /><path
   style="fill:none;stroke:#000000;stroke-width:0.80000001;stroke-linecap:butt;stroke-linejoin:miter;stroke-miterlimit:4;stroke-opacity:1;stroke-dasharray:none;marker-start:url(#DotS);marker-end:url(#DotS)"
   d="m 417.21739,85.391309 c 0,0 -22.68064,7.813603 -22.37066,19.094361 0.24543,8.93137 19.43791,18.54176 19.43791,18.54176"
   id="path5693"
   inkscape:connector-curvature="0"
   sodipodi:nodetypes="csc" /><path
   style="fill:none;stroke:#000000;stroke-width:0.80000001px;stroke-linecap:butt;stroke-linejoin:miter;stroke-opacity:1;marker-start:url(#DotS);marker-end:url(#DotS)"
   d="m 414.9913,122.92175 c 0,0 21.54346,-14.75949 25.73368,-16.94591 5.1364,-2.68013 1.52607,3.49942 36.2265,-20.640019"
   id="path5695"
   inkscape:connector-curvature="0"
   sodipodi:nodetypes="csc" /><path
   style="fill:none;stroke:#000000;stroke-width:1px;stroke-linecap:butt;stroke-linejoin:miter;stroke-opacity:1;marker-start:url(#DotS);marker-end:url(#DotS)"
   d="m 397,42.008743 c 0,0 62.00414,-7.733641 52.13809,5.347998 -9.10825,12.076869 69.07931,18.999828 69.07931,18.999828"
   id="path9339"
   inkscape:connector-curvature="0"
   transform="matrix(0.8,0,0,-0.8,0,176.007)"
   sodipodi:nodetypes="csc" /><g
   id="g5529"
   transform="translate(4.058117,-2.8114173)"
   style="opacity:0.85;fill:#ff6600"><g
     transform="translate(24.400531,-14.837269)"
     id="g4373"
     style="fill:#ff6600"><g
       id="g4375"
       style="fill:#ff6600"><g
         id="g4381"
         style="fill:#ff6600"><g
           id="g4383"
           style="fill:#ff6600"><g
             id="g5524"
             style="fill:#ff6600"><path
               d="m 379.114,149.657 c -1.245,0 -2.254,-1.009 -2.254,-2.254 l 0,0 0,-12.154 c 0,-1.245 1.009,-2.255 2.254,-2.255 l 0,0 12.154,0 c 1.244,0 2.254,1.01 2.254,2.255 l 0,0 0,12.154 c 0,1.245 -1.01,2.254 -2.254,2.254 l 0,0 -12.154,0 z"
               style="fill:#ff6600;stroke:none"
               id="path4391"
               inkscape:connector-curvature="0" /></g></g></g></g></g><g
     transform="translate(418.42266,120.24502)"
     id="g4401"
     style="fill:#ff6600" /></g><g
   id="g4109"
   style="opacity:0.85;fill:#88aa00"
   transform="translate(-1.1130435,-13.913043)"><g
     id="g4111"
     style="fill:#88aa00"><g
       id="g4117"
       style="fill:#88aa00"><g
         id="g4119"
         style="fill:#88aa00"><path
           d="m 162.547,155.921 c 0,-5.405 4.382,-9.787 9.789,-9.787 l 0,0 c 5.406,0 9.789,4.382 9.789,9.787 l 0,0 c 0,5.407 -4.383,9.79 -9.789,9.79 l 0,0 c -5.407,0 -9.789,-4.383 -9.789,-9.79"
           style="fill:#88aa00;stroke:none"
           id="path4127"
           inkscape:connector-curvature="0" /></g></g></g></g><g
   style="opacity:0.85;fill:#8800aa"
   transform="translate(-13.223391,74.485272)"
   id="g9719"><g
     style="fill:#8800aa"
     id="g9721"><g
       style="fill:#8800aa"
       id="g9723"><g
         style="fill:#8800aa"
         id="g9725"><path
           inkscape:connector-curvature="0"
           id="path9727"
           style="fill:#8800aa;stroke:none"
           d="m 320.735,68.27 c 0,-5.407 4.382,-9.789 9.788,-9.789 l 0,0 c 5.407,0 9.788,4.382 9.788,9.789 l 0,0 c 0,5.406 -4.381,9.789 -9.788,9.789 l 0,0 c -5.406,0 -9.788,-4.383 -9.788,-9.789" /></g></g></g></g><text
   xml:space="preserve"
   style="font-size:17.60000038px;font-style:normal;font-weight:normal;line-height:125%;letter-spacing:0px;word-spacing:0px;fill:#000000;fill-opacity:1;stroke:none;font-family:arial;-inkscape-font-specification:arial"
   x="271.03381"
   y="-144.14989"
   id="text9729"
   sodipodi:linespacing="125%"
   transform="scale(1,-1)"><tspan
     sodipodi:role="line"
     id="tspan9731"
     x="271.03381"
     y="-144.14989">8</tspan></text>


<text
   xml:space="preserve"
   style="font-size:17.60000038px;font-style:normal;font-weight:normal;line-height:125%;letter-spacing:0px;word-spacing:0px;fill:#000000;fill-opacity:1;stroke:none;font-family:arial;-inkscape-font-specification:arial"
   x="110.93279"
   y="-128.24422"
   id="text9733"
   sodipodi:linespacing="125%"
   transform="scale(1,-1)"><tspan
     sodipodi:role="line"
     id="tspan9735"
     x="110.93279"
     y="-128.24422">8</tspan></text>


<text
   xml:space="preserve"
   style="font-size:17.60000038px;font-style:normal;font-variant:normal;font-weight:normal;font-stretch:normal;line-height:125%;letter-spacing:0px;word-spacing:0px;fill:#000000;fill-opacity:1;stroke:none;font-family:Arial;-inkscape-font-specification:Arial"
   x="144.43243"
   y="-110.75574"
   id="text9737"
   sodipodi:linespacing="125%"
   transform="scale(1,-1)"><tspan
     sodipodi:role="line"
     id="tspan9739"
     x="144.43243"
     y="-110.75574">12</tspan></text>


<path
   style="fill:none;stroke:#000000;stroke-width:1px;stroke-linecap:butt;stroke-linejoin:miter;stroke-opacity:1"
   d="m -36.521739,100.79788 674.894069,0.53589"
   id="path3148"
   inkscape:connector-curvature="0"
   transform="matrix(0.8,0,0,-0.8,6.7058064,165.711)"
   sodipodi:nodetypes="cc" /><g
   id="g4241"
   style="opacity:0.85;fill:#ff6600"
   transform="translate(-19.2,0)"><g
     id="g4243"
     style="fill:#ff6600"><g
       id="g4249"
       style="fill:#ff6600"><g
         id="g4251"
         style="fill:#ff6600"><path
           d="m 77.917,86.389 c 0,-5.405 4.382,-9.787 9.788,-9.787 l 0,0 c 5.406,0 9.788,4.382 9.788,9.787 l 0,0 c 0,5.407 -4.382,9.789 -9.788,9.789 l 0,0 c -5.406,0 -9.788,-4.382 -9.788,-9.789"
           style="fill:#ff6600;stroke:none"
           id="path4259"
           inkscape:connector-curvature="0" /></g></g></g></g><g
   id="g4309"
   transform="translate(20.083587,27.858228)"
   style="opacity:0.85;fill:#ffcc00"><g
     id="g4311"
     style="fill:#ffcc00"><g
       id="g4317"
       style="fill:#ffcc00"><g
         id="g4319"
         style="fill:#ffcc00"><path
           d="m 167.597,65.565 c -1.245,0 -2.254,-1.009 -2.254,-2.254 l 0,0 0,-12.154 c 0,-1.245 1.009,-2.255 2.254,-2.255 l 0,0 12.155,0 c 1.244,0 2.253,1.01 2.253,2.255 l 0,0 0,12.154 c 0,1.245 -1.009,2.254 -2.253,2.254 l 0,0 -12.155,0 z"
           style="fill:#ffcc00;stroke:none"
           id="path4327"
           inkscape:connector-curvature="0" /></g></g></g></g><g
   id="g4341"
   transform="translate(22.4,0)"
   style="opacity:0.85;fill:#37c8ab"><g
     id="g4343"
     style="fill:#37c8ab"><g
       id="g4349"
       style="fill:#37c8ab"><g
         id="g4351"
         style="fill:#37c8ab"><path
           d="m 227.092,94.721 c -1.246,0 -2.255,-1.009 -2.255,-2.253 l 0,0 0,-12.155 c 0,-1.244 1.009,-2.254 2.255,-2.254 l 0,0 12.153,0 c 1.245,0 2.255,1.01 2.255,2.254 l 0,0 0,12.155 c 0,1.244 -1.01,2.253 -2.255,2.253 l 0,0 -12.153,0 z"
           style="fill:#37c8ab;stroke:none"
           id="path4359"
           inkscape:connector-curvature="0" /></g></g></g></g><g
   id="g4141"
   transform="translate(69.426087,70.956522)"
   style="opacity:0.85;fill:#d40000"><g
     id="g4143"
     style="fill:#d40000"><g
       id="g4149"
       style="fill:#d40000"><g
         id="g4151"
         style="fill:#d40000"><path
           d="m 263.105,14.651 c 0,-5.406 4.383,-9.787 9.789,-9.787 l 0,0 c 5.407,0 9.789,4.381 9.789,9.787 l 0,0 c 0,5.406 -4.382,9.789 -9.789,9.789 l 0,0 c -5.406,0 -9.789,-4.383 -9.789,-9.789"
           style="fill:#d40000;stroke:none"
           id="path4159"
           inkscape:connector-curvature="0" /></g></g></g></g><g
   id="g4173"
   transform="translate(86.817391,17.391304)"
   style="opacity:0.85;fill:#88aa00"><g
     id="g4175"
     style="fill:#88aa00"><g
       id="g4181"
       style="fill:#88aa00"><g
         id="g4183"
         style="fill:#88aa00"><path
           d="m 320.735,68.27 c 0,-5.407 4.382,-9.789 9.788,-9.789 l 0,0 c 5.407,0 9.788,4.382 9.788,9.789 l 0,0 c 0,5.406 -4.381,9.789 -9.788,9.789 l 0,0 c -5.406,0 -9.788,-4.383 -9.788,-9.789"
           style="fill:#88aa00;stroke:none"
           id="path4191"
           inkscape:connector-curvature="0" /></g></g></g></g><g
   style="opacity:0.85;fill:#8d5fd3"
   transform="translate(304.57595,-70.587887)"
   id="g9709"><g
     style="fill:#8d5fd3"
     id="g9711"><g
       style="fill:#8d5fd3"
       id="g9713"><g
         style="fill:#8d5fd3"
         id="g9715"><path
           inkscape:connector-curvature="0"
           id="path9717"
           style="fill:#8d5fd3;stroke:none"
           d="m 162.547,155.921 c 0,-5.405 4.382,-9.787 9.789,-9.787 l 0,0 c 5.406,0 9.789,4.382 9.789,9.787 l 0,0 c 0,5.407 -4.383,9.79 -9.789,9.79 l 0,0 c -5.407,0 -9.789,-4.383 -9.789,-9.79" /></g></g></g></g></g></svg>