<?xml version="1.0" encoding="UTF-8" standalone="no"?>
<!-- Created with Inkscape (http://www.inkscape.org/) -->

<svg
   xmlns:dc="http://purl.org/dc/elements/1.1/"
   xmlns:cc="http://creativecommons.org/ns#"
   xmlns:rdf="http://www.w3.org/1999/02/22-rdf-syntax-ns#"
   xmlns:svg="http://www.w3.org/2000/svg"
   xmlns="http://www.w3.org/2000/svg"
   xmlns:sodipodi="http://sodipodi.sourceforge.net/DTD/sodipodi-0.dtd"
   xmlns:inkscape="http://www.inkscape.org/namespaces/inkscape"
   width="773.8421"
   height="954.75299"
   id="svg2986"
   version="1.1"
   inkscape:version="0.48.2 r9819"
   sodipodi:docname="castor_tete.svg">
  <defs
     id="defs2988" />
  <sodipodi:namedview
     id="base"
     pagecolor="#ffffff"
     bordercolor="#666666"
     borderopacity="1.0"
     inkscape:pageopacity="0.0"
     inkscape:pageshadow="2"
     inkscape:zoom="0.73"
     inkscape:cx="295.28674"
     inkscape:cy="679.68163"
     inkscape:document-units="px"
     inkscape:current-layer="layer1"
     showgrid="false"
     inkscape:window-width="1182"
     inkscape:window-height="711"
     inkscape:window-x="19"
     inkscape:window-y="0"
     inkscape:window-maximized="0"
     fit-margin-top="0"
     fit-margin-left="0"
     fit-margin-right="0"
     fit-margin-bottom="0" />
  <metadata
     id="metadata2991">
    <rdf:RDF>
      <cc:Work
         rdf:about="">
        <dc:format>image/svg+xml</dc:format>
        <dc:type
           rdf:resource="http://purl.org/dc/dcmitype/StillImage" />
        <dc:title></dc:title>
      </cc:Work>
    </rdf:RDF>
  </metadata>
  <g
     inkscape:label="Layer 1"
     inkscape:groupmode="layer"
     id="layer1"
     transform="translate(-537.625,631.97533)">
    <path
       style="fill:#a05a2c;stroke:#000000;stroke-width:3.45227504;stroke-linecap:butt;stroke-linejoin:miter;stroke-miterlimit:4;stroke-opacity:1;stroke-dasharray:none"
       d="m 993.24004,94.378098 c 0,0 52.87706,56.091472 72.81006,66.645142 14.4248,7.63736 11.0902,-47.33105 21.512,-75.531252 10.4219,-28.2002 -4.9644,-79.9742202 -4.9644,-79.9742202 -14.8929,-26.6580898 -29.7859,-22.2150598 -36.4049,11.1075402 8.2738,23.69607 -3.3096,34.06309 16.5477,57.75917 l -3.3096,46.651662 -46.3336,-42.208642 z"
       id="path3900"
       inkscape:connector-curvature="0"
       sodipodi:nodetypes="cszcccccc" />
    <path
       style="fill:none;stroke:#000000;stroke-width:6;stroke-linecap:butt;stroke-linejoin:miter;stroke-miterlimit:4;stroke-opacity:1;stroke-dasharray:none"
       d="M 1790.411,314.17166 1598.6301,842.93879"
       id="path3942"
       inkscape:connector-curvature="0"
       transform="translate(-597.21875,-769.40625)"
       sodipodi:nodetypes="cc" />
    <path
       style="fill:none;stroke:#000000;stroke-width:6;stroke-linecap:butt;stroke-linejoin:miter;stroke-miterlimit:4;stroke-opacity:1;stroke-dasharray:none"
       d="M 1424.6575,881.29495 1238.3562,315.54152"
       id="path3934"
       inkscape:connector-curvature="0"
       transform="translate(-597.21875,-769.40625)" />
    <path
       style="fill:none;stroke:#000000;stroke-width:6;stroke-linecap:butt;stroke-linejoin:miter;stroke-miterlimit:4;stroke-opacity:1;stroke-dasharray:none"
       d="m 1324.6575,279.92508 124.6576,558.90412 5.4794,21.91781"
       id="path3936"
       inkscape:connector-curvature="0"
       transform="translate(-597.21875,-769.40625)"
       sodipodi:nodetypes="ccc" />
    <path
       style="fill:none;stroke:#000000;stroke-width:6;stroke-linecap:butt;stroke-linejoin:miter;stroke-miterlimit:4;stroke-opacity:1;stroke-dasharray:none"
       d="m 1542.4658,242.93878 -10.959,412.32877"
       id="path3938"
       inkscape:connector-curvature="0"
       transform="translate(-597.21875,-769.40625)"
       sodipodi:nodetypes="cc" />
    <path
       style="fill:none;stroke:#000000;stroke-width:6;stroke-linecap:butt;stroke-linejoin:miter;stroke-miterlimit:4;stroke-opacity:1;stroke-dasharray:none"
       d="m 1609.589,248.41824 -67.1232,394.52054"
       id="path3940"
       inkscape:connector-curvature="0"
       transform="translate(-597.21875,-769.40625)" />
    <path
       style="fill:none;stroke:#000000;stroke-width:6;stroke-linecap:butt;stroke-linejoin:miter;stroke-miterlimit:4;stroke-opacity:1;stroke-dasharray:none"
       d="M 1879.4521,310.06207 1604.1096,892.25385"
       id="path3944"
       inkscape:connector-curvature="0"
       transform="translate(-597.21875,-769.40625)" />
    <path
       style="fill:#a05a2c;stroke:#000000;stroke-width:4;stroke-linecap:butt;stroke-linejoin:miter;stroke-miterlimit:4;stroke-opacity:1;stroke-dasharray:none"
       d="M 852.57431,139.57523 C 820.28253,105.87728 820.10213,81.110249 779.7825,45.179583 671.59077,-18.159836 628.91731,36.96512 659.7582,117.71515 c 30.78674,64.24985 88.56304,59.79249 174.02407,100.87923 z"
       id="path3912"
       inkscape:connector-curvature="0"
       sodipodi:nodetypes="ccccc" />
    <path
       style="fill:none;stroke:#000000;stroke-width:4;stroke-linecap:butt;stroke-linejoin:miter;stroke-miterlimit:4;stroke-opacity:1;stroke-dasharray:none"
       d="m 843.56461,131.06944 c -49.18134,16.86514 -88.43577,15.68724 -139.35904,13.60148"
       id="path3914"
       inkscape:connector-curvature="0"
       sodipodi:nodetypes="cc" />
    <path
       style="fill:none;stroke:#000000;stroke-width:4;stroke-linecap:butt;stroke-linejoin:miter;stroke-miterlimit:4;stroke-opacity:1;stroke-dasharray:none"
       d="m 800.27522,94.251969 c -45.32111,8.588681 -84.76856,7.824611 -127.52817,-2.04197"
       id="path3916"
       inkscape:connector-curvature="0"
       sodipodi:nodetypes="cc" />
    <path
       style="fill:none;stroke:#000000;stroke-width:4;stroke-linecap:butt;stroke-linejoin:miter;stroke-miterlimit:4;stroke-opacity:1;stroke-dasharray:none"
       d="m 782.06063,55.525804 c -36.32828,8.752254 -62.39592,11.709425 -93.10066,1.923053"
       id="path3918"
       inkscape:connector-curvature="0"
       sodipodi:nodetypes="cc" />
    <path
       style="fill:none;stroke:#000000;stroke-width:4;stroke-linecap:butt;stroke-linejoin:miter;stroke-miterlimit:4;stroke-opacity:1;stroke-dasharray:none"
       d="m 753.61894,173.3216 c 24.63476,4.43606 41.24175,6.63942 57.01939,0.89828"
       id="path3920"
       inkscape:connector-curvature="0"
       sodipodi:nodetypes="cc" />
    <path
       style="fill:none;stroke:#000000;stroke-width:4;stroke-linecap:butt;stroke-linejoin:miter;stroke-miterlimit:4;stroke-opacity:1;stroke-dasharray:none"
       d="m 681.51118,53.974668 c -3.88325,29.931061 -1.89273,50.509422 6.22169,70.920942"
       id="path3922"
       inkscape:connector-curvature="0"
       sodipodi:nodetypes="cc" />
    <path
       style="fill:none;stroke:#000000;stroke-width:4;stroke-linecap:butt;stroke-linejoin:miter;stroke-miterlimit:4;stroke-opacity:1;stroke-dasharray:none"
       d="m 716.01728,38.326383 c -6.49876,53.903416 1.8953,92.079957 20.22112,134.888757"
       id="path3924"
       inkscape:connector-curvature="0"
       sodipodi:nodetypes="cc" />
    <path
       style="fill:none;stroke:#000000;stroke-width:3.94667029;stroke-linecap:butt;stroke-linejoin:miter;stroke-miterlimit:4;stroke-opacity:1;stroke-dasharray:none"
       d="m 762.11364,45.199267 c -5.77908,63.593453 3.4966,95.763603 29.32846,150.166183"
       id="path3926"
       inkscape:connector-curvature="0"
       sodipodi:nodetypes="cc" />
    <path
       style="fill:none;stroke:#000000;stroke-width:4;stroke-linecap:butt;stroke-linejoin:miter;stroke-miterlimit:4;stroke-opacity:1;stroke-dasharray:none"
       d="m 812.11089,101.28377 c -5.07074,23.83491 -5.09687,30.3727 4.3964,48.90812"
       id="path3928"
       inkscape:connector-curvature="0"
       sodipodi:nodetypes="cc" />
    <path
       style="fill:#3771c8;stroke:#000000;stroke-width:3;stroke-linecap:butt;stroke-linejoin:miter;stroke-miterlimit:4;stroke-opacity:1;stroke-dasharray:none"
       d="m 806.63337,152.35879 c 17.7721,94.7843 46.6517,118.4804 106.6324,126.6259 l 26.65812,9.99675 c 35.71575,-25.54731 52.46902,-39.98709 116.62911,-41.09783 -11.1076,-4.4431 -12.2183,-24.43662 -41.0979,-19.99362 21.4746,-26.6581 7.4051,-44.4301 11.1076,-66.6452 z"
       id="path3868"
       inkscape:connector-curvature="0"
       sodipodi:nodetypes="ccccccc" />
    <path
       style="fill:#ffffff;stroke:#000000;stroke-width:3.78402352;stroke-linecap:butt;stroke-linejoin:miter;stroke-miterlimit:4;stroke-opacity:1;stroke-dasharray:none"
       d="m 1057.5426,251.14977 c 10.6664,14.74468 31.3295,17.43807 41.9958,42.01254 -3.7848,24.57447 -20.5846,24.81047 -38.8206,27.26797 -55.7402,2.04784 -114.63277,-1.40909 -126.96364,-38.09051 l -1.11075,4.44301"
       id="path3910"
       inkscape:connector-curvature="0"
       sodipodi:nodetypes="ccccc" />
    <path
       style="fill:#d40000;stroke:#000000;stroke-width:4;stroke-linecap:butt;stroke-linejoin:miter;stroke-miterlimit:4;stroke-opacity:1;stroke-dasharray:none"
       d="m 942.41919,287.89538 c 16.49299,12.9739 16.57603,19.53368 75.53121,22.215 19.3841,-23.0123 20.9111,-42.4532 68.8667,-33.3226 -6.2145,-14.0979 -27.9052,-19.8624 -35.3102,-28.0079 l -61.56451,7.6211 z"
       id="path3902"
       inkscape:connector-curvature="0"
       sodipodi:nodetypes="cccccc" />
    <path
       style="fill:#ffffff;stroke:#000000;stroke-width:4;stroke-linecap:butt;stroke-linejoin:miter;stroke-miterlimit:4;stroke-opacity:1;stroke-dasharray:none"
       d="m 1014.8141,308.17428 c 26.1905,8.7302 44.0476,0.7936 64.2857,2.3809 23.6635,-13.8035 19.2689,-25.0562 8.3333,-35.7143 -49.2063,-7.5397 -51.9842,2.7778 -72.619,33.3334 z"
       id="path3904"
       inkscape:connector-curvature="0"
       sodipodi:nodetypes="cccc" />
    <path
       style="fill:#ffffff;stroke:#000000;stroke-width:4;stroke-linecap:butt;stroke-linejoin:miter;stroke-miterlimit:4;stroke-opacity:1;stroke-dasharray:none"
       d="m 1000.5284,277.22178 c 15.4762,-13.0952 19.0476,-16.6666 46.4286,-21.4285 l 8.3333,4.7619 c -22.2222,6.3492 -30.1587,7.9365 -45.2381,22.619 z"
       id="path3906"
       inkscape:connector-curvature="0"
       sodipodi:nodetypes="ccccc" />
    <path
       style="fill:none;stroke:#000000;stroke-width:1px;stroke-linecap:butt;stroke-linejoin:miter;stroke-opacity:1"
       d="M 925.52844,290.31708 z"
       id="path3908"
       inkscape:connector-curvature="0" />
    <path
       sodipodi:nodetypes="cczc"
       inkscape:connector-curvature="0"
       id="path3898"
       d="m 982.13247,103.26411 42.20863,-22.215102 c 0,0 -29.58401,-44.8294 -46.65165,-35.5441 -17.06764,9.2853 4.44302,57.759202 4.44302,57.759202 z"
       style="fill:#ffffff;stroke:#000000;stroke-width:4;stroke-linecap:butt;stroke-linejoin:miter;stroke-miterlimit:4;stroke-opacity:1;stroke-dasharray:none" />
    <path
       style="fill:#ac7039;fill-opacity:1;stroke:#000000;stroke-width:3;stroke-linecap:butt;stroke-linejoin:miter;stroke-miterlimit:4;stroke-opacity:1;stroke-dasharray:none"
       d="m 860.10959,-112.8159 c -17.33333,15.333328 -25.66667,27.666668 -31,45.999998 -9.33333,9 -13.66667,13 -19,24 14.91111,-7.03704 17.18257,-8.14016 23,-12 -14.54766,22.39284 -16.48784,25.08942 -17,39 5.66667,-5.66667 11.33333,-11.33333 17,-17 l -4,22 12,-12 c 24.13346,31.1998698 45.07126,45.59541 91,51 59,-10 83.00001,-22.0000002 102.00001,-69 l 8,14 c -0.3333,-8 1.3333,-14 -1,-24 l 17,14 c -7.3333,-10.33333 -5.6667,-18.66667 -22,-31 l 18,2 c -7.3333,-4.66667 -7.6667,-9.33333 -22,-14 -10,-21.666668 -21,-36.333328 -48.00001,-58.999998 12,-6.66667 24.00001,-20.33333 13,-39 -15.33333,5.33333 -20.66667,12.66667 -31,34 -12.66667,-2.33333 -16.33333,-2.66667 -35,-1 14.66667,-12 11.33333,-16 17,-24 -11.84626,5.84626 -17.33329,17.33329 -26,26 7.33333,-18 12.66667,-24 13,-42 -13.33333,13.66667 -14.66667,20.33333 -19,38 -1.66667,-8.33333 1.66667,-11.66667 -5,-25 -5,13.00019 -7,16.60258 -2,27 -11.33333,4.33333 -18.66667,5.66667 -34,16 -6.66667,-23.66667 -10.33333,-22.33333 -30,-34 -8,25.66667 -1,36.33333 15,50 z"
       id="path3214"
       inkscape:connector-curvature="0"
       sodipodi:nodetypes="ccccccccccccccccccccccccccccc" />
    <path
       d="m 354,125.86218 c 0,12.42641 -10.07359,22.5 -22.5,22.5 -12.42641,0 -22.5,-10.07359 -22.5,-22.5 0,-12.4264 10.07359,-22.5 22.5,-22.5 12.42641,0 22.5,10.0736 22.5,22.5 z"
       sodipodi:ry="22.5"
       sodipodi:rx="22.5"
       sodipodi:cy="125.86218"
       sodipodi:cx="331.5"
       id="path3986"
       style="fill:#ffffff;fill-opacity:1;fill-rule:nonzero;stroke:#000000;stroke-width:3;stroke-linecap:butt;stroke-linejoin:round;stroke-miterlimit:4;stroke-opacity:1;stroke-dasharray:none;stroke-dashoffset:0"
       sodipodi:type="arc"
       transform="matrix(1.0021192,0,0,0.93545252,643.40708,-215.554)" />
    <path
       sodipodi:type="arc"
       style="fill:#ffffff;fill-opacity:1;fill-rule:nonzero;stroke:#000000;stroke-width:3;stroke-linecap:butt;stroke-linejoin:round;stroke-miterlimit:4;stroke-opacity:1;stroke-dasharray:none;stroke-dashoffset:0"
       id="path3984"
       sodipodi:cx="331.5"
       sodipodi:cy="125.86218"
       sodipodi:rx="22.5"
       sodipodi:ry="22.5"
       d="m 354,125.86218 c 0,12.42641 -10.07359,22.5 -22.5,22.5 -12.42641,0 -22.5,-10.07359 -22.5,-22.5 0,-12.4264 10.07359,-22.5 22.5,-22.5 12.42641,0 22.5,10.0736 22.5,22.5 z"
       transform="translate(604.10959,-219.17808)" />
    <path
       sodipodi:type="arc"
       style="fill:#502d16;fill-opacity:1;fill-rule:nonzero;stroke:#000000;stroke-width:3;stroke-linecap:butt;stroke-linejoin:round;stroke-miterlimit:4;stroke-opacity:1;stroke-dasharray:none;stroke-dashoffset:0"
       id="path3988"
       sodipodi:cx="358.5"
       sodipodi:cy="169.86218"
       sodipodi:rx="27.5"
       sodipodi:ry="18.5"
       d="m 386,169.86218 c 0,10.21727 -12.31217,18.5 -27.5,18.5 -15.18783,0 -27.5,-8.28273 -27.5,-18.5 0,-10.21727 12.31217,-18.5 27.5,-18.5 15.18783,0 27.5,8.28273 27.5,18.5 z"
       transform="matrix(1,0,0,1.0135135,606.10959,-231.22352)" />
    <path
       style="fill:#38302b;fill-opacity:1;stroke:#000000;stroke-width:3;stroke-linecap:butt;stroke-linejoin:miter;stroke-miterlimit:4;stroke-opacity:1;stroke-dasharray:none"
       d="m 904.10959,-111.8159 c 1.33333,-13.33333 3.66667,-17.66667 13,-28 l 12,10 c -13.33333,6 -13.66667,8 -25,18 z"
       id="path3990"
       inkscape:connector-curvature="0"
       sodipodi:nodetypes="cccc" />
    <path
       style="fill:#38302b;fill-opacity:1;stroke:#000000;stroke-width:3;stroke-linecap:butt;stroke-linejoin:miter;stroke-miterlimit:4;stroke-opacity:1;stroke-dasharray:none"
       d="m 989.10959,-121.8159 c -13,-13.33333 -13,-11.66667 -27,-16 l 1,11 c 14.66667,-1.33333 17.33333,3.33333 26,5 z"
       id="path3992"
       inkscape:connector-curvature="0"
       sodipodi:nodetypes="cccc" />
    <path
       style="fill:none;stroke:#000000;stroke-width:2;stroke-linecap:butt;stroke-linejoin:miter;stroke-miterlimit:4;stroke-opacity:1;stroke-dasharray:none"
       d="m 905.10959,-76.815902 c 12.89853,-0.46373 22.62645,5.41376 33,10"
       id="path3994"
       inkscape:connector-curvature="0"
       sodipodi:nodetypes="cc" />
    <path
       style="fill:none;stroke:#000000;stroke-width:2;stroke-linecap:butt;stroke-linejoin:miter;stroke-miterlimit:4;stroke-opacity:1;stroke-dasharray:none"
       d="m 981.10959,-73.815902 c 3.90826,-2.6208 9.54041,-6.10354 24.00001,-14"
       id="path3996"
       inkscape:connector-curvature="0"
       sodipodi:nodetypes="cc" />
    <path
       sodipodi:type="arc"
       style="fill:#000000;stroke:#000000;stroke-width:2;stroke-linecap:butt;stroke-linejoin:round;stroke-miterlimit:4;stroke-opacity:1;stroke-dasharray:none;stroke-dashoffset:0"
       id="path3998"
       sodipodi:cx="328.5"
       sodipodi:cy="126.36218"
       sodipodi:rx="6.5"
       sodipodi:ry="6"
       d="m 335,126.36218 c 0,3.31371 -2.91015,6 -6.5,6 -3.58985,0 -6.5,-2.68629 -6.5,-6 0,-3.31371 2.91015,-6 6.5,-6 3.58985,0 6.5,2.68629 6.5,6 z"
       transform="matrix(0.90657656,0,0,1,635.40644,-219.17808)" />
    <path
       transform="matrix(0.90657656,0,0,1,677.40644,-221.17808)"
       d="m 335,126.36218 c 0,3.31371 -2.91015,6 -6.5,6 -3.58985,0 -6.5,-2.68629 -6.5,-6 0,-3.31371 2.91015,-6 6.5,-6 3.58985,0 6.5,2.68629 6.5,6 z"
       sodipodi:ry="6"
       sodipodi:rx="6.5"
       sodipodi:cy="126.36218"
       sodipodi:cx="328.5"
       id="path4000"
       style="fill:#000000;stroke:#000000;stroke-width:2;stroke-linecap:butt;stroke-linejoin:round;stroke-miterlimit:4;stroke-opacity:1;stroke-dasharray:none;stroke-dashoffset:0"
       sodipodi:type="arc" />
    <path
       style="fill:none;stroke:#000000;stroke-width:3;stroke-linecap:butt;stroke-linejoin:miter;stroke-miterlimit:4;stroke-opacity:1;stroke-dasharray:none"
       d="m 869.10959,-26.815902 c 19.33333,8.92066 21.21722,11.29454 34,12 19.88514,1.09743 29.15347,-15.73632 54,-15 24.84653,0.73632 14.05511,8.16198 34,9 19.94491,0.83802 14.66671,-0.66667 22.00001,-1"
       id="path4002"
       inkscape:connector-curvature="0"
       sodipodi:nodetypes="cszzc" />
    <path
       style="fill:#ffffff;stroke:#000000;stroke-width:3;stroke-linecap:butt;stroke-linejoin:miter;stroke-miterlimit:4;stroke-opacity:1;stroke-dasharray:none"
       d="m 930.10959,-22.815902 7,31.9999998 22,-1 0,-35.9999998"
       id="path4004"
       inkscape:connector-curvature="0" />
    <path
       style="fill:#ffffff;fill-opacity:1;stroke:#000000;stroke-width:3;stroke-linecap:butt;stroke-linejoin:miter;stroke-miterlimit:4;stroke-opacity:1;stroke-dasharray:none"
       d="m 959.10959,-29.815902 -1,36.4999998 18,0.5 6,-27.9999998"
       id="path4008"
       inkscape:connector-curvature="0"
       sodipodi:nodetypes="cccc" />
    <path
       style="fill:#ffffff;stroke:#000000;stroke-width:3;stroke-linecap:butt;stroke-linejoin:miter;stroke-miterlimit:4;stroke-opacity:1;stroke-dasharray:none"
       d="m 802.19039,163.24477 c 82.38056,17.80821 151.06248,15.06848 226.59371,-2e-5 L 998.79373,87.158128 975.46795,31.065078 c -42.94912,26.28783 -50.35413,23.69606 -86.63874,7.77526 -54.79719,40.72764 -58.49972,81.455292 -86.63882,124.404432 z"
       id="path3862"
       inkscape:connector-curvature="0"
       sodipodi:nodetypes="cccccc" />
    <path
       style="fill:none;stroke:#000000;stroke-width:1px;stroke-linecap:butt;stroke-linejoin:miter;stroke-opacity:1"
       d="m 886.60766,21.068368 88.86029,2.2215"
       id="path3864"
       inkscape:connector-curvature="0" />
    <path
       style="fill:none;stroke:#000000;stroke-width:3;stroke-linecap:butt;stroke-linejoin:miter;stroke-miterlimit:4;stroke-opacity:1;stroke-dasharray:none"
       d="m 891.05067,21.068368 c 40.72763,11.848 52.57567,12.5885 82.19577,0 l 0,13.329 c -36.28462,19.9936 -43.68964,24.4366 -88.86029,6.6645 z"
       id="path3866"
       inkscape:connector-curvature="0"
       sodipodi:nodetypes="ccccc" />
    <path
       style="fill:none;stroke:#000000;stroke-width:4;stroke-linecap:butt;stroke-linejoin:miter;stroke-miterlimit:4;stroke-opacity:1;stroke-dasharray:none"
       d="m 1024.3411,169.90927 c -1.481,2.962 -1.481,10.3671 -4.4431,8.8861 -2.962,-1.481 7.4051,-10.3671 4.4431,-8.8861 -19.9069,9.9535 -3.2782,7.7212 -11.1076,15.5506 -0.5236,0.5236 -1.6979,-0.5236 -2.2215,0 -0.5236,0.5236 0.5236,1.6979 0,2.2215 -1.0472,1.0472 -3.1183,-0.6623 -4.443,0 -0.9366,0.4683 -1.2848,1.7532 -2.2215,2.2215 -1.3246,0.6623 -3.3958,-1.0472 -4.44298,0 -0.52361,0.5236 0.52358,1.6979 0,2.2215 -1.11075,1.1108 -5.55376,-1.1107 -6.66452,0 -0.52361,0.5236 0.52362,1.6979 0,2.2215 -0.52361,0.5236 -1.481,0 -2.2215,0 -5.18352,0 -10.36704,0 -15.55055,0 -2.22151,0 -4.44302,0 -6.66453,0 -0.7405,0 -2.2215,0.7405 -2.2215,0 0,-0.7405 1.481,0 2.2215,0"
       id="path3874"
       inkscape:connector-curvature="0" />
    <path
       style="fill:none;stroke:#000000;stroke-width:4;stroke-linecap:butt;stroke-linejoin:miter;stroke-miterlimit:4;stroke-opacity:1;stroke-dasharray:none"
       d="m 906.15821,278.54167 c 41.46813,-9.6265 40.72763,-8.1455 71.08823,-28.8796"
       id="path3878"
       inkscape:connector-curvature="0"
       sodipodi:nodetypes="cc" />
    <path
       style="fill:none;stroke:#000000;stroke-width:4;stroke-linecap:butt;stroke-linejoin:miter;stroke-miterlimit:4;stroke-opacity:1;stroke-dasharray:none"
       d="m 1001.9045,242.99757 19.9935,-15.5506"
       id="path3880"
       inkscape:connector-curvature="0" />
    <path
       style="fill:none;stroke:#000000;stroke-width:4;stroke-linecap:butt;stroke-linejoin:miter;stroke-miterlimit:4;stroke-opacity:1;stroke-dasharray:none"
       d="m 988.79699,221.00397 31.10101,-6.6645"
       id="path3884"
       inkscape:connector-curvature="0" />
    <path
       style="fill:none;stroke:#000000;stroke-width:4;stroke-linecap:butt;stroke-linejoin:miter;stroke-miterlimit:4;stroke-opacity:1;stroke-dasharray:none"
       d="M 951.03137,123.25767 993.24,101.04257 c 0,0 -29.58401,-44.829402 -46.65165,-35.544102 -17.06764,9.2853 4.44302,57.759202 4.44302,57.759202 z"
       id="path3888"
       inkscape:connector-curvature="0"
       sodipodi:nodetypes="cczc" />
    <path
       sodipodi:nodetypes="cszcccccc"
       inkscape:connector-curvature="0"
       id="path3894"
       d="m 955.47442,116.59317 c 0,0 70.98668,56.09147 97.74628,66.64514 19.3651,7.63736 14.8885,-47.33105 28.8796,-75.53125 13.9912,-28.200202 -6.6646,-79.974222 -6.6646,-79.974222 -19.9935,-26.6580902 -39.9871,-22.2150602 -48.8731,11.10754 11.1075,23.69607 -4.443,34.06309 22.2151,57.75917 l -4.4431,46.651662 -62.20208,-42.20864 z"
       style="fill:#a05a2c;stroke:#000000;stroke-width:4;stroke-linecap:butt;stroke-linejoin:miter;stroke-miterlimit:4;stroke-opacity:1;stroke-dasharray:none" />
    <path
       sodipodi:nodetypes="csc"
       inkscape:connector-curvature="0"
       id="path3896"
       d="m 1064.3282,94.913678 c 0,0 -30.5412,-47.16184 -17.772,-56.66566 27.5934,-20.53724 35.5441,67.459072 35.5441,67.459072"
       style="fill:none;stroke:#000000;stroke-width:4.40845299;stroke-linecap:butt;stroke-linejoin:miter;stroke-miterlimit:4;stroke-opacity:1;stroke-dasharray:none" />
    <path
       style="fill:#800000;stroke:#d40000;stroke-width:8;stroke-linecap:butt;stroke-linejoin:miter;stroke-miterlimit:4;stroke-opacity:1;stroke-dasharray:none"
       d="m 632.91825,-587.01542 c 247.5216,35.44701 422.06475,74.10051 532.87675,136.98631 27.1355,22.41893 187.7569,38.95581 128.7671,-46.57534 -108.2192,-169.4064 -443.83565,-145.66211 -661.64385,-90.41097 z"
       id="path3932"
       inkscape:connector-curvature="0"
       sodipodi:nodetypes="cccc" />
    <path
       style="fill:#d40000;stroke:#d40000;stroke-width:4;stroke-linecap:butt;stroke-linejoin:miter;stroke-miterlimit:4;stroke-opacity:1;stroke-dasharray:none"
       d="m 539.76755,-502.08391 c 48.4019,47.94521 95.4338,57.53425 190.411,57.53425 41.5525,-79.90868 120.0913,-140.63927 358.90415,-169.86301 -295.24295,-44.28541 -533.89485,12.18728 -549.31515,112.32876 z"
       id="path3930"
       inkscape:connector-curvature="0"
       sodipodi:nodetypes="cccc" />
  </g>
</svg>
