<?xml version="1.0" encoding="UTF-8" standalone="no"?>
<!-- Created with Inkscape (http://www.inkscape.org/) -->

<svg
   xmlns:osb="http://www.openswatchbook.org/uri/2009/osb"
   xmlns:dc="http://purl.org/dc/elements/1.1/"
   xmlns:cc="http://creativecommons.org/ns#"
   xmlns:rdf="http://www.w3.org/1999/02/22-rdf-syntax-ns#"
   xmlns:svg="http://www.w3.org/2000/svg"
   xmlns="http://www.w3.org/2000/svg"
   xmlns:xlink="http://www.w3.org/1999/xlink"
   xmlns:sodipodi="http://sodipodi.sourceforge.net/DTD/sodipodi-0.dtd"
   xmlns:inkscape="http://www.inkscape.org/namespaces/inkscape"
   width="452.63412"
   height="400.34375"
   id="svg2"
   version="1.1"
   inkscape:version="0.48.2 r9819"
   sodipodi:docname="2014-FR-07_turtle_up.svg">
  <defs
     id="defs4">
    <linearGradient
       id="linearGradient5487"
       osb:paint="solid">
      <stop
         style="stop-color:#000000;stop-opacity:1;"
         offset="0"
         id="stop5489" />
    </linearGradient>
    <linearGradient
       id="linearGradient5479"
       osb:paint="solid">
      <stop
         style="stop-color:#ffffff;stop-opacity:1;"
         offset="0"
         id="stop5481" />
    </linearGradient>
    <linearGradient
       id="linearGradient5443"
       osb:paint="solid">
      <stop
         style="stop-color:#ffffff;stop-opacity:1;"
         offset="0"
         id="stop5445" />
    </linearGradient>
    <linearGradient
       id="linearGradient5435"
       osb:paint="solid">
      <stop
         style="stop-color:#ffffff;stop-opacity:1;"
         offset="0"
         id="stop5437" />
    </linearGradient>
    <linearGradient
       id="linearGradient5348"
       osb:paint="solid">
      <stop
         style="stop-color:#ffffff;stop-opacity:1;"
         offset="0"
         id="stop5350" />
    </linearGradient>
    <linearGradient
       id="linearGradient5340"
       osb:paint="solid">
      <stop
         style="stop-color:#008000;stop-opacity:1;"
         offset="0"
         id="stop5342" />
    </linearGradient>
    <linearGradient
       id="linearGradient5334"
       osb:paint="solid">
      <stop
         style="stop-color:#00922a;stop-opacity:1;"
         offset="0"
         id="stop5336" />
    </linearGradient>
    <linearGradient
       inkscape:collect="always"
       xlink:href="#linearGradient5340"
       id="linearGradient5344"
       x1="166.42857"
       y1="515.2193"
       x2="410.71429"
       y2="515.2193"
       gradientUnits="userSpaceOnUse" />
    <linearGradient
       inkscape:collect="always"
       xlink:href="#linearGradient5348"
       id="linearGradient5352"
       x1="294.28571"
       y1="356.29074"
       x2="332.14288"
       y2="356.29074"
       gradientUnits="userSpaceOnUse" />
    <linearGradient
       inkscape:collect="always"
       xlink:href="#linearGradient5479"
       id="linearGradient5483"
       x1="343.07144"
       y1="347.36218"
       x2="371.92856"
       y2="347.36218"
       gradientUnits="userSpaceOnUse" />
    <linearGradient
       inkscape:collect="always"
       xlink:href="#linearGradient5487"
       id="linearGradient5491"
       x1="356.64288"
       y1="339.14789"
       x2="369.78571"
       y2="339.14789"
       gradientUnits="userSpaceOnUse" />
  </defs>
  <sodipodi:namedview
     id="base"
     pagecolor="#ffffff"
     bordercolor="#666666"
     borderopacity="1.0"
     inkscape:pageopacity="0.0"
     inkscape:pageshadow="2"
     inkscape:zoom="0.70710678"
     inkscape:cx="107.48213"
     inkscape:cy="296.93834"
     inkscape:document-units="px"
     inkscape:current-layer="layer1"
     showgrid="false"
     inkscape:window-width="1035"
     inkscape:window-height="723"
     inkscape:window-x="242"
     inkscape:window-y="0"
     inkscape:window-maximized="0"
     fit-margin-top="0"
     fit-margin-left="0"
     fit-margin-right="0"
     fit-margin-bottom="0" />
  <metadata
     id="metadata7">
    <rdf:RDF>
      <cc:Work
         rdf:about="">
        <dc:format>image/svg+xml</dc:format>
        <dc:type
           rdf:resource="http://purl.org/dc/dcmitype/StillImage" />
        <dc:title></dc:title>
      </cc:Work>
    </rdf:RDF>
  </metadata>
  <g
     inkscape:label="Layer 1"
     inkscape:groupmode="layer"
     id="layer1"
     transform="translate(-105.30336,-324.4375)">
    <path
       style="fill:#999999;stroke:#000000;stroke-width:1px;stroke-linecap:butt;stroke-linejoin:miter;stroke-opacity:1"
       d="m 196.26573,722.54123 c 168.17411,-128.6047 325.00239,1.56584 325.00239,1.56584 l 35.95454,-34.04806 C 471.24485,596.13418 481.9805,434.46832 555.28584,363.06131 L 521.7351,325.10609 c 0,0 -154.23678,120.54105 -323.9957,3.43282 -64.03503,51.56029 -91.48029,121.56516 -91.7421,193.12273 -0.2673,73.05961 27.52677,147.42543 90.26843,200.87959 z"
       id="path3499"
       inkscape:connector-curvature="0"
       sodipodi:nodetypes="ccccccsc" />
    <path
       style="fill:#803300;stroke:#000000;stroke-width:7.64224386;stroke-linecap:butt;stroke-linejoin:miter;stroke-miterlimit:4;stroke-opacity:1;stroke-dasharray:none"
       d="m 461.43965,539.13396 33.17857,-20.7195 -35.07858,-20.62832"
       id="path3866"
       inkscape:connector-curvature="0" />
    <path
       style="fill:#784421;stroke:#000000;stroke-width:10.51873302;stroke-linecap:butt;stroke-linejoin:miter;stroke-miterlimit:4;stroke-opacity:1;stroke-dasharray:none"
       d="m 416.25804,415.53279 c 24.78115,-28.48333 63.61164,-51.68075 96.56849,-57.58398 8.16729,58.92991 -14.64546,68.52519 -36.13287,92.9582"
       id="path3864"
       inkscape:connector-curvature="0"
       sodipodi:nodetypes="ccc" />
    <path
       style="fill:#784421;stroke:#000000;stroke-width:9.2113409;stroke-linecap:butt;stroke-linejoin:miter;stroke-miterlimit:4;stroke-opacity:1;stroke-dasharray:none"
       d="m 420.42259,627.96719 c 22.51174,48.83065 66.90979,48.24918 96.15937,57.07958 6.98791,-43.75626 -10.97507,-73.92705 -48.94921,-93.00615"
       id="path3862"
       inkscape:connector-curvature="0"
       sodipodi:nodetypes="ccc" />
    <path
       style="fill:#784421;stroke:#000000;stroke-width:9.19561481;stroke-linecap:butt;stroke-linejoin:miter;stroke-miterlimit:4;stroke-opacity:1;stroke-dasharray:none"
       d="m 283.72222,625.24187 c -7.93609,32.70554 -43.92424,61.63474 -85.62284,72.17425 -20.98271,-61.87252 20.02434,-96.00774 31.96153,-118.46521"
       id="path3858"
       inkscape:connector-curvature="0"
       sodipodi:nodetypes="ccc" />
    <path
       style="fill:#784421;stroke:#000000;stroke-width:10.88647652;stroke-linecap:butt;stroke-linejoin:miter;stroke-miterlimit:4;stroke-opacity:1;stroke-dasharray:none"
       d="m 226.51046,462.15729 c -27.91317,-23.80701 -54.55139,-90.52325 -22.67091,-118.53175 39.19991,36.49266 73.43196,50.4741 87.03185,71.53399"
       id="path3860"
       inkscape:connector-curvature="0"
       sodipodi:nodetypes="ccc" />
    <path
       sodipodi:type="arc"
       style="fill:#803300;fill-opacity:1;fill-rule:evenodd;stroke:#000000;stroke-width:10;stroke-linecap:butt;stroke-linejoin:round;stroke-miterlimit:4;stroke-opacity:1;stroke-dasharray:none;stroke-dashoffset:0"
       id="path3848"
       sodipodi:cx="-161.42857"
       sodipodi:cy="295.21933"
       sodipodi:rx="47.142857"
       sodipodi:ry="48.57143"
       d="m -114.28572,295.21933 c 0,26.82526 -21.10657,48.57143 -47.14285,48.57143 -26.03628,0 -47.14286,-21.74617 -47.14286,-48.57143 0,-26.82526 21.10658,-48.57143 47.14286,-48.57143 26.03628,0 47.14285,21.74617 47.14285,48.57143 z"
       transform="matrix(-0.00133587,-0.99999911,1.1691166,-0.00156179,-177.43659,359.89727)" />
    <path
       sodipodi:type="arc"
       style="fill:url(#linearGradient5344);fill-opacity:1;fill-rule:nonzero;stroke:#000000;stroke-width:10;stroke-linecap:butt;stroke-linejoin:round;stroke-miterlimit:4;stroke-opacity:1;stroke-dasharray:none;stroke-dashoffset:0"
       id="path3070"
       sodipodi:cx="288.57144"
       sodipodi:cy="515.2193"
       sodipodi:rx="117.14286"
       sodipodi:ry="142.85715"
       d="m 405.7143,515.2193 c 0,78.89782 -52.44664,142.85715 -117.14286,142.85715 -64.69621,0 -117.14286,-63.95933 -117.14286,-142.85715 0,-78.89782 52.44665,-142.85715 117.14286,-142.85715 64.69622,0 117.14286,63.95933 117.14286,142.85715 z"
       transform="matrix(-0.00133587,-0.99999911,0.99999911,-0.00133587,-158.69629,808.44407)" />
    <path
       sodipodi:type="star"
       style="fill:#008000;fill-opacity:0.10329596;fill-rule:nonzero;stroke:#000000;stroke-width:10;stroke-linecap:butt;stroke-linejoin:round;stroke-miterlimit:4;stroke-opacity:1;stroke-dasharray:none;stroke-dashoffset:0"
       id="path3844"
       sodipodi:sides="3"
       sodipodi:cx="-188.57143"
       sodipodi:cy="258.07648"
       sodipodi:r1="56.133949"
       sodipodi:r2="51.798611"
       sodipodi:arg1="-0.25732371"
       sodipodi:arg2="0.78987384"
       inkscape:flatsided="false"
       inkscape:rounded="0"
       inkscape:randomized="0"
       d="m -134.28571,243.79076 -17.82287,51.07643 -51.23391,17.36495 -35.32205,-40.97326 10.57847,-53.05235 53.14491,-10.10316 z"
       inkscape:transform-center-x="-2.0799177"
       inkscape:transform-center-y="-2.1065231"
       transform="matrix(0.0192417,-0.99981486,0.99981486,0.0192417,97.861897,319.97317)" />
    <path
       style="fill:none;stroke:#000000;stroke-width:10;stroke-linecap:butt;stroke-linejoin:miter;stroke-miterlimit:4;stroke-opacity:1;stroke-dasharray:none"
       d="m 399.00563,527.6988 80.06481,48.46451"
       id="path3868"
       inkscape:connector-curvature="0" />
    <path
       style="fill:none;stroke:#000000;stroke-width:10;stroke-linecap:butt;stroke-linejoin:miter;stroke-miterlimit:4;stroke-opacity:1;stroke-dasharray:none"
       d="m 364.76957,564.88742 0.0916,68.57137"
       id="path3870"
       inkscape:connector-curvature="0" />
    <path
       style="fill:none;stroke:#000000;stroke-width:10;stroke-linecap:butt;stroke-linejoin:miter;stroke-miterlimit:4;stroke-opacity:1;stroke-dasharray:none"
       d="m 307.60386,547.82091 -57.07792,48.64773"
       id="path3872"
       inkscape:connector-curvature="0" />
    <path
       style="fill:none;stroke:#000000;stroke-width:10;stroke-linecap:butt;stroke-linejoin:miter;stroke-miterlimit:4;stroke-opacity:1;stroke-dasharray:none"
       d="M 304.67039,490.68192 238.90654,453.62689"
       id="path3874"
       inkscape:connector-curvature="0" />
    <path
       style="fill:none;stroke:#000000;stroke-width:10.81976414;stroke-linecap:butt;stroke-linejoin:miter;stroke-miterlimit:4;stroke-opacity:1;stroke-dasharray:none"
       d="m 343.48322,457.48719 -0.0715,-53.51644"
       id="path3876"
       inkscape:connector-curvature="0" />
    <path
       style="fill:none;stroke:#000000;stroke-width:9.38066006;stroke-linecap:butt;stroke-linejoin:miter;stroke-miterlimit:4;stroke-opacity:1;stroke-dasharray:none"
       d="m 392.6273,476.30266 60.55739,-46.41457"
       id="path3878"
       inkscape:connector-curvature="0" />
    <path
       sodipodi:type="arc"
       style="fill:url(#linearGradient5352);fill-opacity:1;fill-rule:evenodd;stroke:#000000;stroke-width:0.71621621;stroke-linecap:butt;stroke-linejoin:round;stroke-miterlimit:4;stroke-opacity:1;stroke-dasharray:none;stroke-dashoffset:0"
       id="path5346"
       sodipodi:cx="313.21429"
       sodipodi:cy="356.29074"
       sodipodi:rx="13.928572"
       sodipodi:ry="13.928572"
       d="m 327.14287,356.29074 c 0,7.69254 -6.23604,13.92857 -13.92858,13.92857 -7.69253,0 -13.92857,-6.23603 -13.92857,-13.92857 0,-7.69254 6.23604,-13.92857 13.92857,-13.92857 7.69254,0 13.92858,6.23603 13.92858,13.92857 z"
       transform="matrix(-0.00123112,-0.92158128,-0.8959403,0.00119686,465.34682,835.62028)" />
    <path
       sodipodi:type="arc"
       style="fill:#000000;fill-opacity:0.10329596;fill-rule:evenodd;stroke:#000000;stroke-width:10;stroke-linecap:butt;stroke-linejoin:round;stroke-miterlimit:4;stroke-opacity:1;stroke-dasharray:none;stroke-dashoffset:0"
       id="path5354"
       sodipodi:cx="310"
       sodipodi:cy="336.64789"
       sodipodi:rx="2.1428571"
       sodipodi:ry="2.8571429"
       d="m 312.14286,336.64789 c 0,1.57795 -0.95939,2.85714 -2.14286,2.85714 -1.18347,0 -2.14286,-1.27919 -2.14286,-2.85714 0,-1.57796 0.95939,-2.85714 2.14286,-2.85714 1.18347,0 2.14286,1.27918 2.14286,2.85714 z"
       transform="matrix(-0.00133587,-0.99999911,-0.99999911,0.00133587,478.81046,859.02105)" />
    <path
       sodipodi:type="arc"
       style="fill:url(#linearGradient5483);fill-opacity:1;fill-rule:evenodd;stroke:#000000;stroke-width:1;stroke-linecap:butt;stroke-linejoin:round;stroke-miterlimit:4;stroke-opacity:1;stroke-dasharray:none;stroke-dashoffset:0"
       id="path5477"
       sodipodi:cx="357.5"
       sodipodi:cy="347.36218"
       sodipodi:rx="13.928572"
       sodipodi:ry="14.285714"
       d="m 371.42857,347.36218 c 0,7.88978 -6.23603,14.28572 -13.92857,14.28572 -7.69254,0 -13.92857,-6.39594 -13.92857,-14.28572 0,-7.88978 6.23603,-14.28571 13.92857,-14.28571 7.69254,0 13.92857,6.39593 13.92857,14.28571 z"
       transform="matrix(-0.00120355,-0.90094643,0.90342273,-0.00120686,-165.85362,815.89941)" />
    <path
       sodipodi:type="arc"
       style="fill:url(#linearGradient5491);fill-opacity:1;fill-rule:evenodd;stroke:#000000;stroke-width:1;stroke-linecap:butt;stroke-linejoin:round;stroke-miterlimit:4;stroke-opacity:1;stroke-dasharray:none;stroke-dashoffset:0"
       id="path5485"
       sodipodi:cx="363.21429"
       sodipodi:cy="339.14789"
       sodipodi:rx="6.0714288"
       sodipodi:ry="6.7857141"
       d="m 369.28572,339.14789 c 0,3.74764 -2.71827,6.78571 -6.07143,6.78571 -3.35315,0 -6.07142,-3.03807 -6.07142,-6.78571 0,-3.74765 2.71827,-6.78572 6.07142,-6.78572 3.35316,0 6.07143,3.03807 6.07143,6.78572 z"
       transform="matrix(-0.00133587,-0.99999911,0.99999911,-0.00133587,-196.49138,854.92317)" />
  </g>
</svg>
