<?xml version="1.0" encoding="UTF-8" standalone="no"?>
<!-- Created with Inkscape (http://www.inkscape.org/) -->

<svg
   xmlns:osb="http://www.openswatchbook.org/uri/2009/osb"
   xmlns:dc="http://purl.org/dc/elements/1.1/"
   xmlns:cc="http://creativecommons.org/ns#"
   xmlns:rdf="http://www.w3.org/1999/02/22-rdf-syntax-ns#"
   xmlns:svg="http://www.w3.org/2000/svg"
   xmlns="http://www.w3.org/2000/svg"
   xmlns:xlink="http://www.w3.org/1999/xlink"
   xmlns:sodipodi="http://sodipodi.sourceforge.net/DTD/sodipodi-0.dtd"
   xmlns:inkscape="http://www.inkscape.org/namespaces/inkscape"
   width="400.34375"
   height="452.39328"
   id="svg2"
   version="1.1"
   inkscape:version="0.48.2 r9819"
   sodipodi:docname="turtle.svg">
  <defs
     id="defs4">
    <linearGradient
       id="linearGradient5487"
       osb:paint="solid">
      <stop
         style="stop-color:#000000;stop-opacity:1;"
         offset="0"
         id="stop5489" />
    </linearGradient>
    <linearGradient
       id="linearGradient5479"
       osb:paint="solid">
      <stop
         style="stop-color:#ffffff;stop-opacity:1;"
         offset="0"
         id="stop5481" />
    </linearGradient>
    <linearGradient
       id="linearGradient5443"
       osb:paint="solid">
      <stop
         style="stop-color:#ffffff;stop-opacity:1;"
         offset="0"
         id="stop5445" />
    </linearGradient>
    <linearGradient
       id="linearGradient5435"
       osb:paint="solid">
      <stop
         style="stop-color:#ffffff;stop-opacity:1;"
         offset="0"
         id="stop5437" />
    </linearGradient>
    <linearGradient
       id="linearGradient5348"
       osb:paint="solid">
      <stop
         style="stop-color:#ffffff;stop-opacity:1;"
         offset="0"
         id="stop5350" />
    </linearGradient>
    <linearGradient
       id="linearGradient5340"
       osb:paint="solid">
      <stop
         style="stop-color:#008000;stop-opacity:1;"
         offset="0"
         id="stop5342" />
    </linearGradient>
    <linearGradient
       id="linearGradient5334"
       osb:paint="solid">
      <stop
         style="stop-color:#00922a;stop-opacity:1;"
         offset="0"
         id="stop5336" />
    </linearGradient>
    <linearGradient
       inkscape:collect="always"
       xlink:href="#linearGradient5340"
       id="linearGradient5344"
       x1="166.42857"
       y1="515.2193"
       x2="410.71429"
       y2="515.2193"
       gradientUnits="userSpaceOnUse" />
    <linearGradient
       inkscape:collect="always"
       xlink:href="#linearGradient5348"
       id="linearGradient5352"
       x1="294.28571"
       y1="356.29074"
       x2="332.14288"
       y2="356.29074"
       gradientUnits="userSpaceOnUse" />
    <linearGradient
       inkscape:collect="always"
       xlink:href="#linearGradient5479"
       id="linearGradient5483"
       x1="343.07144"
       y1="347.36218"
       x2="371.92856"
       y2="347.36218"
       gradientUnits="userSpaceOnUse" />
    <linearGradient
       inkscape:collect="always"
       xlink:href="#linearGradient5487"
       id="linearGradient5491"
       x1="356.64288"
       y1="339.14789"
       x2="369.78571"
       y2="339.14789"
       gradientUnits="userSpaceOnUse" />
  </defs>
  <sodipodi:namedview
     id="base"
     pagecolor="#ffffff"
     bordercolor="#666666"
     borderopacity="1.0"
     inkscape:pageopacity="0.0"
     inkscape:pageshadow="2"
     inkscape:zoom="1"
     inkscape:cx="106.65625"
     inkscape:cy="255.79372"
     inkscape:document-units="px"
     inkscape:current-layer="layer1"
     showgrid="false"
     inkscape:window-width="1035"
     inkscape:window-height="723"
     inkscape:window-x="242"
     inkscape:window-y="0"
     inkscape:window-maximized="0"
     fit-margin-top="0"
     fit-margin-left="0"
     fit-margin-right="0"
     fit-margin-bottom="0" />
  <metadata
     id="metadata7">
    <rdf:RDF>
      <cc:Work
         rdf:about="">
        <dc:format>image/svg+xml</dc:format>
        <dc:type
           rdf:resource="http://purl.org/dc/dcmitype/StillImage" />
        <dc:title></dc:title>
      </cc:Work>
    </rdf:RDF>
  </metadata>
  <g
     inkscape:label="Layer 1"
     inkscape:groupmode="layer"
     id="layer1"
     transform="translate(-131.34375,-298.66921)">
    <path
       style="fill:#999999;stroke:#000000;stroke-width:1px;stroke-linecap:butt;stroke-linejoin:miter;stroke-opacity:1"
       d="m 134,389.36218 c 128.37993,168.34576 -2,325 -2,325 l 34,36 c 94.0396,-85.85227 255.69098,-74.90066 327,-1.5 l 38,-33.5 c 0,0 -120.3349,-154.39767 -3,-324 -51.4747,-64.10385 -121.44284,-91.6426 -193,-92 -73.05919,-0.3649 -147.46207,27.3298 -201,90 z"
       id="path3499"
       inkscape:connector-curvature="0"
       sodipodi:nodetypes="ccccccsc" />
    <path
       style="fill:#803300;stroke:#000000;stroke-width:7.64224386;stroke-linecap:butt;stroke-linejoin:miter;stroke-miterlimit:4;stroke-opacity:1;stroke-dasharray:none"
       d="m 317.05287,654.78087 20.67516,33.20622 20.67516,-35.051"
       id="path3866"
       inkscape:connector-curvature="0" />
    <path
       style="fill:#784421;stroke:#000000;stroke-width:10.51873302;stroke-linecap:butt;stroke-linejoin:miter;stroke-miterlimit:4;stroke-opacity:1;stroke-dasharray:none"
       d="m 440.71429,609.76441 c 28.4502,24.81918 51.59572,63.68063 57.45492,96.64533 -58.94076,8.08856 -68.50556,-14.73699 -92.90984,-36.25702"
       id="path3864"
       inkscape:connector-curvature="0"
       sodipodi:nodetypes="ccc" />
    <path
       style="fill:#784421;stroke:#000000;stroke-width:9.2113409;stroke-linecap:butt;stroke-linejoin:miter;stroke-miterlimit:4;stroke-opacity:1;stroke-dasharray:none"
       d="m 228.27451,613.64517 c -48.86068,22.44649 -48.33852,66.84528 -57.20798,96.08304 43.74688,7.04635 73.94164,-10.87631 93.07146,-48.82492"
       id="path3862"
       inkscape:connector-curvature="0"
       sodipodi:nodetypes="ccc" />
    <path
       style="fill:#784421;stroke:#000000;stroke-width:9.19561481;stroke-linecap:butt;stroke-linejoin:miter;stroke-miterlimit:4;stroke-opacity:1;stroke-dasharray:none"
       d="m 231.18245,476.94857 c -32.69491,-7.97978 -61.57601,-44.00654 -72.05981,-85.71918 61.9005,-20.90004 95.98091,20.15257 118.42241,32.11975"
       id="path3858"
       inkscape:connector-curvature="0"
       sodipodi:nodetypes="ccc" />
    <path
       style="fill:#784421;stroke:#000000;stroke-width:10.88647652;stroke-linecap:butt;stroke-linejoin:miter;stroke-miterlimit:4;stroke-opacity:1;stroke-dasharray:none"
       d="m 394.34331,419.95472 c 23.84428,-27.88134 90.59604,-54.43042 118.56193,-22.51255 -36.545,39.15113 -50.57215,73.36447 -71.65019,86.93621"
       id="path3860"
       inkscape:connector-curvature="0"
       sodipodi:nodetypes="ccc" />
    <path
       sodipodi:type="arc"
       style="fill:#803300;fill-opacity:1;fill-rule:evenodd;stroke:#000000;stroke-width:10;stroke-linecap:butt;stroke-linejoin:round;stroke-miterlimit:4;stroke-opacity:1;stroke-dasharray:none;stroke-dashoffset:0"
       id="path3848"
       sodipodi:cx="-161.42857"
       sodipodi:cy="295.21933"
       sodipodi:rx="47.142857"
       sodipodi:ry="48.57143"
       d="m -114.28572,295.21933 c 0,26.82526 -21.10657,48.57143 -47.14285,48.57143 -26.03628,0 -47.14286,-21.74617 -47.14286,-48.57143 0,-26.82526 21.10658,-48.57143 47.14286,-48.57143 26.03628,0 47.14285,21.74617 47.14285,48.57143 z"
       transform="matrix(1,0,0,1.1691176,497.14286,16.144632)" />
    <path
       sodipodi:type="arc"
       style="fill:url(#linearGradient5344);fill-opacity:1;fill-rule:nonzero;stroke:#000000;stroke-width:10;stroke-linecap:butt;stroke-linejoin:round;stroke-miterlimit:4;stroke-opacity:1;stroke-dasharray:none;stroke-dashoffset:0"
       id="path3070"
       sodipodi:cx="288.57144"
       sodipodi:cy="515.2193"
       sodipodi:rx="117.14286"
       sodipodi:ry="142.85715"
       d="m 405.7143,515.2193 c 0,78.89782 -52.44664,142.85715 -117.14286,142.85715 -64.69621,0 -117.14286,-63.95933 -117.14286,-142.85715 0,-78.89782 52.44665,-142.85715 117.14286,-142.85715 64.69622,0 117.14286,63.95933 117.14286,142.85715 z"
       transform="translate(48.571429,34.285714)" />
    <path
       sodipodi:type="star"
       style="fill:#008000;fill-opacity:0.10329596;fill-rule:nonzero;stroke:#000000;stroke-width:10;stroke-linecap:butt;stroke-linejoin:round;stroke-miterlimit:4;stroke-opacity:1;stroke-dasharray:none;stroke-dashoffset:0"
       id="path3844"
       sodipodi:sides="3"
       sodipodi:cx="-188.57143"
       sodipodi:cy="258.07648"
       sodipodi:r1="56.133949"
       sodipodi:r2="51.798611"
       sodipodi:arg1="-0.25732371"
       sodipodi:arg2="0.78987384"
       inkscape:flatsided="false"
       inkscape:rounded="0"
       inkscape:randomized="0"
       d="m -134.28571,243.79076 -17.82287,51.07643 -51.23391,17.36495 -35.32205,-40.97326 10.57847,-53.05235 53.14491,-10.10316 z"
       inkscape:transform-center-x="-2.1072049"
       inkscape:transform-center-y="2.0790988"
       transform="matrix(0.99978826,0.02057731,-0.02057731,0.99978826,536.69916,291.49621)" />
    <path
       style="fill:none;stroke:#000000;stroke-width:10;stroke-linecap:butt;stroke-linejoin:miter;stroke-miterlimit:4;stroke-opacity:1;stroke-dasharray:none"
       d="m 328.57143,592.36218 -48.57143,80"
       id="path3868"
       inkscape:connector-curvature="0" />
    <path
       style="fill:none;stroke:#000000;stroke-width:10;stroke-linecap:butt;stroke-linejoin:miter;stroke-miterlimit:4;stroke-opacity:1;stroke-dasharray:none"
       d="m 291.42857,558.07647 -68.57143,0"
       id="path3870"
       inkscape:connector-curvature="0" />
    <path
       style="fill:none;stroke:#000000;stroke-width:10;stroke-linecap:butt;stroke-linejoin:miter;stroke-miterlimit:4;stroke-opacity:1;stroke-dasharray:none"
       d="M 308.57143,500.93361 260,443.79075"
       id="path3872"
       inkscape:connector-curvature="0" />
    <path
       style="fill:none;stroke:#000000;stroke-width:10;stroke-linecap:butt;stroke-linejoin:miter;stroke-miterlimit:4;stroke-opacity:1;stroke-dasharray:none"
       d="m 365.71429,498.07647 37.14285,-65.71429"
       id="path3874"
       inkscape:connector-curvature="0" />
    <path
       style="fill:none;stroke:#000000;stroke-width:10.81976414;stroke-linecap:butt;stroke-linejoin:miter;stroke-miterlimit:4;stroke-opacity:1;stroke-dasharray:none"
       d="m 398.85714,536.93361 53.51649,0"
       id="path3876"
       inkscape:connector-curvature="0" />
    <path
       style="fill:none;stroke:#000000;stroke-width:9.38066006;stroke-linecap:butt;stroke-linejoin:miter;stroke-miterlimit:4;stroke-opacity:1;stroke-dasharray:none"
       d="m 379.97604,586.05251 46.33363,60.61934"
       id="path3878"
       inkscape:connector-curvature="0" />
    <path
       sodipodi:type="arc"
       style="fill:url(#linearGradient5352);fill-opacity:1;fill-rule:evenodd;stroke:#000000;stroke-width:0.71621621;stroke-linecap:butt;stroke-linejoin:round;stroke-miterlimit:4;stroke-opacity:1;stroke-dasharray:none;stroke-dashoffset:0"
       id="path5346"
       sodipodi:cx="313.21429"
       sodipodi:cy="356.29074"
       sodipodi:rx="13.928572"
       sodipodi:ry="13.928572"
       d="m 327.14287,356.29074 c 0,7.69254 -6.23604,13.92857 -13.92858,13.92857 -7.69253,0 -13.92857,-6.23603 -13.92857,-13.92857 0,-7.69254 6.23604,-13.92857 13.92857,-13.92857 7.69254,0 13.92858,6.23603 13.92858,13.92857 z"
       transform="matrix(0.9215821,0,0,-0.8959411,20.561594,658.29197)" />
    <path
       sodipodi:type="arc"
       style="fill:#000000;fill-opacity:0.10329596;fill-rule:evenodd;stroke:#000000;stroke-width:10;stroke-linecap:butt;stroke-linejoin:round;stroke-miterlimit:4;stroke-opacity:1;stroke-dasharray:none;stroke-dashoffset:0"
       id="path5354"
       sodipodi:cx="310"
       sodipodi:cy="336.64789"
       sodipodi:rx="2.1428571"
       sodipodi:ry="2.8571429"
       d="m 312.14286,336.64789 c 0,1.57795 -0.95939,2.85714 -2.14286,2.85714 -1.18347,0 -2.14286,-1.27919 -2.14286,-2.85714 0,-1.57796 0.95939,-2.85714 2.14286,-2.85714 1.18347,0 2.14286,1.27918 2.14286,2.85714 z"
       transform="matrix(1,0,0,-1,-2.8571429,671.72433)" />
    <path
       sodipodi:type="arc"
       style="fill:url(#linearGradient5483);fill-opacity:1;fill-rule:evenodd;stroke:#000000;stroke-width:1;stroke-linecap:butt;stroke-linejoin:round;stroke-miterlimit:4;stroke-opacity:1;stroke-dasharray:none;stroke-dashoffset:0"
       id="path5477"
       sodipodi:cx="357.5"
       sodipodi:cy="347.36218"
       sodipodi:rx="13.928572"
       sodipodi:ry="14.285714"
       d="m 371.42857,347.36218 c 0,7.88978 -6.23603,14.28572 -13.92857,14.28572 -7.69254,0 -13.92857,-6.39594 -13.92857,-14.28572 0,-7.88978 6.23603,-14.28571 13.92857,-14.28571 7.69254,0 13.92857,6.39593 13.92857,14.28571 z"
       transform="matrix(0.90094723,0,0,0.90342354,41.125653,27.118438)" />
    <path
       sodipodi:type="arc"
       style="fill:url(#linearGradient5491);fill-opacity:1;fill-rule:evenodd;stroke:#000000;stroke-width:1;stroke-linecap:butt;stroke-linejoin:round;stroke-miterlimit:4;stroke-opacity:1;stroke-dasharray:none;stroke-dashoffset:0"
       id="path5485"
       sodipodi:cx="363.21429"
       sodipodi:cy="339.14789"
       sodipodi:rx="6.0714288"
       sodipodi:ry="6.7857141"
       d="m 369.28572,339.14789 c 0,3.74764 -2.71827,6.78571 -6.07143,6.78571 -3.35315,0 -6.07142,-3.03807 -6.07142,-6.78571 0,-3.74765 2.71827,-6.78572 6.07142,-6.78572 3.35316,0 6.07143,3.03807 6.07143,6.78572 z"
       transform="translate(2.1428571,-3.5714286)" />
  </g>
</svg>
