<?xml version="1.0" encoding="UTF-8" standalone="no"?>
<!-- Created with Inkscape (http://www.inkscape.org/) -->

<svg
   xmlns:osb="http://www.openswatchbook.org/uri/2009/osb"
   xmlns:dc="http://purl.org/dc/elements/1.1/"
   xmlns:cc="http://creativecommons.org/ns#"
   xmlns:rdf="http://www.w3.org/1999/02/22-rdf-syntax-ns#"
   xmlns:svg="http://www.w3.org/2000/svg"
   xmlns="http://www.w3.org/2000/svg"
   xmlns:xlink="http://www.w3.org/1999/xlink"
   xmlns:sodipodi="http://sodipodi.sourceforge.net/DTD/sodipodi-0.dtd"
   xmlns:inkscape="http://www.inkscape.org/namespaces/inkscape"
   width="2830.5312"
   height="664.71875"
   id="svg2"
   version="1.1"
   inkscape:version="0.48.2 r9819"
   sodipodi:docname="2014-FR-07_box_lock.svg">
  <defs
     id="defs4">
    <linearGradient
       id="linearGradient6546"
       osb:paint="solid">
      <stop
         style="stop-color:#2b1100;stop-opacity:1;"
         offset="0"
         id="stop6548" />
    </linearGradient>
    <inkscape:perspective
       sodipodi:type="inkscape:persp3d"
       inkscape:vp_x="421.38919 : -846.80507 : 1"
       inkscape:vp_y="0 : 730.6788 : 0"
       inkscape:vp_z="1952.7084 : -846.80507 : 1"
       inkscape:persp3d-origin="1187.0488 : -901.89743 : 1"
       id="perspective4657" />
    <linearGradient
       id="linearGradient5487"
       osb:paint="solid">
      <stop
         style="stop-color:#000000;stop-opacity:1;"
         offset="0"
         id="stop5489" />
    </linearGradient>
    <linearGradient
       id="linearGradient5479"
       osb:paint="solid">
      <stop
         style="stop-color:#ffffff;stop-opacity:1;"
         offset="0"
         id="stop5481" />
    </linearGradient>
    <linearGradient
       id="linearGradient5443"
       osb:paint="solid">
      <stop
         style="stop-color:#ffffff;stop-opacity:1;"
         offset="0"
         id="stop5445" />
    </linearGradient>
    <linearGradient
       id="linearGradient5435"
       osb:paint="solid">
      <stop
         style="stop-color:#ffffff;stop-opacity:1;"
         offset="0"
         id="stop5437" />
    </linearGradient>
    <linearGradient
       id="linearGradient5348"
       osb:paint="solid">
      <stop
         style="stop-color:#ffffff;stop-opacity:1;"
         offset="0"
         id="stop5350" />
    </linearGradient>
    <linearGradient
       id="linearGradient5340"
       osb:paint="solid">
      <stop
         style="stop-color:#008000;stop-opacity:1;"
         offset="0"
         id="stop5342" />
    </linearGradient>
    <linearGradient
       id="linearGradient5334"
       osb:paint="solid">
      <stop
         style="stop-color:#00922a;stop-opacity:1;"
         offset="0"
         id="stop5336" />
    </linearGradient>
    <linearGradient
       gradientUnits="userSpaceOnUse"
       y2="339.14789"
       x2="369.78571"
       y1="339.14789"
       x1="356.64288"
       id="linearGradient5491-0"
       xlink:href="#linearGradient5487-4"
       inkscape:collect="always" />
    <linearGradient
       gradientUnits="userSpaceOnUse"
       y2="347.36218"
       x2="371.92856"
       y1="347.36218"
       x1="343.07144"
       id="linearGradient5483-2"
       xlink:href="#linearGradient5479-6"
       inkscape:collect="always" />
    <linearGradient
       gradientUnits="userSpaceOnUse"
       y2="356.29074"
       x2="332.14288"
       y1="356.29074"
       x1="294.28571"
       id="linearGradient5352-5"
       xlink:href="#linearGradient5348-2"
       inkscape:collect="always" />
    <linearGradient
       gradientUnits="userSpaceOnUse"
       y2="515.2193"
       x2="410.71429"
       y1="515.2193"
       x1="166.42857"
       id="linearGradient5344-0"
       xlink:href="#linearGradient5340-6"
       inkscape:collect="always" />
    <linearGradient
       osb:paint="solid"
       id="linearGradient5334-5">
      <stop
         id="stop5336-5"
         offset="0"
         style="stop-color:#00922a;stop-opacity:1;" />
    </linearGradient>
    <linearGradient
       osb:paint="solid"
       id="linearGradient5340-6">
      <stop
         id="stop5342-7"
         offset="0"
         style="stop-color:#008000;stop-opacity:1;" />
    </linearGradient>
    <linearGradient
       osb:paint="solid"
       id="linearGradient5348-2">
      <stop
         id="stop5350-4"
         offset="0"
         style="stop-color:#ffffff;stop-opacity:1;" />
    </linearGradient>
    <linearGradient
       osb:paint="solid"
       id="linearGradient5435-5">
      <stop
         id="stop5437-1"
         offset="0"
         style="stop-color:#ffffff;stop-opacity:1;" />
    </linearGradient>
    <linearGradient
       osb:paint="solid"
       id="linearGradient5443-3">
      <stop
         id="stop5445-8"
         offset="0"
         style="stop-color:#ffffff;stop-opacity:1;" />
    </linearGradient>
    <linearGradient
       osb:paint="solid"
       id="linearGradient5479-6">
      <stop
         id="stop5481-5"
         offset="0"
         style="stop-color:#ffffff;stop-opacity:1;" />
    </linearGradient>
    <linearGradient
       osb:paint="solid"
       id="linearGradient5487-4">
      <stop
         id="stop5489-0"
         offset="0"
         style="stop-color:#000000;stop-opacity:1;" />
    </linearGradient>
    <linearGradient
       inkscape:collect="always"
       xlink:href="#linearGradient5340-6"
       id="linearGradient4553"
       gradientUnits="userSpaceOnUse"
       x1="166.42857"
       y1="515.2193"
       x2="410.71429"
       y2="515.2193" />
    <linearGradient
       inkscape:collect="always"
       xlink:href="#linearGradient5348-2"
       id="linearGradient4555"
       gradientUnits="userSpaceOnUse"
       x1="294.28571"
       y1="356.29074"
       x2="332.14288"
       y2="356.29074" />
    <linearGradient
       inkscape:collect="always"
       xlink:href="#linearGradient5479-6"
       id="linearGradient4557"
       gradientUnits="userSpaceOnUse"
       x1="343.07144"
       y1="347.36218"
       x2="371.92856"
       y2="347.36218" />
    <linearGradient
       inkscape:collect="always"
       xlink:href="#linearGradient5487-4"
       id="linearGradient4559"
       gradientUnits="userSpaceOnUse"
       x1="356.64288"
       y1="339.14789"
       x2="369.78571"
       y2="339.14789" />
    <linearGradient
       inkscape:collect="always"
       xlink:href="#linearGradient5340-6"
       id="linearGradient4601"
       gradientUnits="userSpaceOnUse"
       x1="166.42857"
       y1="515.2193"
       x2="410.71429"
       y2="515.2193" />
    <linearGradient
       inkscape:collect="always"
       xlink:href="#linearGradient5348-2"
       id="linearGradient4603"
       gradientUnits="userSpaceOnUse"
       x1="294.28571"
       y1="356.29074"
       x2="332.14288"
       y2="356.29074" />
    <linearGradient
       inkscape:collect="always"
       xlink:href="#linearGradient5479-6"
       id="linearGradient4605"
       gradientUnits="userSpaceOnUse"
       x1="343.07144"
       y1="347.36218"
       x2="371.92856"
       y2="347.36218" />
    <linearGradient
       inkscape:collect="always"
       xlink:href="#linearGradient5487-4"
       id="linearGradient4607"
       gradientUnits="userSpaceOnUse"
       x1="356.64288"
       y1="339.14789"
       x2="369.78571"
       y2="339.14789" />
    <linearGradient
       inkscape:collect="always"
       xlink:href="#linearGradient5340-6"
       id="linearGradient4649"
       gradientUnits="userSpaceOnUse"
       x1="166.42857"
       y1="515.2193"
       x2="410.71429"
       y2="515.2193" />
    <linearGradient
       inkscape:collect="always"
       xlink:href="#linearGradient5348-2"
       id="linearGradient4651"
       gradientUnits="userSpaceOnUse"
       x1="294.28571"
       y1="356.29074"
       x2="332.14288"
       y2="356.29074" />
    <linearGradient
       inkscape:collect="always"
       xlink:href="#linearGradient5479-6"
       id="linearGradient4653"
       gradientUnits="userSpaceOnUse"
       x1="343.07144"
       y1="347.36218"
       x2="371.92856"
       y2="347.36218" />
    <linearGradient
       inkscape:collect="always"
       xlink:href="#linearGradient5487-4"
       id="linearGradient4655"
       gradientUnits="userSpaceOnUse"
       x1="356.64288"
       y1="339.14789"
       x2="369.78571"
       y2="339.14789" />
  </defs>
  <sodipodi:namedview
     id="base"
     pagecolor="#ffffff"
     bordercolor="#666666"
     borderopacity="1.0"
     inkscape:pageopacity="0.0"
     inkscape:pageshadow="2"
     inkscape:zoom="0.24"
     inkscape:cx="1485.9245"
     inkscape:cy="724.66352"
     inkscape:document-units="px"
     inkscape:current-layer="layer1"
     showgrid="false"
     inkscape:window-width="1214"
     inkscape:window-height="724"
     inkscape:window-x="25"
     inkscape:window-y="0"
     inkscape:window-maximized="0"
     fit-margin-top="0"
     fit-margin-left="0"
     fit-margin-right="0"
     fit-margin-bottom="0" />
  <metadata
     id="metadata7">
    <rdf:RDF>
      <cc:Work
         rdf:about="">
        <dc:format>image/svg+xml</dc:format>
        <dc:type
           rdf:resource="http://purl.org/dc/dcmitype/StillImage" />
        <dc:title />
      </cc:Work>
    </rdf:RDF>
  </metadata>
  <g
     inkscape:label="Layer 1"
     inkscape:groupmode="layer"
     id="layer1"
     transform="translate(820.34375,-180.8125)">
    <path
       style="fill:#a05a2c;stroke:#000000;stroke-width:1.11019230000000002px;stroke-linecap:butt;stroke-linejoin:miter;stroke-opacity:1"
       d="m -819.78538,178.74518 0.004,666.24274 c 849.027333,-2.72632 1693.71085,2.49793 2542.6739,4.97634 0,0 286.746,-268.01452 286.746,-343.17942 0,-75.16487 -299.9595,-325.422 -299.9595,-325.422 z"
       id="path4681"
       inkscape:connector-curvature="0"
       sodipodi:nodetypes="cccscc" />
    <g
       transform="translate(-393.07384,-26.495455)"
       id="layer1-9"
       inkscape:label="Layer 1"
       inkscape:transform-center-y="-42.870939">
      <path
         sodipodi:nodetypes="ccccccsc"
         inkscape:connector-curvature="0"
         id="path3499-7"
         d="m 134,389.36218 c 128.37993,168.34576 -2,325 -2,325 l 34,36 c 94.0396,-85.85227 255.69098,-74.90066 327,-1.5 l 38,-33.5 c 0,0 -120.3349,-154.39767 -3,-324 -51.4747,-64.10385 -121.44284,-91.6426 -193,-92 -73.05919,-0.3649 -147.46207,27.3298 -201,90 z"
         style="fill:#999999;stroke:#999999;stroke-width:1px;stroke-linecap:butt;stroke-linejoin:miter;stroke-opacity:1" />
      <path
         inkscape:connector-curvature="0"
         id="path3866-5"
         d="m 317.05287,654.78087 20.67516,33.20622 20.67516,-35.051"
         style="fill:#803300;stroke:#000000;stroke-width:7.64224386;stroke-linecap:butt;stroke-linejoin:miter;stroke-miterlimit:4;stroke-opacity:1;stroke-dasharray:none" />
      <path
         sodipodi:nodetypes="ccc"
         inkscape:connector-curvature="0"
         id="path3864-3"
         d="m 440.71429,609.76441 c 28.4502,24.81918 51.59572,63.68063 57.45492,96.64533 -58.94076,8.08856 -68.50556,-14.73699 -92.90984,-36.25702"
         style="fill:#784421;stroke:#000000;stroke-width:10.51873302;stroke-linecap:butt;stroke-linejoin:miter;stroke-miterlimit:4;stroke-opacity:1;stroke-dasharray:none" />
      <path
         sodipodi:nodetypes="ccc"
         inkscape:connector-curvature="0"
         id="path3862-9"
         d="m 228.27451,613.64517 c -48.86068,22.44649 -48.33852,66.84528 -57.20798,96.08304 43.74688,7.04635 73.94164,-10.87631 93.07146,-48.82492"
         style="fill:#784421;stroke:#000000;stroke-width:9.2113409;stroke-linecap:butt;stroke-linejoin:miter;stroke-miterlimit:4;stroke-opacity:1;stroke-dasharray:none" />
      <path
         sodipodi:nodetypes="ccc"
         inkscape:connector-curvature="0"
         id="path3858-9"
         d="m 231.18245,476.94857 c -32.69491,-7.97978 -61.57601,-44.00654 -72.05981,-85.71918 61.9005,-20.90004 95.98091,20.15257 118.42241,32.11975"
         style="fill:#784421;stroke:#000000;stroke-width:9.19561481;stroke-linecap:butt;stroke-linejoin:miter;stroke-miterlimit:4;stroke-opacity:1;stroke-dasharray:none" />
      <path
         sodipodi:nodetypes="ccc"
         inkscape:connector-curvature="0"
         id="path3860-4"
         d="m 394.34331,419.95472 c 23.84428,-27.88134 90.59604,-54.43042 118.56193,-22.51255 -36.545,39.15113 -50.57215,73.36447 -71.65019,86.93621"
         style="fill:#784421;stroke:#000000;stroke-width:10.88647652;stroke-linecap:butt;stroke-linejoin:miter;stroke-miterlimit:4;stroke-opacity:1;stroke-dasharray:none" />
      <path
         transform="matrix(1,0,0,1.1691176,497.14286,16.144632)"
         d="m -114.28572,295.21933 c 0,26.82526 -21.10657,48.57143 -47.14285,48.57143 -26.03628,0 -47.14286,-21.74617 -47.14286,-48.57143 0,-26.82526 21.10658,-48.57143 47.14286,-48.57143 26.03628,0 47.14285,21.74617 47.14285,48.57143 z"
         sodipodi:ry="48.57143"
         sodipodi:rx="47.142857"
         sodipodi:cy="295.21933"
         sodipodi:cx="-161.42857"
         id="path3848-9"
         style="fill:#803300;fill-opacity:1;fill-rule:evenodd;stroke:#000000;stroke-width:10;stroke-linecap:butt;stroke-linejoin:round;stroke-miterlimit:4;stroke-opacity:1;stroke-dasharray:none;stroke-dashoffset:0"
         sodipodi:type="arc" />
      <path
         transform="translate(48.571429,34.285714)"
         d="m 405.7143,515.2193 c 0,78.89782 -52.44664,142.85715 -117.14286,142.85715 -64.69621,0 -117.14286,-63.95933 -117.14286,-142.85715 0,-78.89782 52.44665,-142.85715 117.14286,-142.85715 64.69622,0 117.14286,63.95933 117.14286,142.85715 z"
         sodipodi:ry="142.85715"
         sodipodi:rx="117.14286"
         sodipodi:cy="515.2193"
         sodipodi:cx="288.57144"
         id="path3070-1"
         style="fill:url(#linearGradient5344-0);fill-opacity:1;fill-rule:nonzero;stroke:#000000;stroke-width:10;stroke-linecap:butt;stroke-linejoin:round;stroke-miterlimit:4;stroke-opacity:1;stroke-dasharray:none;stroke-dashoffset:0"
         sodipodi:type="arc" />
      <path
         transform="matrix(0.99978826,0.02057731,-0.02057731,0.99978826,536.69916,291.49621)"
         inkscape:transform-center-y="2.0790988"
         inkscape:transform-center-x="-2.1072049"
         d="m -134.28571,243.79076 -17.82287,51.07643 -51.23391,17.36495 -35.32205,-40.97326 10.57847,-53.05235 53.14491,-10.10316 z"
         inkscape:randomized="0"
         inkscape:rounded="0"
         inkscape:flatsided="false"
         sodipodi:arg2="0.78987384"
         sodipodi:arg1="-0.25732371"
         sodipodi:r2="51.798611"
         sodipodi:r1="56.133949"
         sodipodi:cy="258.07648"
         sodipodi:cx="-188.57143"
         sodipodi:sides="3"
         id="path3844-5"
         style="fill:#008000;fill-opacity:0.10329596;fill-rule:nonzero;stroke:#000000;stroke-width:10;stroke-linecap:butt;stroke-linejoin:round;stroke-miterlimit:4;stroke-opacity:1;stroke-dasharray:none;stroke-dashoffset:0"
         sodipodi:type="star" />
      <path
         inkscape:connector-curvature="0"
         id="path3868-9"
         d="m 328.57143,592.36218 -48.57143,80"
         style="fill:none;stroke:#000000;stroke-width:10;stroke-linecap:butt;stroke-linejoin:miter;stroke-miterlimit:4;stroke-opacity:1;stroke-dasharray:none" />
      <path
         inkscape:connector-curvature="0"
         id="path3870-8"
         d="m 291.42857,558.07647 -68.57143,0"
         style="fill:none;stroke:#000000;stroke-width:10;stroke-linecap:butt;stroke-linejoin:miter;stroke-miterlimit:4;stroke-opacity:1;stroke-dasharray:none" />
      <path
         inkscape:connector-curvature="0"
         id="path3872-3"
         d="M 308.57143,500.93361 260,443.79075"
         style="fill:none;stroke:#000000;stroke-width:10;stroke-linecap:butt;stroke-linejoin:miter;stroke-miterlimit:4;stroke-opacity:1;stroke-dasharray:none" />
      <path
         inkscape:connector-curvature="0"
         id="path3874-0"
         d="m 365.71429,498.07647 37.14285,-65.71429"
         style="fill:none;stroke:#000000;stroke-width:10;stroke-linecap:butt;stroke-linejoin:miter;stroke-miterlimit:4;stroke-opacity:1;stroke-dasharray:none" />
      <path
         inkscape:connector-curvature="0"
         id="path3876-9"
         d="m 398.85714,536.93361 53.51649,0"
         style="fill:none;stroke:#000000;stroke-width:10.81976414;stroke-linecap:butt;stroke-linejoin:miter;stroke-miterlimit:4;stroke-opacity:1;stroke-dasharray:none" />
      <path
         inkscape:connector-curvature="0"
         id="path3878-0"
         d="m 379.97604,586.05251 46.33363,60.61934"
         style="fill:none;stroke:#000000;stroke-width:9.38066006;stroke-linecap:butt;stroke-linejoin:miter;stroke-miterlimit:4;stroke-opacity:1;stroke-dasharray:none" />
      <path
         transform="matrix(0.9215821,0,0,-0.8959411,20.561594,658.29197)"
         d="m 327.14287,356.29074 c 0,7.69254 -6.23604,13.92857 -13.92858,13.92857 -7.69253,0 -13.92857,-6.23603 -13.92857,-13.92857 0,-7.69254 6.23604,-13.92857 13.92857,-13.92857 7.69254,0 13.92858,6.23603 13.92858,13.92857 z"
         sodipodi:ry="13.928572"
         sodipodi:rx="13.928572"
         sodipodi:cy="356.29074"
         sodipodi:cx="313.21429"
         id="path5346-7"
         style="fill:url(#linearGradient5352-5);fill-opacity:1;fill-rule:evenodd;stroke:#000000;stroke-width:0.71621621;stroke-linecap:butt;stroke-linejoin:round;stroke-miterlimit:4;stroke-opacity:1;stroke-dasharray:none;stroke-dashoffset:0"
         sodipodi:type="arc" />
      <path
         transform="matrix(1,0,0,-1,-2.8571429,671.72433)"
         d="m 312.14286,336.64789 c 0,1.57795 -0.95939,2.85714 -2.14286,2.85714 -1.18347,0 -2.14286,-1.27919 -2.14286,-2.85714 0,-1.57796 0.95939,-2.85714 2.14286,-2.85714 1.18347,0 2.14286,1.27918 2.14286,2.85714 z"
         sodipodi:ry="2.8571429"
         sodipodi:rx="2.1428571"
         sodipodi:cy="336.64789"
         sodipodi:cx="310"
         id="path5354-6"
         style="fill:#000000;fill-opacity:0.10329596;fill-rule:evenodd;stroke:#000000;stroke-width:10;stroke-linecap:butt;stroke-linejoin:round;stroke-miterlimit:4;stroke-opacity:1;stroke-dasharray:none;stroke-dashoffset:0"
         sodipodi:type="arc" />
      <path
         transform="matrix(0.90094723,0,0,0.90342354,41.125653,27.118438)"
         d="m 371.42857,347.36218 c 0,7.88978 -6.23603,14.28572 -13.92857,14.28572 -7.69254,0 -13.92857,-6.39594 -13.92857,-14.28572 0,-7.88978 6.23603,-14.28571 13.92857,-14.28571 7.69254,0 13.92857,6.39593 13.92857,14.28571 z"
         sodipodi:ry="14.285714"
         sodipodi:rx="13.928572"
         sodipodi:cy="347.36218"
         sodipodi:cx="357.5"
         id="path5477-8"
         style="fill:url(#linearGradient5483-2);fill-opacity:1;fill-rule:evenodd;stroke:#000000;stroke-width:1;stroke-linecap:butt;stroke-linejoin:round;stroke-miterlimit:4;stroke-opacity:1;stroke-dasharray:none;stroke-dashoffset:0"
         sodipodi:type="arc" />
      <path
         transform="translate(2.1428571,-3.5714286)"
         d="m 369.28572,339.14789 c 0,3.74764 -2.71827,6.78571 -6.07143,6.78571 -3.35315,0 -6.07142,-3.03807 -6.07142,-6.78571 0,-3.74765 2.71827,-6.78572 6.07142,-6.78572 3.35316,0 6.07143,3.03807 6.07143,6.78572 z"
         sodipodi:ry="6.7857141"
         sodipodi:rx="6.0714288"
         sodipodi:cy="339.14789"
         sodipodi:cx="363.21429"
         id="path5485-3"
         style="fill:url(#linearGradient5491-0);fill-opacity:1;fill-rule:evenodd;stroke:#000000;stroke-width:1;stroke-linecap:butt;stroke-linejoin:round;stroke-miterlimit:4;stroke-opacity:1;stroke-dasharray:none;stroke-dashoffset:0"
         sodipodi:type="arc" />
    </g>
    <g
       inkscape:label="Layer 1"
       id="g4513"
       transform="translate(22.92616,-26.495455)">
      <path
         style="fill:#999999;stroke:#999999;stroke-width:1px;stroke-linecap:butt;stroke-linejoin:miter;stroke-opacity:1"
         d="m 134,389.36218 c 128.37993,168.34576 -2,325 -2,325 l 34,36 c 94.0396,-85.85227 255.69098,-74.90066 327,-1.5 l 38,-33.5 c 0,0 -120.3349,-154.39767 -3,-324 -51.4747,-64.10385 -121.44284,-91.6426 -193,-92 -73.05919,-0.3649 -147.46207,27.3298 -201,90 z"
         id="path4515"
         inkscape:connector-curvature="0"
         sodipodi:nodetypes="ccccccsc" />
      <path
         style="fill:#803300;stroke:#000000;stroke-width:7.64224386;stroke-linecap:butt;stroke-linejoin:miter;stroke-miterlimit:4;stroke-opacity:1;stroke-dasharray:none"
         d="m 317.05287,654.78087 20.67516,33.20622 20.67516,-35.051"
         id="path4517"
         inkscape:connector-curvature="0" />
      <path
         style="fill:#784421;stroke:#000000;stroke-width:10.51873302;stroke-linecap:butt;stroke-linejoin:miter;stroke-miterlimit:4;stroke-opacity:1;stroke-dasharray:none"
         d="m 440.71429,609.76441 c 28.4502,24.81918 51.59572,63.68063 57.45492,96.64533 -58.94076,8.08856 -68.50556,-14.73699 -92.90984,-36.25702"
         id="path4519"
         inkscape:connector-curvature="0"
         sodipodi:nodetypes="ccc" />
      <path
         style="fill:#784421;stroke:#000000;stroke-width:9.2113409;stroke-linecap:butt;stroke-linejoin:miter;stroke-miterlimit:4;stroke-opacity:1;stroke-dasharray:none"
         d="m 228.27451,613.64517 c -48.86068,22.44649 -48.33852,66.84528 -57.20798,96.08304 43.74688,7.04635 73.94164,-10.87631 93.07146,-48.82492"
         id="path4521"
         inkscape:connector-curvature="0"
         sodipodi:nodetypes="ccc" />
      <path
         style="fill:#784421;stroke:#000000;stroke-width:9.19561481;stroke-linecap:butt;stroke-linejoin:miter;stroke-miterlimit:4;stroke-opacity:1;stroke-dasharray:none"
         d="m 231.18245,476.94857 c -32.69491,-7.97978 -61.57601,-44.00654 -72.05981,-85.71918 61.9005,-20.90004 95.98091,20.15257 118.42241,32.11975"
         id="path4523"
         inkscape:connector-curvature="0"
         sodipodi:nodetypes="ccc" />
      <path
         style="fill:#784421;stroke:#000000;stroke-width:10.88647652;stroke-linecap:butt;stroke-linejoin:miter;stroke-miterlimit:4;stroke-opacity:1;stroke-dasharray:none"
         d="m 394.34331,419.95472 c 23.84428,-27.88134 90.59604,-54.43042 118.56193,-22.51255 -36.545,39.15113 -50.57215,73.36447 -71.65019,86.93621"
         id="path4525"
         inkscape:connector-curvature="0"
         sodipodi:nodetypes="ccc" />
      <path
         sodipodi:type="arc"
         style="fill:#803300;fill-opacity:1;fill-rule:evenodd;stroke:#000000;stroke-width:10;stroke-linecap:butt;stroke-linejoin:round;stroke-miterlimit:4;stroke-opacity:1;stroke-dasharray:none;stroke-dashoffset:0"
         id="path4527"
         sodipodi:cx="-161.42857"
         sodipodi:cy="295.21933"
         sodipodi:rx="47.142857"
         sodipodi:ry="48.57143"
         d="m -114.28572,295.21933 c 0,26.82526 -21.10657,48.57143 -47.14285,48.57143 -26.03628,0 -47.14286,-21.74617 -47.14286,-48.57143 0,-26.82526 21.10658,-48.57143 47.14286,-48.57143 26.03628,0 47.14285,21.74617 47.14285,48.57143 z"
         transform="matrix(1,0,0,1.1691176,497.14286,16.144632)" />
      <path
         sodipodi:type="arc"
         style="fill:url(#linearGradient4553);fill-opacity:1;fill-rule:nonzero;stroke:#000000;stroke-width:10;stroke-linecap:butt;stroke-linejoin:round;stroke-miterlimit:4;stroke-opacity:1;stroke-dasharray:none;stroke-dashoffset:0"
         id="path4529"
         sodipodi:cx="288.57144"
         sodipodi:cy="515.2193"
         sodipodi:rx="117.14286"
         sodipodi:ry="142.85715"
         d="m 405.7143,515.2193 c 0,78.89782 -52.44664,142.85715 -117.14286,142.85715 -64.69621,0 -117.14286,-63.95933 -117.14286,-142.85715 0,-78.89782 52.44665,-142.85715 117.14286,-142.85715 64.69622,0 117.14286,63.95933 117.14286,142.85715 z"
         transform="translate(48.571429,34.285714)" />
      <path
         sodipodi:type="star"
         style="fill:#008000;fill-opacity:0.10329596;fill-rule:nonzero;stroke:#000000;stroke-width:10;stroke-linecap:butt;stroke-linejoin:round;stroke-miterlimit:4;stroke-opacity:1;stroke-dasharray:none;stroke-dashoffset:0"
         id="path4531"
         sodipodi:sides="3"
         sodipodi:cx="-188.57143"
         sodipodi:cy="258.07648"
         sodipodi:r1="56.133949"
         sodipodi:r2="51.798611"
         sodipodi:arg1="-0.25732371"
         sodipodi:arg2="0.78987384"
         inkscape:flatsided="false"
         inkscape:rounded="0"
         inkscape:randomized="0"
         d="m -134.28571,243.79076 -17.82287,51.07643 -51.23391,17.36495 -35.32205,-40.97326 10.57847,-53.05235 53.14491,-10.10316 z"
         inkscape:transform-center-x="-2.1072049"
         inkscape:transform-center-y="2.0790988"
         transform="matrix(0.99978826,0.02057731,-0.02057731,0.99978826,536.69916,291.49621)" />
      <path
         style="fill:none;stroke:#000000;stroke-width:10;stroke-linecap:butt;stroke-linejoin:miter;stroke-miterlimit:4;stroke-opacity:1;stroke-dasharray:none"
         d="m 328.57143,592.36218 -48.57143,80"
         id="path4533"
         inkscape:connector-curvature="0" />
      <path
         style="fill:none;stroke:#000000;stroke-width:10;stroke-linecap:butt;stroke-linejoin:miter;stroke-miterlimit:4;stroke-opacity:1;stroke-dasharray:none"
         d="m 291.42857,558.07647 -68.57143,0"
         id="path4535"
         inkscape:connector-curvature="0" />
      <path
         style="fill:none;stroke:#000000;stroke-width:10;stroke-linecap:butt;stroke-linejoin:miter;stroke-miterlimit:4;stroke-opacity:1;stroke-dasharray:none"
         d="M 308.57143,500.93361 260,443.79075"
         id="path4537"
         inkscape:connector-curvature="0" />
      <path
         style="fill:none;stroke:#000000;stroke-width:10;stroke-linecap:butt;stroke-linejoin:miter;stroke-miterlimit:4;stroke-opacity:1;stroke-dasharray:none"
         d="m 365.71429,498.07647 37.14285,-65.71429"
         id="path4539"
         inkscape:connector-curvature="0" />
      <path
         style="fill:none;stroke:#000000;stroke-width:10.81976414;stroke-linecap:butt;stroke-linejoin:miter;stroke-miterlimit:4;stroke-opacity:1;stroke-dasharray:none"
         d="m 398.85714,536.93361 53.51649,0"
         id="path4541"
         inkscape:connector-curvature="0" />
      <path
         style="fill:none;stroke:#000000;stroke-width:9.38066006;stroke-linecap:butt;stroke-linejoin:miter;stroke-miterlimit:4;stroke-opacity:1;stroke-dasharray:none"
         d="m 379.97604,586.05251 46.33363,60.61934"
         id="path4543"
         inkscape:connector-curvature="0" />
      <path
         sodipodi:type="arc"
         style="fill:url(#linearGradient4555);fill-opacity:1;fill-rule:evenodd;stroke:#000000;stroke-width:0.71621621;stroke-linecap:butt;stroke-linejoin:round;stroke-miterlimit:4;stroke-opacity:1;stroke-dasharray:none;stroke-dashoffset:0"
         id="path4545"
         sodipodi:cx="313.21429"
         sodipodi:cy="356.29074"
         sodipodi:rx="13.928572"
         sodipodi:ry="13.928572"
         d="m 327.14287,356.29074 c 0,7.69254 -6.23604,13.92857 -13.92858,13.92857 -7.69253,0 -13.92857,-6.23603 -13.92857,-13.92857 0,-7.69254 6.23604,-13.92857 13.92857,-13.92857 7.69254,0 13.92858,6.23603 13.92858,13.92857 z"
         transform="matrix(0.9215821,0,0,-0.8959411,20.561594,658.29197)" />
      <path
         sodipodi:type="arc"
         style="fill:#000000;fill-opacity:0.10329596;fill-rule:evenodd;stroke:#000000;stroke-width:10;stroke-linecap:butt;stroke-linejoin:round;stroke-miterlimit:4;stroke-opacity:1;stroke-dasharray:none;stroke-dashoffset:0"
         id="path4547"
         sodipodi:cx="310"
         sodipodi:cy="336.64789"
         sodipodi:rx="2.1428571"
         sodipodi:ry="2.8571429"
         d="m 312.14286,336.64789 c 0,1.57795 -0.95939,2.85714 -2.14286,2.85714 -1.18347,0 -2.14286,-1.27919 -2.14286,-2.85714 0,-1.57796 0.95939,-2.85714 2.14286,-2.85714 1.18347,0 2.14286,1.27918 2.14286,2.85714 z"
         transform="matrix(1,0,0,-1,-2.8571429,671.72433)" />
      <path
         sodipodi:type="arc"
         style="fill:url(#linearGradient4557);fill-opacity:1;fill-rule:evenodd;stroke:#000000;stroke-width:1;stroke-linecap:butt;stroke-linejoin:round;stroke-miterlimit:4;stroke-opacity:1;stroke-dasharray:none;stroke-dashoffset:0"
         id="path4549"
         sodipodi:cx="357.5"
         sodipodi:cy="347.36218"
         sodipodi:rx="13.928572"
         sodipodi:ry="14.285714"
         d="m 371.42857,347.36218 c 0,7.88978 -6.23603,14.28572 -13.92857,14.28572 -7.69254,0 -13.92857,-6.39594 -13.92857,-14.28572 0,-7.88978 6.23603,-14.28571 13.92857,-14.28571 7.69254,0 13.92857,6.39593 13.92857,14.28571 z"
         transform="matrix(0.90094723,0,0,0.90342354,41.125653,27.118438)" />
      <path
         sodipodi:type="arc"
         style="fill:url(#linearGradient4559);fill-opacity:1;fill-rule:evenodd;stroke:#000000;stroke-width:1;stroke-linecap:butt;stroke-linejoin:round;stroke-miterlimit:4;stroke-opacity:1;stroke-dasharray:none;stroke-dashoffset:0"
         id="path4551"
         sodipodi:cx="363.21429"
         sodipodi:cy="339.14789"
         sodipodi:rx="6.0714288"
         sodipodi:ry="6.7857141"
         d="m 369.28572,339.14789 c 0,3.74764 -2.71827,6.78571 -6.07143,6.78571 -3.35315,0 -6.07142,-3.03807 -6.07142,-6.78571 0,-3.74765 2.71827,-6.78572 6.07142,-6.78572 3.35316,0 6.07143,3.03807 6.07143,6.78572 z"
         transform="translate(2.1428571,-3.5714286)" />
    </g>
    <g
       transform="translate(434.92616,-26.495455)"
       id="g4561"
       inkscape:label="Layer 1"
       inkscape:transform-center-y="-38.97358">
      <path
         sodipodi:nodetypes="ccccccsc"
         inkscape:connector-curvature="0"
         id="path4563"
         d="m 134,389.36218 c 128.37993,168.34576 -2,325 -2,325 l 34,36 c 94.0396,-85.85227 255.69098,-74.90066 327,-1.5 l 38,-33.5 c 0,0 -120.3349,-154.39767 -3,-324 -51.4747,-64.10385 -121.44284,-91.6426 -193,-92 -73.05919,-0.3649 -147.46207,27.3298 -201,90 z"
         style="fill:#999999;stroke:#999999;stroke-width:1px;stroke-linecap:butt;stroke-linejoin:miter;stroke-opacity:1" />
      <path
         inkscape:connector-curvature="0"
         id="path4565"
         d="m 317.05287,654.78087 20.67516,33.20622 20.67516,-35.051"
         style="fill:#803300;stroke:#000000;stroke-width:7.64224386;stroke-linecap:butt;stroke-linejoin:miter;stroke-miterlimit:4;stroke-opacity:1;stroke-dasharray:none" />
      <path
         sodipodi:nodetypes="ccc"
         inkscape:connector-curvature="0"
         id="path4567"
         d="m 440.71429,609.76441 c 28.4502,24.81918 51.59572,63.68063 57.45492,96.64533 -58.94076,8.08856 -68.50556,-14.73699 -92.90984,-36.25702"
         style="fill:#784421;stroke:#000000;stroke-width:10.51873302;stroke-linecap:butt;stroke-linejoin:miter;stroke-miterlimit:4;stroke-opacity:1;stroke-dasharray:none" />
      <path
         sodipodi:nodetypes="ccc"
         inkscape:connector-curvature="0"
         id="path4569"
         d="m 228.27451,613.64517 c -48.86068,22.44649 -48.33852,66.84528 -57.20798,96.08304 43.74688,7.04635 73.94164,-10.87631 93.07146,-48.82492"
         style="fill:#784421;stroke:#000000;stroke-width:9.2113409;stroke-linecap:butt;stroke-linejoin:miter;stroke-miterlimit:4;stroke-opacity:1;stroke-dasharray:none" />
      <path
         sodipodi:nodetypes="ccc"
         inkscape:connector-curvature="0"
         id="path4571"
         d="m 231.18245,476.94857 c -32.69491,-7.97978 -61.57601,-44.00654 -72.05981,-85.71918 61.9005,-20.90004 95.98091,20.15257 118.42241,32.11975"
         style="fill:#784421;stroke:#000000;stroke-width:9.19561481;stroke-linecap:butt;stroke-linejoin:miter;stroke-miterlimit:4;stroke-opacity:1;stroke-dasharray:none" />
      <path
         sodipodi:nodetypes="ccc"
         inkscape:connector-curvature="0"
         id="path4573"
         d="m 394.34331,419.95472 c 23.84428,-27.88134 90.59604,-54.43042 118.56193,-22.51255 -36.545,39.15113 -50.57215,73.36447 -71.65019,86.93621"
         style="fill:#784421;stroke:#000000;stroke-width:10.88647652;stroke-linecap:butt;stroke-linejoin:miter;stroke-miterlimit:4;stroke-opacity:1;stroke-dasharray:none" />
      <path
         transform="matrix(1,0,0,1.1691176,497.14286,16.144632)"
         d="m -114.28572,295.21933 c 0,26.82526 -21.10657,48.57143 -47.14285,48.57143 -26.03628,0 -47.14286,-21.74617 -47.14286,-48.57143 0,-26.82526 21.10658,-48.57143 47.14286,-48.57143 26.03628,0 47.14285,21.74617 47.14285,48.57143 z"
         sodipodi:ry="48.57143"
         sodipodi:rx="47.142857"
         sodipodi:cy="295.21933"
         sodipodi:cx="-161.42857"
         id="path4575"
         style="fill:#803300;fill-opacity:1;fill-rule:evenodd;stroke:#000000;stroke-width:10;stroke-linecap:butt;stroke-linejoin:round;stroke-miterlimit:4;stroke-opacity:1;stroke-dasharray:none;stroke-dashoffset:0"
         sodipodi:type="arc" />
      <path
         transform="translate(48.571429,34.285714)"
         d="m 405.7143,515.2193 c 0,78.89782 -52.44664,142.85715 -117.14286,142.85715 -64.69621,0 -117.14286,-63.95933 -117.14286,-142.85715 0,-78.89782 52.44665,-142.85715 117.14286,-142.85715 64.69622,0 117.14286,63.95933 117.14286,142.85715 z"
         sodipodi:ry="142.85715"
         sodipodi:rx="117.14286"
         sodipodi:cy="515.2193"
         sodipodi:cx="288.57144"
         id="path4577"
         style="fill:url(#linearGradient4601);fill-opacity:1;fill-rule:nonzero;stroke:#000000;stroke-width:10;stroke-linecap:butt;stroke-linejoin:round;stroke-miterlimit:4;stroke-opacity:1;stroke-dasharray:none;stroke-dashoffset:0"
         sodipodi:type="arc" />
      <path
         transform="matrix(0.99978826,0.02057731,-0.02057731,0.99978826,536.69916,291.49621)"
         inkscape:transform-center-y="2.0790988"
         inkscape:transform-center-x="-2.1072049"
         d="m -134.28571,243.79076 -17.82287,51.07643 -51.23391,17.36495 -35.32205,-40.97326 10.57847,-53.05235 53.14491,-10.10316 z"
         inkscape:randomized="0"
         inkscape:rounded="0"
         inkscape:flatsided="false"
         sodipodi:arg2="0.78987384"
         sodipodi:arg1="-0.25732371"
         sodipodi:r2="51.798611"
         sodipodi:r1="56.133949"
         sodipodi:cy="258.07648"
         sodipodi:cx="-188.57143"
         sodipodi:sides="3"
         id="path4579"
         style="fill:#008000;fill-opacity:0.10329596;fill-rule:nonzero;stroke:#000000;stroke-width:10;stroke-linecap:butt;stroke-linejoin:round;stroke-miterlimit:4;stroke-opacity:1;stroke-dasharray:none;stroke-dashoffset:0"
         sodipodi:type="star" />
      <path
         inkscape:connector-curvature="0"
         id="path4581"
         d="m 328.57143,592.36218 -48.57143,80"
         style="fill:none;stroke:#000000;stroke-width:10;stroke-linecap:butt;stroke-linejoin:miter;stroke-miterlimit:4;stroke-opacity:1;stroke-dasharray:none" />
      <path
         inkscape:connector-curvature="0"
         id="path4583"
         d="m 291.42857,558.07647 -68.57143,0"
         style="fill:none;stroke:#000000;stroke-width:10;stroke-linecap:butt;stroke-linejoin:miter;stroke-miterlimit:4;stroke-opacity:1;stroke-dasharray:none" />
      <path
         inkscape:connector-curvature="0"
         id="path4585"
         d="M 308.57143,500.93361 260,443.79075"
         style="fill:none;stroke:#000000;stroke-width:10;stroke-linecap:butt;stroke-linejoin:miter;stroke-miterlimit:4;stroke-opacity:1;stroke-dasharray:none" />
      <path
         inkscape:connector-curvature="0"
         id="path4587"
         d="m 365.71429,498.07647 37.14285,-65.71429"
         style="fill:none;stroke:#000000;stroke-width:10;stroke-linecap:butt;stroke-linejoin:miter;stroke-miterlimit:4;stroke-opacity:1;stroke-dasharray:none" />
      <path
         inkscape:connector-curvature="0"
         id="path4589"
         d="m 398.85714,536.93361 53.51649,0"
         style="fill:none;stroke:#000000;stroke-width:10.81976414;stroke-linecap:butt;stroke-linejoin:miter;stroke-miterlimit:4;stroke-opacity:1;stroke-dasharray:none" />
      <path
         inkscape:connector-curvature="0"
         id="path4591"
         d="m 379.97604,586.05251 46.33363,60.61934"
         style="fill:none;stroke:#000000;stroke-width:9.38066006;stroke-linecap:butt;stroke-linejoin:miter;stroke-miterlimit:4;stroke-opacity:1;stroke-dasharray:none" />
      <path
         transform="matrix(0.9215821,0,0,-0.8959411,20.561594,658.29197)"
         d="m 327.14287,356.29074 c 0,7.69254 -6.23604,13.92857 -13.92858,13.92857 -7.69253,0 -13.92857,-6.23603 -13.92857,-13.92857 0,-7.69254 6.23604,-13.92857 13.92857,-13.92857 7.69254,0 13.92858,6.23603 13.92858,13.92857 z"
         sodipodi:ry="13.928572"
         sodipodi:rx="13.928572"
         sodipodi:cy="356.29074"
         sodipodi:cx="313.21429"
         id="path4593"
         style="fill:url(#linearGradient4603);fill-opacity:1;fill-rule:evenodd;stroke:#000000;stroke-width:0.71621621;stroke-linecap:butt;stroke-linejoin:round;stroke-miterlimit:4;stroke-opacity:1;stroke-dasharray:none;stroke-dashoffset:0"
         sodipodi:type="arc" />
      <path
         transform="matrix(1,0,0,-1,-2.8571429,671.72433)"
         d="m 312.14286,336.64789 c 0,1.57795 -0.95939,2.85714 -2.14286,2.85714 -1.18347,0 -2.14286,-1.27919 -2.14286,-2.85714 0,-1.57796 0.95939,-2.85714 2.14286,-2.85714 1.18347,0 2.14286,1.27918 2.14286,2.85714 z"
         sodipodi:ry="2.8571429"
         sodipodi:rx="2.1428571"
         sodipodi:cy="336.64789"
         sodipodi:cx="310"
         id="path4595"
         style="fill:#000000;fill-opacity:0.10329596;fill-rule:evenodd;stroke:#000000;stroke-width:10;stroke-linecap:butt;stroke-linejoin:round;stroke-miterlimit:4;stroke-opacity:1;stroke-dasharray:none;stroke-dashoffset:0"
         sodipodi:type="arc" />
      <path
         transform="matrix(0.90094723,0,0,0.90342354,41.125653,27.118438)"
         d="m 371.42857,347.36218 c 0,7.88978 -6.23603,14.28572 -13.92857,14.28572 -7.69254,0 -13.92857,-6.39594 -13.92857,-14.28572 0,-7.88978 6.23603,-14.28571 13.92857,-14.28571 7.69254,0 13.92857,6.39593 13.92857,14.28571 z"
         sodipodi:ry="14.285714"
         sodipodi:rx="13.928572"
         sodipodi:cy="347.36218"
         sodipodi:cx="357.5"
         id="path4597"
         style="fill:url(#linearGradient4605);fill-opacity:1;fill-rule:evenodd;stroke:#000000;stroke-width:1;stroke-linecap:butt;stroke-linejoin:round;stroke-miterlimit:4;stroke-opacity:1;stroke-dasharray:none;stroke-dashoffset:0"
         sodipodi:type="arc" />
      <path
         transform="translate(2.1428571,-3.5714286)"
         d="m 369.28572,339.14789 c 0,3.74764 -2.71827,6.78571 -6.07143,6.78571 -3.35315,0 -6.07142,-3.03807 -6.07142,-6.78571 0,-3.74765 2.71827,-6.78572 6.07142,-6.78572 3.35316,0 6.07143,3.03807 6.07143,6.78572 z"
         sodipodi:ry="6.7857141"
         sodipodi:rx="6.0714288"
         sodipodi:cy="339.14789"
         sodipodi:cx="363.21429"
         id="path4599"
         style="fill:url(#linearGradient4607);fill-opacity:1;fill-rule:evenodd;stroke:#000000;stroke-width:1;stroke-linecap:butt;stroke-linejoin:round;stroke-miterlimit:4;stroke-opacity:1;stroke-dasharray:none;stroke-dashoffset:0"
         sodipodi:type="arc" />
    </g>
    <g
       inkscape:label="Layer 1"
       id="g4609"
       transform="translate(846.92616,-26.495455)">
      <path
         style="fill:#999999;stroke:#999999;stroke-width:1px;stroke-linecap:butt;stroke-linejoin:miter;stroke-opacity:1"
         d="m 134,389.36218 c 128.37993,168.34576 -2,325 -2,325 l 34,36 c 94.0396,-85.85227 255.69098,-74.90066 327,-1.5 l 38,-33.5 c 0,0 -120.3349,-154.39767 -3,-324 -51.4747,-64.10385 -121.44284,-91.6426 -193,-92 -73.05919,-0.3649 -147.46207,27.3298 -201,90 z"
         id="path4611"
         inkscape:connector-curvature="0"
         sodipodi:nodetypes="ccccccsc" />
      <path
         style="fill:#803300;stroke:#000000;stroke-width:7.64224386;stroke-linecap:butt;stroke-linejoin:miter;stroke-miterlimit:4;stroke-opacity:1;stroke-dasharray:none"
         d="m 317.05287,654.78087 20.67516,33.20622 20.67516,-35.051"
         id="path4613"
         inkscape:connector-curvature="0" />
      <path
         style="fill:#784421;stroke:#000000;stroke-width:10.51873302;stroke-linecap:butt;stroke-linejoin:miter;stroke-miterlimit:4;stroke-opacity:1;stroke-dasharray:none"
         d="m 440.71429,609.76441 c 28.4502,24.81918 51.59572,63.68063 57.45492,96.64533 -58.94076,8.08856 -68.50556,-14.73699 -92.90984,-36.25702"
         id="path4615"
         inkscape:connector-curvature="0"
         sodipodi:nodetypes="ccc" />
      <path
         style="fill:#784421;stroke:#000000;stroke-width:9.2113409;stroke-linecap:butt;stroke-linejoin:miter;stroke-miterlimit:4;stroke-opacity:1;stroke-dasharray:none"
         d="m 228.27451,613.64517 c -48.86068,22.44649 -48.33852,66.84528 -57.20798,96.08304 43.74688,7.04635 73.94164,-10.87631 93.07146,-48.82492"
         id="path4617"
         inkscape:connector-curvature="0"
         sodipodi:nodetypes="ccc" />
      <path
         style="fill:#784421;stroke:#000000;stroke-width:9.19561481;stroke-linecap:butt;stroke-linejoin:miter;stroke-miterlimit:4;stroke-opacity:1;stroke-dasharray:none"
         d="m 231.18245,476.94857 c -32.69491,-7.97978 -61.57601,-44.00654 -72.05981,-85.71918 61.9005,-20.90004 95.98091,20.15257 118.42241,32.11975"
         id="path4619"
         inkscape:connector-curvature="0"
         sodipodi:nodetypes="ccc" />
      <path
         style="fill:#784421;stroke:#000000;stroke-width:10.88647652;stroke-linecap:butt;stroke-linejoin:miter;stroke-miterlimit:4;stroke-opacity:1;stroke-dasharray:none"
         d="m 394.34331,419.95472 c 23.84428,-27.88134 90.59604,-54.43042 118.56193,-22.51255 -36.545,39.15113 -50.57215,73.36447 -71.65019,86.93621"
         id="path4621"
         inkscape:connector-curvature="0"
         sodipodi:nodetypes="ccc" />
      <path
         sodipodi:type="arc"
         style="fill:#803300;fill-opacity:1;fill-rule:evenodd;stroke:#000000;stroke-width:10;stroke-linecap:butt;stroke-linejoin:round;stroke-miterlimit:4;stroke-opacity:1;stroke-dasharray:none;stroke-dashoffset:0"
         id="path4623"
         sodipodi:cx="-161.42857"
         sodipodi:cy="295.21933"
         sodipodi:rx="47.142857"
         sodipodi:ry="48.57143"
         d="m -114.28572,295.21933 c 0,26.82526 -21.10657,48.57143 -47.14285,48.57143 -26.03628,0 -47.14286,-21.74617 -47.14286,-48.57143 0,-26.82526 21.10658,-48.57143 47.14286,-48.57143 26.03628,0 47.14285,21.74617 47.14285,48.57143 z"
         transform="matrix(1,0,0,1.1691176,497.14286,16.144632)" />
      <path
         sodipodi:type="arc"
         style="fill:url(#linearGradient4649);fill-opacity:1;fill-rule:nonzero;stroke:#000000;stroke-width:10;stroke-linecap:butt;stroke-linejoin:round;stroke-miterlimit:4;stroke-opacity:1;stroke-dasharray:none;stroke-dashoffset:0"
         id="path4625"
         sodipodi:cx="288.57144"
         sodipodi:cy="515.2193"
         sodipodi:rx="117.14286"
         sodipodi:ry="142.85715"
         d="m 405.7143,515.2193 c 0,78.89782 -52.44664,142.85715 -117.14286,142.85715 -64.69621,0 -117.14286,-63.95933 -117.14286,-142.85715 0,-78.89782 52.44665,-142.85715 117.14286,-142.85715 64.69622,0 117.14286,63.95933 117.14286,142.85715 z"
         transform="translate(48.571429,34.285714)" />
      <path
         sodipodi:type="star"
         style="fill:#008000;fill-opacity:0.10329596;fill-rule:nonzero;stroke:#000000;stroke-width:10;stroke-linecap:butt;stroke-linejoin:round;stroke-miterlimit:4;stroke-opacity:1;stroke-dasharray:none;stroke-dashoffset:0"
         id="path4627"
         sodipodi:sides="3"
         sodipodi:cx="-188.57143"
         sodipodi:cy="258.07648"
         sodipodi:r1="56.133949"
         sodipodi:r2="51.798611"
         sodipodi:arg1="-0.25732371"
         sodipodi:arg2="0.78987384"
         inkscape:flatsided="false"
         inkscape:rounded="0"
         inkscape:randomized="0"
         d="m -134.28571,243.79076 -17.82287,51.07643 -51.23391,17.36495 -35.32205,-40.97326 10.57847,-53.05235 53.14491,-10.10316 z"
         inkscape:transform-center-x="-2.1072049"
         inkscape:transform-center-y="2.0790988"
         transform="matrix(0.99978826,0.02057731,-0.02057731,0.99978826,536.69916,291.49621)" />
      <path
         style="fill:none;stroke:#000000;stroke-width:10;stroke-linecap:butt;stroke-linejoin:miter;stroke-miterlimit:4;stroke-opacity:1;stroke-dasharray:none"
         d="m 328.57143,592.36218 -48.57143,80"
         id="path4629"
         inkscape:connector-curvature="0" />
      <path
         style="fill:none;stroke:#000000;stroke-width:10;stroke-linecap:butt;stroke-linejoin:miter;stroke-miterlimit:4;stroke-opacity:1;stroke-dasharray:none"
         d="m 291.42857,558.07647 -68.57143,0"
         id="path4631"
         inkscape:connector-curvature="0" />
      <path
         style="fill:none;stroke:#000000;stroke-width:10;stroke-linecap:butt;stroke-linejoin:miter;stroke-miterlimit:4;stroke-opacity:1;stroke-dasharray:none"
         d="M 308.57143,500.93361 260,443.79075"
         id="path4633"
         inkscape:connector-curvature="0" />
      <path
         style="fill:none;stroke:#000000;stroke-width:10;stroke-linecap:butt;stroke-linejoin:miter;stroke-miterlimit:4;stroke-opacity:1;stroke-dasharray:none"
         d="m 365.71429,498.07647 37.14285,-65.71429"
         id="path4635"
         inkscape:connector-curvature="0" />
      <path
         style="fill:none;stroke:#000000;stroke-width:10.81976414;stroke-linecap:butt;stroke-linejoin:miter;stroke-miterlimit:4;stroke-opacity:1;stroke-dasharray:none"
         d="m 398.85714,536.93361 53.51649,0"
         id="path4637"
         inkscape:connector-curvature="0" />
      <path
         style="fill:none;stroke:#000000;stroke-width:9.38066006;stroke-linecap:butt;stroke-linejoin:miter;stroke-miterlimit:4;stroke-opacity:1;stroke-dasharray:none"
         d="m 379.97604,586.05251 46.33363,60.61934"
         id="path4639"
         inkscape:connector-curvature="0" />
      <path
         sodipodi:type="arc"
         style="fill:url(#linearGradient4651);fill-opacity:1;fill-rule:evenodd;stroke:#000000;stroke-width:0.71621621;stroke-linecap:butt;stroke-linejoin:round;stroke-miterlimit:4;stroke-opacity:1;stroke-dasharray:none;stroke-dashoffset:0"
         id="path4641"
         sodipodi:cx="313.21429"
         sodipodi:cy="356.29074"
         sodipodi:rx="13.928572"
         sodipodi:ry="13.928572"
         d="m 327.14287,356.29074 c 0,7.69254 -6.23604,13.92857 -13.92858,13.92857 -7.69253,0 -13.92857,-6.23603 -13.92857,-13.92857 0,-7.69254 6.23604,-13.92857 13.92857,-13.92857 7.69254,0 13.92858,6.23603 13.92858,13.92857 z"
         transform="matrix(0.9215821,0,0,-0.8959411,20.561594,658.29197)" />
      <path
         sodipodi:type="arc"
         style="fill:#000000;fill-opacity:0.10329596;fill-rule:evenodd;stroke:#000000;stroke-width:10;stroke-linecap:butt;stroke-linejoin:round;stroke-miterlimit:4;stroke-opacity:1;stroke-dasharray:none;stroke-dashoffset:0"
         id="path4643"
         sodipodi:cx="310"
         sodipodi:cy="336.64789"
         sodipodi:rx="2.1428571"
         sodipodi:ry="2.8571429"
         d="m 312.14286,336.64789 c 0,1.57795 -0.95939,2.85714 -2.14286,2.85714 -1.18347,0 -2.14286,-1.27919 -2.14286,-2.85714 0,-1.57796 0.95939,-2.85714 2.14286,-2.85714 1.18347,0 2.14286,1.27918 2.14286,2.85714 z"
         transform="matrix(1,0,0,-1,-2.8571429,671.72433)" />
      <path
         sodipodi:type="arc"
         style="fill:url(#linearGradient4653);fill-opacity:1;fill-rule:evenodd;stroke:#000000;stroke-width:1;stroke-linecap:butt;stroke-linejoin:round;stroke-miterlimit:4;stroke-opacity:1;stroke-dasharray:none;stroke-dashoffset:0"
         id="path4645"
         sodipodi:cx="357.5"
         sodipodi:cy="347.36218"
         sodipodi:rx="13.928572"
         sodipodi:ry="14.285714"
         d="m 371.42857,347.36218 c 0,7.88978 -6.23603,14.28572 -13.92857,14.28572 -7.69254,0 -13.92857,-6.39594 -13.92857,-14.28572 0,-7.88978 6.23603,-14.28571 13.92857,-14.28571 7.69254,0 13.92857,6.39593 13.92857,14.28571 z"
         transform="matrix(0.90094723,0,0,0.90342354,41.125653,27.118438)" />
      <path
         sodipodi:type="arc"
         style="fill:url(#linearGradient4655);fill-opacity:1;fill-rule:evenodd;stroke:#000000;stroke-width:1;stroke-linecap:butt;stroke-linejoin:round;stroke-miterlimit:4;stroke-opacity:1;stroke-dasharray:none;stroke-dashoffset:0"
         id="path4647"
         sodipodi:cx="363.21429"
         sodipodi:cy="339.14789"
         sodipodi:rx="6.0714288"
         sodipodi:ry="6.7857141"
         d="m 369.28572,339.14789 c 0,3.74764 -2.71827,6.78571 -6.07143,6.78571 -3.35315,0 -6.07142,-3.03807 -6.07142,-6.78571 0,-3.74765 2.71827,-6.78572 6.07142,-6.78572 3.35316,0 6.07143,3.03807 6.07143,6.78572 z"
         transform="translate(2.1428571,-3.5714286)" />
    </g>
    <path
       style="fill:#28170b;stroke:#28170b;stroke-width:1px;stroke-linecap:butt;stroke-linejoin:miter;stroke-opacity:1"
       d="m 1802.7605,401.80473 108.3333,133.33333 -104,116.66667 0,-75 -258.5,0 0,-83.33334 254.1666,0 z"
       id="path4095"
       inkscape:connector-curvature="0"
       sodipodi:nodetypes="cccccccc" />
    <path
       sodipodi:nodetypes="cccccccc"
       inkscape:connector-curvature="0"
       id="path3720"
       d="m -603.47455,401.80473 -110.63562,133.33333 106.21022,116.66667 0,-75 263.99375,0 0,-83.33334 -259.56825,0 z"
       style="fill:#28170b;stroke:#28170b;stroke-width:1.01057029px;stroke-linecap:butt;stroke-linejoin:miter;stroke-opacity:1" />
  </g>
</svg>
