<?xml version="1.0" encoding="UTF-8" standalone="no"?>
<!-- Created with Inkscape (http://www.inkscape.org/) -->

<svg
   xmlns:dc="http://purl.org/dc/elements/1.1/"
   xmlns:cc="http://creativecommons.org/ns#"
   xmlns:rdf="http://www.w3.org/1999/02/22-rdf-syntax-ns#"
   xmlns:svg="http://www.w3.org/2000/svg"
   xmlns="http://www.w3.org/2000/svg"
   xmlns:sodipodi="http://sodipodi.sourceforge.net/DTD/sodipodi-0.dtd"
   xmlns:inkscape="http://www.inkscape.org/namespaces/inkscape"
   id="svg2"
   version="1.1"
   inkscape:version="0.48.2 r9819"
   width="409.52902"
   height="443.17392"
   xml:space="preserve"
   sodipodi:docname="2013-SI-01-reseau.svg"><metadata
     id="metadata8"><rdf:RDF><cc:Work
         rdf:about=""><dc:format>image/svg+xml</dc:format><dc:type
           rdf:resource="http://purl.org/dc/dcmitype/StillImage" /><dc:title></dc:title></cc:Work></rdf:RDF></metadata><defs
     id="defs6"><marker
       inkscape:stockid="Arrow2Mstart"
       orient="auto"
       refY="0"
       refX="0"
       id="Arrow2Mstart"
       style="overflow:visible"><path
         id="path4436"
         style="font-size:12px;fill-rule:evenodd;stroke-width:0.625;stroke-linejoin:round"
         d="M 8.7185878,4.0337352 -2.2072895,0.01601326 8.7185884,-4.0017078 c -1.7454984,2.3720609 -1.7354408,5.6174519 -6e-7,8.035443 z"
         transform="scale(0.6,0.6)"
         inkscape:connector-curvature="0" /></marker><marker
       inkscape:stockid="Arrow2Lend"
       orient="auto"
       refY="0"
       refX="0"
       id="Arrow2Lend"
       style="overflow:visible"><path
         id="path4433"
         style="font-size:12px;fill-rule:evenodd;stroke-width:0.625;stroke-linejoin:round"
         d="M 8.7185878,4.0337352 -2.2072895,0.01601326 8.7185884,-4.0017078 c -1.7454984,2.3720609 -1.7354408,5.6174519 -6e-7,8.035443 z"
         transform="matrix(-1.1,0,0,-1.1,-1.1,0)"
         inkscape:connector-curvature="0" /></marker><marker
       inkscape:stockid="Arrow1Lstart"
       orient="auto"
       refY="0"
       refX="0"
       id="Arrow1Lstart"
       style="overflow:visible"><path
         id="path4412"
         d="M 0,0 5,-5 -12.5,0 5,5 0,0 z"
         style="fill-rule:evenodd;stroke:#000000;stroke-width:1pt;marker-start:none"
         transform="matrix(0.8,0,0,0.8,10,0)"
         inkscape:connector-curvature="0" /></marker><marker
       inkscape:stockid="Arrow1Lend"
       orient="auto"
       refY="0"
       refX="0"
       id="Arrow1Lend"
       style="overflow:visible"><path
         id="path4415"
         d="M 0,0 5,-5 -12.5,0 5,5 0,0 z"
         style="fill-rule:evenodd;stroke:#000000;stroke-width:1pt;marker-start:none"
         transform="matrix(-0.8,0,0,-0.8,-10,0)"
         inkscape:connector-curvature="0" /></marker><clipPath
       clipPathUnits="userSpaceOnUse"
       id="clipPath16"><path
         d="m 0,595.28 841.89,0 L 841.89,0 0,0 0,595.28 z"
         id="path18"
         inkscape:connector-curvature="0" /></clipPath></defs><sodipodi:namedview
     pagecolor="#ffffff"
     bordercolor="#666666"
     borderopacity="1"
     objecttolerance="10"
     gridtolerance="10"
     guidetolerance="10"
     inkscape:pageopacity="0"
     inkscape:pageshadow="2"
     inkscape:window-width="967"
     inkscape:window-height="712"
     id="namedview4"
     showgrid="false"
     inkscape:zoom="1.4142136"
     inkscape:cx="221.1538"
     inkscape:cy="391.25627"
     inkscape:window-x="0"
     inkscape:window-y="0"
     inkscape:window-maximized="0"
     inkscape:current-layer="g10"
     fit-margin-top="0"
     fit-margin-left="0"
     fit-margin-right="0"
     fit-margin-bottom="0" /><g
     id="g10"
     inkscape:groupmode="layer"
     inkscape:label="2013-SI-01-network"
     transform="matrix(1.25,0,0,-1.25,-280.83076,638.54755)"><g
       id="g12652"
       transform="matrix(1.2344608,0,0,1.194375,-84.099294,-61.458299)"><path
   transform="matrix(0.8,0,0,-0.8,-1.0343143,487.23408)"
   d="m 383.25188,304.98666 c 0,4.6863 -3.79899,8.48528 -8.48528,8.48528 -4.68629,0 -8.48528,-3.79898 -8.48528,-8.48528 0,-4.68629 3.79899,-8.48528 8.48528,-8.48528 4.68629,0 8.48528,3.79899 8.48528,8.48528 z"
   sodipodi:ry="8.485281"
   sodipodi:rx="8.485281"
   sodipodi:cy="304.98666"
   sodipodi:cx="374.7666"
   id="path4193"
   style="opacity:0.97000002;fill:#787890;fill-opacity:0.08043961;stroke:#0000ff;stroke-width:1;stroke-linecap:round;stroke-linejoin:round;stroke-miterlimit:4;stroke-opacity:1;stroke-dasharray:none"
   sodipodi:type="arc" /><path
   sodipodi:type="arc"
   style="opacity:0.97000002;fill:#787890;fill-opacity:0.08043961;stroke:#0000ff;stroke-width:1;stroke-linecap:round;stroke-linejoin:round;stroke-miterlimit:4;stroke-opacity:1;stroke-dasharray:none"
   id="path4195"
   sodipodi:cx="374.7666"
   sodipodi:cy="304.98666"
   sodipodi:rx="8.485281"
   sodipodi:ry="8.485281"
   d="m 383.25188,304.98666 c 0,4.6863 -3.79899,8.48528 -8.48528,8.48528 -4.68629,0 -8.48528,-3.79898 -8.48528,-8.48528 0,-4.68629 3.79899,-8.48528 8.48528,-8.48528 4.68629,0 8.48528,3.79899 8.48528,8.48528 z"
   transform="matrix(0.8,0,0,-0.8,-1.5999998,595.28)" /><path
   sodipodi:type="arc"
   style="opacity:0.97000002;fill:#787890;fill-opacity:0.08043961;stroke:#0000ff;stroke-width:1;stroke-linecap:round;stroke-linejoin:round;stroke-miterlimit:4;stroke-opacity:1;stroke-dasharray:none"
   id="path4197"
   sodipodi:cx="374.7666"
   sodipodi:cy="304.98666"
   sodipodi:rx="8.485281"
   sodipodi:ry="8.485281"
   d="m 383.25188,304.98666 c 0,4.6863 -3.79899,8.48528 -8.48528,8.48528 -4.68629,0 -8.48528,-3.79898 -8.48528,-8.48528 0,-4.68629 3.79899,-8.48528 8.48528,-8.48528 4.68629,0 8.48528,3.79899 8.48528,8.48528 z"
   transform="matrix(0.8,0,0,-0.8,52.705801,541.53988)" /><path
   transform="matrix(0.8,0,0,-0.8,108.14297,541.53988)"
   d="m 383.25188,304.98666 c 0,4.6863 -3.79899,8.48528 -8.48528,8.48528 -4.68629,0 -8.48528,-3.79898 -8.48528,-8.48528 0,-4.68629 3.79899,-8.48528 8.48528,-8.48528 4.68629,0 8.48528,3.79899 8.48528,8.48528 z"
   sodipodi:ry="8.485281"
   sodipodi:rx="8.485281"
   sodipodi:cy="304.98666"
   sodipodi:cx="374.7666"
   id="path4199"
   style="opacity:0.97000002;fill:#787890;fill-opacity:0.08043961;stroke:#0000ff;stroke-width:1;stroke-linecap:round;stroke-linejoin:round;stroke-miterlimit:4;stroke-opacity:1;stroke-dasharray:none"
   sodipodi:type="arc" /><path
   sodipodi:type="arc"
   style="opacity:0.97000002;fill:#787890;fill-opacity:0.08043961;stroke:#0000ff;stroke-width:1;stroke-linecap:round;stroke-linejoin:round;stroke-miterlimit:4;stroke-opacity:1;stroke-dasharray:none"
   id="path4201"
   sodipodi:cx="374.7666"
   sodipodi:cy="304.98666"
   sodipodi:rx="8.485281"
   sodipodi:ry="8.485281"
   d="m 383.25188,304.98666 c 0,4.6863 -3.79899,8.48528 -8.48528,8.48528 -4.68629,0 -8.48528,-3.79898 -8.48528,-8.48528 0,-4.68629 3.79899,-8.48528 8.48528,-8.48528 4.68629,0 8.48528,3.79899 8.48528,8.48528 z"
   transform="matrix(0.8,0,0,-0.8,161.88309,540.97419)" /><path
   transform="matrix(0.8,0,0,-0.8,161.88309,487.79976)"
   d="m 383.25188,304.98666 c 0,4.6863 -3.79899,8.48528 -8.48528,8.48528 -4.68629,0 -8.48528,-3.79898 -8.48528,-8.48528 0,-4.68629 3.79899,-8.48528 8.48528,-8.48528 4.68629,0 8.48528,3.79899 8.48528,8.48528 z"
   sodipodi:ry="8.485281"
   sodipodi:rx="8.485281"
   sodipodi:cy="304.98666"
   sodipodi:cx="374.7666"
   id="path4203"
   style="opacity:0.97000002;fill:#787890;fill-opacity:0.08043961;stroke:#0000ff;stroke-width:1;stroke-linecap:round;stroke-linejoin:round;stroke-miterlimit:4;stroke-opacity:1;stroke-dasharray:none"
   sodipodi:type="arc" /><path
   sodipodi:type="arc"
   style="opacity:0.97000002;fill:#787890;fill-opacity:0.08043961;stroke:#0000ff;stroke-width:1;stroke-linecap:round;stroke-linejoin:round;stroke-miterlimit:4;stroke-opacity:1;stroke-dasharray:none"
   id="path4205"
   sodipodi:cx="374.7666"
   sodipodi:cy="304.98666"
   sodipodi:rx="8.485281"
   sodipodi:ry="8.485281"
   d="m 383.25188,304.98666 c 0,4.6863 -3.79899,8.48528 -8.48528,8.48528 -4.68629,0 -8.48528,-3.79898 -8.48528,-8.48528 0,-4.68629 3.79899,-8.48528 8.48528,-8.48528 4.68629,0 8.48528,3.79899 8.48528,8.48528 z"
   transform="matrix(0.8,0,0,-0.8,107.57729,487.79976)" /><path
   transform="matrix(0.8,0,0,-0.8,161.88309,433.49395)"
   d="m 383.25188,304.98666 c 0,4.6863 -3.79899,8.48528 -8.48528,8.48528 -4.68629,0 -8.48528,-3.79898 -8.48528,-8.48528 0,-4.68629 3.79899,-8.48528 8.48528,-8.48528 4.68629,0 8.48528,3.79899 8.48528,8.48528 z"
   sodipodi:ry="8.485281"
   sodipodi:rx="8.485281"
   sodipodi:cy="304.98666"
   sodipodi:cx="374.7666"
   id="path4207"
   style="opacity:0.97000002;fill:#787890;fill-opacity:0.08043961;stroke:#0000ff;stroke-width:1;stroke-linecap:round;stroke-linejoin:round;stroke-miterlimit:4;stroke-opacity:1;stroke-dasharray:none"
   sodipodi:type="arc" /><path
   sodipodi:type="arc"
   style="opacity:0.97000002;fill:#787890;fill-opacity:0.08043961;stroke:#0000ff;stroke-width:1;stroke-linecap:round;stroke-linejoin:round;stroke-miterlimit:4;stroke-opacity:1;stroke-dasharray:none"
   id="path4211"
   sodipodi:cx="374.7666"
   sodipodi:cy="304.98666"
   sodipodi:rx="8.485281"
   sodipodi:ry="8.485281"
   d="m 383.25188,304.98666 c 0,4.6863 -3.79899,8.48528 -8.48528,8.48528 -4.68629,0 -8.48528,-3.79898 -8.48528,-8.48528 0,-4.68629 3.79899,-8.48528 8.48528,-8.48528 4.68629,0 8.48528,3.79899 8.48528,8.48528 z"
   transform="matrix(0.8,0,0,-0.8,160.84878,679.47005)" /><path
   transform="matrix(0.8,0,0,-0.8,107.01161,705.02295)"
   d="m 383.25188,304.98666 c 0,4.6863 -3.79899,8.48528 -8.48528,8.48528 -4.68629,0 -8.48528,-3.79898 -8.48528,-8.48528 0,-4.68629 3.79899,-8.48528 8.48528,-8.48528 4.68629,0 8.48528,3.79899 8.48528,8.48528 z"
   sodipodi:ry="8.485281"
   sodipodi:rx="8.485281"
   sodipodi:cy="304.98666"
   sodipodi:cx="374.7666"
   id="path4213"
   style="opacity:0.97000002;fill:#787890;fill-opacity:0.08043961;stroke:#0000ff;stroke-width:1;stroke-linecap:round;stroke-linejoin:round;stroke-miterlimit:4;stroke-opacity:1;stroke-dasharray:none"
   sodipodi:type="arc" /><path
   sodipodi:type="arc"
   style="opacity:0.97000002;fill:#787890;fill-opacity:0.08043961;stroke:#0000ff;stroke-width:1;stroke-linecap:round;stroke-linejoin:round;stroke-miterlimit:4;stroke-opacity:1;stroke-dasharray:none"
   id="path4215"
   sodipodi:cx="374.7666"
   sodipodi:cy="304.98666"
   sodipodi:rx="8.485281"
   sodipodi:ry="8.485281"
   d="m 383.25188,304.98666 c 0,4.6863 -3.79899,8.48528 -8.48528,8.48528 -4.68629,0 -8.48528,-3.79898 -8.48528,-8.48528 0,-4.68629 3.79899,-8.48528 8.48528,-8.48528 4.68629,0 8.48528,3.79899 8.48528,8.48528 z"
   transform="matrix(0.8,0,0,-0.8,53.271495,678.43574)" /><path
   transform="matrix(0.8,0,0,-0.8,108.14298,650.15147)"
   d="m 383.25188,304.98666 c 0,4.6863 -3.79899,8.48528 -8.48528,8.48528 -4.68629,0 -8.48528,-3.79898 -8.48528,-8.48528 0,-4.68629 3.79899,-8.48528 8.48528,-8.48528 4.68629,0 8.48528,3.79899 8.48528,8.48528 z"
   sodipodi:ry="8.485281"
   sodipodi:rx="8.485281"
   sodipodi:cy="304.98666"
   sodipodi:cx="374.7666"
   id="path4217"
   style="opacity:0.97000002;fill:#787890;fill-opacity:0.08043961;stroke:#0000ff;stroke-width:1;stroke-linecap:round;stroke-linejoin:round;stroke-miterlimit:4;stroke-opacity:1;stroke-dasharray:none"
   sodipodi:type="arc" /><path
   sodipodi:type="arc"
   style="opacity:0.97000002;fill:#787890;fill-opacity:0.08043961;stroke:#0000ff;stroke-width:1;stroke-linecap:round;stroke-linejoin:round;stroke-miterlimit:4;stroke-opacity:1;stroke-dasharray:none"
   id="path4219"
   sodipodi:cx="374.7666"
   sodipodi:cy="304.98666"
   sodipodi:rx="8.485281"
   sodipodi:ry="8.485281"
   d="m 383.25188,304.98666 c 0,4.6863 -3.79899,8.48528 -8.48528,8.48528 -4.68629,0 -8.48528,-3.79898 -8.48528,-8.48528 0,-4.68629 3.79899,-8.48528 8.48528,-8.48528 4.68629,0 8.48528,3.79899 8.48528,8.48528 z"
   transform="matrix(0.8,0,0,-0.8,107.57729,596.97704)" /><path
   inkscape:connector-curvature="0"
   id="path8027"
   d="m 358.51759,436.77631 40.26538,20.42949"
   style="fill:none;stroke:#000000;stroke-width:0.74017102;stroke-linecap:butt;stroke-linejoin:miter;stroke-miterlimit:4;stroke-opacity:1;stroke-dasharray:2.96068398, 1.48034199;stroke-dashoffset:0;marker-start:none;marker-end:url(#Arrow2Lend)" /><path
   transform="matrix(0.8,0,0,-0.8,0,595.28)"
   inkscape:connector-curvature="0"
   id="path8407"
   d="m 376.18081,297.20849 57.98275,-89.80256"
   style="fill:none;stroke:#000000;stroke-width:1;stroke-linecap:butt;stroke-linejoin:miter;stroke-miterlimit:4;stroke-opacity:1;stroke-dasharray:6, 1;stroke-dashoffset:0;marker-start:none;marker-end:url(#Arrow2Lend)" /><path
   transform="matrix(0.8,0,0,-0.8,0,595.28)"
   inkscape:connector-curvature="0"
   id="path8785"
   d="m 516.89506,171.34348 48.79037,24.04163"
   style="fill:none;stroke:#000000;stroke-width:1;stroke-linecap:butt;stroke-linejoin:miter;stroke-miterlimit:4;stroke-opacity:1;stroke-dasharray:6, 1;stroke-dashoffset:0;marker-end:url(#Arrow2Lend)" /><path
   transform="matrix(0.8,0,0,-0.8,0,595.28)"
   inkscape:connector-curvature="0"
   id="path9163"
   d="m 448.3057,205.99171 50.20458,24.74874"
   style="fill:none;stroke:#000000;stroke-width:1;stroke-linecap:butt;stroke-linejoin:miter;stroke-miterlimit:4;stroke-opacity:1;stroke-dasharray:6, 1;stroke-dashoffset:0;marker-end:url(#Arrow2Lend)" /><path
   transform="matrix(0.8,0,0,-0.8,0,595.28)"
   inkscape:connector-curvature="0"
   id="path9353"
   d="m 517.60216,232.86177 46.66905,-24.74873"
   style="fill:none;stroke:#000000;stroke-width:1;stroke-linecap:butt;stroke-linejoin:miter;stroke-miterlimit:4;stroke-opacity:1;stroke-dasharray:6, 1;stroke-dashoffset:0;marker-start:none;marker-end:url(#Arrow2Lend)" /><path
   transform="matrix(0.8,0,0,-0.8,0,595.28)"
   inkscape:connector-curvature="0"
   id="path9731"
   d="m 499.92449,302.86534 -115.2584,0"
   style="fill:none;stroke:#000000;stroke-width:1;stroke-linecap:butt;stroke-linejoin:miter;stroke-miterlimit:4;stroke-opacity:1;stroke-dasharray:6, 1;stroke-dashoffset:0;marker-end:url(#Arrow2Lend)" /><path
   transform="matrix(0.8,0,0,-0.8,0,595.28)"
   inkscape:connector-curvature="0"
   id="path9921"
   d="m 383.25188,433.6801 -9.8995,-2.12132 -1.41421,-117.37973"
   style="fill:none;stroke:#000000;stroke-width:1;stroke-linecap:butt;stroke-linejoin:miter;stroke-miterlimit:4;stroke-opacity:1;stroke-dasharray:6, 1;stroke-dashoffset:0;marker-end:url(#Arrow2Lend)" /><path
   transform="matrix(0.8,0,0,-0.8,0,595.28)"
   inkscape:connector-curvature="0"
   id="path10111"
   d="m 432.74935,378.52577 -53.03301,54.44722"
   style="fill:none;stroke:#000000;stroke-width:1;stroke-linecap:butt;stroke-linejoin:miter;stroke-miterlimit:4;stroke-opacity:1;stroke-dasharray:6, 1;stroke-dashoffset:0;marker-end:url(#Arrow2Lend)" /><path
   transform="matrix(0.8,0,0,-0.8,0,595.28)"
   inkscape:connector-curvature="0"
   id="path10301"
   d="m 381.83766,440.04406 115.96551,0"
   style="fill:none;stroke:#000000;stroke-width:1;stroke-linecap:butt;stroke-linejoin:miter;stroke-miterlimit:4;stroke-opacity:1;stroke-dasharray:6, 1;stroke-dashoffset:0;marker-end:url(#Arrow2Lend)" /><path
   transform="matrix(0.8,0,0,-0.8,0,595.28)"
   inkscape:connector-curvature="0"
   id="path10491"
   d="M 445.47727,366.50495 500.6316,312.05773"
   style="fill:none;stroke:#000000;stroke-width:1;stroke-linecap:butt;stroke-linejoin:miter;stroke-miterlimit:4;stroke-opacity:1;stroke-dasharray:6, 1;stroke-dashoffset:0;marker-end:url(#Arrow2Lend)" /><path
   transform="matrix(0.8,0,0,-0.8,0,595.28)"
   inkscape:connector-curvature="0"
   id="path10681"
   d="m 380.42345,312.05773 52.3259,50.91169"
   style="fill:none;stroke:#000000;stroke-width:1;stroke-linecap:butt;stroke-linejoin:miter;stroke-miterlimit:4;stroke-opacity:1;stroke-dasharray:6, 1;stroke-dashoffset:0;marker-end:url(#Arrow2Lend)" /><path
   transform="matrix(0.8,0,0,-0.8,0,595.28)"
   inkscape:connector-curvature="0"
   id="path10871"
   d="m 449.71991,372.16181 48.08326,0"
   style="fill:none;stroke:#000000;stroke-width:1;stroke-linecap:butt;stroke-linejoin:miter;stroke-miterlimit:4;stroke-opacity:1;stroke-dasharray:6, 1;stroke-dashoffset:0;marker-end:url(#Arrow2Lend)" /><path
   transform="matrix(0.8,0,0,-0.8,0,595.28)"
   inkscape:connector-curvature="0"
   id="path11061"
   d="m 576.29203,362.96942 0.7071,-150.61374"
   style="fill:none;stroke:#000000;stroke-width:1;stroke-linecap:butt;stroke-linejoin:miter;stroke-miterlimit:4;stroke-opacity:1;stroke-dasharray:6, 1;stroke-dashoffset:0;marker-end:url(#Arrow2Lend)" /><path
   transform="matrix(0.8,0,0,-0.8,0,595.28)"
   inkscape:connector-curvature="0"
   id="path11251"
   d="m 517.60216,372.16181 47.37616,0.70711"
   style="fill:none;stroke:#000000;stroke-width:1;stroke-linecap:butt;stroke-linejoin:miter;stroke-miterlimit:4;stroke-opacity:1;stroke-dasharray:6, 1;stroke-dashoffset:0;marker-end:url(#Arrow2Lend)" /><path
   transform="matrix(0.8,0,0,-0.8,0,595.28)"
   inkscape:connector-curvature="0"
   id="path11441"
   d="m 508.40978,295.79428 0,-48.08326"
   style="fill:none;stroke:#000000;stroke-width:1;stroke-linecap:butt;stroke-linejoin:miter;stroke-miterlimit:4;stroke-opacity:1;stroke-dasharray:6, 1;stroke-dashoffset:0;marker-end:url(#Arrow2Lend)" /><path
   transform="matrix(0.8,0,0,-0.8,0,595.28)"
   inkscape:connector-curvature="0"
   id="path11631"
   d="m 516.18795,379.23288 53.03301,53.03301"
   style="fill:none;stroke:#000000;stroke-width:1;stroke-linecap:butt;stroke-linejoin:miter;stroke-miterlimit:4;stroke-opacity:1;stroke-dasharray:6, 1;stroke-dashoffset:0;marker-end:url(#Arrow2Lend)" /><path
   transform="matrix(0.8,0,0,-0.8,0,595.28)"
   inkscape:connector-curvature="0"
   id="path11821"
   d="m 513.35952,295.79428 54.44723,-82.02439"
   style="fill:none;stroke:#000000;stroke-width:1;stroke-linecap:butt;stroke-linejoin:miter;stroke-miterlimit:4;stroke-opacity:1;stroke-dasharray:6, 1;stroke-dashoffset:0;marker-end:url(#Arrow2Lend)" /><path
   transform="matrix(0.8,0,0,-0.8,0,595.28)"
   inkscape:connector-curvature="0"
   id="path12011"
   d="m 517.60216,441.45827 46.66905,0.70711"
   style="fill:none;stroke:#000000;stroke-width:1;stroke-linecap:butt;stroke-linejoin:miter;stroke-miterlimit:4;stroke-opacity:1;stroke-dasharray:6, 1;stroke-dashoffset:0;marker-end:url(#Arrow2Lend)" /><path
   transform="matrix(0.8,0,0,-0.8,0,595.28)"
   inkscape:connector-curvature="0"
   id="path12201"
   d="m 577.70624,499.44103 -0.70711,-46.66905"
   style="fill:none;stroke:#000000;stroke-width:1;stroke-linecap:butt;stroke-linejoin:miter;stroke-miterlimit:4;stroke-opacity:1;stroke-dasharray:6, 1;stroke-dashoffset:0;marker-end:url(#Arrow2Lend)" /><path
   transform="matrix(0.8,0,0,-0.8,0,595.28)"
   inkscape:connector-curvature="0"
   id="path12391"
   d="m 515.48084,446.40802 52.32591,53.03301"
   style="fill:none;stroke:#000000;stroke-width:1;stroke-linecap:butt;stroke-linejoin:miter;stroke-miterlimit:4;stroke-opacity:1;stroke-dasharray:6, 1;stroke-dashoffset:0;marker-end:url(#Arrow2Lend)" /><text
   transform="scale(1,-1)"
   sodipodi:linespacing="125%"
   id="text12581"
   y="-470.6503"
   x="388.06018"
   style="font-size:11.19999981px;font-style:normal;font-weight:normal;line-height:125%;letter-spacing:0px;word-spacing:0px;fill:#000000;fill-opacity:1;stroke:none;font-family:Sans"
   xml:space="preserve"><tspan
     y="-470.6503"
     x="388.06018"
     id="tspan12583"
     sodipodi:role="line">Barbara</tspan></text>


<text
   transform="scale(1,-1)"
   sodipodi:linespacing="125%"
   id="text12585"
   y="-445.19446"
   x="322.4407"
   style="font-size:11.19999981px;font-style:normal;font-weight:normal;line-height:125%;letter-spacing:0px;word-spacing:0px;fill:#000000;fill-opacity:1;stroke:none;font-family:Sans"
   xml:space="preserve"><tspan
     y="-445.19446"
     x="322.4407"
     id="tspan12587"
     sodipodi:role="line">Daniela</tspan></text>


<text
   transform="scale(1,-1)"
   sodipodi:linespacing="125%"
   id="text12589"
   y="-393.1514"
   x="367.12985"
   style="font-size:11.19999981px;font-style:normal;font-weight:normal;line-height:125%;letter-spacing:0px;word-spacing:0px;fill:#000000;fill-opacity:1;stroke:none;font-family:Sans"
   xml:space="preserve"><tspan
     y="-393.1514"
     x="367.12985"
     id="tspan12591"
     sodipodi:role="line">Kevin</tspan></text>


<text
   transform="scale(1,-1)"
   sodipodi:linespacing="125%"
   id="text12593"
   y="-431.61801"
   x="470.65027"
   style="font-size:11.19999981px;font-style:normal;font-weight:normal;line-height:125%;letter-spacing:0px;word-spacing:0px;fill:#000000;fill-opacity:1;stroke:none;font-family:Sans"
   xml:space="preserve"><tspan
     y="-431.61801"
     x="470.65027"
     id="tspan12595"
     sodipodi:role="line">Nicolas</tspan></text>


<text
   transform="scale(1,-1)"
   sodipodi:linespacing="125%"
   id="text12597"
   y="-348.54269"
   x="250.03296"
   style="font-size:11.19999981px;font-style:normal;font-weight:normal;line-height:125%;letter-spacing:0px;word-spacing:0px;fill:#000000;fill-opacity:1;stroke:none;font-family:Sans"
   xml:space="preserve"><tspan
     y="-348.54269"
     x="250.03296"
     id="tspan12599"
     sodipodi:role="line">Angela</tspan></text>


<text
   transform="scale(1,-1)"
   sodipodi:linespacing="125%"
   id="text12601"
   y="-350.1593"
   x="420.30429"
   style="font-size:11.19999981px;font-style:normal;font-weight:normal;line-height:125%;letter-spacing:0px;word-spacing:0px;fill:#000000;fill-opacity:1;stroke:none;font-family:Sans"
   xml:space="preserve"><tspan
     y="-350.1593"
     x="420.30429"
     id="tspan12603"
     sodipodi:role="line">Farid</tspan></text>


<text
   transform="scale(1,-1)"
   sodipodi:linespacing="125%"
   id="text12605"
   y="-307.73288"
   x="389.75726"
   style="font-size:11.19999981px;font-style:normal;font-weight:normal;line-height:125%;letter-spacing:0px;word-spacing:0px;fill:#000000;fill-opacity:1;stroke:none;font-family:Sans"
   xml:space="preserve"><tspan
     y="-307.73288"
     x="389.75726"
     id="tspan12607"
     sodipodi:role="line">Nathan</tspan></text>


<text
   transform="scale(1,-1)"
   sodipodi:linespacing="125%"
   id="text12609"
   y="-294.15643"
   x="471.21594"
   style="font-size:11.19999981px;font-style:normal;font-weight:normal;line-height:125%;letter-spacing:0px;word-spacing:0px;fill:#000000;fill-opacity:1;stroke:none;font-family:Sans"
   xml:space="preserve"><tspan
     y="-294.15643"
     x="471.21594"
     id="tspan12611"
     sodipodi:role="line">Yamina</tspan></text>


<text
   transform="scale(1,-1)"
   sodipodi:linespacing="125%"
   id="text12613"
   y="-240.41632"
   x="257.38687"
   style="font-size:11.19999981px;font-style:normal;font-weight:normal;line-height:125%;letter-spacing:0px;word-spacing:0px;fill:#000000;fill-opacity:1;stroke:none;font-family:Sans"
   xml:space="preserve"><tspan
     y="-240.41632"
     x="257.38687"
     id="tspan12615"
     sodipodi:role="line">Anna</tspan></text>


<text
   transform="scale(1,-1)"
   sodipodi:linespacing="125%"
   id="text12617"
   y="-253.99278"
   x="390.88861"
   style="font-size:11.19999981px;font-style:normal;font-weight:normal;line-height:125%;letter-spacing:0px;word-spacing:0px;fill:#000000;fill-opacity:1;stroke:none;font-family:Sans"
   xml:space="preserve"><tspan
     y="-253.99278"
     x="390.88861"
     id="tspan12619"
     sodipodi:role="line">Hasna</tspan></text>


<text
   transform="scale(1,-1)"
   sodipodi:linespacing="125%"
   id="text12621"
   y="-277.18588"
   x="350.72498"
   style="font-size:11.19999981px;font-style:normal;font-weight:normal;line-height:125%;letter-spacing:0px;word-spacing:0px;fill:#000000;fill-opacity:1;stroke:none;font-family:Sans"
   xml:space="preserve"><tspan
     y="-277.18588"
     x="350.72498"
     id="tspan12623"
     sodipodi:role="line">Boris</tspan></text>


<text
   transform="scale(1,-1)"
   sodipodi:linespacing="125%"
   id="text12625"
   y="-240.41632"
   x="472.91299"
   style="font-size:11.19999981px;font-style:normal;font-weight:normal;line-height:125%;letter-spacing:0px;word-spacing:0px;fill:#000000;fill-opacity:1;stroke:none;font-family:Sans"
   xml:space="preserve"><tspan
     y="-240.41632"
     x="472.91299"
     id="tspan12627"
     sodipodi:role="line">Clara</tspan></text>


<text
   transform="scale(1,-1)"
   sodipodi:linespacing="125%"
   id="text12629"
   y="-184.97916"
   x="471.21594"
   style="font-size:11.19999981px;font-style:normal;font-weight:normal;line-height:125%;letter-spacing:0px;word-spacing:0px;fill:#000000;fill-opacity:1;stroke:none;font-family:Sans"
   xml:space="preserve"><tspan
     y="-184.97916"
     x="471.21594"
     id="tspan12631"
     sodipodi:role="line">Mounira</tspan></text>


</g></g></svg>