<?xml version="1.0" encoding="UTF-8" standalone="no"?>
<!-- Created with Inkscape (http://www.inkscape.org/) -->

<svg
   xmlns:dc="http://purl.org/dc/elements/1.1/"
   xmlns:cc="http://creativecommons.org/ns#"
   xmlns:rdf="http://www.w3.org/1999/02/22-rdf-syntax-ns#"
   xmlns:svg="http://www.w3.org/2000/svg"
   xmlns="http://www.w3.org/2000/svg"
   xmlns:sodipodi="http://sodipodi.sourceforge.net/DTD/sodipodi-0.dtd"
   xmlns:inkscape="http://www.inkscape.org/namespaces/inkscape"
   width="704.35968"
   height="483.90527"
   id="svg2983"
   version="1.1"
   inkscape:version="0.48.2 r9819"
   sodipodi:docname="2013-SK-05-necklace-V2.svg">
  <defs
     id="defs2985">
    <marker
       inkscape:stockid="Arrow1Mend"
       orient="auto"
       refY="0.0"
       refX="0.0"
       id="Arrow1Mend"
       style="overflow:visible;">
      <path
         id="path3808"
         d="M 0.0,0.0 L 5.0,-5.0 L -12.5,0.0 L 5.0,5.0 L 0.0,0.0 z "
         style="fill-rule:evenodd;stroke:#000000;stroke-width:1.0pt;marker-start:none;"
         transform="scale(0.4) rotate(180) translate(10,0)" />
    </marker>
    <inkscape:perspective
       sodipodi:type="inkscape:persp3d"
       inkscape:vp_x="0 : 526.18109 : 1"
       inkscape:vp_y="0 : 1000 : 0"
       inkscape:vp_z="744.09448 : 526.18109 : 1"
       inkscape:persp3d-origin="372.04724 : 350.78739 : 1"
       id="perspective3160" />
  </defs>
  <sodipodi:namedview
     id="base"
     pagecolor="#ffffff"
     bordercolor="#666666"
     borderopacity="1.0"
     inkscape:pageopacity="0.0"
     inkscape:pageshadow="2"
     inkscape:zoom="1.3195079"
     inkscape:cx="564.14734"
     inkscape:cy="253.61732"
     inkscape:document-units="px"
     inkscape:current-layer="layer1"
     showgrid="false"
     fit-margin-top="0"
     fit-margin-left="0"
     fit-margin-right="0"
     fit-margin-bottom="0"
     inkscape:window-width="1116"
     inkscape:window-height="713"
     inkscape:window-x="71"
     inkscape:window-y="0"
     inkscape:window-maximized="0"
     inkscape:snap-global="false" />
  <metadata
     id="metadata2988">
    <rdf:RDF>
      <cc:Work
         rdf:about="">
        <dc:format>image/svg+xml</dc:format>
        <dc:type
           rdf:resource="http://purl.org/dc/dcmitype/StillImage" />
        <dc:title />
      </cc:Work>
    </rdf:RDF>
  </metadata>
  <g
     inkscape:label="Layer 1"
     inkscape:groupmode="layer"
     id="layer1"
     transform="translate(-21.577814,-20.267157)">
    <path
       style="fill:none;stroke:#000000;stroke-width:4;stroke-linecap:butt;stroke-linejoin:miter;stroke-miterlimit:4;stroke-opacity:1;stroke-dasharray:none"
       d="m 539.83421,76.098627 c 0,0 -153.99816,-35.278374 -223.53699,-32.884268 C 248.91139,45.534342 169.8682,40.99503 118.2526,84.377784 70.115365,124.83699 42.526008,197.13633 48.661109,259.71829 c 7.795951,79.5237 60.569931,161.87046 130.016411,201.39238 58.41236,33.2424 134.72312,15.22779 201.48741,7.50825 67.87256,-7.84768 215.93369,-67.09911 215.93369,-67.09911"
       id="path4452"
       inkscape:connector-curvature="0"
       sodipodi:nodetypes="csssssc" />
    <image
       y="28.38378"
       x="212.16093"
       id="image4299"
       height="31"
       width="41"
       style="opacity:0.91000001" />
    <path
       sodipodi:type="arc"
       style="opacity:0.91000001;fill:#ff0000;fill-opacity:1;stroke:#ff0000;stroke-width:2.48000002;stroke-linecap:round;stroke-linejoin:round;stroke-miterlimit:4;stroke-opacity:1;stroke-dasharray:none"
       id="path4350"
       sodipodi:cx="59.685894"
       sodipodi:cy="155.93326"
       sodipodi:rx="20.148741"
       sodipodi:ry="21.289236"
       d="m 79.834635,155.93326 c 0,11.75772 -9.020899,21.28923 -20.148741,21.28923 -11.127842,0 -20.148741,-9.53151 -20.148741,-21.28923 0,-11.75772 9.020899,-21.28924 20.148741,-21.28924 11.127842,0 20.148741,9.53152 20.148741,21.28924 z"
       transform="matrix(0.94711504,0,0,0.93209102,8.0986303,0.70497987)" />
    <path
       sodipodi:type="arc"
       style="opacity:0.91000001;fill:#ff0000;fill-opacity:1;stroke:#ff0000;stroke-width:2.48000002;stroke-linecap:round;stroke-linejoin:round;stroke-miterlimit:4;stroke-opacity:1;stroke-dasharray:none"
       id="path4354"
       sodipodi:cx="49.041275"
       sodipodi:cy="229.68526"
       sodipodi:rx="18.628082"
       sodipodi:ry="19.008247"
       d="m 67.669357,229.68526 c 0,10.49796 -8.340076,19.00824 -18.628082,19.00824 -10.288006,0 -18.628082,-8.51028 -18.628082,-19.00824 0,-10.49797 8.340076,-19.00825 18.628082,-19.00825 10.288006,0 18.628082,8.51028 18.628082,19.00825 z"
       transform="translate(-4,-2)" />
    <path
       sodipodi:type="arc"
       style="opacity:0.91000001;fill:#ff0000;fill-opacity:1;stroke:#ff0000;stroke-width:2.48000002;stroke-linecap:round;stroke-linejoin:round;stroke-miterlimit:4;stroke-opacity:1;stroke-dasharray:none"
       id="path4356"
       sodipodi:cx="120.89245"
       sodipodi:cy="84.462257"
       sodipodi:rx="19.768578"
       sodipodi:ry="20.528906"
       d="m 140.66103,84.462257 c 0,11.337802 -8.8507,20.528903 -19.76858,20.528903 -10.91789,0 -19.76858,-9.191101 -19.76858,-20.528903 0,-11.337801 8.85069,-20.528905 19.76858,-20.528905 10.91788,0 19.76858,9.191104 19.76858,20.528905 z"
       transform="translate(-4,-2)" />
    <path
       sodipodi:type="arc"
       style="opacity:0.91000001;fill:#ff0000;fill-opacity:1;stroke:#ff0000;stroke-width:2.48000002;stroke-linecap:round;stroke-linejoin:round;stroke-miterlimit:4;stroke-opacity:1;stroke-dasharray:none"
       id="path4360"
       sodipodi:cx="192.36346"
       sodipodi:cy="43.024277"
       sodipodi:rx="19.008247"
       sodipodi:ry="19.388412"
       d="m 211.37171,43.024277 c 0,10.707924 -8.51028,19.388412 -19.00825,19.388412 -10.49796,0 -19.00824,-8.680488 -19.00824,-19.388412 0,-10.707925 8.51028,-19.388413 19.00824,-19.388413 10.49797,0 19.00825,8.680488 19.00825,19.388413 z"
       transform="translate(0,2)" />
    <path
       sodipodi:type="arc"
       style="opacity:0.91000001;fill:#ff0000;fill-opacity:1;stroke:#ff0000;stroke-width:2.48000002;stroke-linecap:round;stroke-linejoin:round;stroke-miterlimit:4;stroke-opacity:1;stroke-dasharray:none"
       id="path4362"
       sodipodi:cx="272.95844"
       sodipodi:cy="43.404442"
       sodipodi:rx="19.008247"
       sodipodi:ry="20.528906"
       d="m 291.96668,43.404442 c 0,11.337801 -8.51028,20.528906 -19.00824,20.528906 -10.49797,0 -19.00825,-9.191105 -19.00825,-20.528906 0,-11.337802 8.51028,-20.528906 19.00825,-20.528906 10.49796,0 19.00824,9.191104 19.00824,20.528906 z"
       transform="translate(0,-2)" />
    <path
       sodipodi:type="arc"
       style="opacity:0.91000001;fill:#ff0000;fill-opacity:1;stroke:#ff0000;stroke-width:2.48000002;stroke-linecap:round;stroke-linejoin:round;stroke-miterlimit:4;stroke-opacity:1;stroke-dasharray:none"
       id="path4364"
       sodipodi:cx="355.45422"
       sodipodi:cy="46.065598"
       sodipodi:rx="19.388412"
       sodipodi:ry="20.148741"
       d="m 374.84264,46.065598 c 0,11.127842 -8.68049,20.14874 -19.38842,20.14874 -10.70792,0 -19.38841,-9.020898 -19.38841,-20.14874 0,-11.127843 8.68049,-20.148741 19.38841,-20.148741 10.70793,0 19.38842,9.020898 19.38842,20.148741 z" />
    <path
       sodipodi:type="arc"
       style="opacity:0.91000001;fill:#ff0000;fill-opacity:1;stroke:#ff0000;stroke-width:2.48000002;stroke-linecap:round;stroke-linejoin:round;stroke-miterlimit:4;stroke-opacity:1;stroke-dasharray:none"
       id="path4366"
       sodipodi:cx="440.99133"
       sodipodi:cy="55.569721"
       sodipodi:rx="19.008247"
       sodipodi:ry="20.528906"
       d="m 459.99958,55.569721 c 0,11.337802 -8.51028,20.528906 -19.00825,20.528906 -10.49796,0 -19.00824,-9.191104 -19.00824,-20.528906 0,-11.337801 8.51028,-20.528906 19.00824,-20.528906 10.49797,0 19.00825,9.191105 19.00825,20.528906 z"
       transform="translate(-4,2)" />
    <path
       sodipodi:type="arc"
       style="opacity:0.91000001;fill:#ff0000;fill-opacity:1;stroke:#ff0000;stroke-width:2.48000002;stroke-linecap:round;stroke-linejoin:round;stroke-miterlimit:4;stroke-opacity:1;stroke-dasharray:none"
       id="path4368"
       sodipodi:cx="518.16479"
       sodipodi:cy="73.817635"
       sodipodi:rx="20.148741"
       sodipodi:ry="20.528906"
       d="m 538.31354,73.817635 c 0,11.337801 -9.0209,20.528905 -20.14875,20.528905 -11.12784,0 -20.14874,-9.191104 -20.14874,-20.528905 0,-11.337802 9.0209,-20.528906 20.14874,-20.528906 11.12785,0 20.14875,9.191104 20.14875,20.528906 z"
       transform="translate(2,0)" />
    <path
       sodipodi:type="arc"
       style="opacity:0.91000001;fill:#ff0000;fill-opacity:1;stroke:#ff0000;stroke-width:2.48000002;stroke-linecap:round;stroke-linejoin:round;stroke-miterlimit:4;stroke-opacity:1;stroke-dasharray:none"
       id="path4370"
       sodipodi:cx="458.09875"
       sodipodi:cy="450.18094"
       sodipodi:rx="17.867752"
       sodipodi:ry="19.768578"
       d="m 475.96651,450.18094 c 0,10.91788 -7.99967,19.76858 -17.86776,19.76858 -9.86808,0 -17.86775,-8.8507 -17.86775,-19.76858 0,-10.91789 7.99967,-19.76858 17.86775,-19.76858 9.86809,0 17.86776,8.85069 17.86776,19.76858 z"
       transform="matrix(1.0764976,0,0,0.94528902,-30.351366,23.489346)" />
    <path
       sodipodi:type="arc"
       style="opacity:0.91000001;fill:#ff0000;fill-opacity:1;stroke:#ff0000;stroke-width:2.48000002;stroke-linecap:round;stroke-linejoin:round;stroke-miterlimit:4;stroke-opacity:1;stroke-dasharray:none"
       id="path4372"
       sodipodi:cx="538.31354"
       sodipodi:cy="422.42889"
       sodipodi:rx="19.768578"
       sodipodi:ry="19.388412"
       d="m 558.08212,422.42889 c 0,10.70793 -8.8507,19.38842 -19.76858,19.38842 -10.91789,0 -19.76858,-8.68049 -19.76858,-19.38842 0,-10.70792 8.85069,-19.38841 19.76858,-19.38841 10.91788,0 19.76858,8.68049 19.76858,19.38841 z"
       transform="matrix(0.96382953,0,0,0.96312031,24.710722,14.818718)" />
    <path
       sodipodi:type="arc"
       style="opacity:0.91000001;fill:#ff0000;fill-opacity:1;stroke:#ff0000;stroke-width:2.48000002;stroke-linecap:round;stroke-linejoin:round;stroke-miterlimit:4;stroke-opacity:1;stroke-dasharray:none"
       id="path4374"
       sodipodi:cx="379.4046"
       sodipodi:cy="467.28836"
       sodipodi:rx="18.247917"
       sodipodi:ry="19.388412"
       d="m 397.65252,467.28836 c 0,10.70793 -8.16987,19.38841 -18.24792,19.38841 -10.07804,0 -18.24792,-8.68048 -18.24792,-19.38841 0,-10.70792 8.16988,-19.38841 18.24792,-19.38841 10.07805,0 18.24792,8.68049 18.24792,19.38841 z"
       transform="matrix(1.0756431,0,0,1,-22.079688,2)" />
    <path
       sodipodi:type="arc"
       style="opacity:0.91000001;fill:#ff0000;fill-opacity:1;stroke:#ff0000;stroke-width:2.48000002;stroke-linecap:round;stroke-linejoin:round;stroke-miterlimit:4;stroke-opacity:1;stroke-dasharray:none"
       id="path4376"
       sodipodi:cx="302.99146"
       sodipodi:cy="483.25528"
       sodipodi:rx="18.628082"
       sodipodi:ry="19.388412"
       d="m 321.61954,483.25528 c 0,10.70792 -8.34008,19.38841 -18.62808,19.38841 -10.28801,0 -18.62809,-8.68049 -18.62809,-19.38841 0,-10.70792 8.34008,-19.38841 18.62809,-19.38841 10.288,0 18.62808,8.68049 18.62808,19.38841 z"
       transform="translate(-2,-2)" />
    <path
       sodipodi:type="arc"
       style="opacity:0.91000001;fill:#ff0000;fill-opacity:1;stroke:#ff0000;stroke-width:2.48000002;stroke-linecap:round;stroke-linejoin:round;stroke-miterlimit:4;stroke-opacity:1;stroke-dasharray:none"
       id="path4378"
       sodipodi:cx="220.11549"
       sodipodi:cy="469.18918"
       sodipodi:rx="20.148741"
       sodipodi:ry="20.528906"
       d="m 240.26423,469.18918 c 0,11.3378 -9.02089,20.5289 -20.14874,20.5289 -11.12784,0 -20.14874,-9.1911 -20.14874,-20.5289 0,-11.3378 9.0209,-20.52891 20.14874,-20.52891 11.12785,0 20.14874,9.19111 20.14874,20.52891 z"
       transform="matrix(0.98221639,0,0,0.98254571,4.2946138,14.569528)" />
    <path
       sodipodi:type="arc"
       style="opacity:0.91000001;fill:#ff0000;fill-opacity:1;stroke:#ff0000;stroke-width:2.48000002;stroke-linecap:round;stroke-linejoin:round;stroke-miterlimit:4;stroke-opacity:1;stroke-dasharray:none"
       id="path4380"
       sodipodi:cx="141.42136"
       sodipodi:cy="445.99911"
       sodipodi:rx="19.768578"
       sodipodi:ry="18.628082"
       d="m 161.18993,445.99911 c 0,10.28801 -8.85069,18.62809 -19.76857,18.62809 -10.91789,0 -19.76858,-8.34008 -19.76858,-18.62809 0,-10.288 8.85069,-18.62808 19.76858,-18.62808 10.91788,0 19.76857,8.34008 19.76857,18.62808 z"
       transform="matrix(1,0,0,1.0332831,2,-16.224225)" />
    <path
       sodipodi:type="arc"
       style="opacity:0.91000001;fill:#ff0000;fill-opacity:1;stroke:#ff0000;stroke-width:2.48000002;stroke-linecap:round;stroke-linejoin:round;stroke-miterlimit:4;stroke-opacity:1;stroke-dasharray:none"
       id="path4382"
       sodipodi:cx="87.05777"
       sodipodi:cy="384.41238"
       sodipodi:rx="19.388412"
       sodipodi:ry="20.148741"
       d="m 106.44618,384.41238 c 0,11.12785 -8.680486,20.14874 -19.38841,20.14874 -10.707925,0 -19.388413,-9.02089 -19.388413,-20.14874 0,-11.12784 8.680488,-20.14874 19.388413,-20.14874 10.707924,0 19.38841,9.0209 19.38841,20.14874 z"
       transform="translate(6,0)" />
    <path
       sodipodi:type="arc"
       style="opacity:0.91000001;fill:#ff0000;fill-opacity:1;stroke:#ff0000;stroke-width:2.48000002;stroke-linecap:round;stroke-linejoin:round;stroke-miterlimit:4;stroke-opacity:1;stroke-dasharray:none"
       id="path4384"
       sodipodi:cx="50.942101"
       sodipodi:cy="312.18106"
       sodipodi:rx="19.768578"
       sodipodi:ry="19.388412"
       d="m 70.710678,312.18106 c 0,10.70793 -8.850694,19.38841 -19.768577,19.38841 -10.917884,0 -19.768578,-8.68048 -19.768578,-19.38841 0,-10.70792 8.850694,-19.38841 19.768578,-19.38841 10.917883,0 19.768577,8.68049 19.768577,19.38841 z"
       transform="translate(6,-2)" />
    <path
       sodipodi:type="star"
       style="opacity:0.91000001;fill:#0000ff;fill-opacity:1;stroke:#0000ff;stroke-width:2.48000002;stroke-linecap:round;stroke-linejoin:round;stroke-miterlimit:4;stroke-opacity:1;stroke-dasharray:none"
       id="path4402"
       sodipodi:sides="5"
       sodipodi:cx="240.26424"
       sodipodi:cy="123.99941"
       sodipodi:r1="19.473948"
       sodipodi:r2="15.428311"
       sodipodi:arg1="0.89605538"
       sodipodi:arg2="1.5243739"
       inkscape:flatsided="false"
       inkscape:rounded="0"
       inkscape:randomized="0"
       d="m 252.42952,139.20601 -11.44932,0.20509 -11.41902,0.85728 -3.73309,-10.82557 -4.34398,-10.59522 9.14214,-6.89566 8.73428,-7.40549 9.38324,6.56382 9.74208,6.01838 -3.34298,10.95233 z"
       inkscape:transform-center-x="-0.49102554"
       inkscape:transform-center-y="-1.5755081"
       transform="matrix(1.0882257,0.1318217,-0.13223608,1.0916465,69.077761,-124.05103)" />
    <path
       sodipodi:type="star"
       style="opacity:0.91000001;fill:#0000ff;fill-opacity:1;stroke:#0000ff;stroke-width:2.48000002;stroke-linecap:round;stroke-linejoin:round;stroke-miterlimit:4;stroke-opacity:1;stroke-dasharray:none"
       id="path4404"
       sodipodi:sides="5"
       sodipodi:cx="170.31389"
       sodipodi:cy="87.503571"
       sodipodi:r1="22.784538"
       sodipodi:r2="18.05114"
       sodipodi:arg1="0.44872334"
       sodipodi:arg2="1.0770419"
       inkscape:flatsided="false"
       inkscape:rounded="0"
       inkscape:randomized="0"
       d="m 190.8428,97.387859 -11.97384,6.010821 -11.61181,6.68345 -9.41674,-9.53035 -9.9446,-8.978178 6.15397,-11.900898 5.46571,-12.23228 13.22011,2.175191 13.32259,1.418218 2.01651,13.24524 z"
       inkscape:transform-center-x="0.94458332"
       inkscape:transform-center-y="1.2577088"
       transform="translate(-17.487587,-28.892535)" />
    <path
       sodipodi:type="star"
       style="opacity:0.91000001;fill:#0000ff;fill-opacity:1;stroke:#0000ff;stroke-width:2.48000002;stroke-linecap:round;stroke-linejoin:round;stroke-miterlimit:4;stroke-opacity:1;stroke-dasharray:none"
       id="path4406"
       sodipodi:sides="5"
       sodipodi:cx="453.91693"
       sodipodi:cy="41.883781"
       sodipodi:r1="21.891691"
       sodipodi:r2="17.343779"
       sodipodi:arg1="1.2160907"
       sodipodi:arg2="1.8444092"
       inkscape:flatsided="false"
       inkscape:rounded="0"
       inkscape:randomized="0"
       d="m 461.52023,62.412688 -12.28979,-3.8303 -12.48811,-3.123659 -0.15492,-12.871913 -0.88826,-12.842162 12.19404,-4.124979 11.93913,-4.813234 7.69126,10.322535 8.26705,9.86742 -7.44059,10.504657 z"
       inkscape:transform-center-x="-1.6446294"
       inkscape:transform-center-y="-0.52048872"
       transform="matrix(1.0334556,-0.03637462,0.03753655,1.0014653,8.6440702,35.459033)" />
    <path
       sodipodi:type="star"
       style="opacity:0.91000001;fill:#0000ff;fill-opacity:1;stroke:#0000ff;stroke-width:2.48000002;stroke-linecap:round;stroke-linejoin:round;stroke-miterlimit:4;stroke-opacity:1;stroke-dasharray:none"
       id="path4408"
       sodipodi:sides="5"
       sodipodi:cx="118.61146"
       sodipodi:cy="240.32988"
       sodipodi:r1="24.754547"
       sodipodi:r2="19.611889"
       sodipodi:arg1="-2.9562447"
       sodipodi:arg2="-2.3279262"
       inkscape:flatsided="false"
       inkscape:rounded="0"
       inkscape:randomized="0"
       d="m 94.280902,235.7679 10.860358,-9.69214 10.29034,-10.29534 12.57382,7.33378 12.97134,6.60526 -3.08932,14.22467 -2.27361,14.37761 -14.48312,1.45755 -14.37651,2.28059 -5.86174,-13.32385 z"
       inkscape:transform-center-x="0.98262929"
       inkscape:transform-center-y="-1.4097291"
       transform="translate(-71.471008,-55.504081)" />
    <path
       sodipodi:type="star"
       style="opacity:0.91000001;fill:#0000ff;fill-opacity:1;stroke:#0000ff;stroke-width:2.48000002;stroke-linecap:round;stroke-linejoin:round;stroke-miterlimit:4;stroke-opacity:1;stroke-dasharray:none"
       id="path4410"
       sodipodi:sides="5"
       sodipodi:cx="131.53706"
       sodipodi:cy="314.84222"
       sodipodi:r1="23.582485"
       sodipodi:r2="18.683319"
       sodipodi:arg1="0.36254424"
       sodipodi:arg2="0.99086277"
       inkscape:flatsided="false"
       inkscape:rounded="0"
       inkscape:randomized="0"
       d="m 153.58663,323.20585 -11.8117,7.26495 -11.37846,7.92631 -10.55939,-8.9886 -11.05451,-8.37219 5.28564,-12.82021 4.5464,-13.10061 13.82609,1.06527 13.86434,0.27557 3.25936,13.47859 z"
       inkscape:transform-center-x="-1.2227539"
       inkscape:transform-center-y="1.0570874"
       transform="matrix(0.97655344,-0.21527512,0.21527512,0.97655344,-127.32165,71.434128)" />
    <path
       sodipodi:type="star"
       style="opacity:0.91000001;fill:#0000ff;fill-opacity:1;stroke:#0000ff;stroke-width:2.48000002;stroke-linecap:round;stroke-linejoin:round;stroke-miterlimit:4;stroke-opacity:1;stroke-dasharray:none"
       id="path4412"
       sodipodi:sides="5"
       sodipodi:cx="161.95026"
       sodipodi:cy="447.89993"
       sodipodi:r1="22.682821"
       sodipodi:r2="17.970556"
       sodipodi:arg1="0.69044646"
       sodipodi:arg2="1.318765"
       inkscape:flatsided="false"
       inkscape:rounded="0"
       inkscape:randomized="0"
       d="m 179.43784,462.3462 -13.00624,2.95656 -12.8166,3.693 -6.831,-11.45604 -7.4728,-11.04812 8.78444,-10.03678 8.19816,-10.52111 12.2601,5.25297 12.53954,4.54571 -1.2073,13.2833 z"
       inkscape:transform-center-x="1.8398416"
       inkscape:transform-center-y="-0.44204429"
       transform="matrix(1.0525758,0,0,1.0157,8.6846548,11.321882)" />
    <path
       sodipodi:type="star"
       style="opacity:0.91000001;fill:#0000ff;fill-opacity:1;stroke:#0000ff;stroke-width:2.48000002;stroke-linecap:round;stroke-linejoin:round;stroke-miterlimit:4;stroke-opacity:1;stroke-dasharray:none"
       id="path4414"
       sodipodi:sides="5"
       sodipodi:cx="338.3468"
       sodipodi:cy="466.90817"
       sodipodi:r1="22.873169"
       sodipodi:r2="18.121361"
       sodipodi:arg1="1.1964627"
       sodipodi:arg2="1.8247812"
       inkscape:flatsided="false"
       inkscape:rounded="0"
       inkscape:randomized="0"
       d="m 346.71043,488.19741 -12.91686,-3.74923 -13.10953,-3.00699 -0.4258,-13.44323 -1.19126,-13.39712 12.6537,-4.55915 12.3733,-5.27289 8.24622,10.62553 8.83837,10.13829 -7.55725,11.12609 z"
       inkscape:transform-center-x="-1.324901"
       inkscape:transform-center-y="0.9621374"
       transform="matrix(1.0152789,0.19746046,-0.19747017,1.0140216,92.204838,-60.605879)" />
    <path
       sodipodi:type="star"
       style="opacity:0.91000001;fill:#0000ff;fill-opacity:1;stroke:#0000ff;stroke-width:2.48000002;stroke-linecap:round;stroke-linejoin:round;stroke-miterlimit:4;stroke-opacity:1;stroke-dasharray:none"
       id="path4438"
       sodipodi:sides="5"
       sodipodi:cx="467.60287"
       sodipodi:cy="414.44543"
       sodipodi:r1="23.619228"
       sodipodi:r2="18.712429"
       sodipodi:arg1="-0.064426839"
       sodipodi:arg2="0.56389169"
       inkscape:flatsided="false"
       inkscape:rounded="0"
       inkscape:randomized="0"
       d="m 491.1731,412.92477 -7.75483,11.52207 -7.08556,11.9453 -13.35451,-3.81476 -13.55022,-3.04747 -0.49871,-13.87973 -1.28893,-13.82874 13.04629,-4.76337 12.75361,-5.49916 8.56177,10.93579 z"
       inkscape:transform-center-x="-1.9183446"
       inkscape:transform-center-y="0.35168733"
       transform="matrix(0.99366398,0.11239174,-0.11239174,0.99366398,87.278489,-25.317217)" />
    <path
       style="fill:none;stroke:#000000;stroke-width:3;stroke-linecap:butt;stroke-linejoin:miter;stroke-miterlimit:4;stroke-opacity:1;stroke-dasharray:none"
       d="m 538.59454,75.255662 c 25.23206,-6.370534 27.97228,-7.193088 40.67765,9.016513 12.27171,24.586675 10.07988,22.027945 26.91931,54.152745 9.89992,18.35616 29.40887,36.78538 54.43598,38.22733 30.14581,1.73686 45.23963,-8.55371 45.23963,-8.55371"
       id="path4448"
       inkscape:connector-curvature="0"
       sodipodi:nodetypes="cccsc" />
    <path
       style="fill:none;stroke:#000000;stroke-width:4;stroke-linecap:butt;stroke-linejoin:miter;stroke-miterlimit:4;stroke-opacity:1;stroke-dasharray:none"
       d="m 595.13994,401.23882 c 0,0 18.70407,-23.53061 32.31402,-26.42146 9.63775,-2.04713 14.63204,2.7785 28.51237,7.79338 11.32993,4.09344 18.49781,6.33792 31.55369,3.2314 26.92694,-6.407 34.59501,-24.14047 34.59501,-24.14047"
       id="path4450"
       inkscape:connector-curvature="0"
       sodipodi:nodetypes="cassc" />
    <rect
       style="opacity:0.90000000000000002;fill:#ffff00;fill-opacity:1;fill-rule:evenodd;stroke:#ffff00;stroke-width:0.59526581000000001px;stroke-linecap:butt;stroke-linejoin:miter;stroke-opacity:1"
       id="rect3908"
       width="13.453287"
       height="34.732925"
       x="544.09906"
       y="53.023952"
       transform="matrix(0.99999578,0.00290602,-0.00635528,0.99997981,0,0)" />
    <rect
       transform="matrix(0.59496115,-0.80375446,0.80169749,0.59772999,0,0)"
       y="121.69149"
       x="-54.218975"
       height="34.732925"
       width="13.453287"
       id="rect3918"
       style="opacity:0.90000000000000002;fill:#ffff00;fill-opacity:1;fill-rule:evenodd;stroke:#ffff00;stroke-width:0.59526581000000001px;stroke-linecap:butt;stroke-linejoin:miter;stroke-opacity:1" />
    <rect
       style="opacity:0.90000000000000002;fill:#ffff00;fill-opacity:1;fill-rule:evenodd;stroke:#ffff00;stroke-width:0.59526581000000001px;stroke-linecap:butt;stroke-linejoin:miter;stroke-opacity:1"
       id="rect3920"
       width="13.453287"
       height="34.732925"
       x="-39.423412"
       y="123.14134"
       transform="matrix(0.57024684,-0.8214734,0.81950157,0.57307694,0,0)" />
    <rect
       transform="matrix(0.99408826,0.10857503,-0.11200329,0.99370784,0,0)"
       y="-11.794419"
       x="402.6937"
       height="34.732925"
       width="13.453287"
       id="rect3922"
       style="opacity:0.90000000000000002;fill:#ffff00;fill-opacity:1;fill-rule:evenodd;stroke:#ffff00;stroke-width:0.59526581000000001px;stroke-linecap:butt;stroke-linejoin:miter;stroke-opacity:1" />
    <rect
       style="opacity:0.90000000000000002;fill:#ffff00;fill-opacity:1;fill-rule:evenodd;stroke:#ffff00;stroke-width:0.59526581000000001px;stroke-linecap:butt;stroke-linejoin:miter;stroke-opacity:1"
       id="rect3935"
       width="13.453287"
       height="34.732925"
       x="382.2677"
       y="0.54470992"
       transform="matrix(0.99699429,0.07747506,-0.08091353,0.99672113,0,0)" />
    <rect
       transform="matrix(0.99999578,0.00290602,-0.00635528,0.99997981,0,0)"
       y="24.559853"
       x="236.03136"
       height="34.732925"
       width="13.453287"
       id="rect3937"
       style="opacity:0.90000000000000002;fill:#ffff00;fill-opacity:1;fill-rule:evenodd;stroke:#ffff00;stroke-width:0.59526581000000001px;stroke-linecap:butt;stroke-linejoin:miter;stroke-opacity:1" />
    <rect
       style="opacity:0.90000000000000002;fill:#ffff00;fill-opacity:1;fill-rule:evenodd;stroke:#ffff00;stroke-width:0.59526581000000001px;stroke-linecap:butt;stroke-linejoin:miter;stroke-opacity:1"
       id="rect3939"
       width="13.453287"
       height="34.732925"
       x="216.03166"
       y="24.61797"
       transform="matrix(0.99999578,0.00290602,-0.00635528,0.99997981,0,0)" />
    <rect
       transform="matrix(0.11640954,0.9932013,-0.99359692,0.11298301,0,0)"
       y="-36.537628"
       x="275.78113"
       height="34.732925"
       width="13.453287"
       id="rect3941"
       style="opacity:0.90000000000000002;fill:#ffff00;fill-opacity:1;fill-rule:evenodd;stroke:#ffff00;stroke-width:0.59526581000000001px;stroke-linecap:butt;stroke-linejoin:miter;stroke-opacity:1" />
    <rect
       style="opacity:0.90000000000000002;fill:#ffff00;fill-opacity:1;fill-rule:evenodd;stroke:#ffff00;stroke-width:0.59526581000000001px;stroke-linecap:butt;stroke-linejoin:miter;stroke-opacity:1"
       id="rect3943"
       width="13.453287"
       height="34.732925"
       x="253.51376"
       y="-58.863056"
       transform="matrix(0.02780279,0.99961343,-0.99970338,0.02435466,0,0)" />
    <rect
       transform="matrix(-0.65422402,-0.75630082,0.75855293,-0.65161143,0,0)"
       y="-197.82747"
       x="-388.25464"
       height="34.732925"
       width="13.453287"
       id="rect3945"
       style="opacity:0.90000000000000002;fill:#ffff00;fill-opacity:1;fill-rule:evenodd;stroke:#ffff00;stroke-width:0.59526581000000001px;stroke-linecap:butt;stroke-linejoin:miter;stroke-opacity:1" />
    <rect
       style="opacity:0.90000000000000002;fill:#ffff00;fill-opacity:1;fill-rule:evenodd;stroke:#ffff00;stroke-width:0.59526581000000001px;stroke-linecap:butt;stroke-linejoin:miter;stroke-opacity:1"
       id="rect3947"
       width="13.453287"
       height="34.732925"
       x="389.13266"
       y="175.64059"
       transform="matrix(0.67393503,0.73879062,-0.74111082,0.67138272,0,0)" />
    <rect
       transform="matrix(0.99999578,0.00290602,-0.00635528,0.99997981,0,0)"
       y="461.82175"
       x="246.5329"
       height="34.732925"
       width="13.453287"
       id="rect3949"
       style="opacity:0.90000000000000002;fill:#ffff00;fill-opacity:1;fill-rule:evenodd;stroke:#ffff00;stroke-width:0.59526581000000001px;stroke-linecap:butt;stroke-linejoin:miter;stroke-opacity:1" />
    <rect
       style="opacity:0.90000000000000002;fill:#ffff00;fill-opacity:1;fill-rule:evenodd;stroke:#ffff00;stroke-width:0.59526581000000001px;stroke-linecap:butt;stroke-linejoin:miter;stroke-opacity:1"
       id="rect3951"
       width="13.453287"
       height="34.732925"
       x="266.53259"
       y="461.76382"
       transform="matrix(0.99999578,0.00290602,-0.00635528,0.99997981,0,0)" />
    <rect
       transform="matrix(0.96207222,-0.27279486,0.26947477,0.96300745,0,0)"
       y="541.40308"
       x="269.95181"
       height="34.732925"
       width="13.453287"
       id="rect3953"
       style="opacity:0.90000000000000002;fill:#ffff00;fill-opacity:1;fill-rule:evenodd;stroke:#ffff00;stroke-width:0.59526581000000001px;stroke-linecap:butt;stroke-linejoin:miter;stroke-opacity:1" />
    <rect
       style="opacity:0.90000000000000002;fill:#ffff00;fill-opacity:1;fill-rule:evenodd;stroke:#ffff00;stroke-width:0.59526581000000001px;stroke-linecap:butt;stroke-linejoin:miter;stroke-opacity:1"
       id="rect3955"
       width="13.453287"
       height="34.732925"
       x="240.02666"
       y="565.26111"
       transform="matrix(0.93554266,-0.35321373,0.34998467,0.93675543,0,0)" />
    <rect
       transform="matrix(0.90179462,-0.43216485,0.42905172,0.90327992,0,0)"
       y="598.65869"
       x="339.32764"
       height="34.732925"
       width="13.453287"
       id="rect3957"
       style="opacity:0.9;fill:#ffff00;fill-opacity:1;fill-rule:evenodd;stroke:#ffff00;stroke-width:0.59526581px;stroke-linecap:butt;stroke-linejoin:miter;stroke-opacity:1" />
    <path
       style="fill:none;stroke:#000000;stroke-width:4.086;stroke-linecap:butt;stroke-linejoin:round;stroke-miterlimit:4;stroke-opacity:1;stroke-dasharray:none;marker-start:none;marker-end:url(#Arrow1Mend)"
       d="m 706.494,140.59479 c 0,0 -12.4979,11.23866 -35.28098,0 -12.29352,-6.06426 -34.32745,-23.74773 -34.32745,-23.74773"
       id="path4658"
       inkscape:connector-curvature="0"
       sodipodi:nodetypes="csc" />
  </g>
</svg>
