<?xml version="1.0" encoding="UTF-8" standalone="no"?>
<!-- Created with Inkscape (http://www.inkscape.org/) -->

<svg
   xmlns:dc="http://purl.org/dc/elements/1.1/"
   xmlns:cc="http://creativecommons.org/ns#"
   xmlns:rdf="http://www.w3.org/1999/02/22-rdf-syntax-ns#"
   xmlns:svg="http://www.w3.org/2000/svg"
   xmlns="http://www.w3.org/2000/svg"
   xmlns:sodipodi="http://sodipodi.sourceforge.net/DTD/sodipodi-0.dtd"
   xmlns:inkscape="http://www.inkscape.org/namespaces/inkscape"
   width="695.77563"
   height="383.17023"
   id="svg2983"
   version="1.1"
   inkscape:version="0.48.2 r9819"
   sodipodi:docname="2013-SK-05-necklace-V1.svg">
  <defs
     id="defs2985">
    <marker
       inkscape:stockid="Arrow1Mend"
       orient="auto"
       refY="0"
       refX="0"
       id="Arrow1Mend"
       style="overflow:visible">
      <path
         id="path3800"
         d="M 0,0 5,-5 -12.5,0 5,5 0,0 z"
         style="fill-rule:evenodd;stroke:#000000;stroke-width:1pt;marker-start:none"
         transform="matrix(-0.4,0,0,-0.4,-4,0)"
         inkscape:connector-curvature="0" />
    </marker>
    <inkscape:perspective
       sodipodi:type="inkscape:persp3d"
       inkscape:vp_x="0 : 526.18109 : 1"
       inkscape:vp_y="0 : 1000 : 0"
       inkscape:vp_z="744.09448 : 526.18109 : 1"
       inkscape:persp3d-origin="372.04724 : 350.78739 : 1"
       id="perspective3160" />
  </defs>
  <sodipodi:namedview
     id="base"
     pagecolor="#ffffff"
     bordercolor="#666666"
     borderopacity="1.0"
     inkscape:pageopacity="0.0"
     inkscape:pageshadow="2"
     inkscape:zoom="0.93303299"
     inkscape:cx="239.25968"
     inkscape:cy="221.73897"
     inkscape:document-units="px"
     inkscape:current-layer="layer1"
     showgrid="false"
     fit-margin-top="0"
     fit-margin-left="0"
     fit-margin-right="0"
     fit-margin-bottom="0"
     inkscape:window-width="1116"
     inkscape:window-height="713"
     inkscape:window-x="3"
     inkscape:window-y="0"
     inkscape:window-maximized="0"
     inkscape:snap-nodes="true"
     inkscape:object-paths="true"
     inkscape:object-nodes="true" />
  <metadata
     id="metadata2988">
    <rdf:RDF>
      <cc:Work
         rdf:about="">
        <dc:format>image/svg+xml</dc:format>
        <dc:type
           rdf:resource="http://purl.org/dc/dcmitype/StillImage" />
        <dc:title />
      </cc:Work>
    </rdf:RDF>
  </metadata>
  <g
     inkscape:label="Layer 1"
     inkscape:groupmode="layer"
     id="layer1"
     transform="translate(33.903587,-117.79854)">
    <path
       style="fill:none;stroke:#000000;stroke-width:3;stroke-linecap:butt;stroke-linejoin:miter;stroke-miterlimit:4;stroke-opacity:1;stroke-dasharray:none"
       d="m 600.02522,418.76047 c 82.97109,-23.41601 56.26405,-54.2978 56.26405,-54.2978"
       id="path3796"
       inkscape:connector-curvature="0"
       sodipodi:nodetypes="cc" />
    <path
       style="fill:none;stroke:#000000;stroke-width:3;stroke-linecap:butt;stroke-linejoin:miter;stroke-miterlimit:4;stroke-opacity:1;stroke-dasharray:none"
       d="m 525.73326,172.6435 c 15.8673,-3.34847 17.5905,-3.78082 25.58033,4.73924 7.71712,12.92321 6.33878,11.57829 16.92834,28.46368 6.22561,9.64833 18.4939,19.33506 34.23232,20.09298 18.95733,0.91293 28.44915,-4.49599 28.44915,-4.49599"
       id="path4448"
       inkscape:connector-curvature="0"
       sodipodi:nodetypes="cccsc" />
    <path
       style="fill:none;stroke:#000000;stroke-width:3.69456267;stroke-linecap:butt;stroke-linejoin:miter;stroke-miterlimit:4;stroke-opacity:1;stroke-dasharray:none"
       d="m 537.67469,171.16376 c 0,0 -173.36532,-26.73424 -251.64951,-24.91997 -75.86042,1.7581 -164.84427,-1.68182 -222.951168,31.19399 -54.1910843,30.66032 -85.250142,85.44937 -78.343476,132.8745 8.7763865,60.26372 68.187344,122.66678 146.367574,152.61683 65.75843,25.19136 151.66621,11.53974 226.82693,5.68981 76.40837,-5.94704 243.09,-50.84827 243.09,-50.84827"
       id="path4452"
       inkscape:connector-curvature="0"
       sodipodi:nodetypes="csssssc" />
    <image
       y="125.91516"
       x="202.51497"
       id="image4299"
       height="31"
       width="41"
       style="opacity:0.91000001" />
    <path
       sodipodi:type="arc"
       style="opacity:0.91000001;fill:#ff0000;fill-opacity:1;stroke:#ff0000;stroke-width:2.48000002;stroke-linecap:round;stroke-linejoin:round;stroke-miterlimit:4;stroke-opacity:1;stroke-dasharray:none"
       id="path4350"
       sodipodi:cx="59.685894"
       sodipodi:cy="155.93326"
       sodipodi:rx="20.148741"
       sodipodi:ry="21.289236"
       d="m 79.834635,155.93326 c 0,11.75772 -9.020899,21.28923 -20.148741,21.28923 -11.127842,0 -20.148741,-9.53151 -20.148741,-21.28923 0,-11.75772 9.020899,-21.28924 20.148741,-21.28924 11.127842,0 20.148741,9.53152 20.148741,21.28924 z"
       transform="matrix(0.94711504,0,0,0.93209102,-35.844082,54.293653)" />
    <path
       sodipodi:type="arc"
       style="opacity:0.91000001;fill:#ff0000;fill-opacity:1;stroke:#ff0000;stroke-width:2.48000002;stroke-linecap:round;stroke-linejoin:round;stroke-miterlimit:4;stroke-opacity:1;stroke-dasharray:none"
       id="path4354"
       sodipodi:cx="49.041275"
       sodipodi:cy="229.68526"
       sodipodi:rx="18.628082"
       sodipodi:ry="19.008247"
       d="m 67.669357,229.68526 c 0,10.49796 -8.340076,19.00824 -18.628082,19.00824 -10.288006,0 -18.628082,-8.51028 -18.628082,-19.00824 0,-10.49797 8.340076,-19.00825 18.628082,-19.00825 10.288006,0 18.628082,8.51028 18.628082,19.00825 z"
       transform="translate(-63.091087,47.158032)" />
    <path
       sodipodi:type="arc"
       style="opacity:0.91000001;fill:#ff0000;fill-opacity:1;stroke:#ff0000;stroke-width:2.48000002;stroke-linecap:round;stroke-linejoin:round;stroke-miterlimit:4;stroke-opacity:1;stroke-dasharray:none"
       id="path4356"
       sodipodi:cx="120.89245"
       sodipodi:cy="84.462257"
       sodipodi:rx="19.768578"
       sodipodi:ry="20.528906"
       d="m 140.66103,84.462257 c 0,11.337802 -8.8507,20.528903 -19.76858,20.528903 -10.91789,0 -19.76858,-9.191101 -19.76858,-20.528903 0,-11.337801 8.85069,-20.528905 19.76858,-20.528905 10.91788,0 19.76858,9.191104 19.76858,20.528905 z"
       transform="translate(-21.435469,73.952369)" />
    <path
       sodipodi:type="arc"
       style="opacity:0.91000001;fill:#ff0000;fill-opacity:1;stroke:#ff0000;stroke-width:2.48000002;stroke-linecap:round;stroke-linejoin:round;stroke-miterlimit:4;stroke-opacity:1;stroke-dasharray:none"
       id="path4360"
       sodipodi:cx="192.36346"
       sodipodi:cy="43.024277"
       sodipodi:rx="19.008247"
       sodipodi:ry="19.388412"
       d="m 211.37171,43.024277 c 0,10.707924 -8.51028,19.388412 -19.00825,19.388412 -10.49796,0 -19.00824,-8.680488 -19.00824,-19.388412 0,-10.707925 8.51028,-19.388413 19.00824,-19.388413 10.49797,0 19.00825,8.680488 19.00825,19.388413 z"
       transform="translate(-9.6459612,99.531385)" />
    <path
       sodipodi:type="arc"
       style="opacity:0.91000001;fill:#ff0000;fill-opacity:1;stroke:#ff0000;stroke-width:2.48000002;stroke-linecap:round;stroke-linejoin:round;stroke-miterlimit:4;stroke-opacity:1;stroke-dasharray:none"
       id="path4362"
       sodipodi:cx="272.95844"
       sodipodi:cy="43.404442"
       sodipodi:rx="19.008247"
       sodipodi:ry="20.528906"
       d="m 291.96668,43.404442 c 0,11.337801 -8.51028,20.528906 -19.00824,20.528906 -10.49797,0 -19.00825,-9.191105 -19.00825,-20.528906 0,-11.337802 8.51028,-20.528906 19.00825,-20.528906 10.49796,0 19.00824,9.191104 19.00824,20.528906 z"
       transform="translate(-7.6459612,97.531385)" />
    <path
       sodipodi:type="arc"
       style="opacity:0.91000001;fill:#ff0000;fill-opacity:1;stroke:#ff0000;stroke-width:2.48000002;stroke-linecap:round;stroke-linejoin:round;stroke-miterlimit:4;stroke-opacity:1;stroke-dasharray:none"
       id="path4364"
       sodipodi:cx="355.45422"
       sodipodi:cy="46.065598"
       sodipodi:rx="19.388412"
       sodipodi:ry="20.148741"
       d="m 374.84264,46.065598 c 0,11.127842 -8.68049,20.14874 -19.38842,20.14874 -10.70792,0 -19.38841,-9.020898 -19.38841,-20.14874 0,-11.127843 8.68049,-20.148741 19.38841,-20.148741 10.70793,0 19.38842,9.020898 19.38842,20.148741 z"
       transform="translate(-9.6459612,97.531385)" />
    <path
       sodipodi:type="arc"
       style="opacity:0.91000001;fill:#ff0000;fill-opacity:1;stroke:#ff0000;stroke-width:2.48000002;stroke-linecap:round;stroke-linejoin:round;stroke-miterlimit:4;stroke-opacity:1;stroke-dasharray:none"
       id="path4366"
       sodipodi:cx="440.99133"
       sodipodi:cy="55.569721"
       sodipodi:rx="19.008247"
       sodipodi:ry="20.528906"
       d="m 459.99958,55.569721 c 0,11.337802 -8.51028,20.528906 -19.00825,20.528906 -10.49796,0 -19.00824,-9.191104 -19.00824,-20.528906 0,-11.337801 8.51028,-20.528906 19.00824,-20.528906 10.49797,0 19.00825,9.191105 19.00825,20.528906 z"
       transform="translate(-13.645961,99.531385)" />
    <path
       sodipodi:type="arc"
       style="opacity:0.91000001;fill:#ff0000;fill-opacity:1;stroke:#ff0000;stroke-width:2.48000002;stroke-linecap:round;stroke-linejoin:round;stroke-miterlimit:4;stroke-opacity:1;stroke-dasharray:none"
       id="path4368"
       sodipodi:cx="518.16479"
       sodipodi:cy="73.817635"
       sodipodi:rx="20.148741"
       sodipodi:ry="20.528906"
       d="m 538.31354,73.817635 c 0,11.337801 -9.0209,20.528905 -20.14875,20.528905 -11.12784,0 -20.14874,-9.191104 -20.14874,-20.528905 0,-11.337802 9.0209,-20.528906 20.14874,-20.528906 11.12785,0 20.14875,9.191104 20.14875,20.528906 z"
       transform="translate(-5.2153204,92.172518)" />
    <path
       sodipodi:type="arc"
       style="opacity:0.91000001;fill:#ff0000;fill-opacity:1;stroke:#ff0000;stroke-width:2.48000002;stroke-linecap:round;stroke-linejoin:round;stroke-miterlimit:4;stroke-opacity:1;stroke-dasharray:none"
       id="path4370"
       sodipodi:cx="458.09875"
       sodipodi:cy="450.18094"
       sodipodi:rx="17.867752"
       sodipodi:ry="19.768578"
       d="m 475.96651,450.18094 c 0,10.91788 -7.99967,19.76858 -17.86776,19.76858 -9.86808,0 -17.86775,-8.8507 -17.86775,-19.76858 0,-10.91789 7.99967,-19.76858 17.86775,-19.76858 9.86809,0 17.86776,8.85069 17.86776,19.76858 z"
       transform="matrix(1.0764976,0,0,0.94528902,-20.351366,19.489346)" />
    <path
       sodipodi:type="arc"
       style="opacity:0.91000001;fill:#ff0000;fill-opacity:1;stroke:#ff0000;stroke-width:2.48000002;stroke-linecap:round;stroke-linejoin:round;stroke-miterlimit:4;stroke-opacity:1;stroke-dasharray:none"
       id="path4372"
       sodipodi:cx="538.31354"
       sodipodi:cy="422.42889"
       sodipodi:rx="19.768578"
       sodipodi:ry="19.388412"
       d="m 558.08212,422.42889 c 0,10.70793 -8.8507,19.38842 -19.76858,19.38842 -10.91789,0 -19.76858,-8.68049 -19.76858,-19.38842 0,-10.70792 8.85069,-19.38841 19.76858,-19.38841 10.91788,0 19.76858,8.68049 19.76858,19.38841 z"
       transform="matrix(0.96382953,0,0,0.96312031,36.710722,18.818718)" />
    <path
       sodipodi:type="arc"
       style="opacity:0.91000001;fill:#ff0000;fill-opacity:1;stroke:#ff0000;stroke-width:2.48000002;stroke-linecap:round;stroke-linejoin:round;stroke-miterlimit:4;stroke-opacity:1;stroke-dasharray:none"
       id="path4374"
       sodipodi:cx="379.4046"
       sodipodi:cy="467.28836"
       sodipodi:rx="18.247917"
       sodipodi:ry="19.388412"
       d="m 397.65252,467.28836 c 0,10.70793 -8.16987,19.38841 -18.24792,19.38841 -10.07804,0 -18.24792,-8.68048 -18.24792,-19.38841 0,-10.70792 8.16988,-19.38841 18.24792,-19.38841 10.07805,0 18.24792,8.68049 18.24792,19.38841 z"
       transform="matrix(1.0756431,0,0,1,-18.079688,-6)" />
    <path
       sodipodi:type="arc"
       style="opacity:0.91000001;fill:#ff0000;fill-opacity:1;stroke:#ff0000;stroke-width:2.48000002;stroke-linecap:round;stroke-linejoin:round;stroke-miterlimit:4;stroke-opacity:1;stroke-dasharray:none"
       id="path4376"
       sodipodi:cx="302.99146"
       sodipodi:cy="483.25528"
       sodipodi:rx="18.628082"
       sodipodi:ry="19.388412"
       d="m 321.61954,483.25528 c 0,10.70792 -8.34008,19.38841 -18.62808,19.38841 -10.28801,0 -18.62809,-8.68049 -18.62809,-19.38841 0,-10.70792 8.34008,-19.38841 18.62809,-19.38841 10.288,0 18.62808,8.68049 18.62808,19.38841 z"
       transform="translate(2,-10)" />
    <path
       sodipodi:type="arc"
       style="opacity:0.91000001;fill:#ff0000;fill-opacity:1;stroke:#ff0000;stroke-width:2.48000002;stroke-linecap:round;stroke-linejoin:round;stroke-miterlimit:4;stroke-opacity:1;stroke-dasharray:none"
       id="path4378"
       sodipodi:cx="220.11549"
       sodipodi:cy="469.18918"
       sodipodi:rx="20.148741"
       sodipodi:ry="20.528906"
       d="m 240.26423,469.18918 c 0,11.3378 -9.02089,20.5289 -20.14874,20.5289 -11.12784,0 -20.14874,-9.1911 -20.14874,-20.5289 0,-11.3378 9.0209,-20.52891 20.14874,-20.52891 11.12785,0 20.14874,9.19111 20.14874,20.52891 z"
       transform="matrix(0.98221639,0,0,0.98254571,2.2946138,18.569528)" />
    <path
       sodipodi:type="arc"
       style="opacity:0.91000001;fill:#ff0000;fill-opacity:1;stroke:#ff0000;stroke-width:2.48000002;stroke-linecap:round;stroke-linejoin:round;stroke-miterlimit:4;stroke-opacity:1;stroke-dasharray:none"
       id="path4380"
       sodipodi:cx="141.42136"
       sodipodi:cy="445.99911"
       sodipodi:rx="19.768578"
       sodipodi:ry="18.628082"
       d="m 161.18993,445.99911 c 0,10.28801 -8.85069,18.62809 -19.76857,18.62809 -10.91789,0 -19.76858,-8.34008 -19.76858,-18.62809 0,-10.288 8.85069,-18.62808 19.76858,-18.62808 10.91788,0 19.76857,8.34008 19.76857,18.62808 z"
       transform="matrix(1,0,0,1.0332831,-6,-0.224225)" />
    <path
       sodipodi:type="arc"
       style="opacity:0.91000001;fill:#ff0000;fill-opacity:1;stroke:#ff0000;stroke-width:2.48000002;stroke-linecap:round;stroke-linejoin:round;stroke-miterlimit:4;stroke-opacity:1;stroke-dasharray:none"
       id="path4382"
       sodipodi:cx="87.05777"
       sodipodi:cy="384.41238"
       sodipodi:rx="19.388412"
       sodipodi:ry="20.148741"
       d="m 106.44618,384.41238 c 0,11.12785 -8.680486,20.14874 -19.38841,20.14874 -10.707925,0 -19.388413,-9.02089 -19.388413,-20.14874 0,-11.12784 8.680488,-20.14874 19.388413,-20.14874 10.707924,0 19.38841,9.0209 19.38841,20.14874 z"
       transform="translate(-27.722563,42.296751)" />
    <path
       sodipodi:type="arc"
       style="opacity:0.91000001;fill:#ff0000;fill-opacity:1;stroke:#ff0000;stroke-width:2.48000002;stroke-linecap:round;stroke-linejoin:round;stroke-miterlimit:4;stroke-opacity:1;stroke-dasharray:none"
       id="path4384"
       sodipodi:cx="50.942101"
       sodipodi:cy="312.18106"
       sodipodi:rx="19.768578"
       sodipodi:ry="19.388412"
       d="m 70.710678,312.18106 c 0,10.70793 -8.850694,19.38841 -19.768577,19.38841 -10.917884,0 -19.768578,-8.68048 -19.768578,-19.38841 0,-10.70792 8.850694,-19.38841 19.768578,-19.38841 10.917883,0 19.768577,8.68049 19.768577,19.38841 z"
       transform="translate(-47.014486,50.5169)" />
    <path
       sodipodi:type="star"
       style="opacity:0.91000001;fill:#0000ff;fill-opacity:1;stroke:#0000ff;stroke-width:2.48000002;stroke-linecap:round;stroke-linejoin:round;stroke-miterlimit:4;stroke-opacity:1;stroke-dasharray:none"
       id="path4402"
       sodipodi:sides="5"
       sodipodi:cx="240.26424"
       sodipodi:cy="123.99941"
       sodipodi:r1="19.473948"
       sodipodi:r2="15.428311"
       sodipodi:arg1="0.89605538"
       sodipodi:arg2="1.5243739"
       inkscape:flatsided="false"
       inkscape:rounded="0"
       inkscape:randomized="0"
       d="m 252.42952,139.20601 -11.44932,0.20509 -11.41902,0.85728 -3.73309,-10.82557 -4.34398,-10.59522 9.14214,-6.89566 8.73428,-7.40549 9.38324,6.56382 9.74208,6.01838 -3.34298,10.95233 z"
       inkscape:transform-center-x="-0.49102554"
       inkscape:transform-center-y="-1.5755081"
       transform="matrix(1.0882257,0.1318217,-0.13223608,1.0916465,59.4318,-26.519645)" />
    <path
       sodipodi:type="star"
       style="opacity:0.91000001;fill:#0000ff;fill-opacity:1;stroke:#0000ff;stroke-width:2.48000002;stroke-linecap:round;stroke-linejoin:round;stroke-miterlimit:4;stroke-opacity:1;stroke-dasharray:none"
       id="path4404"
       sodipodi:sides="5"
       sodipodi:cx="170.31389"
       sodipodi:cy="87.503571"
       sodipodi:r1="22.784538"
       sodipodi:r2="18.05114"
       sodipodi:arg1="0.44872334"
       sodipodi:arg2="1.0770419"
       inkscape:flatsided="false"
       inkscape:rounded="0"
       inkscape:randomized="0"
       d="m 190.8428,97.387859 -11.97384,6.010821 -11.61181,6.68345 -9.41674,-9.53035 -9.9446,-8.978178 6.15397,-11.900898 5.46571,-12.23228 13.22011,2.175191 13.32259,1.418218 2.01651,13.24524 z"
       inkscape:transform-center-x="0.87799303"
       inkscape:transform-center-y="-1.3237258"
       transform="matrix(0.93278643,0.36042957,-0.36042957,0.93278643,13.565637,3.0575138)" />
    <path
       sodipodi:type="star"
       style="opacity:0.91000001;fill:#0000ff;fill-opacity:1;stroke:#0000ff;stroke-width:2.48000002;stroke-linecap:round;stroke-linejoin:round;stroke-miterlimit:4;stroke-opacity:1;stroke-dasharray:none"
       id="path4406"
       sodipodi:sides="5"
       sodipodi:cx="453.91693"
       sodipodi:cy="41.883781"
       sodipodi:r1="21.891691"
       sodipodi:r2="17.343779"
       sodipodi:arg1="1.2160907"
       sodipodi:arg2="1.8444092"
       inkscape:flatsided="false"
       inkscape:rounded="0"
       inkscape:randomized="0"
       d="m 461.52023,62.412688 -12.28979,-3.8303 -12.48811,-3.123659 -0.15492,-12.871913 -0.88826,-12.842162 12.19404,-4.124979 11.93913,-4.813234 7.69126,10.322535 8.26705,9.86742 -7.44059,10.504657 z"
       inkscape:transform-center-x="-1.6446294"
       inkscape:transform-center-y="-0.52048872"
       transform="matrix(1.0334556,-0.03637462,0.03753655,1.0014653,-3.001891,132.99042)" />
    <path
       sodipodi:type="star"
       style="opacity:0.91000001;fill:#0000ff;fill-opacity:1;stroke:#0000ff;stroke-width:2.48000002;stroke-linecap:round;stroke-linejoin:round;stroke-miterlimit:4;stroke-opacity:1;stroke-dasharray:none"
       id="path4408"
       sodipodi:sides="5"
       sodipodi:cx="118.61146"
       sodipodi:cy="240.32988"
       sodipodi:r1="24.754547"
       sodipodi:r2="19.611889"
       sodipodi:arg1="-2.9562447"
       sodipodi:arg2="-2.3279262"
       inkscape:flatsided="false"
       inkscape:rounded="0"
       inkscape:randomized="0"
       d="m 94.280902,235.7679 10.860358,-9.69214 10.29034,-10.29534 12.57382,7.33378 12.97134,6.60526 -3.08932,14.22467 -2.27361,14.37761 -14.48312,1.45755 -14.37651,2.28059 -5.86174,-13.32385 z"
       inkscape:transform-center-x="-0.84922016"
       inkscape:transform-center-y="-1.5415797"
       transform="matrix(0.97132463,0.23775714,-0.23775714,0.97132463,-67.379589,-28.726995)" />
    <path
       sodipodi:type="star"
       style="opacity:0.91000001;fill:#0000ff;fill-opacity:1;stroke:#0000ff;stroke-width:2.48000002;stroke-linecap:round;stroke-linejoin:round;stroke-miterlimit:4;stroke-opacity:1;stroke-dasharray:none"
       id="path4410"
       sodipodi:sides="5"
       sodipodi:cx="131.53706"
       sodipodi:cy="314.84222"
       sodipodi:r1="23.582485"
       sodipodi:r2="18.683319"
       sodipodi:arg1="0.36254424"
       sodipodi:arg2="0.99086277"
       inkscape:flatsided="false"
       inkscape:rounded="0"
       inkscape:randomized="0"
       d="m 153.58663,323.20585 -11.8117,7.26495 -11.37846,7.92631 -10.55939,-8.9886 -11.05451,-8.37219 5.28564,-12.82021 4.5464,-13.10061 13.82609,1.06527 13.86434,0.27557 3.25936,13.47859 z"
       inkscape:transform-center-x="-0.86460849"
       inkscape:transform-center-y="-1.4137201"
       transform="matrix(0.84843315,-0.52930256,0.52930256,0.84843315,-251.49138,199.80545)" />
    <path
       sodipodi:type="star"
       style="opacity:0.91000001;fill:#0000ff;fill-opacity:1;stroke:#0000ff;stroke-width:2.48000002;stroke-linecap:round;stroke-linejoin:round;stroke-miterlimit:4;stroke-opacity:1;stroke-dasharray:none"
       id="path4412"
       sodipodi:sides="5"
       sodipodi:cx="161.95026"
       sodipodi:cy="447.89993"
       sodipodi:r1="22.682821"
       sodipodi:r2="17.970556"
       sodipodi:arg1="0.69044646"
       sodipodi:arg2="1.318765"
       inkscape:flatsided="false"
       inkscape:rounded="0"
       inkscape:randomized="0"
       d="m 179.43784,462.3462 -13.00624,2.95656 -12.8166,3.693 -6.831,-11.45604 -7.4728,-11.04812 8.78444,-10.03678 8.19816,-10.52111 12.2601,5.25297 12.53954,4.54571 -1.2073,13.2833 z"
       inkscape:transform-center-x="1.2362926"
       inkscape:transform-center-y="1.138945"
       transform="matrix(1.0283481,-0.22453526,0.21666892,0.99232105,-86.437653,66.156854)" />
    <path
       sodipodi:type="star"
       style="opacity:0.91000001;fill:#0000ff;fill-opacity:1;stroke:#0000ff;stroke-width:2.48000002;stroke-linecap:round;stroke-linejoin:round;stroke-miterlimit:4;stroke-opacity:1;stroke-dasharray:none"
       id="path4414"
       sodipodi:sides="5"
       sodipodi:cx="338.3468"
       sodipodi:cy="466.90817"
       sodipodi:r1="22.873169"
       sodipodi:r2="18.121361"
       sodipodi:arg1="1.1964627"
       sodipodi:arg2="1.8247812"
       inkscape:flatsided="false"
       inkscape:rounded="0"
       inkscape:randomized="0"
       d="m 346.71043,488.19741 -12.91686,-3.74923 -13.10953,-3.00699 -0.4258,-13.44323 -1.19126,-13.39712 12.6537,-4.55915 12.3733,-5.27289 8.24622,10.62553 8.83837,10.13829 -7.55725,11.12609 z"
       inkscape:transform-center-x="-1.324901"
       inkscape:transform-center-y="0.9621374"
       transform="matrix(1.0152789,0.19746046,-0.19747017,1.0140216,96.204838,-68.605879)" />
    <path
       sodipodi:type="star"
       style="opacity:0.91000001;fill:#0000ff;fill-opacity:1;stroke:#0000ff;stroke-width:2.48000002;stroke-linecap:round;stroke-linejoin:round;stroke-miterlimit:4;stroke-opacity:1;stroke-dasharray:none"
       id="path4438"
       sodipodi:sides="5"
       sodipodi:cx="467.60287"
       sodipodi:cy="414.44543"
       sodipodi:r1="23.619228"
       sodipodi:r2="18.712429"
       sodipodi:arg1="-0.064426839"
       sodipodi:arg2="0.56389169"
       inkscape:flatsided="false"
       inkscape:rounded="0"
       inkscape:randomized="0"
       d="m 491.1731,412.92477 -7.75483,11.52207 -7.08556,11.9453 -13.35451,-3.81476 -13.55022,-3.04747 -0.49871,-13.87973 -1.28893,-13.82874 13.04629,-4.76337 12.75361,-5.49916 8.56177,10.93579 z"
       inkscape:transform-center-x="-1.2887227"
       inkscape:transform-center-y="0.99435455"
       transform="matrix(0.97984998,0.19973491,-0.19973491,0.97984998,139.93693,-58.433982)" />
    <rect
       style="opacity:0.9;fill:#ffff00;fill-rule:evenodd;stroke:#ffff00;stroke-width:1.03177679px;stroke-linecap:butt;stroke-linejoin:miter;stroke-opacity:1"
       id="rect3803"
       width="40.411751"
       height="34.738552"
       x="205.88609"
       y="123.88955"
       transform="matrix(1,-5.0491382e-5,-0.0180696,0.99983673,0,0)" />
    <rect
       transform="matrix(0.99078103,0.13547306,-0.15340385,0.98816358,0,0)"
       y="74.462341"
       x="384.05737"
       height="34.738552"
       width="40.411751"
       id="rect3805"
       style="opacity:0.9;fill:#ffff00;fill-rule:evenodd;stroke:#ffff00;stroke-width:1.03177679px;stroke-linecap:butt;stroke-linejoin:miter;stroke-opacity:1" />
    <rect
       style="opacity:0.9;fill:#ffff00;fill-rule:evenodd;stroke:#ffff00;stroke-width:1.03177679px;stroke-linecap:butt;stroke-linejoin:miter;stroke-opacity:1"
       id="rect3807"
       width="40.411751"
       height="34.738552"
       x="-43.037575"
       y="165.81221"
       transform="matrix(0.89450693,-0.44705409,0.43077215,0.90246072,0,0)" />
    <rect
       transform="matrix(0.27592331,0.96117965,-0.9660216,0.25846135,0,0)"
       y="81.173668"
       x="287.40494"
       height="34.738552"
       width="40.411751"
       id="rect3809"
       style="opacity:0.9;fill:#ffff00;fill-rule:evenodd;stroke:#ffff00;stroke-width:1.03177679px;stroke-linecap:butt;stroke-linejoin:miter;stroke-opacity:1" />
    <rect
       style="opacity:0.9;fill:#ffff00;fill-rule:evenodd;stroke:#ffff00;stroke-width:1.03177679px;stroke-linecap:butt;stroke-linejoin:miter;stroke-opacity:1"
       id="rect3811"
       width="40.411751"
       height="34.738552"
       x="258.38315"
       y="349.44437"
       transform="matrix(0.91166959,0.41092403,-0.42737609,0.90407393,0,0)" />
    <rect
       transform="matrix(0.99767099,-0.06820988,0.0501208,0.99874316,0,0)"
       y="477.16669"
       x="216.6107"
       height="34.738552"
       width="40.411751"
       id="rect3813"
       style="opacity:0.9;fill:#ffff00;fill-rule:evenodd;stroke:#ffff00;stroke-width:1.03177679px;stroke-linecap:butt;stroke-linejoin:miter;stroke-opacity:1" />
    <rect
       style="opacity:0.9;fill:#ffff00;fill-rule:evenodd;stroke:#ffff00;stroke-width:1.03177679px;stroke-linecap:butt;stroke-linejoin:miter;stroke-opacity:1"
       id="rect3815"
       width="40.411751"
       height="34.738552"
       x="340.85547"
       y="500.87341"
       transform="matrix(0.98643353,-0.16416115,0.14625994,0.98924619,0,0)" />
    <rect
       transform="matrix(0.95773366,-0.28765644,0.270255,0.96278878,0,0)"
       y="552.05389"
       x="444.11334"
       height="34.738552"
       width="40.411751"
       id="rect3817"
       style="opacity:0.9;fill:#ffff00;fill-rule:evenodd;stroke:#ffff00;stroke-width:1.03177679px;stroke-linecap:butt;stroke-linejoin:miter;stroke-opacity:1" />
  </g>
</svg>
