<?xml version="1.0" encoding="UTF-8" standalone="no"?>
<!-- Created with Inkscape (http://www.inkscape.org/) -->

<svg
   xmlns:dc="http://purl.org/dc/elements/1.1/"
   xmlns:cc="http://creativecommons.org/ns#"
   xmlns:rdf="http://www.w3.org/1999/02/22-rdf-syntax-ns#"
   xmlns:svg="http://www.w3.org/2000/svg"
   xmlns="http://www.w3.org/2000/svg"
   xmlns:sodipodi="http://sodipodi.sourceforge.net/DTD/sodipodi-0.dtd"
   xmlns:inkscape="http://www.inkscape.org/namespaces/inkscape"
   width="77.325455"
   height="96.819504"
   id="svg3470"
   version="1.1"
   inkscape:version="0.48.4 r9939"
   sodipodi:docname="beaver_2.svg">
  <defs
     id="defs3472" />
  <sodipodi:namedview
     id="base"
     pagecolor="#ffffff"
     bordercolor="#666666"
     borderopacity="1.0"
     inkscape:pageopacity="0.0"
     inkscape:pageshadow="2"
     inkscape:zoom="7.23"
     inkscape:cx="133.73723"
     inkscape:cy="37.983279"
     inkscape:document-units="px"
     inkscape:current-layer="layer1"
     showgrid="false"
     inkscape:snap-page="true"
     inkscape:window-width="1366"
     inkscape:window-height="705"
     inkscape:window-x="-8"
     inkscape:window-y="-8"
     inkscape:window-maximized="1"
     fit-margin-top="0"
     fit-margin-left="0"
     fit-margin-right="0"
     fit-margin-bottom="0" />
  <metadata
     id="metadata3475">
    <rdf:RDF>
      <cc:Work
         rdf:about="">
        <dc:format>image/svg+xml</dc:format>
        <dc:type
           rdf:resource="http://purl.org/dc/dcmitype/StillImage" />
        <dc:title />
      </cc:Work>
    </rdf:RDF>
  </metadata>
  <g
     inkscape:label="Layer 1"
     inkscape:groupmode="layer"
     id="layer1"
     transform="translate(-1.1497107,-8.2531524)">
    <path
       style="fill:#ffffff;fill-opacity:1;stroke:#000000;stroke-width:0.80000001;stroke-linecap:butt;stroke-linejoin:miter;stroke-miterlimit:4;stroke-opacity:1;stroke-dasharray:none;display:inline"
       d="m 68.437229,74.044032 -0.68748,1.85428 c 0,0 1.43433,3.16627 2.29871,3.08472 0.86442,-0.0816 -0.40629,-4.48141 -0.40629,-4.48141 z"
       id="path6635-8"
       inkscape:connector-curvature="0"
       sodipodi:nodetypes="ccscc"
       inkscape:transform-center-x="-1.3143511"
       inkscape:transform-center-y="7.7124871" />
    <path
       style="fill:#ffffff;fill-opacity:1;stroke:#000000;stroke-width:0.80000001;stroke-linecap:butt;stroke-linejoin:miter;stroke-miterlimit:4;stroke-opacity:1;stroke-dasharray:none;display:inline"
       d="m 70.486099,74.355192 0.0258,1.87058 c 0,0 2.62013,2.50757 3.44285,2.20572 0.82272,-0.30182 -2.10469,-3.97651 -2.10469,-3.97651 z"
       id="path6637-4"
       inkscape:connector-curvature="0"
       sodipodi:nodetypes="ccscc"
       inkscape:transform-center-x="4.9082785"
       inkscape:transform-center-y="7.3341767" />
    <path
       style="fill:#ffffff;fill-opacity:1;stroke:#000000;stroke-width:0.80000001;stroke-linecap:butt;stroke-linejoin:miter;stroke-miterlimit:4;stroke-opacity:1;stroke-dasharray:none;display:inline"
       d="m 72.963499,71.290862 0.77014,1.68451 c 0,0 3.57755,1.54536 4.26731,1.04559 0.68972,-0.4998 -3.65499,-3.0159 -3.65499,-3.0159 z"
       id="path6639-9"
       inkscape:connector-curvature="0"
       sodipodi:nodetypes="ccscc"
       inkscape:transform-center-x="10.930645"
       inkscape:transform-center-y="-0.31509872" />
    <path
       style="fill:#ffffff;fill-opacity:1;stroke:#000000;stroke-width:0.80000001;stroke-linecap:butt;stroke-linejoin:miter;stroke-miterlimit:4;stroke-opacity:1;stroke-dasharray:none;display:inline"
       d="m 71.897869,73.470652 0.74775,1.69332 c 0,0 3.55322,1.57864 4.24839,1.08431 0.69513,-0.49434 -3.6119,-3.05166 -3.6119,-3.05166 z"
       id="path6641-6"
       inkscape:connector-curvature="0"
       sodipodi:nodetypes="ccscc"
       inkscape:transform-center-x="8.9601145"
       inkscape:transform-center-y="4.0146707" />
    <path
       style="fill:#e58f56;fill-opacity:1;stroke:#000000;stroke-width:1.29999995;stroke-linecap:butt;stroke-linejoin:miter;stroke-miterlimit:4;stroke-opacity:1;stroke-dasharray:none;display:inline"
       d="m 70.007699,76.972882 c 3.69104,0.36136 7.64883,-5.99989 -0.53308,-10.693937 -1.40346,-6.854915 1.07586,-12.414578 -8.99668,-14.659468 -7.52992,-0.223593 -5.30074,13.106439 -5.30074,13.106439 1.80886,5.712706 7.94217,11.278676 14.8305,12.246966 z"
       id="path6643-3"
       inkscape:connector-curvature="0"
       sodipodi:nodetypes="ccccc" />
    <path
       sodipodi:nodetypes="ccsssc"
       inkscape:connector-curvature="0"
       id="path6645-23"
       d="m 55.605349,71.485492 c 0,0 13.97086,5.71576 8.76748,17.51388 0,0 7.31352,1.25414 7.94148,6.03555 0.90226,6.869928 -8.84115,5.742748 -16.24692,4.77415 -5.59825,-0.73218 -2.88265,-8.50886 -4.43743,-10.36488 -4.53743,-5.41662 -4.08294,-17.84163 3.97539,-17.9587 z"
       style="fill:#e58f56;fill-opacity:1;stroke:#000000;stroke-width:1.29999995;stroke-linecap:butt;stroke-linejoin:miter;stroke-miterlimit:4;stroke-opacity:1;stroke-dasharray:none;display:inline" />
    <path
       style="fill:#e58f56;fill-opacity:1;stroke:#000000;stroke-width:1.29999995;stroke-linecap:butt;stroke-linejoin:miter;stroke-miterlimit:4;stroke-opacity:1;stroke-dasharray:none;display:inline"
       d="m 39.685479,94.510732 c 0,0 -55.865484,-31.079341 -31.91912,-57.797885 17.81627,-19.878793 30.25263,29.268862 30.14615,32.31026 -0.4391,12.541515 1.77297,25.487625 1.77297,25.487625 z"
       id="path6647-6"
       inkscape:connector-curvature="0"
       sodipodi:nodetypes="cssc" />
    <path
       sodipodi:nodetypes="ccccc"
       inkscape:connector-curvature="0"
       id="path6649-9"
       d="m 39.870019,48.290053 c 0,0 -10.57029,10.170121 -6.68032,30.636399 1.27754,3.65289 8.03708,17.00638 15.94158,10.7484 26.29017,-0.038 19.32182,-35.765505 10.94853,-42.112496 -15.29656,-25.719306 -20.20979,0.727698 -20.20979,0.727698 z"
       style="fill:#e58f56;fill-opacity:1;stroke:#000000;stroke-width:1.29999995;stroke-linecap:butt;stroke-linejoin:miter;stroke-miterlimit:4;stroke-opacity:1;stroke-dasharray:none;display:inline" />
    <path
       sodipodi:nodetypes="ccsssc"
       inkscape:connector-curvature="0"
       id="path6687-5"
       d="m 53.062929,85.927912 c 0,0 2.00836,1.56396 -1.45453,6.06323 0,0 9.00905,3.98343 7.24186,9.017008 -1.78021,5.07076 -9.68949,4.36119 -21.79991,-1.248318 -5.5841,-2.58652 -4.82238,-7.99786 -2.23865,-10.77693 1.97753,-2.12703 -1.21394,-5.84809 -1.72376,-11.4507"
       style="fill:#e58f56;fill-opacity:1;stroke:#000000;stroke-width:1.29999995;stroke-linecap:round;stroke-linejoin:round;stroke-miterlimit:4;stroke-opacity:1;stroke-dasharray:none;display:inline" />
    <path
       style="fill:#ffad76;fill-opacity:1;stroke:none;display:inline"
       d="m 42.859569,42.74064 c 0,0 0.1713,31.932842 6.52029,38.841172 3.58584,3.90176 10.9601,2.36039 12.9144,1.42693 3.53684,-1.68939 3.86291,-7.43834 3.86291,-7.43834 0,0 4.91778,-14.985691 -9.26769,-34.355265 -16.18102,-22.094403 -14.02991,1.525503 -14.02991,1.525503 z"
       id="path6651-4"
       inkscape:connector-curvature="0"
       sodipodi:nodetypes="csscsc" />
    <path
       style="fill:#e58f56;fill-opacity:1;stroke:#000000;stroke-width:1.29999995;stroke-linecap:round;stroke-linejoin:round;stroke-miterlimit:4;stroke-opacity:1;stroke-dasharray:none;display:inline"
       d="m 57.940729,18.668298 c 0,0 1.34134,-13.7185038 -5.12933,-8.380084 -1.8386,1.516868 1.26913,8.103757 1.26913,8.103757 z"
       id="path6653-2"
       inkscape:connector-curvature="0"
       sodipodi:nodetypes="cscc" />
    <path
       style="fill:#e58f56;fill-opacity:1;stroke:#000000;stroke-width:1.29999995;stroke-linecap:round;stroke-linejoin:round;stroke-miterlimit:4;stroke-opacity:1;stroke-dasharray:none;display:inline"
       d="m 67.306259,34.855019 c 0,0 3.01553,-19.214431 -17.03535,-18.925588 -10.21056,0.147077 -17.87949,5.136599 -17.45982,17.78285 0,0 -8.42463,14.818058 9.41132,21.564425 0,0 10.2337,2.694904 21.10606,-0.437779 0,0 16.87716,-5.992202 3.97779,-19.983908 z"
       id="path6655-17"
       inkscape:connector-curvature="0"
       sodipodi:nodetypes="cscccc" />
    <path
       style="fill:#000000;stroke:#000000;stroke-width:1.29999995;stroke-linecap:round;stroke-linejoin:round;stroke-miterlimit:4;stroke-opacity:1;stroke-dasharray:none;display:inline"
       d="m 59.724099,27.143688 c 0,0 -1.94993,-1.007814 -2.08523,1.833883 -0.0901,1.887182 0.111,3.184498 1.91259,3.104685 1.78509,-0.07903 1.40257,-2.834715 1.40257,-2.834715 0,0 -0.20998,-2.103853 -1.22993,-2.103853 z"
       id="path6657-1"
       inkscape:connector-curvature="0"
       sodipodi:nodetypes="csscc" />
    <path
       sodipodi:nodetypes="cc"
       inkscape:connector-curvature="0"
       id="path6659-9"
       d="m 71.519029,43.273866 c 0,0 -9.72235,11.860563 -17.77083,-1.958839"
       style="fill:#ffad76;fill-opacity:1;stroke:#000000;stroke-width:1.29999995;stroke-linecap:round;stroke-linejoin:round;stroke-miterlimit:4;stroke-opacity:1;stroke-dasharray:none;display:inline" />
    <path
       style="fill:#ffad76;fill-opacity:1;stroke:none;display:inline"
       d="m 54.576799,41.481622 c 0,0 -2.56915,-8.132401 7.75935,-7.063939 0,0 6.65937,1.658966 7.88241,4.854178 2.13886,5.58813 2.67115,4.288166 2.67115,4.288166"
       id="path6661-4"
       inkscape:connector-curvature="0"
       sodipodi:nodetypes="ccsc" />
    <path
       style="fill:none;stroke:#000000;stroke-width:1.29999995;stroke-linecap:round;stroke-linejoin:round;stroke-miterlimit:4;stroke-opacity:1;stroke-dasharray:none;display:inline"
       d="m 59.864759,37.685867 c 0,0 -10.31741,-5.068875 -20.29324,-7.152164"
       id="path6663-7"
       inkscape:connector-curvature="0" />
    <path
       style="fill:none;stroke:#000000;stroke-width:1.29999995;stroke-linecap:round;stroke-linejoin:round;stroke-miterlimit:4;stroke-opacity:1;stroke-dasharray:none;display:inline"
       d="m 59.492259,39.801082 c 0,0 -19.79272,-1.480053 -20.4587,-1.143545"
       id="path6665-6"
       inkscape:connector-curvature="0" />
    <path
       style="fill:none;stroke:#000000;stroke-width:1.29999995;stroke-linecap:round;stroke-linejoin:round;stroke-miterlimit:4;stroke-opacity:1;stroke-dasharray:none;display:inline"
       d="m 59.269329,42.479918 -19.25549,4.512179"
       id="path6667-6"
       inkscape:connector-curvature="0" />
    <path
       style="fill:#e58f56;fill-opacity:1;stroke:#000000;stroke-width:1.29999995;stroke-linecap:round;stroke-linejoin:round;stroke-miterlimit:4;stroke-opacity:1;stroke-dasharray:none;display:inline"
       d="m 51.470999,16.694416 c 0,0 -2.89537,-12.2895188 -8.48792,-5.999144 -1.58909,1.787363 2.5436,6.823513 2.5436,6.823513"
       id="path6673-3"
       inkscape:connector-curvature="0"
       sodipodi:nodetypes="csc" />
    <path
       style="fill:#ffffff;fill-opacity:1;stroke:#000000;stroke-width:0.80000001;stroke-linecap:butt;stroke-linejoin:miter;stroke-miterlimit:4;stroke-opacity:1;stroke-dasharray:none;display:inline"
       d="m 43.135759,76.561722 -0.88786,1.76712 c 0,0 1.07624,3.30518 1.94435,3.31949 0.86814,0.0143 0.0906,-4.49888 0.0906,-4.49888 z"
       id="path6677-4"
       inkscape:connector-curvature="0"
       sodipodi:nodetypes="ccscc"
       inkscape:transform-center-x="-1.3143528"
       inkscape:transform-center-y="7.7124865" />
    <path
       style="fill:#ffffff;fill-opacity:1;stroke:#000000;stroke-width:0.80000001;stroke-linecap:butt;stroke-linejoin:miter;stroke-miterlimit:4;stroke-opacity:1;stroke-dasharray:none;display:inline"
       d="m 45.137789,77.097032 -0.18073,1.86201 c 0,0 2.32748,2.78133 3.17847,2.57209 0.851,-0.20922 -1.65312,-4.18444 -1.65312,-4.18444 z"
       id="path6679-7"
       inkscape:connector-curvature="0"
       sodipodi:nodetypes="ccscc"
       inkscape:transform-center-x="4.9082637"
       inkscape:transform-center-y="7.3341765" />
    <path
       style="fill:#ffffff;fill-opacity:1;stroke:#000000;stroke-width:0.80000001;stroke-linecap:butt;stroke-linejoin:miter;stroke-miterlimit:4;stroke-opacity:1;stroke-dasharray:none;display:inline"
       d="m 47.938149,74.324732 0.57959,1.7592 c 0,0 3.38522,1.93061 4.12589,1.50999 0.74066,-0.42065 -3.29994,-3.40073 -3.29994,-3.40073 z"
       id="path6681-0"
       inkscape:connector-curvature="0"
       sodipodi:nodetypes="ccscc"
       inkscape:transform-center-x="10.930644"
       inkscape:transform-center-y="-0.3150991" />
    <path
       style="fill:#ffffff;fill-opacity:1;stroke:#000000;stroke-width:0.80000001;stroke-linecap:butt;stroke-linejoin:miter;stroke-miterlimit:4;stroke-opacity:1;stroke-dasharray:none;display:inline"
       d="m 46.638529,76.373642 0.55637,1.76548 c 0,0 3.35736,1.96102 4.10282,1.54641 0.74543,-0.41464 -3.25317,-3.43153 -3.25317,-3.43153 z"
       id="path6683-7"
       inkscape:connector-curvature="0"
       sodipodi:nodetypes="ccscc"
       inkscape:transform-center-x="8.9601119"
       inkscape:transform-center-y="4.01467" />
    <path
       style="fill:#e58f56;fill-opacity:1;stroke:#000000;stroke-width:1.29999995;stroke-linecap:butt;stroke-linejoin:miter;stroke-miterlimit:4;stroke-opacity:1;stroke-dasharray:none;display:inline"
       d="m 44.373509,79.645962 c 3.62864,0.76637 8.26409,-5.11939 0.65,-10.687469 -0.63862,-6.967908 2.43895,-12.220097 -7.32444,-15.562554 -7.45927,-1.052979 -6.71436,12.441618 -6.71436,12.441618 1.16755,5.877395 6.64935,12.086055 13.3888,13.808405 z"
       id="path6685-0"
       inkscape:connector-curvature="0"
       sodipodi:nodetypes="ccccc" />
    <path
       style="fill:#ff0000;stroke:#000000;stroke-width:1.38993633;stroke-linecap:butt;stroke-linejoin:miter;stroke-miterlimit:4;stroke-opacity:1;stroke-dasharray:none;display:inline"
       d="m 46.060999,17.626828 c 0,0 9.60584,-1.039163 9.02491,2.15575 -0.58081,3.194827 -3.84502,11.654868 -6.7414,8.433382 -2.89639,-3.221498 -4.39122,-7.823238 -2.28352,-10.589079 z"
       id="path7926-7-0-6-9-0"
       inkscape:connector-curvature="0" />
    <path
       style="fill:#ff0000;fill-opacity:1;stroke:#000000;stroke-width:1.38993633;stroke-linecap:butt;stroke-linejoin:miter;stroke-miterlimit:4;stroke-opacity:1;stroke-dasharray:none;display:inline"
       d="m 43.372679,17.203504 c 0,0 -4.80422,-8.3828318 -7.0478,-6.035305 -2.24357,2.347487 -7.17041,9.960201 -2.86179,10.410508 4.30863,0.45038 8.91036,-1.044461 9.90959,-4.375203 z"
       id="path7926-1-2-1-8"
       inkscape:connector-curvature="0" />
    <path
       sodipodi:type="arc"
       style="fill:#ff0000;fill-opacity:1;stroke:#000000;stroke-width:1.11721599;stroke-miterlimit:4;stroke-opacity:1;stroke-dasharray:none;display:inline"
       id="path7928-2-9-3-8"
       sodipodi:cx="312.75"
       sodipodi:cy="36.969482"
       sodipodi:rx="2.75"
       sodipodi:ry="2.875"
       d="m 315.5,36.969482 c 0,1.587819 -1.23122,2.875 -2.75,2.875 -1.51878,0 -2.75,-1.287181 -2.75,-2.875 0,-1.587818 1.23122,-2.875 2.75,-2.875 1.51878,0 2.75,1.287182 2.75,2.875 z"
       transform="matrix(1.1084653,0.5648955,-0.5648955,1.1084653,-282.36134,-198.49916)" />
    <path
       style="fill:#000000;fill-opacity:1;stroke:#000000;stroke-width:0.10479242px;stroke-linecap:butt;stroke-linejoin:miter;stroke-opacity:1"
       d="m 67.849472,36.827066 c 0.0246,3.645173 2.49871,6.400586 4.4523,6.463481 0.91589,-2.426655 2.39833,-4.595818 0.56598,-7.227347 -1.38038,-1.061867 -3.53989,-0.158501 -5.01828,0.763866 z"
       id="path3015"
       inkscape:connector-curvature="0"
       sodipodi:nodetypes="cccc" />
  </g>
</svg>
