<?xml version="1.0" encoding="UTF-8" standalone="no"?>
<!-- Created with Inkscape (http://www.inkscape.org/) -->

<svg
   xmlns:dc="http://purl.org/dc/elements/1.1/"
   xmlns:cc="http://creativecommons.org/ns#"
   xmlns:rdf="http://www.w3.org/1999/02/22-rdf-syntax-ns#"
   xmlns:svg="http://www.w3.org/2000/svg"
   xmlns="http://www.w3.org/2000/svg"
   xmlns:sodipodi="http://sodipodi.sourceforge.net/DTD/sodipodi-0.dtd"
   xmlns:inkscape="http://www.inkscape.org/namespaces/inkscape"
   width="60.500584"
   height="75.49295"
   id="svg3470"
   version="1.1"
   inkscape:version="0.48.4 r9939"
   sodipodi:docname="beaver_4.svg">
  <defs
     id="defs3472" />
  <sodipodi:namedview
     id="base"
     pagecolor="#ffffff"
     bordercolor="#666666"
     borderopacity="1.0"
     inkscape:pageopacity="0.0"
     inkscape:pageshadow="2"
     inkscape:zoom="1.6880432"
     inkscape:cx="54.304238"
     inkscape:cy="50.775045"
     inkscape:document-units="px"
     inkscape:current-layer="layer1"
     showgrid="false"
     inkscape:snap-page="true"
     inkscape:window-width="1366"
     inkscape:window-height="705"
     inkscape:window-x="-8"
     inkscape:window-y="-8"
     inkscape:window-maximized="1"
     fit-margin-top="0"
     fit-margin-left="0"
     fit-margin-right="0"
     fit-margin-bottom="0" />
  <metadata
     id="metadata3475">
    <rdf:RDF>
      <cc:Work
         rdf:about="">
        <dc:format>image/svg+xml</dc:format>
        <dc:type
           rdf:resource="http://purl.org/dc/dcmitype/StillImage" />
        <dc:title />
      </cc:Work>
    </rdf:RDF>
  </metadata>
  <g
     inkscape:label="Layer 1"
     inkscape:groupmode="layer"
     id="layer1"
     transform="translate(-3.7562497,-30.1495)">
    <path
       style="fill:#ffffff;fill-opacity:1;stroke:#000000;stroke-width:0.60000002;stroke-linecap:butt;stroke-linejoin:miter;stroke-miterlimit:4;stroke-opacity:1;stroke-dasharray:none;display:inline"
       d="m 56.46066,81.41462 -0.53471,1.44223 c 0,0 1.11559,2.46265 1.78789,2.39922 0.67232,-0.0634 -0.31601,-3.48554 -0.31601,-3.48554 z"
       id="path6635-5"
       inkscape:connector-curvature="0"
       sodipodi:nodetypes="ccscc"
       inkscape:transform-center-x="-1.0222698"
       inkscape:transform-center-y="5.9985998" />
    <path
       style="fill:#ffffff;fill-opacity:1;stroke:#000000;stroke-width:0.60000002;stroke-linecap:butt;stroke-linejoin:miter;stroke-miterlimit:4;stroke-opacity:1;stroke-dasharray:none;display:inline"
       d="m 58.05422,81.65664 0.0201,1.4549 c 0,0 2.03789,1.95033 2.67778,1.71556 0.63989,-0.23476 -1.63698,-3.09284 -1.63698,-3.09284 z"
       id="path6637-5"
       inkscape:connector-curvature="0"
       sodipodi:nodetypes="ccscc"
       inkscape:transform-center-x="3.8175356"
       inkscape:transform-center-y="5.7043611" />
    <path
       style="fill:#ffffff;fill-opacity:1;stroke:#000000;stroke-width:0.60000002;stroke-linecap:butt;stroke-linejoin:miter;stroke-miterlimit:4;stroke-opacity:1;stroke-dasharray:none;display:inline"
       d="m 59.98109,79.27327 0.599,1.31018 c 0,0 2.78254,1.20194 3.31902,0.81323 0.53645,-0.38873 -2.84277,-2.34569 -2.84277,-2.34569 z"
       id="path6639-1"
       inkscape:connector-curvature="0"
       sodipodi:nodetypes="ccscc"
       inkscape:transform-center-x="8.5016135"
       inkscape:transform-center-y="-0.24507759" />
    <path
       style="fill:#ffffff;fill-opacity:1;stroke:#000000;stroke-width:0.60000002;stroke-linecap:butt;stroke-linejoin:miter;stroke-miterlimit:4;stroke-opacity:1;stroke-dasharray:none;display:inline"
       d="m 59.15227,80.96866 0.58158,1.31704 c 0,0 2.76362,1.22782 3.3043,0.84335 0.54066,-0.3845 -2.80925,-2.37352 -2.80925,-2.37352 z"
       id="path6641-4"
       inkscape:connector-curvature="0"
       sodipodi:nodetypes="ccscc"
       inkscape:transform-center-x="6.96898"
       inkscape:transform-center-y="3.1225204" />
    <path
       style="fill:#e58f56;fill-opacity:1;stroke:#000000;stroke-width:1;stroke-linecap:butt;stroke-linejoin:miter;stroke-miterlimit:4;stroke-opacity:1;stroke-dasharray:none;display:inline"
       d="m 57.68214,83.69263 c 2.8708,0.28105 5.94909,-4.66659 -0.41462,-8.31752 -1.09158,-5.33159 0.83678,-9.65577 -6.99742,-11.4018 -5.8566,-0.17391 -4.1228,10.19389 -4.1228,10.19389 1.4069,4.44322 6.17725,8.7723 11.53484,9.52543 z"
       id="path6643-06"
       inkscape:connector-curvature="0"
       sodipodi:nodetypes="ccccc" />
    <path
       sodipodi:nodetypes="ccsssc"
       inkscape:connector-curvature="0"
       id="path6645-3"
       d="m 46.48031,79.42466 c 0,0 10.86622,4.44558 6.81915,13.6219 0,0 5.68829,0.97544 6.17671,4.69432 0.70176,5.34327 -6.87645,4.46658 -12.6365,3.71322 -4.35419,-0.56947 -2.24206,-6.618 -3.45133,-8.06157 -3.52911,-4.21293 -3.17562,-13.87682 3.09197,-13.96787 z"
       style="fill:#e58f56;fill-opacity:1;stroke:#000000;stroke-width:1.20000005;stroke-linecap:butt;stroke-linejoin:miter;stroke-miterlimit:4;stroke-opacity:1;stroke-dasharray:none;display:inline" />
    <path
       style="fill:#e58f56;fill-opacity:1;stroke:#000000;stroke-width:1.20000005;stroke-linecap:butt;stroke-linejoin:miter;stroke-miterlimit:4;stroke-opacity:1;stroke-dasharray:none;display:inline"
       d="m 34.09819,97.33317 c 0,0 -44.213326,-24.88221 -24.825986,-44.953909 C 23.24041,37.917978 32.80203,75.14393 32.71921,77.50946 c -0.34152,9.75452 1.37898,19.82371 1.37898,19.82371 z"
       id="path6647-8"
       inkscape:connector-curvature="0"
       sodipodi:nodetypes="cssc" />
    <path
       sodipodi:nodetypes="ccccc"
       inkscape:connector-curvature="0"
       id="path6649-6"
       d="m 34.24172,61.383754 c 0,0 -8.22134,7.910096 -5.1958,23.828316 0.99364,2.84112 6.25106,13.22718 12.399,8.35986 C 61.89283,93.54243 56.473,65.75431 49.96045,60.817768 38.06312,40.813862 34.24172,61.383755 34.24172,61.383755 z"
       style="fill:#e58f56;fill-opacity:1;stroke:#000000;stroke-width:1.20000005;stroke-linecap:butt;stroke-linejoin:miter;stroke-miterlimit:4;stroke-opacity:1;stroke-dasharray:none;display:inline" />
    <path
       sodipodi:nodetypes="ccsssc"
       inkscape:connector-curvature="0"
       id="path6687-39"
       d="m 44.50287,90.65765 c 0,0 1.56206,1.2164 -1.1313,4.71583 0,0 7.00704,3.09823 5.63256,7.01324 -1.38461,3.94393 -7.53627,3.39204 -16.95549,-0.97091 -4.34319,-2.01174 -3.75074,-6.22057 -1.74117,-8.38206 1.53808,-1.65437 -0.94417,-4.54852 -1.3407,-8.9061"
       style="fill:#e58f56;fill-opacity:1;stroke:#000000;stroke-width:1.20000005;stroke-linecap:round;stroke-linejoin:round;stroke-miterlimit:4;stroke-opacity:1;stroke-dasharray:none;display:inline" />
    <path
       style="fill:#ffad76;fill-opacity:1;stroke:none;display:inline"
       d="m 36.56693,57.067545 c 0,0 0.13323,24.836655 5.07133,30.209805 2.78899,3.0347 8.52452,1.83585 10.04454,1.10983 2.75087,-1.31397 3.00448,-5.78538 3.00448,-5.78538 0,0 3.82494,-11.65554 -7.2082,-26.720758 -12.58524,-17.184536 -10.91215,1.186503 -10.91215,1.186503 z"
       id="path6651-3"
       inkscape:connector-curvature="0"
       sodipodi:nodetypes="csscsc" />
    <path
       style="fill:#e58f56;fill-opacity:1;stroke:#000000;stroke-width:1.20000005;stroke-linecap:round;stroke-linejoin:round;stroke-miterlimit:4;stroke-opacity:1;stroke-dasharray:none;display:inline"
       d="m 48.29671,38.344612 c 0,0 1.04327,-10.669946 -3.98947,-6.517842 -1.43002,1.179786 0.9871,6.302921 0.9871,6.302921 z"
       id="path6653-6"
       inkscape:connector-curvature="0"
       sodipodi:nodetypes="cscc" />
    <path
       style="fill:#e58f56;fill-opacity:1;stroke:#000000;stroke-width:1.20000005;stroke-linecap:round;stroke-linejoin:round;stroke-miterlimit:4;stroke-opacity:1;stroke-dasharray:none;display:inline"
       d="m 55.58102,50.934283 c 0,0 2.34541,-14.944556 -13.24972,-14.719901 -7.94155,0.114394 -13.90627,3.995132 -13.57986,13.831104 0,0 -6.55249,11.525157 7.31991,16.772334 0,0 7.95955,2.09604 16.41583,-0.3405 0,0 13.12668,-4.660599 3.09384,-15.543037 z"
       id="path6655-8"
       inkscape:connector-curvature="0"
       sodipodi:nodetypes="cscccc" />
    <path
       style="fill:#000000;stroke:#000000;stroke-width:1;stroke-linecap:round;stroke-linejoin:round;stroke-miterlimit:4;stroke-opacity:1;stroke-dasharray:none;display:inline"
       d="m 49.68378,44.936581 c 0,0 -1.51661,-0.783855 -1.62185,1.426353 -0.0701,1.467809 0.0863,2.476832 1.48757,2.414755 1.38841,-0.06147 1.09089,-2.204778 1.09089,-2.204778 0,0 -0.16332,-1.63633 -0.95661,-1.63633 z"
       id="path6657-19"
       inkscape:connector-curvature="0"
       sodipodi:nodetypes="csscc" />
    <path
       sodipodi:nodetypes="cc"
       inkscape:connector-curvature="0"
       id="path6659-91"
       d="m 58.85761,57.482276 c 0,0 -7.56182,9.224884 -13.82175,-1.523542"
       style="fill:#ffad76;fill-opacity:1;stroke:#000000;stroke-width:1.20000005;stroke-linecap:round;stroke-linejoin:round;stroke-miterlimit:4;stroke-opacity:1;stroke-dasharray:none;display:inline" />
    <path
       style="fill:#ffad76;fill-opacity:1;stroke:none;display:inline"
       d="m 45.68032,56.088308 c 0,0 -1.99822,-6.325201 6.03505,-5.494176 0,0 5.17951,1.290308 6.13077,3.775473 1.66356,4.346323 2.07756,3.335241 2.07756,3.335241"
       id="path6661-5"
       inkscape:connector-curvature="0"
       sodipodi:nodetypes="ccsc" />
    <path
       style="fill:none;stroke:#000000;stroke-width:1.20000005;stroke-linecap:round;stroke-linejoin:round;stroke-miterlimit:4;stroke-opacity:1;stroke-dasharray:none;display:inline"
       d="m 49.79318,53.136054 c 0,0 -8.02465,-3.942459 -15.78363,-5.562795"
       id="path6663-3"
       inkscape:connector-curvature="0" />
    <path
       style="fill:none;stroke:#000000;stroke-width:1.20000005;stroke-linecap:round;stroke-linejoin:round;stroke-miterlimit:4;stroke-opacity:1;stroke-dasharray:none;display:inline"
       d="m 49.50346,54.781221 c 0,0 -15.39434,-1.151152 -15.91232,-0.889424"
       id="path6665-8"
       inkscape:connector-curvature="0" />
    <path
       style="fill:none;stroke:#000000;stroke-width:1.20000005;stroke-linecap:round;stroke-linejoin:round;stroke-miterlimit:4;stroke-opacity:1;stroke-dasharray:none;display:inline"
       d="M 49.33007,56.86476 34.35358,60.374233"
       id="path6667-2"
       inkscape:connector-curvature="0" />
    <path
       style="fill:#e58f56;fill-opacity:1;stroke:#000000;stroke-width:1.20000005;stroke-linecap:round;stroke-linejoin:round;stroke-miterlimit:4;stroke-opacity:1;stroke-dasharray:none;display:inline"
       d="m 43.2647,36.809371 c 0,0 -2.25195,-9.558514 -6.60171,-4.666 -1.23596,1.390171 1.97835,5.307176 1.97835,5.307176"
       id="path6673-1"
       inkscape:connector-curvature="0"
       sodipodi:nodetypes="csc" />
    <path
       style="fill:#ffffff;fill-opacity:1;stroke:#000000;stroke-width:0.60000002;stroke-linecap:butt;stroke-linejoin:miter;stroke-miterlimit:4;stroke-opacity:1;stroke-dasharray:none;display:inline"
       d="m 36.78174,83.37283 -0.69056,1.37442 c 0,0 0.83708,2.5707 1.51227,2.58183 0.67522,0.0111 0.0705,-3.49912 0.0705,-3.49912 z"
       id="path6677-3"
       inkscape:connector-curvature="0"
       sodipodi:nodetypes="ccscc"
       inkscape:transform-center-x="-1.0222768"
       inkscape:transform-center-y="5.998598" />
    <path
       style="fill:#ffffff;fill-opacity:1;stroke:#000000;stroke-width:0.60000002;stroke-linecap:butt;stroke-linejoin:miter;stroke-miterlimit:4;stroke-opacity:1;stroke-dasharray:none;display:inline"
       d="m 38.33887,83.78918 -0.14057,1.44823 c 0,0 1.81027,2.16326 2.47215,2.00051 0.66189,-0.16272 -1.28576,-3.25456 -1.28576,-3.25456 z"
       id="path6679-3"
       inkscape:connector-curvature="0"
       sodipodi:nodetypes="ccscc"
       inkscape:transform-center-x="3.8175406"
       inkscape:transform-center-y="5.7043595" />
    <path
       style="fill:#ffffff;fill-opacity:1;stroke:#000000;stroke-width:0.60000002;stroke-linecap:butt;stroke-linejoin:miter;stroke-miterlimit:4;stroke-opacity:1;stroke-dasharray:none;display:inline"
       d="m 40.51693,81.63295 0.45079,1.36827 c 0,0 2.63295,1.50159 3.20903,1.17443 0.57607,-0.32717 -2.56662,-2.64501 -2.56662,-2.64501 z"
       id="path6681-03"
       inkscape:connector-curvature="0"
       sodipodi:nodetypes="ccscc"
       inkscape:transform-center-x="8.5016123"
       inkscape:transform-center-y="-0.24507874" />
    <path
       style="fill:#ffffff;fill-opacity:1;stroke:#000000;stroke-width:0.60000002;stroke-linecap:butt;stroke-linejoin:miter;stroke-miterlimit:4;stroke-opacity:1;stroke-dasharray:none;display:inline"
       d="m 39.50611,83.22655 0.43274,1.37315 c 0,0 2.61128,1.52524 3.19108,1.20276 0.57978,-0.3225 -2.53024,-2.66897 -2.53024,-2.66897 z"
       id="path6683-2"
       inkscape:connector-curvature="0"
       sodipodi:nodetypes="ccscc"
       inkscape:transform-center-x="6.9689787"
       inkscape:transform-center-y="3.1225187" />
    <path
       style="fill:#e58f56;fill-opacity:1;stroke:#000000;stroke-width:1.20000005;stroke-linecap:butt;stroke-linejoin:miter;stroke-miterlimit:4;stroke-opacity:1;stroke-dasharray:none;display:inline"
       d="m 37.74443,85.77168 c 2.82228,0.59607 6.42763,-3.98174 0.50556,-8.31247 -0.4967,-5.41948 1.89696,-9.50452 -5.69679,-12.10421 -5.80165,-0.81898 -5.22228,9.67681 -5.22228,9.67681 0.9081,4.57131 5.17172,9.40027 10.41351,10.73987 z"
       id="path6685-60"
       inkscape:connector-curvature="0"
       sodipodi:nodetypes="ccccc" />
    <path
       style="fill:#ffff00;fill-opacity:1;stroke:#000000;stroke-width:1.17610002;stroke-linecap:butt;stroke-linejoin:miter;stroke-miterlimit:4;stroke-opacity:1;stroke-dasharray:none;display:inline"
       d="m 38.11696,37.723892 c 0,0 6.42845,-1.227367 6.21114,0.961419 -0.21719,2.188796 -1.95802,8.079229 -4.08985,6.062773 -2.13182,-2.016434 -3.39292,-5.04148 -2.12129,-7.024192 z"
       id="path7926-7-0-7-9-7-3-2"
       inkscape:connector-curvature="0" />
    <path
       style="fill:#ffff00;fill-opacity:1;stroke:#000000;stroke-width:1.17610002;stroke-linecap:butt;stroke-linejoin:miter;stroke-miterlimit:4;stroke-opacity:1;stroke-dasharray:none;display:inline"
       d="m 36.27878,37.585241 c 0,0 -3.70239,-5.396685 -5.08867,-3.688977 -1.38623,1.707718 -4.2959,7.117072 -1.36228,7.185275 2.9336,0.06821 5.95863,-1.192885 6.45095,-3.496298 z"
       id="path7926-1-1-2-9-3-1"
       inkscape:connector-curvature="0" />
    <path
       sodipodi:type="arc"
       style="fill:#ffff00;fill-opacity:1;stroke:#000000;stroke-width:1.39561534;stroke-miterlimit:4;stroke-opacity:1;stroke-dasharray:none;display:inline"
       id="path7928-2-2-0-2-3-2"
       sodipodi:cx="312.75"
       sodipodi:cy="36.969482"
       sodipodi:rx="2.75"
       sodipodi:ry="2.875"
       d="m 315.5,36.969482 c 0,1.587819 -1.23122,2.875 -2.75,2.875 -1.51878,0 -2.75,-1.287181 -2.75,-2.875 0,-1.587818 1.23122,-2.875 2.75,-2.875 1.51878,0 2.75,1.287182 2.75,2.875 z"
       transform="matrix(0.77929663,0.3207151,-0.3207151,0.77929663,-195.44608,-90.216527)" />
    <path
       style="fill:#000000;fill-opacity:1;stroke:#000000;stroke-width:0.10479242px;stroke-linecap:butt;stroke-linejoin:miter;stroke-opacity:1"
       d="m 55.384597,51.448008 c 0.0246,3.645173 2.49871,6.400586 4.4523,6.463481 0.915881,-2.426655 2.398324,-4.595818 0.565976,-7.227347 -1.380378,-1.061867 -3.53989,-0.158501 -5.018276,0.763866 z"
       id="path3015"
       inkscape:connector-curvature="0"
       sodipodi:nodetypes="cccc" />
  </g>
</svg>
