<?xml version="1.0" encoding="UTF-8" standalone="no"?>
<!-- Created with Inkscape (http://www.inkscape.org/) -->

<svg
   xmlns:dc="http://purl.org/dc/elements/1.1/"
   xmlns:cc="http://creativecommons.org/ns#"
   xmlns:rdf="http://www.w3.org/1999/02/22-rdf-syntax-ns#"
   xmlns:svg="http://www.w3.org/2000/svg"
   xmlns="http://www.w3.org/2000/svg"
   xmlns:sodipodi="http://sodipodi.sourceforge.net/DTD/sodipodi-0.dtd"
   xmlns:inkscape="http://www.inkscape.org/namespaces/inkscape"
   width="69.05896"
   height="86.106224"
   id="svg3470"
   version="1.1"
   inkscape:version="0.48.4 r9939"
   sodipodi:docname="beaver_3.svg">
  <defs
     id="defs3472" />
  <sodipodi:namedview
     id="base"
     pagecolor="#ffffff"
     bordercolor="#666666"
     borderopacity="1.0"
     inkscape:pageopacity="0.0"
     inkscape:pageshadow="2"
     inkscape:zoom="8.1267174"
     inkscape:cx="73.567253"
     inkscape:cy="63.176441"
     inkscape:document-units="px"
     inkscape:current-layer="layer1"
     showgrid="false"
     inkscape:snap-page="true"
     inkscape:window-width="1366"
     inkscape:window-height="705"
     inkscape:window-x="-8"
     inkscape:window-y="-8"
     inkscape:window-maximized="1"
     fit-margin-top="0"
     fit-margin-left="0"
     fit-margin-right="0"
     fit-margin-bottom="0" />
  <metadata
     id="metadata3475">
    <rdf:RDF>
      <cc:Work
         rdf:about="">
        <dc:format>image/svg+xml</dc:format>
        <dc:type
           rdf:resource="http://purl.org/dc/dcmitype/StillImage" />
        <dc:title />
      </cc:Work>
    </rdf:RDF>
  </metadata>
  <g
     inkscape:label="Layer 1"
     inkscape:groupmode="layer"
     id="layer1"
     transform="translate(-4.3574822,-18.552343)">
    <path
       style="fill:#ffffff;fill-opacity:1;stroke:#000000;stroke-width:0.60000002;stroke-linecap:butt;stroke-linejoin:miter;stroke-miterlimit:4;stroke-opacity:1;stroke-dasharray:none;display:inline"
       d="m 64.54939,77.055342 -0.6111,1.64825 c 0,0 1.27496,2.81447 2.04331,2.74197 0.76837,-0.0725 -0.36115,-3.98347 -0.36115,-3.98347 z"
       id="path6635-1"
       inkscape:connector-curvature="0"
       sodipodi:nodetypes="ccscc"
       inkscape:transform-center-x="-1.1683109"
       inkscape:transform-center-y="6.8555434" />
    <path
       style="fill:#ffffff;fill-opacity:1;stroke:#000000;stroke-width:0.60000002;stroke-linecap:butt;stroke-linejoin:miter;stroke-miterlimit:4;stroke-opacity:1;stroke-dasharray:none;display:inline"
       d="m 66.37061,77.331932 0.023,1.66274 c 0,0 2.329,2.22895 3.06031,1.96064 0.7313,-0.26829 -1.87083,-3.53468 -1.87083,-3.53468 z"
       id="path6637-85"
       inkscape:connector-curvature="0"
       sodipodi:nodetypes="ccscc"
       inkscape:transform-center-x="4.3629028"
       inkscape:transform-center-y="6.5192691" />
    <path
       style="fill:#ffffff;fill-opacity:1;stroke:#000000;stroke-width:0.60000002;stroke-linecap:butt;stroke-linejoin:miter;stroke-miterlimit:4;stroke-opacity:1;stroke-dasharray:none;display:inline"
       d="m 68.57274,74.608082 0.68457,1.49735 c 0,0 3.18005,1.37364 3.79316,0.9294 0.61309,-0.44426 -3.24888,-2.68079 -3.24888,-2.68079 z"
       id="path6639-8"
       inkscape:connector-curvature="0"
       sodipodi:nodetypes="ccscc"
       inkscape:transform-center-x="9.7161307"
       inkscape:transform-center-y="-0.28009144" />
    <path
       style="fill:#ffffff;fill-opacity:1;stroke:#000000;stroke-width:0.60000002;stroke-linecap:butt;stroke-linejoin:miter;stroke-miterlimit:4;stroke-opacity:1;stroke-dasharray:none;display:inline"
       d="m 67.62552,76.545672 0.66466,1.50518 c 0,0 3.15842,1.40323 3.77635,0.96383 0.61789,-0.43942 -3.21058,-2.71259 -3.21058,-2.71259 z"
       id="path6641-1"
       inkscape:connector-curvature="0"
       sodipodi:nodetypes="ccscc"
       inkscape:transform-center-x="7.9645454"
       inkscape:transform-center-y="3.568594" />
    <path
       style="fill:#e58f56;fill-opacity:1;stroke:#000000;stroke-width:1;stroke-linecap:butt;stroke-linejoin:miter;stroke-miterlimit:4;stroke-opacity:1;stroke-dasharray:none;display:inline"
       d="m 65.94537,79.658772 c 3.28092,0.3212 6.79896,-5.33324 -0.47385,-9.50573 -1.24753,-6.09325 0.95632,-11.03517 -7.99706,-13.03064 -6.69325,-0.19874 -4.71177,11.65017 -4.71177,11.65017 1.60788,5.07796 7.05972,10.02549 13.18268,10.8862 z"
       id="path6643-37"
       inkscape:connector-curvature="0"
       sodipodi:nodetypes="ccccc" />
    <path
       sodipodi:nodetypes="ccsssc"
       inkscape:connector-curvature="0"
       id="path6645-0"
       d="m 53.14327,74.781092 c 0,0 12.41854,5.08067 7.79332,15.56789 0,0 6.5009,1.11479 7.0591,5.36493 0.802,6.106598 -7.8588,5.104668 -14.44172,4.24369 -4.97622,-0.65083 -2.56235,-7.56343 -3.94437,-9.21322 -4.03327,-4.81478 -3.62928,-15.85923 3.53367,-15.96329 z"
       style="fill:#e58f56;fill-opacity:1;stroke:#000000;stroke-width:1.20000005;stroke-linecap:butt;stroke-linejoin:miter;stroke-miterlimit:4;stroke-opacity:1;stroke-dasharray:none;display:inline" />
    <path
       style="fill:#e58f56;fill-opacity:1;stroke:#000000;stroke-width:1.20000005;stroke-linecap:butt;stroke-linejoin:miter;stroke-miterlimit:4;stroke-opacity:1;stroke-dasharray:none;display:inline"
       d="m 38.99228,95.247962 c 0,0 -50.65071,-28.554485 -28.37255,-51.375893 11.39224,-11.670037 26.89123,26.016763 26.79657,28.720233 -0.3903,11.14801 1.57598,22.65566 1.57598,22.65566 z"
       id="path6647-2"
       inkscape:connector-curvature="0"
       sodipodi:nodetypes="cssc" />
    <path
       sodipodi:nodetypes="ccccc"
       inkscape:connector-curvature="0"
       id="path6649-3"
       d="m 39.15632,54.162912 c 0,0 -9.39582,9.04012 -5.93807,27.23236 1.1356,3.247 7.14408,15.11679 14.17029,9.55413 23.36904,-0.0338 17.17495,-31.79156 9.73203,-37.43333 -13.59694,-22.8616 -17.96425,0.64684 -17.96425,0.64684 z"
       style="fill:#e58f56;fill-opacity:1;stroke:#000000;stroke-width:1.20000005;stroke-linecap:butt;stroke-linejoin:miter;stroke-miterlimit:4;stroke-opacity:1;stroke-dasharray:none;display:inline" />
    <path
       sodipodi:nodetypes="ccsssc"
       inkscape:connector-curvature="0"
       id="path6687-2"
       d="m 50.88334,87.618792 c 0,0 1.78522,1.39018 -1.29291,5.38953 0,0 8.00805,3.54083 6.43721,8.015128 -1.58241,4.50734 -8.61288,3.87662 -19.3777,-1.109618 -4.96364,-2.29912 -4.28656,-7.10921 -1.98991,-9.57949 1.75781,-1.89071 -1.07906,-5.19831 -1.53223,-10.1784"
       style="fill:#e58f56;fill-opacity:1;stroke:#000000;stroke-width:1.20000005;stroke-linecap:round;stroke-linejoin:round;stroke-miterlimit:4;stroke-opacity:1;stroke-dasharray:none;display:inline" />
    <path
       style="fill:#ffad76;fill-opacity:1;stroke:none;display:inline"
       d="m 41.81369,49.230112 c 0,0 0.15227,28.38475 5.79581,34.52548 3.18742,3.46824 9.74231,2.09812 11.47947,1.26838 3.14386,-1.50168 3.4337,-6.61186 3.4337,-6.61186 0,0 4.37136,-13.32061 -8.23794,-30.538 -14.38314,-19.639477 -12.47104,1.356 -12.47104,1.356 z"
       id="path6651-93"
       inkscape:connector-curvature="0"
       sodipodi:nodetypes="csscsc" />
    <path
       style="fill:#e58f56;fill-opacity:1;stroke:#000000;stroke-width:1.20000005;stroke-linecap:round;stroke-linejoin:round;stroke-miterlimit:4;stroke-opacity:1;stroke-dasharray:none;display:inline"
       d="m 55.21917,27.832471 c 0,0 1.1923,-12.194224 -4.5594,-7.448962 -1.63432,1.348326 1.12811,7.203338 1.12811,7.203338 z"
       id="path6653-8"
       inkscape:connector-curvature="0"
       sodipodi:nodetypes="cscc" />
    <path
       style="fill:#e58f56;fill-opacity:1;stroke:#000000;stroke-width:1.20000005;stroke-linecap:round;stroke-linejoin:round;stroke-miterlimit:4;stroke-opacity:1;stroke-dasharray:none;display:inline"
       d="m 63.54409,42.220669 c 0,0 2.68046,-17.079495 -15.14254,-16.822746 -9.07606,0.130735 -15.89288,4.565865 -15.51984,15.806978 0,0 -7.48856,13.171611 8.36562,19.168371 0,0 9.09662,2.39548 18.76094,-0.38913 0,0 15.00192,-5.3264 3.53582,-17.763473 z"
       id="path6655-3"
       inkscape:connector-curvature="0"
       sodipodi:nodetypes="cscccc" />
    <path
       style="fill:#000000;stroke:#000000;stroke-width:1.20000005;stroke-linecap:round;stroke-linejoin:round;stroke-miterlimit:4;stroke-opacity:1;stroke-dasharray:none;display:inline"
       d="m 56.80438,35.366151 c 0,0 -1.73327,-0.895835 -1.85353,1.630118 -0.0801,1.677495 0.0987,2.830664 1.70008,2.75972 1.58674,-0.07025 1.24672,-2.519747 1.24672,-2.519747 0,0 -0.18664,-1.870091 -1.09327,-1.870091 z"
       id="path6657-8"
       inkscape:connector-curvature="0"
       sodipodi:nodetypes="csscc" />
    <path
       sodipodi:nodetypes="cc"
       inkscape:connector-curvature="0"
       id="path6659-7"
       d="m 67.28877,49.704082 c 0,0 -8.64209,10.54273 -15.79629,-1.74119"
       style="fill:#ffad76;fill-opacity:1;stroke:#000000;stroke-width:1.20000005;stroke-linecap:round;stroke-linejoin:round;stroke-miterlimit:4;stroke-opacity:1;stroke-dasharray:none;display:inline" />
    <path
       style="fill:#ffad76;fill-opacity:1;stroke:none;display:inline"
       d="m 52.22901,48.110982 c 0,0 -2.28369,-7.228801 6.8972,-6.279057 0,0 5.91944,1.474632 7.00659,4.314827 1.90121,4.96722 2.37435,3.8117 2.37435,3.8117"
       id="path6661-0"
       inkscape:connector-curvature="0"
       sodipodi:nodetypes="ccsc" />
    <path
       style="fill:none;stroke:#000000;stroke-width:1.20000005;stroke-linecap:round;stroke-linejoin:round;stroke-miterlimit:4;stroke-opacity:1;stroke-dasharray:none;display:inline"
       d="m 56.92941,44.736972 c 0,0 -9.17103,-4.505663 -18.03843,-6.357475"
       id="path6663-86"
       inkscape:connector-curvature="0" />
    <path
       style="fill:none;stroke:#000000;stroke-width:1.20000005;stroke-linecap:round;stroke-linejoin:round;stroke-miterlimit:4;stroke-opacity:1;stroke-dasharray:none;display:inline"
       d="m 56.5983,46.617162 c 0,0 -17.59353,-1.3156 -18.18551,-1.01648"
       id="path6665-3"
       inkscape:connector-curvature="0" />
    <path
       style="fill:none;stroke:#000000;stroke-width:1.20000005;stroke-linecap:round;stroke-linejoin:round;stroke-miterlimit:4;stroke-opacity:1;stroke-dasharray:none;display:inline"
       d="m 56.40014,48.998352 -17.11598,4.01083"
       id="path6667-5"
       inkscape:connector-curvature="0" />
    <path
       style="fill:#e58f56;fill-opacity:1;stroke:#000000;stroke-width:1.20000005;stroke-linecap:round;stroke-linejoin:round;stroke-miterlimit:4;stroke-opacity:1;stroke-dasharray:none;display:inline"
       d="m 49.46829,26.07791 c 0,0 -2.57365,-10.924016 -7.54481,-5.332572 -1.41252,1.588767 2.26097,6.065344 2.26097,6.065344"
       id="path6673-38"
       inkscape:connector-curvature="0"
       sodipodi:nodetypes="csc" />
    <path
       style="fill:#ffffff;fill-opacity:1;stroke:#000000;stroke-width:0.60000002;stroke-linecap:butt;stroke-linejoin:miter;stroke-miterlimit:4;stroke-opacity:1;stroke-dasharray:none;display:inline"
       d="m 42.05919,79.293292 -0.78921,1.57077 c 0,0 0.95667,2.93794 1.72831,2.95066 0.77168,0.0127 0.0805,-3.999 0.0805,-3.999 z"
       id="path6677-47"
       inkscape:connector-curvature="0"
       sodipodi:nodetypes="ccscc"
       inkscape:transform-center-x="-1.1683111"
       inkscape:transform-center-y="6.855542" />
    <path
       style="fill:#ffffff;fill-opacity:1;stroke:#000000;stroke-width:0.60000002;stroke-linecap:butt;stroke-linejoin:miter;stroke-miterlimit:4;stroke-opacity:1;stroke-dasharray:none;display:inline"
       d="m 43.83877,79.769112 -0.16064,1.65513 c 0,0 2.06887,2.47229 2.82531,2.2863 0.75644,-0.18597 -1.46944,-3.7195 -1.46944,-3.7195 z"
       id="path6679-72"
       inkscape:connector-curvature="0"
       sodipodi:nodetypes="ccscc"
       inkscape:transform-center-x="4.3629009"
       inkscape:transform-center-y="6.519266" />
    <path
       style="fill:#ffffff;fill-opacity:1;stroke:#000000;stroke-width:0.60000002;stroke-linecap:butt;stroke-linejoin:miter;stroke-miterlimit:4;stroke-opacity:1;stroke-dasharray:none;display:inline"
       d="m 46.32798,77.304862 0.51519,1.56373 c 0,0 3.00909,1.7161 3.66747,1.34221 0.65836,-0.37391 -2.93329,-3.02287 -2.93329,-3.02287 z"
       id="path6681-6"
       inkscape:connector-curvature="0"
       sodipodi:nodetypes="ccscc"
       inkscape:transform-center-x="9.7161288"
       inkscape:transform-center-y="-0.28008953" />
    <path
       style="fill:#ffffff;fill-opacity:1;stroke:#000000;stroke-width:0.60000002;stroke-linecap:butt;stroke-linejoin:miter;stroke-miterlimit:4;stroke-opacity:1;stroke-dasharray:none;display:inline"
       d="m 45.17277,79.126112 0.49455,1.56932 c 0,0 2.98432,1.74312 3.64695,1.37458 0.6626,-0.36857 -2.8917,-3.05025 -2.8917,-3.05025 z"
       id="path6683-1"
       inkscape:connector-curvature="0"
       sodipodi:nodetypes="ccscc"
       inkscape:transform-center-x="7.9645453"
       inkscape:transform-center-y="3.5685933" />
    <path
       style="fill:#e58f56;fill-opacity:1;stroke:#000000;stroke-width:1.20000005;stroke-linecap:butt;stroke-linejoin:miter;stroke-miterlimit:4;stroke-opacity:1;stroke-dasharray:none;display:inline"
       d="m 43.15941,82.034832 c 3.22547,0.68123 7.34586,-4.55056 0.57779,-9.49996 -0.56767,-6.1937 2.16795,-10.86232 -6.51062,-13.83339 -6.63046,-0.93598 -5.96832,11.05922 -5.96832,11.05922 1.03783,5.22435 5.91054,10.74316 11.90115,12.27413 z"
       id="path6685-3"
       inkscape:connector-curvature="0"
       sodipodi:nodetypes="ccccc" />
    <path
       style="fill:#000000;fill-opacity:1;stroke:#000000;stroke-width:0.10479242px;stroke-linecap:butt;stroke-linejoin:miter;stroke-opacity:1"
       d="m 63.653683,43.519066 c 0.0246,3.645173 2.49871,6.400586 4.4523,6.463481 0.91588,-2.426655 2.39832,-4.595818 0.56597,-7.227347 -1.38038,-1.061867 -3.53989,-0.158501 -5.01827,0.763866 z"
       id="path3015"
       inkscape:connector-curvature="0"
       sodipodi:nodetypes="cccc" />
  </g>
</svg>
