<?xml version="1.0" encoding="UTF-8" standalone="no"?>
<!-- Created with Inkscape (http://www.inkscape.org/) -->

<svg
   xmlns:dc="http://purl.org/dc/elements/1.1/"
   xmlns:cc="http://creativecommons.org/ns#"
   xmlns:rdf="http://www.w3.org/1999/02/22-rdf-syntax-ns#"
   xmlns:svg="http://www.w3.org/2000/svg"
   xmlns="http://www.w3.org/2000/svg"
   xmlns:sodipodi="http://sodipodi.sourceforge.net/DTD/sodipodi-0.dtd"
   xmlns:inkscape="http://www.inkscape.org/namespaces/inkscape"
   width="85.188156"
   height="107.62811"
   id="svg3470"
   version="1.1"
   inkscape:version="0.48.4 r9939"
   sodipodi:docname="beaver_1.svg">
  <defs
     id="defs3472" />
  <sodipodi:namedview
     id="base"
     pagecolor="#ffffff"
     bordercolor="#666666"
     borderopacity="1.0"
     inkscape:pageopacity="0.0"
     inkscape:pageshadow="2"
     inkscape:zoom="5.12"
     inkscape:cx="92.056"
     inkscape:cy="54.509669"
     inkscape:document-units="px"
     inkscape:current-layer="layer1"
     showgrid="false"
     inkscape:snap-page="true"
     inkscape:window-width="1366"
     inkscape:window-height="705"
     inkscape:window-x="-8"
     inkscape:window-y="-8"
     inkscape:window-maximized="1"
     fit-margin-top="0"
     fit-margin-left="0"
     fit-margin-right="0"
     fit-margin-bottom="0" />
  <metadata
     id="metadata3475">
    <rdf:RDF>
      <cc:Work
         rdf:about="">
        <dc:format>image/svg+xml</dc:format>
        <dc:type
           rdf:resource="http://purl.org/dc/dcmitype/StillImage" />
        <dc:title />
      </cc:Work>
    </rdf:RDF>
  </metadata>
  <g
     inkscape:label="Layer 1"
     inkscape:groupmode="layer"
     id="layer1"
     transform="translate(-2.1014418,-2.6536698)">
    <path
       style="fill:#e58f56;fill-opacity:1;stroke:#000000;stroke-width:1.274;stroke-linecap:butt;stroke-linejoin:miter;stroke-opacity:1;stroke-miterlimit:4;stroke-dasharray:none"
       d="m 39.802705,89.827369 c 0,0 -50.029927,-37.771307 -24.23324,-62.413833 25.79668,-24.6425265 35.959,63.154648 35.959,63.154648 z"
       id="path3011"
       inkscape:connector-curvature="0" />
    <path
       style="fill:#e58f56;fill-opacity:1;stroke:#000000;stroke-width:1.24905515;stroke-linecap:butt;stroke-linejoin:miter;stroke-miterlimit:4;stroke-opacity:1;stroke-dasharray:none;display:inline"
       d="m 77.865658,79.034363 c 4.10115,0.40151 8.4987,-6.66654 -0.59231,-11.88215 -1.55941,-7.61657 1.1954,-13.79398 -9.99632,-16.2883 -8.366566,-0.24844 -5.889696,14.56271 -5.889696,14.56271 2.00985,6.34745 8.824636,12.53186 16.478326,13.60774 z"
       id="path6643"
       inkscape:connector-curvature="0"
       sodipodi:nodetypes="ccccc" />
    <path
       sodipodi:nodetypes="ccsssc"
       inkscape:connector-curvature="0"
       id="path6645"
       d="m 61.863042,72.937263 c 0,0 15.523176,6.35084 9.741656,19.45986 0,0 8.12612,1.39349 8.82386,6.70617 1.00251,7.633257 -9.8235,6.380837 -18.052136,5.304617 -6.22028,-0.81354 -3.20294,-9.454297 -4.93046,-11.516537 -5.04159,-6.01847 -4.5366,-19.82403 4.41708,-19.95411 z"
       style="fill:#e58f56;fill-opacity:1;stroke:#000000;stroke-width:1.49532354;stroke-linecap:butt;stroke-linejoin:miter;stroke-miterlimit:4;stroke-opacity:1;stroke-dasharray:none;display:inline" />
    <path
       sodipodi:nodetypes="ccccc"
       inkscape:connector-curvature="0"
       id="path6649"
       d="m 44.379352,47.164553 c 0,0 -11.74477,11.30014 -7.42258,34.04045 1.41949,4.05875 8.93009,18.895967 17.71287,11.94265 29.211286,-0.0422 21.468676,-39.73944 12.165026,-46.79165 -16.996166,-28.57701 -22.455316,0.80855 -22.455316,0.80855 z"
       style="fill:#e58f56;fill-opacity:1;stroke:#000000;stroke-width:1.49532354;stroke-linecap:butt;stroke-linejoin:miter;stroke-miterlimit:4;stroke-opacity:1;stroke-dasharray:none;display:inline" />
    <path
       sodipodi:nodetypes="ccsssc"
       inkscape:connector-curvature="0"
       id="path6687"
       d="m 59.038142,88.984393 c 0,0 2.23152,1.73773 -1.61615,6.73692 0,0 10.010056,4.426027 8.046516,10.018907 -1.978016,5.63418 -10.766096,4.84577 -24.222126,-1.38702 -6.20455,-2.87392 -5.3582,-8.886517 -2.48738,-11.974377 2.19726,-2.36337 -1.34883,-6.49788 -1.9153,-12.72299"
       style="fill:#e58f56;fill-opacity:1;stroke:#000000;stroke-width:1.49532354;stroke-linecap:round;stroke-linejoin:round;stroke-miterlimit:4;stroke-opacity:1;stroke-dasharray:none;display:inline" />
    <path
       style="fill:#ffad76;fill-opacity:1;stroke:none;display:inline"
       d="m 47.701082,40.998543 c 0,0 0.19032,35.48093 7.24475,43.15685 3.98428,4.33529 12.177896,2.62265 14.349336,1.58547 3.92983,-1.87709 4.29213,-8.26482 4.29213,-8.26482 0,0 5.4642,-16.65076 -10.297436,-38.17251 -17.97892,-24.54933 -15.58878,1.69501 -15.58878,1.69501 z"
       id="path6651"
       inkscape:connector-curvature="0"
       sodipodi:nodetypes="csscsc" />
    <path
       style="fill:#e58f56;fill-opacity:1;stroke:#000000;stroke-width:1.38029885;stroke-linecap:round;stroke-linejoin:round;stroke-miterlimit:4;stroke-opacity:1;stroke-dasharray:none;display:inline"
       d="m 64.457918,14.251493 c 0,0 1.49038,-15.24277988 -5.699256,-9.3111999 -2.04289,1.68541 1.41015,9.0041699 1.41015,9.0041699 z"
       id="path6653"
       inkscape:connector-curvature="0"
       sodipodi:nodetypes="cscc" />
    <path
       style="fill:#e58f56;fill-opacity:1;stroke:#000000;stroke-width:1.49532354;stroke-linecap:round;stroke-linejoin:round;stroke-miterlimit:4;stroke-opacity:1;stroke-dasharray:none;display:inline"
       d="m 74.864058,32.236743 c 0,0 3.35058,-21.34937 -18.928156,-21.02843 -11.34507,0.16341 -19.8661,5.70733 -19.39981,19.75872 0,0 -9.3607,16.46451 10.45703,23.96047 0,0 11.37078,2.99434 23.451176,-0.48642 0,0 18.75239,-6.658 4.41976,-22.20434 z"
       id="path6655"
       inkscape:connector-curvature="0"
       sodipodi:nodetypes="cscccc" />
    <path
       style="fill:#000000;stroke:#000000;stroke-width:1.150249;stroke-linecap:round;stroke-linejoin:round;stroke-miterlimit:4;stroke-opacity:1;stroke-dasharray:none;display:inline"
       d="m 66.439438,23.668593 c 0,0 -2.1666,-1.11979 -2.31693,2.03765 -0.100066,2.09687 0.12335,3.53833 2.1251,3.44965 1.98343,-0.0878 1.55841,-3.14969 1.55841,-3.14969 0,0 -0.23331,-2.33761 -1.36658,-2.33761 z"
       id="path6657"
       inkscape:connector-curvature="0"
       sodipodi:nodetypes="csscc" />
    <path
       sodipodi:nodetypes="cc"
       inkscape:connector-curvature="0"
       id="path6659"
       d="m 79.544908,41.591013 c 0,0 -10.8026,13.1784 -19.745346,-2.17649"
       style="fill:#ffad76;fill-opacity:1;stroke:#000000;stroke-width:1.26527393;stroke-linecap:round;stroke-linejoin:round;stroke-miterlimit:4;stroke-opacity:1;stroke-dasharray:none;display:inline" />
    <path
       style="fill:#ffad76;fill-opacity:1;stroke:none;display:inline"
       d="m 60.720212,39.599633 c 0,0 -2.85461,-9.036 8.621506,-7.84882 0,0 7.39929,1.84329 8.75823,5.39353 2.37652,6.20903 2.96795,4.76463 2.96795,4.76463"
       id="path6661"
       inkscape:connector-curvature="0"
       sodipodi:nodetypes="ccsc" />
    <path
       style="fill:none;stroke:#000000;stroke-width:1.38029885;stroke-linecap:round;stroke-linejoin:round;stroke-miterlimit:4;stroke-opacity:1;stroke-dasharray:none;display:inline"
       d="m 66.595728,35.382123 c 0,0 -11.463796,-5.63208 -22.548036,-7.94685"
       id="path6663"
       inkscape:connector-curvature="0" />
    <path
       style="fill:none;stroke:#000000;stroke-width:1.38029885;stroke-linecap:round;stroke-linejoin:round;stroke-miterlimit:4;stroke-opacity:1;stroke-dasharray:none;display:inline"
       d="m 66.181838,37.732363 c 0,0 -21.991906,-1.6445 -22.731896,-1.2706"
       id="path6665"
       inkscape:connector-curvature="0" />
    <path
       style="fill:none;stroke:#000000;stroke-width:1.38029885;stroke-linecap:round;stroke-linejoin:round;stroke-miterlimit:4;stroke-opacity:1;stroke-dasharray:none;display:inline"
       d="m 65.934128,40.708853 -21.394976,5.01353"
       id="path6667"
       inkscape:connector-curvature="0" />
    <path
       style="fill:#e58f56;fill-opacity:1;stroke:#000000;stroke-width:1.49532354;stroke-linecap:round;stroke-linejoin:round;stroke-miterlimit:4;stroke-opacity:1;stroke-dasharray:none;display:inline"
       d="m 57.269332,12.058293 c 0,0 -3.21707,-13.6550199 -9.43103,-6.6657199 -1.76565,1.98596 2.82623,7.5816799 2.82623,7.5816799"
       id="path6673"
       inkscape:connector-curvature="0"
       sodipodi:nodetypes="csc" />
    <path
       style="fill:#e58f56;fill-opacity:1;stroke:#000000;stroke-width:1.30853415;stroke-linecap:butt;stroke-linejoin:miter;stroke-miterlimit:4;stroke-opacity:1;stroke-dasharray:none;display:inline"
       d="m 49.383222,82.004453 c 4.03183,0.85152 9.18232,-5.68822 0.72223,-11.87497 -0.70958,-7.74212 2.70995,-13.57788 -8.13826,-17.29172 -8.28809,-1.16998 -7.46041,13.82402 -7.46041,13.82402 1.29729,6.53044 7.38817,13.42895 14.87644,15.34267 z"
       id="path6685"
       inkscape:connector-curvature="0"
       sodipodi:nodetypes="ccccc" />
    <path
       style="fill:#000000;fill-opacity:1;stroke:#000000;stroke-width:0.13137531px;stroke-linecap:butt;stroke-linejoin:miter;stroke-opacity:1"
       d="m 75.027094,34.116773 c 0.03109,4.532351 3.15848,7.958389 5.627904,8.036592 1.157714,-3.017266 3.031588,-5.714369 0.715419,-8.986372 -1.744859,-1.320309 -4.474577,-0.197078 -6.343323,0.94978 z"
       id="path3015"
       inkscape:connector-curvature="0"
       sodipodi:nodetypes="cccc" />
  </g>
</svg>
